<?xml version="1.0" encoding="UTF-8"?>
<svg width="640px" height="124px" viewBox="0 0 640 124" version="1.1" xmlns="http://www.w3.org/2000/svg" xmlns:xlink="http://www.w3.org/1999/xlink">
    <!-- Generator: Sketch 52.6 (67491) - http://www.bohemiancoding.com/sketch -->
    <title>Group</title>
    <desc>Created with Sketch.</desc>
    <g id="Page-1" stroke="none" stroke-width="1" fill="none" fill-rule="evenodd">
        <g id="002---Logo" transform="translate(-400.000000, -322.000000)" fill-rule="nonzero">
            <g id="Group" transform="translate(400.000000, 322.000000)">
                <rect id="Shape" fill="#313642" x="624" y="0" width="16" height="104" rx="8"></rect>
                <path d="M600,24 C595.581722,24 592,27.581722 592,32 L592,96 C592,100.418278 595.581722,104 600,104 C604.418278,104 608,100.418278 608,96 L608,32 C608,27.581722 604.418278,24 600,24 Z" id="Shape" fill="#313642"></path>
                <path d="M421.657,37.5716389 C423.187415,36.0411304 424.032375,33.9558239 423.999023,31.7916812 C423.96567,29.6275385 423.056851,27.5692601 421.48,26.0866389 C418.191188,23.1532204 413.174643,23.3335955 410.105,26.4956389 L396.721,39.8786389 C395.22062,41.3789418 394.377708,43.4138356 394.377708,45.5356389 C394.377708,47.6574423 395.22062,49.6923361 396.721,51.1926389 C398.221303,52.6930191 400.256197,53.5359304 402.378,53.5359304 C404.499803,53.5359304 406.534697,52.6930191 408.035,51.1926389 L421.657,37.5716389 Z" id="Shape" fill="#313642"></path>
                <path d="M410.382,101.276292 C411.912411,102.80715 413.99786,103.65249 416.162251,103.619325 C418.326642,103.58616 420.385211,102.677322 421.868,101.100292 C424.802603,97.8124508 424.622636,92.7954164 421.46,89.7262915 L408.075,76.3432915 C406.574697,74.8429113 404.539803,74 402.418,74 C400.296197,74 398.261303,74.8429113 396.761,76.3432915 C395.26062,77.8435944 394.417708,79.8784882 394.417708,82.0002915 C394.417708,84.1220949 395.26062,86.1569886 396.761,87.6572915 L410.382,101.276292 Z" id="Shape" fill="#313642"></path>
                <path d="M389.657,58.2560234 L384,52.5960234 L357.9,26.4960234 C354.830582,23.3334739 349.813624,23.1530839 346.525,26.0870234 C344.948149,27.5696446 344.03933,29.6279229 344.005977,31.7920656 C343.972625,33.9562083 344.817585,36.0415149 346.348,37.5720234 L372.69,63.9120234 L346.348,90.2520234 C344.84762,91.7523263 344.004708,93.7872201 344.004708,95.9090234 C344.004708,98.0308268 344.84762,100.065721 346.348,101.566023 C346.348,101.566023 351.742,106.839023 357.663,101.566023 L384,75.2270234 L389.657,69.5700234 C391.15738,68.0697205 392.000292,66.0348268 392.000292,63.9130234 C392.000292,61.7912201 391.15738,59.7563263 389.657,58.2560234 Z" id="Shape" fill="#313642"></path>
                <path d="M327.140664,91.319 C325.866313,87.707 322.912501,85.494 319.280502,86.342 C310.15461,88.2962098 300.845724,89.2684125 291.512866,89.242 C276.484733,89.242 269.252745,83.709 268.006402,74.242 C314.773263,73.651 332,68.88 332,49.254 C331.721924,33.398 319.92668,24 293.189327,24 C260.900448,24 252,34.708 252,63.193 C252,95.826 262.302833,104 293.623446,104 C303.606083,103.938878 313.526466,102.422932 323.071545,99.5 C324.719997,98.9874428 326.087184,97.8234194 326.855825,96.2780614 C327.624466,94.7327033 327.727734,92.9403689 327.141664,91.317 L327.140664,91.319 Z M292.988272,38.54 C308.066418,38.54 316.063617,42.22 316.063617,49.801 C316.063617,56.247 308.648578,58.551 282.134287,59.775 L268.004401,60.395 C268.003401,42.324 273.652955,38.54 292.988272,38.54 Z" id="Shape" fill="#313642"></path>
                <path d="M534.39712,24 C525.104817,24 512.998725,25.714 504.643352,28.5 C501.202547,29.7579386 499.327878,33.4699391 500.357673,36.986 C501.339524,40.4726612 504.917514,42.5447981 508.430068,41.661 C516.643452,39.744 527.392646,38.88 536.416969,38.88 C551.439842,38.88 558.749294,44.413 559.9982,53.88 C512.247781,50.463 496,59.12 496,78.746 C496.277979,94.602 508.089093,104 534.815089,104 C567.091668,104 576,93.292 576,64.807 C575.994,32.174 565.703772,24 534.39712,24 Z M534.811089,90 C519.750219,90 512.0008,85.422 512.0008,78.218 C512.0008,72.092 517.300402,68.406 540.631653,67.243 C547.102989,66.9680254 553.58595,67.2719004 560.0032,68.151 C559.9952,85.323 554.117641,90 534.80609,90 L534.811089,90 Z" id="Shape" fill="#313642"></path>
                <path d="M200,24 C168,24.267 160,35.087 160,63.264 C160,63.537 160.808,96.255 160.808,96.255 C160.919065,100.585134 164.47654,104.029215 168.808,104 L169.418,104 C171.571081,104.011221 173.636893,103.149854 175.144224,101.612377 C176.651555,100.074899 177.47185,97.9924365 177.418,95.84 L176.623,65.026 C176.651,63.026 176.623,60.861 176.623,60.861 C176.623,43.961 181.998,40.216 200,40.091 C218,40.216 223.381,43.965 223.381,60.871 C223.381,60.871 223.357,63.048 223.381,65.052 L222.587,95.84 C222.533431,97.9923562 223.353817,100.074656 224.861087,101.612071 C226.368357,103.149486 228.434005,104.010942 230.587,104 L231.198,104 C235.52989,104.030288 239.087994,100.585598 239.198,96.255 C239.198,96.255 239.998,63.534 239.998,63.261 C240,35.086 232,24.268 200,24 Z" id="Shape" fill="#313642"></path>
                <path d="M451.883499,23.9632831 L451.883499,7.96156868 C451.883499,3.56451571 448.327857,0 443.94175,0 C439.555642,0 436,3.56451571 436,7.96156868 L436,63.3810986 C436,95.236374 447.293625,103.924995 476.929789,104 C480.862405,103.885107 483.992979,100.659681 483.999988,96.7155839 C484.006998,92.7714868 480.887908,89.5348981 476.955726,89.4059576 C463.987161,89.1719409 456.350671,85.6966926 453.971438,78.9422102 C453.971438,78.9422102 453.331988,77.2270876 453.295078,77.0530752 C452.363572,71.4517827 451.947825,65.7764853 452.053088,60.0988642 L452.014183,38.227302 L476.828036,38.2173012 C480.72098,38.1710673 483.852594,34.9942259 483.852594,31.0912922 C483.852594,27.1883586 480.72098,24.0115171 476.828036,23.9652832 L451.883499,23.9632831 Z" id="Shape" fill="#313642"></path>
                <path d="M117.767,36.4580015 C115.70046,20.7002237 103.299778,8.29954139 87.542,6.23300148 C69.3013622,3.25566617 50.6986378,3.25566617 32.458,6.23300148 C16.7002222,8.29954139 4.29953991,20.7002237 2.233,36.4580015 C-0.744335305,54.6986393 -0.744335305,73.3013637 2.233,91.5420015 C4.29921028,107.299942 16.7000598,119.700791 32.458,121.767001 C50.6986378,124.744337 69.3013622,124.744337 87.542,121.767001 C103.300103,119.701121 115.701119,107.300104 117.767,91.5420015 C120.744335,73.3013637 120.744335,54.6986393 117.767,36.4580015 Z M56.848,79.4150015 C56.7946699,81.4204455 55.1461018,83.0143281 53.14,83.0000015 L52.856,83.0000015 C51.8587999,83.0057002 50.9017951,82.6073303 50.2031866,81.8957218 C49.504578,81.1841133 49.1239186,80.2199271 49.148,79.2230015 L49.517,64.9730015 C49.504,64.0460015 49.517,63.0380015 49.517,63.0380015 C49.517,55.2130015 47.023,53.4780015 38.677,53.4200015 C30.332,53.4780015 27.84,55.2090015 27.84,63.0330015 C27.84,63.0330015 27.853,64.0330015 27.84,64.9610015 L28.208,79.2240015 C28.2320874,80.2208363 27.8513976,81.184924 27.1527583,81.8963754 C26.454119,82.6078268 25.497108,83.0059718 24.5,83.0000015 L24.217,83.0000015 C22.2102959,83.015412 20.5608078,81.4210698 20.508,79.4150015 C20.508,79.4150015 20.134,64.2720015 20.134,64.1460015 C20.134,51.1040015 23.84,46.0960015 38.676,45.9720015 C53.513,46.0960015 57.221,51.1020015 57.221,64.1440015 C57.219,64.2710015 56.848,79.4150015 56.848,79.4150015 Z M84.383,66.9580015 L81.788,69.5650015 L69.708,81.7030015 C68.2684698,83.1356279 65.9401268,83.1300314 64.5075002,81.6905013 C63.0748737,80.2509711 63.08047,77.9226282 64.52,76.4900015 L76.6,64.3510015 L64.52,52.2130015 C63.8179918,51.5059636 63.430805,50.5456825 63.4460507,49.5494468 C63.4612963,48.5532111 63.8776857,47.6052273 64.601,46.9200015 C66.1067187,45.5681367 68.4125123,45.6512443 69.817,47.1080015 L81.788,59.1370015 L84.383,61.7440015 C85.8155903,63.1867893 85.8155903,65.5152136 84.383,66.9580015 Z M99.154,81.5580015 C98.4760352,82.2845285 97.5315395,82.7037839 96.5379408,82.7192528 C95.544342,82.7347218 94.5872528,82.3450715 93.887,81.6400015 L87.641,75.3620015 C86.2090715,73.9193309 86.2090715,71.5916721 87.641,70.1490015 C88.327205,69.4577105 89.2609566,69.0689168 90.235,69.0689168 C91.2090434,69.0689168 92.142795,69.4577105 92.829,70.1490015 L98.967,76.3160015 C100.418663,77.7332596 100.500985,80.0409061 99.154,81.5580015 Z M99.054,52.2130015 L92.81,58.4860015 C92.123795,59.1772925 91.1900434,59.5660861 90.216,59.5660861 C89.2419566,59.5660861 88.308205,59.1772925 87.622,58.4860015 C86.1900715,57.0433309 86.1900715,54.7156721 87.622,53.2730015 L93.76,47.1050015 C95.1644877,45.6482443 97.4702813,45.5651367 98.976,46.9170015 C99.7002469,47.6023258 100.117237,48.5509523 100.132486,49.547933 C100.147734,50.5449136 99.7599496,51.5058489 99.057,52.2130015 L99.054,52.2130015 Z" id="Shape" fill="#FF5C5C"></path>
            </g>
        </g>
    </g>
</svg>