<svg id="Capa_2" data-name="Capa 2" xmlns="http://www.w3.org/2000/svg" viewBox="0 0 257.91 141.92"><defs><style>.cls-1{fill:#f8991d;}</style></defs><title>logoOsoco15</title><path d="M87.49,28.67a1.53,1.53,0,0,0,.88.29c.42,0,.38-.52.38-.52s-.29-10.1-.29-5.68.35-5.75.35-5.75,2.74,13,4.1,14a3.57,3.57,0,0,0,2.49.7,7.68,7.68,0,0,1,1.1-1.37c.29-.14-1.26-3.48-1.9-5.31s-2.92-10.27-2.92-10.27-3.28-1.49-3.54-.86-.63,7-.73,8.69S87.49,28.67,87.49,28.67Z"/><path d="M95,10.54a4.09,4.09,0,0,1,1.36-.41s3.72-2.8,4.17-3.27-.07-.84.94-1.05,1.72,1,2.06,1.41,1.2,1.91.86,2.3a17.43,17.43,0,0,1-4.24,1.63,15.15,15.15,0,0,0-2.58,1.06,28.84,28.84,0,0,0,.27,4c.2.23,2.34-1.83,5.36-2.08s3.48,3.11,3.61,4.68-.43,8.06-3.81,8.34-2.67-2.88-2.34-3.27.61.68.61.68.41,1.36,1.2,1.29,1.65-3.48,1.18-6.23-2-3.12-3-3-1.81,5.32-1.45,5.29-.78.85-1.5.91-2.14-.12-2.33-2.35S93.91,11.88,95,10.54Z"/><path d="M124.06,10c-.13-2.1.35-4.86,0-5.17s-1.36-1.8-2.39-1.39-1.59,3.7-1.59,3.7-1.67,6.43-3.27,6.37-.32-7,1.22-9.69S118.54,0,116.93,0c-1.9.05-2.05.64-2.47,1a21.35,21.35,0,0,0-2.63,8.78c-.12,3.7.12,6.28,4.72,6.25,2.44,0,3.6-5.88,3.6-5.88l.27,4.85S117.07,18,117,20.32s1.52,2.78,2.1,2.8,5-1.43,5-4.66C124.06,16.12,124.18,12.13,124.06,10ZM118.81,21.5c-1.8-.06.58-4.18,1.73-4.94C120.54,16.56,120.61,21.56,118.81,21.5Z"/><path d="M123.72,12.74a13.16,13.16,0,0,1,7.94-2.86c4.38.15,6.08-4,5-4.07s-3.62,1.73-3.95,7.37c-.45,7.83,6.12.52,6.12.52h0s-1.3,5.83-6.71,5.65c-5.39-.37-5.44-15.63,4.31-15.71,3.73,0,1.79,4.48.14,5.94s-7.8,2-9.93,3a16.46,16.46,0,0,0-3.93,2.65Z"/><path d="M163.24,17.15c-2,.61-7.72,5.35-7.72,5.35a30.46,30.46,0,0,1,3.11-4.33c2-2.33,6.45-6.57,5.93-7a2.81,2.81,0,0,0-1.65-.4,12.13,12.13,0,0,1-3.41.23,1.42,1.42,0,0,1-.87-.63c1.27-2,2-3.56,1.6-4C159,5,156.49,6,156.28,8a6,6,0,0,0,.63,3.05,40.15,40.15,0,0,1-4,4.88c-2.51,2.41-4.27,4-5.24,3.78s4.73-9,4.84-9.3.63-1.58-.42-2.2-3.39,1-3.39,1A2.21,2.21,0,0,0,147,7.75c-2-.35-6.36,1-8.55,5.37s.7,6.38,1.89,6.42c1.78.05,4.28-4,5.5-6.19-1.08,2.32-2.39,6.32.59,7.44,2.68,1,7.89-4.34,11.12-8.82a1.89,1.89,0,0,0,1.4.67,16.8,16.8,0,0,0-4.4,4.32c-3.27,4.47-3.38,7.83.13,8,1.07,0,.5-.57,5.66-4.74,0,0,3.38-2.28,4.41-2.29a3.26,3.26,0,0,0,1.88-.82A5.48,5.48,0,0,0,163.24,17.15Zm-22.18-.77c-2.11,0,.85-7.09,6.79-6.7C148.15,9.7,142.89,16.38,141.06,16.38Zm17.49-9.23c.78-1.73,1.08-.16,1.07-.06s-.56.9-1.39,2.11A3.71,3.71,0,0,1,158.55,7.15Z"/><path d="M168.66,18.37c.23,0,1.52,1.73,2.26.54s.57-1.93-.42-1.59-3.75,2.66-3.69,3.46,3,2.09,3.17,4-2.37,6.72-7.54,6.72c-2.89,0-4.05-2-3.25-3.76.56-1.25,2.63-2.93,2.63-2.36,0,.1-3.81,3.3-1.2,4.64s4.56-.42,5.79-2.3-.69-3.71-1.36-4.33-2.47-3.4-.75-5.11c2.43-2.44,6.84-3.4,8.06-1a2.38,2.38,0,0,1-1.83,3.66,10.62,10.62,0,0,1-3.26-2.85C167.15,17.63,168.66,18.37,168.66,18.37Z"/><path class="cls-1" d="M3,139.7a3.21,3.21,0,0,1-1.28-.24,2.59,2.59,0,0,1-.95-.65,2.87,2.87,0,0,1-.6-1,4,4,0,0,1-.2-1.28,4,4,0,0,1,.2-1.27,3,3,0,0,1,.6-1,2.59,2.59,0,0,1,1-.65A3.21,3.21,0,0,1,3,133.37a3.3,3.3,0,0,1,1.29.24,2.77,2.77,0,0,1,.95.65,2.79,2.79,0,0,1,.59,1,3.72,3.72,0,0,1,.21,1.27,3.78,3.78,0,0,1-.21,1.28,2.71,2.71,0,0,1-.59,1,2.77,2.77,0,0,1-.95.65A3.3,3.3,0,0,1,3,139.7m0-1a1.52,1.52,0,0,0,1.3-.68,2,2,0,0,0,.31-.68,2.86,2.86,0,0,0,.1-.77,2.91,2.91,0,0,0-.1-.77,2,2,0,0,0-.31-.68,1.63,1.63,0,0,0-.53-.48,1.57,1.57,0,0,0-.77-.19,1.53,1.53,0,0,0-.76.19,1.67,1.67,0,0,0-.54.48,2.22,2.22,0,0,0-.31.68,3.37,3.37,0,0,0-.09.77,3.31,3.31,0,0,0,.09.77,2.22,2.22,0,0,0,.31.68,1.59,1.59,0,0,0,.54.49,1.53,1.53,0,0,0,.76.19"/><path class="cls-1" d="M14,137.61a1,1,0,0,0,.45.81,1.67,1.67,0,0,0,.91.24l.43,0a2.12,2.12,0,0,0,.45-.11,1,1,0,0,0,.34-.24.56.56,0,0,0,.12-.41.59.59,0,0,0-.19-.42,1.12,1.12,0,0,0-.44-.26,3.27,3.27,0,0,0-.62-.17l-.71-.15c-.25-.06-.49-.12-.72-.2a2.33,2.33,0,0,1-.61-.31,1.44,1.44,0,0,1-.44-.51,1.58,1.58,0,0,1-.16-.76,1.35,1.35,0,0,1,.24-.82,1.71,1.71,0,0,1,.6-.53,2.69,2.69,0,0,1,.81-.29,5.29,5.29,0,0,1,.86-.08,3.74,3.74,0,0,1,.89.1,2.15,2.15,0,0,1,.76.32,1.82,1.82,0,0,1,.57.57,2,2,0,0,1,.29.86H16.45a.81.81,0,0,0-.43-.64,1.8,1.8,0,0,0-.79-.16,2.06,2.06,0,0,0-.33,0,1.19,1.19,0,0,0-.36.09.75.75,0,0,0-.28.18.44.44,0,0,0-.12.32.53.53,0,0,0,.17.4,1.41,1.41,0,0,0,.44.25,4.28,4.28,0,0,0,.62.16l.72.16c.24.05.48.12.71.19a2.49,2.49,0,0,1,.63.32,1.64,1.64,0,0,1,.44.5,1.53,1.53,0,0,1,.17.74,1.65,1.65,0,0,1-.25.91,1.81,1.81,0,0,1-.63.6,2.77,2.77,0,0,1-.87.34,4.56,4.56,0,0,1-2,0,2.71,2.71,0,0,1-.84-.39,2.06,2.06,0,0,1-.56-.65,2.2,2.2,0,0,1-.21-.93Z"/><path class="cls-1" d="M27.65,139.7a3.3,3.3,0,0,1-1.29-.24,2.77,2.77,0,0,1-.95-.65,2.71,2.71,0,0,1-.59-1,3.78,3.78,0,0,1-.21-1.28,3.72,3.72,0,0,1,.21-1.27,2.66,2.66,0,0,1,1.54-1.65,3.3,3.3,0,0,1,1.29-.24,3.25,3.25,0,0,1,1.28.24,2.68,2.68,0,0,1,.95.65,3,3,0,0,1,.6,1,4,4,0,0,1,.2,1.27,4,4,0,0,1-.2,1.28,2.87,2.87,0,0,1-.6,1,2.68,2.68,0,0,1-.95.65,3.25,3.25,0,0,1-1.28.24m0-1a1.53,1.53,0,0,0,.76-.19A1.59,1.59,0,0,0,29,138a2.22,2.22,0,0,0,.31-.68,3.31,3.31,0,0,0,.09-.77,3.37,3.37,0,0,0-.09-.77,2.22,2.22,0,0,0-.31-.68,1.67,1.67,0,0,0-.54-.48,1.53,1.53,0,0,0-.76-.19,1.57,1.57,0,0,0-.77.19,1.67,1.67,0,0,0-.54.48,2.2,2.2,0,0,0-.3.68,2.91,2.91,0,0,0-.1.77,2.86,2.86,0,0,0,.1.77,2.2,2.2,0,0,0,.3.68,1.59,1.59,0,0,0,.54.49,1.57,1.57,0,0,0,.77.19"/><path class="cls-1" d="M41.68,135.54a1.23,1.23,0,0,0-.44-.84,1.47,1.47,0,0,0-.93-.29,1.79,1.79,0,0,0-.54.09,1.34,1.34,0,0,0-.54.33,1.76,1.76,0,0,0-.4.66,3.43,3.43,0,0,0-.08,1.85A2.11,2.11,0,0,0,39,138a1.57,1.57,0,0,0,.49.47,1.42,1.42,0,0,0,.74.18,1.32,1.32,0,0,0,1-.36,1.63,1.63,0,0,0,.47-1H43a2.87,2.87,0,0,1-.89,1.8,2.73,2.73,0,0,1-1.86.62,3,3,0,0,1-1.25-.24,2.52,2.52,0,0,1-.92-.65,2.86,2.86,0,0,1-.56-1,3.78,3.78,0,0,1-.19-1.23,4.38,4.38,0,0,1,.18-1.27,3,3,0,0,1,.56-1,2.55,2.55,0,0,1,.93-.68,3,3,0,0,1,1.29-.25,3.66,3.66,0,0,1,1,.13,2.78,2.78,0,0,1,.83.4,2.06,2.06,0,0,1,.6.68,2.21,2.21,0,0,1,.28,1Z"/><path class="cls-1" d="M52.69,139.7a3.21,3.21,0,0,1-1.28-.24,2.72,2.72,0,0,1-1-.65,2.85,2.85,0,0,1-.59-1,4,4,0,0,1-.2-1.28,4,4,0,0,1,.2-1.27,2.94,2.94,0,0,1,.59-1,2.72,2.72,0,0,1,1-.65,3.53,3.53,0,0,1,2.56,0,2.72,2.72,0,0,1,1,.65,2.94,2.94,0,0,1,.59,1,3.72,3.72,0,0,1,.2,1.27,3.78,3.78,0,0,1-.2,1.28,2.85,2.85,0,0,1-.59,1,2.72,2.72,0,0,1-1,.65,3.21,3.21,0,0,1-1.28.24m0-1a1.6,1.6,0,0,0,.77-.19A1.65,1.65,0,0,0,54,138a2.22,2.22,0,0,0,.31-.68,2.86,2.86,0,0,0,.1-.77,2.91,2.91,0,0,0-.1-.77,2.22,2.22,0,0,0-.31-.68,1.74,1.74,0,0,0-.53-.48,1.66,1.66,0,0,0-1.54,0,1.74,1.74,0,0,0-.53.48,2.22,2.22,0,0,0-.31.68,2.91,2.91,0,0,0-.1.77,2.86,2.86,0,0,0,.1.77,2.22,2.22,0,0,0,.31.68,1.65,1.65,0,0,0,.53.49,1.6,1.6,0,0,0,.77.19"/><path class="cls-1" d="M72.75,137.61a1,1,0,0,0,.44.81,1.7,1.7,0,0,0,.92.24l.42,0a2.12,2.12,0,0,0,.45-.11,1,1,0,0,0,.34-.24.61.61,0,0,0,.13-.41.59.59,0,0,0-.19-.42,1.24,1.24,0,0,0-.45-.26,3.27,3.27,0,0,0-.62-.17l-.71-.15a7.35,7.35,0,0,1-.71-.2,2.4,2.4,0,0,1-.62-.31,1.42,1.42,0,0,1-.43-.51,1.58,1.58,0,0,1-.17-.76,1.35,1.35,0,0,1,.24-.82,1.74,1.74,0,0,1,.61-.53,2.6,2.6,0,0,1,.81-.29,5.18,5.18,0,0,1,.85-.08,3.68,3.68,0,0,1,.89.1,2.28,2.28,0,0,1,.77.32,1.82,1.82,0,0,1,.57.57,2,2,0,0,1,.28.86H75.19a.82.82,0,0,0-.44-.64,1.75,1.75,0,0,0-.78-.16,2.06,2.06,0,0,0-.33,0,1.06,1.06,0,0,0-.36.09.79.79,0,0,0-.29.18.48.48,0,0,0-.11.32.5.5,0,0,0,.17.4,1.41,1.41,0,0,0,.44.25,4.28,4.28,0,0,0,.62.16l.72.16c.24.05.48.12.71.19a2.42,2.42,0,0,1,.62.32,1.45,1.45,0,0,1,.61,1.24,1.65,1.65,0,0,1-.24.91,1.93,1.93,0,0,1-.64.6,2.81,2.81,0,0,1-.86.34,4.36,4.36,0,0,1-.94.1,4.47,4.47,0,0,1-1.06-.12,2.55,2.55,0,0,1-.83-.39,1.84,1.84,0,0,1-.56-.65,2.06,2.06,0,0,1-.22-.93Z"/><path class="cls-1" d="M86.38,139.7a3.21,3.21,0,0,1-1.28-.24,2.72,2.72,0,0,1-1-.65,2.85,2.85,0,0,1-.59-1,4,4,0,0,1-.2-1.28,4,4,0,0,1,.2-1.27,2.94,2.94,0,0,1,.59-1,2.72,2.72,0,0,1,1-.65,3.21,3.21,0,0,1,1.28-.24,3.3,3.3,0,0,1,1.29.24,2.66,2.66,0,0,1,1.54,1.65,3.72,3.72,0,0,1,.2,1.27,3.78,3.78,0,0,1-.2,1.28,2.71,2.71,0,0,1-.59,1,2.77,2.77,0,0,1-1,.65,3.3,3.3,0,0,1-1.29.24m0-1a1.52,1.52,0,0,0,1.3-.68,2.22,2.22,0,0,0,.31-.68,2.86,2.86,0,0,0,.1-.77,2.91,2.91,0,0,0-.1-.77,2.22,2.22,0,0,0-.31-.68,1.63,1.63,0,0,0-.53-.48,1.57,1.57,0,0,0-.77-.19,1.6,1.6,0,0,0-.77.19,1.74,1.74,0,0,0-.53.48,2.22,2.22,0,0,0-.31.68,3.39,3.39,0,0,0-.1.77,3.32,3.32,0,0,0,.1.77,2.22,2.22,0,0,0,.31.68,1.65,1.65,0,0,0,.53.49,1.6,1.6,0,0,0,.77.19"/><path class="cls-1" d="M95.77,133.53h1V133a2.37,2.37,0,0,1,.14-.92,1.24,1.24,0,0,1,.37-.55,1.13,1.13,0,0,1,.53-.25,2.51,2.51,0,0,1,.62-.07,4,4,0,0,1,.93.08v1l-.27-.06h-.35a.8.8,0,0,0-.46.13.57.57,0,0,0-.19.5v.61h1.13v1H98.08v5H96.76v-5h-1Z"/><path class="cls-1" d="M105.27,133.53h1v-1.8h1.32v1.8h1.2v1h-1.2v3.21a3.53,3.53,0,0,0,0,.36.61.61,0,0,0,.08.25.43.43,0,0,0,.19.16,1.08,1.08,0,0,0,.35.05h.28l.28,0v1l-.43,0a3.11,3.11,0,0,1-.43,0,3.24,3.24,0,0,1-.85-.1,1.16,1.16,0,0,1-.5-.29,1,1,0,0,1-.24-.48,3.36,3.36,0,0,1-.07-.67v-3.54h-1Z"/><polygon class="cls-1" points="115.03 133.53 116.43 133.53 117.61 138.02 117.63 138.02 118.76 133.53 120.09 133.53 121.17 138.02 121.2 138.02 122.42 133.53 123.77 133.53 121.88 139.54 120.52 139.54 119.41 135.08 119.39 135.08 118.28 139.54 116.89 139.54 115.03 133.53"/><path class="cls-1" d="M135.49,138.2a.61.61,0,0,0,.07.35.26.26,0,0,0,.25.11H136l.18,0v.92a.56.56,0,0,1-.18,0l-.22.06-.24,0h-.19a1.27,1.27,0,0,1-.68-.16.83.83,0,0,1-.35-.57,2.28,2.28,0,0,1-1,.56,4,4,0,0,1-1.11.17,2.54,2.54,0,0,1-.78-.11,2.08,2.08,0,0,1-.65-.32,1.76,1.76,0,0,1-.46-.55,1.71,1.71,0,0,1-.16-.77,1.75,1.75,0,0,1,.2-.91,1.52,1.52,0,0,1,.53-.54,2.26,2.26,0,0,1,.75-.29,7.55,7.55,0,0,1,.83-.13,6.22,6.22,0,0,1,.68-.1,3,3,0,0,0,.58-.1.82.82,0,0,0,.39-.22.56.56,0,0,0,.15-.43.7.7,0,0,0-.12-.42.76.76,0,0,0-.31-.25,1.17,1.17,0,0,0-.4-.12l-.41,0a1.61,1.61,0,0,0-.92.23.89.89,0,0,0-.41.72h-1.32a1.91,1.91,0,0,1,.28-1,1.81,1.81,0,0,1,.62-.61,2.36,2.36,0,0,1,.85-.33,5.25,5.25,0,0,1,1-.09,4.28,4.28,0,0,1,.87.09,2.74,2.74,0,0,1,.77.3,1.58,1.58,0,0,1,.55.54,1.53,1.53,0,0,1,.21.81Zm-1.32-1.67a1.66,1.66,0,0,1-.75.24l-.88.12a2.6,2.6,0,0,0-.4.1,1.14,1.14,0,0,0-.35.17.75.75,0,0,0-.24.29,1,1,0,0,0-.09.44.52.52,0,0,0,.13.37.92.92,0,0,0,.31.24,1.27,1.27,0,0,0,.39.12,1.84,1.84,0,0,0,.39,0,2.1,2.1,0,0,0,.48-.06,1.68,1.68,0,0,0,.48-.2,1.27,1.27,0,0,0,.38-.35.92.92,0,0,0,.15-.53Z"/><path class="cls-1" d="M142.76,133.53H144v1.16h0a1.37,1.37,0,0,1,.23-.47,2.08,2.08,0,0,1,.41-.43,2,2,0,0,1,.53-.31,1.71,1.71,0,0,1,.59-.11h.32l.18,0v1.28l-.29,0-.28,0a1.53,1.53,0,0,0-.64.14,1.48,1.48,0,0,0-.51.39,1.84,1.84,0,0,0-.35.65,2.63,2.63,0,0,0-.13.88v2.86h-1.32Z"/><path class="cls-1" d="M153.52,136.88a2.13,2.13,0,0,0,.1.67,1.54,1.54,0,0,0,.29.57,1.5,1.5,0,0,0,.5.39,1.59,1.59,0,0,0,.72.15,1.66,1.66,0,0,0,.94-.25,1.57,1.57,0,0,0,.53-.75h1.25a2.58,2.58,0,0,1-.36.87,2.48,2.48,0,0,1-.61.64,2.66,2.66,0,0,1-.81.4,3.49,3.49,0,0,1-2.19-.1,2.56,2.56,0,0,1-.93-.65,2.81,2.81,0,0,1-.57-1,4.3,4.3,0,0,1-.19-1.28,3.46,3.46,0,0,1,.21-1.21,2.81,2.81,0,0,1,.58-1,2.74,2.74,0,0,1,.91-.7,2.79,2.79,0,0,1,3.42.83,3.53,3.53,0,0,1,.54,1.12,3.38,3.38,0,0,1,.08,1.31Zm3.09-.87a2.16,2.16,0,0,0-.14-.61,1.48,1.48,0,0,0-.3-.5,1.44,1.44,0,0,0-.46-.35,1.37,1.37,0,0,0-.61-.14,1.66,1.66,0,0,0-.64.13,1.37,1.37,0,0,0-.48.33,1.72,1.72,0,0,0-.33.51,1.61,1.61,0,0,0-.13.63Z"/><path class="cls-1" d="M177.91,135.54a1.2,1.2,0,0,0-.45-.84,1.45,1.45,0,0,0-.92-.29,1.91,1.91,0,0,0-.55.09,1.31,1.31,0,0,0-.53.33,1.91,1.91,0,0,0-.41.66,3.1,3.1,0,0,0-.16,1.11,3.06,3.06,0,0,0,.09.74,1.91,1.91,0,0,0,.28.67,1.47,1.47,0,0,0,.49.47,1.39,1.39,0,0,0,.73.18,1.33,1.33,0,0,0,1-.36,1.68,1.68,0,0,0,.47-1h1.33a3,3,0,0,1-.89,1.8,2.74,2.74,0,0,1-1.87.62,3.06,3.06,0,0,1-1.25-.24,2.49,2.49,0,0,1-.91-.65,2.57,2.57,0,0,1-.56-1,3.78,3.78,0,0,1-.2-1.23,4.38,4.38,0,0,1,.19-1.27,2.86,2.86,0,0,1,.56-1,2.51,2.51,0,0,1,.92-.68,3.08,3.08,0,0,1,1.3-.25,3.54,3.54,0,0,1,1,.13,2.84,2.84,0,0,1,.84.4,2.32,2.32,0,0,1,.6.68,2.51,2.51,0,0,1,.28,1Z"/><path class="cls-1" d="M188.92,139.7a3.3,3.3,0,0,1-1.29-.24,2.77,2.77,0,0,1-.95-.65,2.71,2.71,0,0,1-.59-1,3.78,3.78,0,0,1-.21-1.28,3.72,3.72,0,0,1,.21-1.27,2.66,2.66,0,0,1,1.54-1.65,3.3,3.3,0,0,1,1.29-.24,3.25,3.25,0,0,1,1.28.24,2.68,2.68,0,0,1,1,.65,3,3,0,0,1,.6,1,4,4,0,0,1,.2,1.27,4,4,0,0,1-.2,1.28,2.87,2.87,0,0,1-.6,1,2.68,2.68,0,0,1-1,.65,3.25,3.25,0,0,1-1.28.24m0-1a1.53,1.53,0,0,0,.76-.19,1.59,1.59,0,0,0,.54-.49,2.22,2.22,0,0,0,.31-.68,3.31,3.31,0,0,0,.09-.77,3.37,3.37,0,0,0-.09-.77,2.22,2.22,0,0,0-.31-.68,1.67,1.67,0,0,0-.54-.48,1.53,1.53,0,0,0-.76-.19,1.57,1.57,0,0,0-.77.19,1.67,1.67,0,0,0-.54.48,2.2,2.2,0,0,0-.3.68,2.91,2.91,0,0,0-.1.77,2.86,2.86,0,0,0,.1.77,2.2,2.2,0,0,0,.3.68,1.59,1.59,0,0,0,.54.49,1.57,1.57,0,0,0,.77.19"/><path class="cls-1" d="M198.9,133.53h1.25v.84h0a4.47,4.47,0,0,1,.32-.41,1.9,1.9,0,0,1,.89-.52,2.46,2.46,0,0,1,.64-.07,2.18,2.18,0,0,1,1,.24,1.36,1.36,0,0,1,.67.76,2.68,2.68,0,0,1,.78-.73,2.06,2.06,0,0,1,1.1-.27,2.2,2.2,0,0,1,1.49.46,2,2,0,0,1,.52,1.56v4.15h-1.32V136c0-.24,0-.46,0-.66a1.37,1.37,0,0,0-.14-.51.75.75,0,0,0-.33-.33,1.28,1.28,0,0,0-.6-.12,1.12,1.12,0,0,0-1,.42,2,2,0,0,0-.3,1.19v3.52h-1.33v-3.86a1.67,1.67,0,0,0-.22-1,1,1,0,0,0-.83-.32,1.28,1.28,0,0,0-.92.41,1.67,1.67,0,0,0-.29.49,1.9,1.9,0,0,0-.11.66v3.57H198.9Z"/><path class="cls-1" d="M214.89,133.53h1.25v.82h0a1.58,1.58,0,0,1,.78-.75,2.44,2.44,0,0,1,1.08-.23,2.86,2.86,0,0,1,1.24.25,2.34,2.34,0,0,1,.87.68,3.09,3.09,0,0,1,.53,1,4.53,4.53,0,0,1,.17,1.24,4.2,4.2,0,0,1-.16,1.18,3,3,0,0,1-.47,1,2.32,2.32,0,0,1-2,1,2.84,2.84,0,0,1-.58,0,2.6,2.6,0,0,1-.56-.17,2.18,2.18,0,0,1-.49-.29,1.7,1.7,0,0,1-.38-.43h0v3h-1.32Zm4.63,3a3,3,0,0,0-.11-.79,2.22,2.22,0,0,0-.31-.68,1.74,1.74,0,0,0-.53-.48,1.54,1.54,0,0,0-.72-.18,1.47,1.47,0,0,0-1.26.59,2.56,2.56,0,0,0-.42,1.54,2.84,2.84,0,0,0,.11.84,1.75,1.75,0,0,0,.33.67,1.49,1.49,0,0,0,.53.44,1.46,1.46,0,0,0,.71.17,1.51,1.51,0,0,0,.77-.19,1.59,1.59,0,0,0,.52-.48,2.09,2.09,0,0,0,.29-.68,3.25,3.25,0,0,0,.09-.77"/><path class="cls-1" d="M232.83,138.2a.71.71,0,0,0,.07.35.26.26,0,0,0,.25.11h.14l.18,0v.92a.56.56,0,0,1-.18,0l-.22.06-.24,0h-.19a1.27,1.27,0,0,1-.68-.16.83.83,0,0,1-.35-.57,2.28,2.28,0,0,1-1,.56,4,4,0,0,1-1.11.17,2.54,2.54,0,0,1-.78-.11,2.08,2.08,0,0,1-.65-.32,1.76,1.76,0,0,1-.46-.55,1.71,1.71,0,0,1-.16-.77,1.75,1.75,0,0,1,.2-.91,1.52,1.52,0,0,1,.53-.54,2.34,2.34,0,0,1,.75-.29,7.55,7.55,0,0,1,.83-.13,6.22,6.22,0,0,1,.68-.1,3,3,0,0,0,.58-.1.91.91,0,0,0,.4-.22.6.6,0,0,0,.14-.43.7.7,0,0,0-.12-.42.81.81,0,0,0-.3-.25,1.33,1.33,0,0,0-.4-.12l-.42,0a1.61,1.61,0,0,0-.92.23.89.89,0,0,0-.41.72H227.7a1.85,1.85,0,0,1,.9-1.58,2.36,2.36,0,0,1,.85-.33,5.25,5.25,0,0,1,1-.09,4.28,4.28,0,0,1,.87.09,2.63,2.63,0,0,1,.77.3,1.58,1.58,0,0,1,.55.54,1.53,1.53,0,0,1,.21.81Zm-1.32-1.67a1.66,1.66,0,0,1-.74.24c-.3,0-.59.07-.89.12a2.6,2.6,0,0,0-.4.1,1.14,1.14,0,0,0-.35.17.85.85,0,0,0-.24.29,1,1,0,0,0-.09.44.52.52,0,0,0,.13.37.92.92,0,0,0,.31.24,1.27,1.27,0,0,0,.39.12,1.91,1.91,0,0,0,.39,0,2.1,2.1,0,0,0,.48-.06,1.68,1.68,0,0,0,.48-.2,1.27,1.27,0,0,0,.38-.35.92.92,0,0,0,.15-.53Z"/><path class="cls-1" d="M240.11,133.53h1.25v.88l0,0a2.14,2.14,0,0,1,.79-.79,2.07,2.07,0,0,1,1.08-.28,2.23,2.23,0,0,1,1.55.51,2,2,0,0,1,.57,1.53v4.13h-1.32v-3.78a1.73,1.73,0,0,0-.3-1,1.13,1.13,0,0,0-.88-.32,1.47,1.47,0,0,0-.6.13,1.25,1.25,0,0,0-.45.33,1.51,1.51,0,0,0-.29.51,1.78,1.78,0,0,0-.11.61v3.55h-1.32Z"/><path class="cls-1" d="M252,133.53h1.45L255,138h0l1.52-4.49h1.38l-2.33,6.33c-.11.28-.22.54-.32.78a3,3,0,0,1-.39.66,1.64,1.64,0,0,1-.56.45,1.83,1.83,0,0,1-.86.17,5.62,5.62,0,0,1-.92-.07v-1.11l.32,0a1.55,1.55,0,0,0,.31,0,1,1,0,0,0,.38-.06.65.65,0,0,0,.25-.17,1,1,0,0,0,.17-.26,2.34,2.34,0,0,0,.13-.35l.15-.46Z"/><path class="cls-1" d="M240.47,111.41c.33-.28.65-.57,1-.89a47.11,47.11,0,0,0,14.61-35c0-13.83-4.79-25.32-14.61-35.14-.32-.32-.64-.6-1-.89l-.12-.1a51.31,51.31,0,0,1-21.93,10.88,27.7,27.7,0,0,1,7.69,5.54,27.07,27.07,0,0,1,8.15,19.71A26.73,26.73,0,0,1,226.12,95a27.87,27.87,0,0,1-7.67,5.49,51.28,51.28,0,0,1,21.92,11l.1-.09"/><path class="cls-1" d="M206.4,125.79l.09-.8h.23c1.49,0,3-.08,4.42-.21.38,0,.75-.08,1.11-.13l.61-.08c.95-.11,1.89-.23,2.81-.39.62-.12,1.24-.26,1.85-.4l.34-.08c.78-.17,1.45-.32,2.1-.5.85-.24,1.68-.51,2.51-.79.52-.17,1-.35,1.54-.54.94-.36,1.86-.74,2.78-1.15l.71-.34.3-.14c1.21-.59,2.18-1.1,3.07-1.62l.33-.2a50,50,0,0,0,6.12-4.27,47,47,0,0,0-30.88-10.93l-2.11-.09-1.26-.1c-.47,0-.94-.13-1.4-.2l-.17,0-1.08-.19c-.45-.09-.88-.21-1.31-.32l-.23-.06-1-.28c-.37-.12-.73-.25-1.09-.39l-.54-.2c-.28-.1-.55-.2-.82-.32s-.63-.28-.94-.44l-.67-.33-.73-.37c-.39-.22-.78-.46-1.16-.7l-.43-.27c-.22-.14-.44-.27-.65-.42-.45-.31-.88-.65-1.31-1l-.2-.16c-.21-.15-.42-.31-.62-.48-.53-.44-1-.93-1.55-1.42l-.45-.42a26.81,26.81,0,0,1-7.78-15.43,29.18,29.18,0,0,1-.31-4.09,27.26,27.26,0,0,1,8-19.7,27.7,27.7,0,0,1,2-1.89l.33-.27c.6-.49,1.19-.95,1.8-1.38l.37-.23.21-.13c.54-.36,1.1-.71,1.68-1l.45-.23.25-.12c.55-.28,1.1-.56,1.66-.8l.6-.23.23-.09c.53-.21,1.08-.41,1.63-.58l.66-.18.29-.08c.53-.15,1.06-.29,1.61-.4l.83-.15.26,0c.51-.08,1-.16,1.55-.22l1.25-.1.89-.09h1.22a47.31,47.31,0,0,0,30.88-10.85,51.23,51.23,0,0,0-6.21-4.36l.23-.78-.4.68c-1-.57-2-1.13-3.25-1.73l-.79-.38c-1-.43-1.92-.84-3-1.25-.43-.16-.86-.3-1.29-.45-.91-.32-1.82-.61-2.74-.87-.47-.13-.95-.24-1.42-.35l-.69-.16c-.72-.17-1.44-.34-2.17-.47s-1.26-.19-1.89-.27l-1.14-.15c-.49-.07-1-.14-1.49-.18-1.21-.11-2.45-.14-3.61-.17l-.51,0-.53,0h-.2c-1.28,0-2.73.07-4.35.21h-.2c-.52,0-.93.1-1.36.16l-1.79.24c-.54.07-1.08.14-1.61.24s-1.34.29-2,.45l-1.17.28c-.39.09-.76.18-1.11.28-1,.27-1.95.61-2.93,1l-.42.15c-.28.09-.53.18-.77.28-1.19.46-2.31,1-3.16,1.37l-.81.4c-1.12.56-2.22,1.17-3.28,1.82l-.49.3c-1,.63-2,1.33-3.08,2.08l-.6.46c-.92.69-1.83,1.42-2.72,2.18-1.05.91-1.9,1.68-2.65,2.42l-.2.19-.13.12a52.39,52.39,0,0,0-5.41,6.4,47.33,47.33,0,0,0-9.15,28.74,47.28,47.28,0,0,0,14.55,35c1,1,2.11,2,3,2.76s1.78,1.46,2.69,2.14l.26.18c1,.78,2.12,1.52,3.3,2.26l.61.37c1.07.64,2.17,1.25,3.26,1.79l.91.44c.88.41,1.93.89,3,1.31l1,.35.31.11c.95.33,1.88.65,2.81.91.45.13.9.23,1.35.34l.52.12c.94.23,1.71.42,2.5.56s1.48.22,2.23.32l.82.11c.5.07,1,.14,1.45.18,1.6.15,3.26.23,4.92.23l0,.79Z"/><path class="cls-1" d="M163.06,39.51l-.13-.12A51.31,51.31,0,0,1,141,50.27a27.66,27.66,0,0,1,7.68,5.54,28.18,28.18,0,0,1,5.44,7.64,51.14,51.14,0,0,1,10.88-22l-.08-.09c-.29-.33-.59-.67-.91-1s-.63-.59-.95-.87"/><path class="cls-1" d="M165,109.47a50.67,50.67,0,0,1-10.88-22A28,28,0,0,1,148.68,95a27.8,27.8,0,0,1-39.4,0,27.86,27.86,0,0,1-5.38-7.54,50.51,50.51,0,0,1-10.91,22l.08.09c.29.33.58.65.89,1A47.58,47.58,0,0,0,129,125c13.76,0,25.22-4.75,35-14.48.32-.32.62-.65.91-1a.46.46,0,0,1,.07-.07"/><path class="cls-1" d="M76.72,118.19l.48-.29c1.17-.72,2.28-1.48,3.38-2.29l.65.51-.48-.63c1-.76,1.94-1.5,2.8-2.24h0l.7-.62c.84-.72,1.61-1.38,2.33-2.1,1.2-1.19,2.36-2.44,3.44-3.74l.29-.37.28-.36c.56-.7,1.11-1.4,1.63-2.12.31-.43.61-.86.91-1.3.5-.75,1-1.51,1.46-2.28.24-.41.47-.81.7-1.23.47-.84.92-1.7,1.34-2.57.13-.27.25-.55.37-.83l.09-.19c.49-1.09.89-2.07,1.22-3l.24-.72c.42-1.2.75-2.29,1-3.34l.11-.46c.32-1.3.58-2.53.79-3.76l.81,0-.79-.13a53.85,53.85,0,0,0,.7-8.6V73.39h.1c0-.42.06-.83.11-1.24s.12-.94.19-1.4.13-.79.21-1.19.22-1,.35-1.44.19-.75.3-1.07c.15-.5.32-1,.51-1.47l.09-.24c.09-.25.18-.49.28-.72.21-.5.44-1,.68-1.48l.15-.3a6.27,6.27,0,0,1,.29-.58c.27-.5.57-1,.87-1.47l.18-.3c.1-.16.19-.32.3-.48.35-.52.73-1,1.12-1.52l.17-.23.3-.4c.58-.71,1.19-1.39,1.82-2s1.28-1.26,2-1.87l.51-.4.41-.32c.4-.32.8-.63,1.21-.92.2-.14.42-.27.63-.4l.43-.27c.39-.25.78-.5,1.18-.72.23-.13.45-.24.68-.35l.58-.29c.37-.18.73-.36,1.1-.52s.51-.2.76-.3l.3-.11c.48-.18,1-.36,1.42-.51l.92-.25.18-.05c.48-.13,1-.26,1.46-.36l1.07-.19c.6-.09,1.1-.17,1.6-.22s.82-.08,1.24-.11l.91-.09H129a47.33,47.33,0,0,0,30.87-10.84,36.17,36.17,0,0,0-6.21-4.36l-.15-.09c-1-.59-2.07-1.16-3.29-1.75l-.76-.37c-.94-.43-1.94-.85-3-1.27l-1.16-.41c-1.09-.38-2-.67-2.9-.91l-1.22-.31-.31-.07c-.91-.22-1.82-.43-2.74-.6-.47-.08-1-.14-1.43-.2l-1.18-.16c-.62-.09-1.25-.18-1.89-.23-1.34-.12-2.74-.18-4.18-.2h-.5c-1.43,0-2.92.07-4.57.21l-.28-.78.07.79c-.4,0-.81.1-1.24.16l-1.81.25-.65.09-.93.13c-.63.12-1.27.28-1.93.44l-.9.21-1.24.31-.24.06c-.93.26-1.85.57-2.94,1l-.36.12c-.3.1-.58.2-.85.31-.9.35-1.88.78-3.07,1.34l-.5.24a3.84,3.84,0,0,0-.35.17c-1.09.54-2.16,1.14-3.32,1.84l-.45.28q-1.47.91-3,2l-.78.59c-.87.66-1.72,1.35-2.57,2.06s-2,1.77-3,2.77c-1.17,1.18-2.32,2.46-3.61,4-.5.61-1,1.23-1.45,1.85s-.69,1-1,1.42c-.5.72-1,1.45-1.43,2.18l-.1.16c-.19.32-.39.63-.57.95-.51.87-1,1.76-1.43,2.66l-.15.32c-.09.17-.18.34-.26.51-.44.94-.87,1.95-1.31,3.1l-.26.65c-.39,1.06-.75,2.18-1.1,3.41l-.13.46c-.32,1.18-.6,2.44-.84,3.72l0,.16c-.26,1.43-.45,2.77-.58,4.14l-.06.53c-.14,1.59-.22,3.2-.22,4.78l-.09,2.1c0,.46-.06.85-.1,1.24s-.13.94-.21,1.41l0,.17c-.06.34-.12.69-.19,1s-.22.92-.34,1.37l-.06.25c-.08.3-.16.6-.26.9-.14.45-.3.88-.47,1.31l-.1.28c-.11.28-.21.57-.33.85s-.35.75-.54,1.12l-.24.49c-.12.24-.23.48-.36.72-.23.4-.47.78-.71,1.17l-.31.48c-.12.2-.24.39-.37.58-.32.47-.68.93-1,1.39l-.25.32a4.46,4.46,0,0,1-.33.43,27.34,27.34,0,0,1-1.85,2c-.63.64-1.29,1.25-2,1.86l-.39.3-.21.16c-.49.4-1,.79-1.53,1.15a6.37,6.37,0,0,1-.55.35l-.3.19c-.46.3-.91.58-1.37.84l-.73.37-.52.25c-.36.18-.72.36-1.08.51s-.59.24-.9.35l-.51.19c-.34.13-.68.26-1,.36s-.85.25-1.29.36-.82.22-1.24.31-.89.16-1.34.24-.86.13-1.3.18-.89.09-1.34.12h0v.09l-.82,0-1.27,0a46.92,46.92,0,0,0-30.88,10.93,50.8,50.8,0,0,0,6.13,4.29l.16.09c1,.61,2,1.14,3.27,1.74l.28.13.62.29c.95.44,1.9.83,2.86,1.2.48.18,1,.34,1.46.51.85.29,1.69.56,2.55.8.69.19,1.4.35,2.11.51l.39.09c.58.13,1.16.27,1.76.37,1,.18,2,.31,3,.43l.61.08.85.1c1.61.14,3.23.21,4.8.22s3.37-.08,5-.23l.89-.12c1.41-.15,2.55-.31,3.6-.5.58-.1,1.15-.24,1.74-.38l1-.23c.56-.12,1.13-.25,1.68-.41.86-.24,1.72-.54,2.59-.84l.56-.19,1-.35c.94-.36,1.93-.79,3.11-1.36l.68-.32.5.64-.35-.71c1-.51,2.11-1.1,3.28-1.81"/><path class="cls-1" d="M76.72,63.48a51.09,51.09,0,0,1,10.85-22l-.1-.11c-.29-.33-.58-.65-.9-1-9.83-9.81-21.29-14.58-35-14.6s-25.18,4.79-35,14.6A47.68,47.68,0,0,0,2,75.52a47.23,47.23,0,0,0,14.55,35c.3.3.61.58.93.86l.13.11a51.16,51.16,0,0,1,21.89-11A27.58,27.58,0,0,1,31.85,95a26.76,26.76,0,0,1-8.09-19.51,27.31,27.31,0,0,1,8-19.7,26.5,26.5,0,0,1,19.69-8.24,26.84,26.84,0,0,1,19.79,8.23,28.33,28.33,0,0,1,5.46,7.67"/></svg>