<?xml version="1.0" encoding="UTF-8"?><svg id="Capa_1" xmlns="http://www.w3.org/2000/svg" xmlns:xlink="http://www.w3.org/1999/xlink" viewBox="0 0 1350 465"><defs><style>.cls-1{stroke-linecap:round;}.cls-1,.cls-2{stroke-linejoin:round;}.cls-1,.cls-2,.cls-3{fill:none;stroke:#1a171c;stroke-width:.72px;}.cls-4{fill:#008634;}.cls-5{fill:#007734;}.cls-6{fill:#ffed00;}.cls-7{fill:#eceded;}.cls-8{fill:#e85113;}.cls-9{fill:#fecc00;}.cls-10{fill:#84d0f0;}.cls-11{fill:#c00418;}.cls-12{fill:#e2001a;}.cls-13{fill:#0b1d3c;}.cls-14{fill:#0d69ff;}.cls-15{fill:#1a171c;}.cls-16{fill:#87888a;}.cls-17{fill:url(#Degradado_sin_nombre_9);}</style><linearGradient id="Degradado_sin_nombre_9" x1="147.69" y1="246.64" x2="274.77" y2="119.55" gradientUnits="userSpaceOnUse"><stop offset="0" stop-color="#0089ff"/><stop offset=".51" stop-color="#36daeb"/><stop offset="1" stop-color="#50f37a"/></linearGradient></defs><path class="cls-13" d="m430.38,141.54h-24.16v86.94h24.16v10.77h-61.09v-10.77h24.31v-86.94h-24.31v-10.77h61.09v10.77Z"/><path class="cls-13" d="m522.62,239.26h-12.62v-11.23l2.15-8.62h-3.69c-3.23,11.85-13.54,21.39-30.93,21.39-22.16,0-36.47-17.08-36.47-39.86s14.31-39.7,36.47-39.7c17.39,0,27.7,9.54,30.93,21.54h3.69l-2.15-8.77v-47.86h12.62v113.11Zm-41.4-67.25c-15.85,0-27.55,8.62-27.55,28.93s11.7,29.09,27.55,29.09,28.78-8.62,28.78-29.09-12.93-28.93-28.78-28.93Z"/><path class="cls-13" d="m577.37,161.24c21.54,0,35.7,13.7,35.7,37.24v4.92h-60.48c.77,14.47,7.69,26.93,26.62,26.93,12.62,0,21.08-6.16,23.85-17.85h12.62c-2.92,11.85-12.16,28.31-36.47,28.31-27.39,0-38.93-18.77-38.93-40.78,0-24.62,15.39-38.78,37.09-38.78Zm23.39,32.62c0-12.31-8.16-22.01-23.39-22.01s-24.78,9.69-24.78,22.01h48.17Z"/><path class="cls-13" d="m617.95,130.77h12.62l33.55,102.33h3.54l33.7-102.33h12.47l-35.86,108.49h-24.16l-35.86-108.49Z"/><path class="cls-13" d="m742.74,195.71l30.47-2.92c-.77-14-8.31-20.93-21.54-20.93-11.08,0-21.39,4.92-21.39,19.39h-12.31c0-15.85,12-30.01,33.7-30.01s34.16,14.16,34.16,34.62v32.62h11.23v10.77h-13.54c-5.85,0-9.08-3.23-9.08-8.92v-4.16l2-8h-3.69c-2.92,11.7-11.08,22.62-29.55,22.62-22.16,0-25.55-14.77-25.55-22.77,0-12.16,7.23-20.47,25.08-22.31Zm2,34.32c17.39,0,28.47-12,28.47-27.85l-28.31,2.92c-9.69.92-14.62,3.85-14.62,11.39,0,8.77,5.54,13.54,14.47,13.54Z"/><path class="cls-17" d="m132.12,218.45l104.95-33.55v-3.54l-104.95-33.7v-12.47l108.49,34.93v25.85l-108.49,35.08v-12.62Zm84.74,0l104.95-33.55v-3.54l-104.95-33.7v-12.47l108.49,34.93v25.85l-108.49,35.08v-12.62Z"/><path class="cls-14" d="m376.88,284.44h-4.7l-1.13,3.65h-1.79l4.55-14.08h1.5l4.47,14.08h-1.78l-1.11-3.65Zm-4.22-1.56h3.74l-1.86-6.11-1.89,6.11Z"/><path class="cls-14" d="m393.54,286.24c-.59.7-1.27,1.21-2.04,1.55-.77.33-1.61.5-2.52.49-.58,0-1.11-.1-1.6-.27-.49-.17-.92-.41-1.31-.71-.39-.3-.73-.65-1.02-1.06-.29-.41-.53-.85-.73-1.32-.2-.47-.35-.97-.44-1.49-.1-.52-.15-1.04-.16-1.57v-1.63c0-.52.05-1.04.14-1.56.09-.52.22-1.02.4-1.49.18-.48.41-.92.68-1.33.27-.41.59-.76.97-1.06.38-.3.8-.54,1.28-.71s1.01-.26,1.61-.26c.66,0,1.26.1,1.82.3.55.2,1.04.49,1.45.87.41.38.74.83,1,1.36s.41,1.13.46,1.78h-1.77c-.07-.41-.18-.78-.33-1.13-.15-.34-.34-.64-.59-.88s-.53-.44-.87-.58c-.34-.14-.73-.21-1.17-.21s-.8.07-1.13.22-.62.34-.86.58c-.25.25-.45.53-.61.86-.16.33-.29.67-.4,1.03-.1.36-.18.73-.22,1.1-.05.37-.07.74-.07,1.08v1.65c0,.36.04.72.09,1.1.05.38.14.75.26,1.11.12.36.26.7.44,1.03.18.32.4.61.65.85.25.25.55.44.89.59.34.14.72.22,1.14.23.25,0,.5,0,.77-.03.27-.03.53-.08.78-.15.25-.08.49-.18.71-.31s.4-.31.55-.52l.02-3.16h-2.86v-1.51h4.56l.03,5.16Z"/><path class="cls-14" d="m406.43,281.57h-5.88v4.99h6.86v1.52h-8.65v-14.08h8.56v1.53h-6.77v4.53h5.88v1.52Z"/><path class="cls-14" d="m421.77,288.08h-1.82l-5.46-10.52-.03,10.52h-1.81v-14.08h1.82l5.46,10.5.03-10.5h1.81v14.08Z"/><path class="cls-14" d="m436.33,283.85c-.08.65-.25,1.25-.5,1.79-.25.54-.58,1.01-.98,1.4-.4.39-.88.69-1.43.91-.55.22-1.17.32-1.84.32-.58,0-1.11-.08-1.58-.25-.47-.16-.9-.39-1.27-.68-.37-.29-.69-.63-.96-1.03-.27-.39-.49-.82-.67-1.29-.18-.46-.31-.95-.4-1.46-.09-.51-.13-1.03-.14-1.55v-1.96c0-.52.05-1.04.14-1.55.09-.51.22-1,.4-1.46.18-.46.4-.89.67-1.29.27-.4.59-.74.96-1.03.37-.29.79-.52,1.26-.68.47-.16,1-.25,1.59-.25.7,0,1.33.11,1.89.32.55.22,1.03.52,1.43.92.4.4.72.87.96,1.43.24.56.4,1.17.48,1.84h-1.79c-.06-.43-.16-.82-.3-1.19-.14-.37-.33-.69-.57-.97-.24-.28-.53-.49-.88-.65-.34-.16-.75-.24-1.22-.24-.43,0-.8.07-1.13.21-.33.14-.61.33-.84.57-.24.24-.43.52-.59.83s-.28.65-.38,1.01c-.1.36-.17.72-.21,1.09s-.06.73-.06,1.08v1.98c0,.35.02.71.06,1.08s.11.74.21,1.09c.1.36.22.69.38,1.01.15.32.35.59.59.84.24.24.52.43.84.57.32.14.7.21,1.13.21.47,0,.88-.07,1.22-.22.35-.15.64-.36.88-.62.24-.27.43-.58.57-.95.14-.36.24-.76.3-1.18h1.79Z"/><path class="cls-14" d="m441.48,274h8.51v1.56h-3.37v10.98h3.37v1.55h-8.51v-1.55h3.3v-10.98h-3.3v-1.56Z"/><path class="cls-14" d="m462.46,284.44h-4.7l-1.13,3.65h-1.79l4.55-14.08h1.5l4.47,14.08h-1.78l-1.11-3.65Zm-4.22-1.56h3.74l-1.86-6.11-1.89,6.11Z"/><path class="cls-14" d="m484.08,288.08v-14.08h3.26c.98.01,1.86.18,2.63.5s1.42.76,1.95,1.33c.53.57.94,1.25,1.22,2.05.28.8.42,1.68.43,2.65v1.03c0,.97-.15,1.85-.43,2.65-.28.8-.69,1.48-1.22,2.05-.53.57-1.18,1.02-1.95,1.33s-1.65.48-2.63.49h-3.26Zm1.82-12.61v11.15h1.44c.76,0,1.42-.14,1.97-.4.55-.26,1.01-.62,1.38-1.07s.63-.98.81-1.6c.18-.61.27-1.28.28-1.99v-1.05c0-.72-.1-1.38-.28-1.99-.18-.61-.45-1.14-.81-1.59-.36-.45-.82-.8-1.37-1.06-.55-.26-1.21-.39-1.97-.41h-1.44Z"/><path class="cls-14" d="m506.28,281.57h-5.88v4.99h6.86v1.52h-8.65v-14.08h8.56v1.53h-6.77v4.53h5.88v1.52Z"/><path class="cls-14" d="m527.06,274h8.51v1.56h-3.37v10.98h3.37v1.55h-8.51v-1.55h3.3v-10.98h-3.3v-1.56Z"/><path class="cls-14" d="m550.14,288.08h-1.82l-5.46-10.52-.03,10.52h-1.81v-14.08h1.82l5.46,10.5.03-10.5h1.81v14.08Z"/><path class="cls-14" d="m564.4,288.08h-1.82l-5.46-10.52-.03,10.52h-1.81v-14.08h1.82l5.46,10.5.03-10.5h1.81v14.08Z"/><path class="cls-14" d="m579.01,281.85c0,.5-.05,1.01-.13,1.52-.08.51-.2,1.01-.37,1.49-.17.48-.38.92-.64,1.33-.26.41-.57.77-.93,1.08-.36.31-.78.55-1.24.73-.47.18-.99.27-1.57.27s-1.1-.09-1.57-.27c-.47-.18-.88-.42-1.24-.73-.36-.31-.67-.67-.94-1.09-.26-.42-.48-.86-.65-1.34-.17-.48-.3-.97-.38-1.48-.08-.51-.13-1.02-.14-1.52v-1.6c0-.5.05-1.01.13-1.52.08-.51.21-1.01.38-1.48.17-.48.39-.92.65-1.34.26-.42.57-.78.93-1.09.36-.31.78-.56,1.24-.74.47-.18.99-.27,1.57-.27s1.11.09,1.58.27c.47.18.89.42,1.25.73.36.31.67.67.93,1.09.26.42.48.86.65,1.34.17.48.3.97.38,1.49.08.52.12,1.03.13,1.53v1.6Zm-1.77-1.62c0-.34-.03-.69-.07-1.05-.04-.36-.1-.73-.2-1.08-.09-.36-.22-.7-.37-1.03s-.35-.61-.58-.86c-.23-.25-.51-.44-.82-.59-.32-.14-.68-.22-1.1-.22s-.78.07-1.09.22c-.32.15-.59.35-.82.6-.23.25-.43.53-.58.86s-.28.67-.37,1.03-.16.72-.2,1.08c-.04.36-.07.71-.07,1.04v1.62c0,.33.03.68.07,1.04.04.37.11.73.21,1.09s.22.7.38,1.03.35.62.58.87c.23.25.51.45.82.59.32.15.68.22,1.1.22s.79-.07,1.11-.22c.32-.15.59-.35.82-.59.23-.25.42-.53.57-.86.15-.33.27-.67.37-1.03.09-.36.16-.72.19-1.09.04-.37.06-.72.06-1.05v-1.62Z"/><path class="cls-14" d="m588.33,285.2l3.33-11.2h1.91l-4.44,14.08h-1.56l-4.45-14.08h1.92l3.3,11.2Z"/><path class="cls-14" d="m605.09,284.44h-4.7l-1.13,3.65h-1.79l4.55-14.08h1.5l4.47,14.08h-1.78l-1.11-3.65Zm-4.22-1.56h3.74l-1.86-6.11-1.89,6.11Z"/><path class="cls-14" d="m621.76,283.85c-.08.65-.25,1.25-.5,1.79-.25.54-.58,1.01-.98,1.4-.4.39-.88.69-1.43.91-.55.22-1.17.32-1.84.32-.58,0-1.11-.08-1.58-.25-.47-.16-.9-.39-1.27-.68-.37-.29-.69-.63-.96-1.03-.27-.39-.49-.82-.67-1.29-.18-.46-.31-.95-.4-1.46-.09-.51-.13-1.03-.14-1.55v-1.96c0-.52.05-1.04.14-1.55.09-.51.22-1,.4-1.46.18-.46.4-.89.67-1.29.27-.4.59-.74.96-1.03.37-.29.79-.52,1.26-.68s1-.25,1.59-.25c.7,0,1.33.11,1.89.32.55.22,1.03.52,1.43.92.4.4.72.87.96,1.43.24.56.4,1.17.48,1.84h-1.79c-.06-.43-.16-.82-.3-1.19-.14-.37-.33-.69-.57-.97-.24-.28-.53-.49-.88-.65-.34-.16-.75-.24-1.22-.24-.43,0-.8.07-1.13.21-.33.14-.61.33-.84.57-.24.24-.43.52-.59.83s-.28.65-.38,1.01c-.1.36-.17.72-.21,1.09-.04.37-.06.73-.06,1.08v1.98c0,.35.02.71.06,1.08.04.37.11.74.21,1.09.1.36.22.69.38,1.01.15.32.35.59.59.84.24.24.52.43.84.57.32.14.7.21,1.13.21.47,0,.88-.07,1.22-.22.35-.15.64-.36.88-.62.24-.27.43-.58.57-.95.14-.36.24-.76.3-1.18h1.79Z"/><path class="cls-14" d="m626.9,274h8.51v1.56h-3.37v10.98h3.37v1.55h-8.51v-1.55h3.3v-10.98h-3.3v-1.56Z"/><path class="cls-14" d="m650.32,281.85c0,.5-.05,1.01-.13,1.52-.08.51-.2,1.01-.37,1.49-.17.48-.38.92-.64,1.33s-.57.77-.93,1.08c-.36.31-.78.55-1.24.73-.47.18-.99.27-1.57.27s-1.1-.09-1.57-.27c-.47-.18-.88-.42-1.24-.73-.36-.31-.67-.67-.94-1.09-.26-.42-.48-.86-.65-1.34-.17-.48-.3-.97-.38-1.48-.08-.51-.13-1.02-.14-1.52v-1.6c0-.5.05-1.01.13-1.52.08-.51.21-1.01.38-1.48.17-.48.39-.92.65-1.34.26-.42.57-.78.93-1.09.36-.31.78-.56,1.24-.74.47-.18.99-.27,1.57-.27s1.11.09,1.58.27c.47.18.89.42,1.25.73.36.31.67.67.93,1.09.26.42.48.86.65,1.34.17.48.3.97.38,1.49.08.52.12,1.03.13,1.53v1.6Zm-1.77-1.62c0-.34-.03-.69-.07-1.05-.04-.36-.1-.73-.2-1.08-.09-.36-.22-.7-.37-1.03s-.35-.61-.58-.86c-.23-.25-.51-.44-.82-.59-.32-.14-.68-.22-1.1-.22s-.78.07-1.09.22c-.32.15-.59.35-.82.6-.23.25-.43.53-.58.86s-.28.67-.37,1.03-.16.72-.2,1.08c-.04.36-.07.71-.07,1.04v1.62c0,.33.03.68.07,1.04.04.37.11.73.21,1.09s.22.7.38,1.03.35.62.58.87c.23.25.51.45.82.59.32.15.68.22,1.1.22s.79-.07,1.11-.22c.32-.15.59-.35.82-.59.23-.25.42-.53.57-.86.15-.33.27-.67.37-1.03.09-.36.16-.72.19-1.09s.06-.72.06-1.05v-1.62Zm-2-9.99h2.17l-2.59,2.57h-1.35l1.78-2.57Z"/><path class="cls-14" d="m664.25,288.08h-1.82l-5.46-10.52-.03,10.52h-1.81v-14.08h1.82l5.46,10.5.03-10.5h1.81v14.08Z"/><path class="cls-14" d="m374.31,304.84l3.21-7.07h2.03l-4.38,8.83-.03,5.25h-1.66l-.03-5.25-4.38-8.83h2.04l3.2,7.07Z"/><path class="cls-14" d="m398.11,311.85v-14.08h3.26c.98.01,1.86.18,2.63.5.77.32,1.42.76,1.95,1.33.53.57.94,1.25,1.22,2.05.28.8.42,1.68.43,2.65v1.03c0,.97-.15,1.85-.43,2.65-.28.8-.69,1.48-1.22,2.05-.53.57-1.18,1.02-1.95,1.33s-1.65.48-2.63.49h-3.26Zm1.82-12.61v11.15h1.44c.76,0,1.42-.14,1.97-.4.55-.26,1.01-.62,1.38-1.07s.63-.98.81-1.6c.18-.61.27-1.28.28-1.99v-1.05c0-.72-.1-1.38-.28-1.99-.18-.61-.45-1.14-.81-1.59-.36-.45-.82-.8-1.37-1.06-.55-.26-1.21-.39-1.97-.41h-1.44Z"/><path class="cls-14" d="m419.91,305.34h-5.88v4.99h6.86v1.52h-8.65v-14.08h8.56v1.53h-6.77v4.53h5.88v1.52Z"/><path class="cls-14" d="m433.4,308.29c0-.43-.1-.8-.3-1.09s-.45-.55-.76-.75c-.31-.2-.65-.37-1.02-.51-.37-.14-.73-.26-1.07-.37-.5-.16-1-.35-1.51-.58s-.98-.5-1.4-.83-.77-.72-1.03-1.17c-.27-.45-.4-.97-.4-1.58s.13-1.15.4-1.63c.27-.48.62-.88,1.05-1.21.43-.33.92-.58,1.47-.75.55-.17,1.1-.26,1.65-.26.61,0,1.2.1,1.77.3s1.07.49,1.51.86c.44.37.79.81,1.05,1.33.26.52.4,1.11.42,1.75h-1.84c-.05-.41-.15-.78-.3-1.11-.15-.33-.34-.62-.59-.86s-.54-.42-.88-.56-.72-.2-1.15-.2c-.34,0-.68.05-1,.14-.33.1-.62.24-.87.44-.25.19-.46.43-.61.72-.15.28-.23.61-.23.99,0,.41.11.75.31,1.03.2.28.45.52.76.71.31.19.64.35,1,.48s.69.24,1.01.34c.35.11.7.23,1.05.37.35.14.7.3,1.03.48s.64.38.92.61c.28.23.53.48.74.77.21.29.38.6.5.95.12.35.18.73.18,1.15,0,.63-.14,1.18-.42,1.65s-.64.86-1.09,1.17c-.44.31-.95.55-1.51.71-.56.16-1.12.24-1.68.24-.63,0-1.24-.1-1.84-.29-.6-.19-1.14-.47-1.61-.84-.47-.36-.86-.81-1.16-1.33-.3-.53-.45-1.12-.47-1.79h1.83c.06.44.18.83.36,1.17.18.34.41.63.7.86s.61.41.98.53c.37.12.78.18,1.21.18.35,0,.69-.04,1.03-.13.34-.09.64-.22.9-.41s.48-.42.65-.7c.17-.28.25-.61.25-1Z"/><path class="cls-14" d="m446.61,308.21h-4.7l-1.13,3.65h-1.79l4.55-14.08h1.5l4.47,14.08h-1.78l-1.11-3.65Zm-4.22-1.56h3.74l-1.86-6.11-1.89,6.11Z"/><path class="cls-14" d="m458.42,306.11h-2.81v5.75h-1.78v-14.08h4.13c.66.01,1.28.11,1.86.28s1.09.44,1.52.78.78.78,1.03,1.31c.25.53.37,1.14.37,1.85,0,.46-.07.88-.2,1.26s-.31.73-.55,1.03c-.23.31-.51.58-.83.82-.32.24-.68.44-1.06.61l2.99,6.02v.12h-1.9l-2.77-5.75Zm-2.81-1.47h2.4c.4,0,.78-.07,1.13-.19s.67-.29.93-.52c.27-.23.48-.5.63-.83.15-.33.23-.7.23-1.13,0-.45-.07-.85-.22-1.18-.15-.34-.36-.62-.62-.85-.26-.23-.58-.4-.94-.52-.36-.12-.76-.18-1.19-.18h-2.35v5.4Z"/><path class="cls-14" d="m472.29,306.11h-2.81v5.75h-1.78v-14.08h4.13c.66.01,1.28.11,1.86.28s1.09.44,1.52.78.78.78,1.03,1.31c.25.53.37,1.14.37,1.85,0,.46-.07.88-.2,1.26s-.31.73-.55,1.03c-.23.31-.51.58-.83.82-.32.24-.68.44-1.06.61l2.99,6.02v.12h-1.9l-2.77-5.75Zm-2.81-1.47h2.4c.4,0,.78-.07,1.13-.19s.67-.29.93-.52.48-.5.63-.83c.15-.33.23-.7.23-1.13,0-.45-.07-.85-.22-1.18-.15-.34-.36-.62-.62-.85-.26-.23-.58-.4-.94-.52-.36-.12-.76-.18-1.19-.18h-2.35v5.4Z"/><path class="cls-14" d="m490.65,305.62c0,.5-.05,1.01-.13,1.52-.08.51-.2,1.01-.37,1.49-.17.48-.38.92-.64,1.33s-.57.77-.93,1.08c-.36.31-.78.55-1.24.73-.47.18-.99.27-1.57.27s-1.1-.09-1.57-.27c-.47-.18-.88-.42-1.24-.73-.36-.31-.67-.67-.94-1.09-.26-.42-.48-.86-.65-1.34-.17-.48-.3-.97-.38-1.48-.08-.51-.13-1.02-.14-1.52v-1.6c0-.5.05-1.01.13-1.52.08-.51.21-1.01.38-1.48.17-.48.39-.92.65-1.34.26-.42.57-.78.93-1.09.36-.31.78-.56,1.24-.74.47-.18.99-.27,1.57-.27s1.11.09,1.58.27c.47.18.89.42,1.25.73.36.31.67.67.93,1.09.26.42.48.86.65,1.34.17.48.3.97.38,1.49.08.52.12,1.03.13,1.53v1.6Zm-1.77-1.62c0-.34-.03-.69-.07-1.05-.04-.36-.1-.73-.2-1.08-.09-.36-.22-.7-.37-1.03s-.35-.61-.58-.86c-.23-.25-.51-.44-.82-.59-.32-.14-.68-.22-1.1-.22s-.78.07-1.09.22c-.32.15-.59.35-.82.6-.23.25-.43.53-.58.86-.15.33-.28.67-.37,1.03s-.16.72-.2,1.08c-.04.36-.07.71-.07,1.04v1.62c0,.33.03.68.07,1.04.04.37.11.73.21,1.09s.22.7.38,1.03c.15.33.35.62.58.87.23.25.51.45.82.59.32.15.68.22,1.1.22s.79-.07,1.11-.22c.32-.15.59-.35.82-.59.23-.25.42-.53.57-.86.15-.33.27-.67.37-1.03.09-.36.16-.72.19-1.09s.06-.72.06-1.05v-1.62Z"/><path class="cls-14" d="m497.38,310.33h6.89v1.52h-8.68v-14.08h1.79v12.56Z"/><path class="cls-14" d="m511.25,310.33h6.89v1.52h-8.68v-14.08h1.79v12.56Z"/><path class="cls-14" d="m532.25,305.62c0,.5-.05,1.01-.13,1.52-.08.51-.2,1.01-.37,1.49-.17.48-.38.92-.64,1.33s-.57.77-.93,1.08c-.36.31-.78.55-1.24.73-.47.18-.99.27-1.57.27s-1.1-.09-1.57-.27c-.47-.18-.88-.42-1.24-.73-.36-.31-.67-.67-.94-1.09-.26-.42-.48-.86-.65-1.34-.17-.48-.3-.97-.38-1.48-.08-.51-.13-1.02-.14-1.52v-1.6c0-.5.05-1.01.13-1.52.08-.51.21-1.01.38-1.48.17-.48.39-.92.65-1.34.26-.42.57-.78.93-1.09.36-.31.78-.56,1.24-.74.47-.18.99-.27,1.57-.27s1.11.09,1.58.27c.47.18.89.42,1.25.73.36.31.67.67.93,1.09.26.42.48.86.65,1.34.17.48.3.97.38,1.49.08.52.12,1.03.13,1.53v1.6Zm-1.77-1.62c0-.34-.03-.69-.07-1.05-.04-.36-.1-.73-.2-1.08-.09-.36-.22-.7-.37-1.03s-.35-.61-.58-.86c-.23-.25-.51-.44-.82-.59-.32-.14-.68-.22-1.1-.22s-.78.07-1.09.22c-.32.15-.59.35-.82.6-.23.25-.43.53-.58.86s-.28.67-.37,1.03-.16.72-.2,1.08c-.04.36-.07.71-.07,1.04v1.62c0,.33.03.68.07,1.04.04.37.11.73.21,1.09.1.36.22.7.38,1.03s.35.62.58.87c.23.25.51.45.82.59.32.15.68.22,1.1.22s.79-.07,1.11-.22c.32-.15.59-.35.82-.59.23-.25.42-.53.57-.86.15-.33.27-.67.37-1.03.09-.36.16-.72.19-1.09s.06-.72.06-1.05v-1.62Z"/><path class="cls-14" d="m558.58,305.34h-5.88v4.99h6.86v1.52h-8.65v-14.08h8.56v1.53h-6.77v4.53h5.88v1.52Z"/><path class="cls-14" d="m573.82,307.62c-.08.65-.25,1.25-.5,1.79s-.58,1.01-.98,1.4c-.4.39-.88.69-1.43.91-.55.22-1.17.32-1.84.32-.58,0-1.11-.08-1.58-.25-.47-.16-.9-.39-1.27-.68-.37-.29-.69-.63-.96-1.03-.27-.39-.49-.82-.67-1.29-.18-.46-.31-.95-.4-1.46-.09-.51-.13-1.03-.14-1.55v-1.96c0-.52.05-1.04.14-1.55.09-.51.22-1,.4-1.46.18-.46.4-.89.67-1.29.27-.4.59-.74.96-1.03.37-.29.79-.52,1.26-.68.47-.16,1-.25,1.59-.25.7,0,1.33.11,1.89.32.55.22,1.03.52,1.43.92.4.4.72.87.96,1.43.24.56.4,1.17.48,1.84h-1.79c-.06-.43-.16-.82-.3-1.19-.14-.37-.33-.69-.57-.97-.24-.28-.53-.49-.88-.65-.34-.16-.75-.24-1.22-.24-.43,0-.8.07-1.13.21-.33.14-.61.33-.84.57-.24.24-.43.52-.59.83s-.28.65-.38,1.01c-.1.36-.17.72-.21,1.09s-.06.73-.06,1.08v1.98c0,.35.02.71.06,1.08s.11.74.21,1.09c.1.36.22.69.38,1.01.15.32.35.59.59.84.24.24.52.43.84.57.32.14.7.21,1.13.21.47,0,.88-.07,1.22-.22.35-.15.64-.36.88-.62.24-.27.43-.58.57-.95.14-.36.24-.76.3-1.18h1.79Z"/><path class="cls-14" d="m587.72,305.62c0,.5-.05,1.01-.13,1.52-.08.51-.2,1.01-.37,1.49-.17.48-.38.92-.64,1.33s-.57.77-.93,1.08c-.36.31-.78.55-1.24.73-.47.18-.99.27-1.57.27s-1.1-.09-1.57-.27c-.47-.18-.88-.42-1.24-.73-.36-.31-.67-.67-.94-1.09-.26-.42-.48-.86-.65-1.34-.17-.48-.3-.97-.38-1.48-.08-.51-.13-1.02-.14-1.52v-1.6c0-.5.05-1.01.13-1.52.08-.51.21-1.01.38-1.48.17-.48.39-.92.65-1.34.26-.42.57-.78.93-1.09.36-.31.78-.56,1.24-.74.47-.18.99-.27,1.57-.27s1.11.09,1.58.27c.47.18.89.42,1.25.73.36.31.67.67.93,1.09.26.42.48.86.65,1.34.17.48.3.97.38,1.49.08.52.12,1.03.13,1.53v1.6Zm-1.77-1.62c0-.34-.03-.69-.07-1.05-.04-.36-.1-.73-.2-1.08-.09-.36-.22-.7-.37-1.03s-.35-.61-.58-.86c-.23-.25-.51-.44-.82-.59-.32-.14-.68-.22-1.1-.22s-.78.07-1.09.22c-.32.15-.59.35-.82.6-.23.25-.43.53-.58.86s-.28.67-.37,1.03-.16.72-.2,1.08c-.04.36-.07.71-.07,1.04v1.62c0,.33.03.68.07,1.04.04.37.11.73.21,1.09s.22.7.38,1.03.35.62.58.87c.23.25.51.45.82.59.32.15.68.22,1.1.22s.79-.07,1.11-.22c.32-.15.59-.35.82-.59.23-.25.42-.53.57-.86.15-.33.27-.67.37-1.03.09-.36.16-.72.19-1.09.04-.37.06-.72.06-1.05v-1.62Z"/><path class="cls-14" d="m601.25,311.85h-1.82l-5.46-10.52-.03,10.52h-1.81v-14.08h1.82l5.46,10.5.03-10.5h1.81v14.08Z"/><path class="cls-14" d="m615.46,305.62c0,.5-.05,1.01-.13,1.52-.08.51-.2,1.01-.37,1.49-.17.48-.38.92-.64,1.33-.26.41-.57.77-.93,1.08-.36.31-.78.55-1.24.73-.47.18-.99.27-1.57.27s-1.1-.09-1.57-.27c-.47-.18-.88-.42-1.24-.73-.36-.31-.67-.67-.94-1.09-.26-.42-.48-.86-.65-1.34-.17-.48-.3-.97-.38-1.48-.08-.51-.13-1.02-.14-1.52v-1.6c0-.5.05-1.01.13-1.52.08-.51.21-1.01.38-1.48.17-.48.39-.92.65-1.34.26-.42.57-.78.93-1.09.36-.31.78-.56,1.24-.74.47-.18.99-.27,1.57-.27s1.11.09,1.58.27c.47.18.89.42,1.25.73.36.31.67.67.93,1.09.26.42.48.86.65,1.34.17.48.3.97.38,1.49.08.52.12,1.03.13,1.53v1.6Zm-1.77-1.62c0-.34-.03-.69-.07-1.05-.04-.36-.1-.73-.2-1.08-.09-.36-.22-.7-.37-1.03s-.35-.61-.58-.86c-.23-.25-.51-.44-.82-.59-.32-.14-.68-.22-1.1-.22s-.78.07-1.09.22c-.32.15-.59.35-.82.6-.23.25-.43.53-.58.86s-.28.67-.37,1.03-.16.72-.2,1.08c-.04.36-.07.71-.07,1.04v1.62c0,.33.03.68.07,1.04.04.37.11.73.21,1.09s.22.7.38,1.03.35.62.58.87c.23.25.51.45.82.59.32.15.68.22,1.1.22s.79-.07,1.11-.22c.32-.15.59-.35.82-.59.23-.25.42-.53.57-.86.15-.33.27-.67.37-1.03.09-.36.16-.72.19-1.09s.06-.72.06-1.05v-1.62Zm-2-9.99h2.17l-2.59,2.57h-1.35l1.78-2.57Z"/><path class="cls-14" d="m622.13,297.77l2.29,7.04,2.48-7.04h2.22v14.08h-1.74v-5.62l.14-5.88-2.6,7.58h-1.03l-2.39-7.38.14,5.68v5.62h-1.74v-14.08h2.22Z"/><path class="cls-14" d="m634.03,297.77h8.51v1.56h-3.37v10.98h3.37v1.55h-8.51v-1.55h3.3v-10.98h-3.3v-1.56Z"/><path class="cls-14" d="m657.02,307.62c-.08.65-.25,1.25-.5,1.79s-.58,1.01-.98,1.4c-.4.39-.88.69-1.43.91-.55.22-1.17.32-1.84.32-.58,0-1.11-.08-1.58-.25-.47-.16-.9-.39-1.27-.68-.37-.29-.69-.63-.96-1.03-.27-.39-.49-.82-.67-1.29-.18-.46-.31-.95-.4-1.46-.09-.51-.13-1.03-.14-1.55v-1.96c0-.52.05-1.04.14-1.55.09-.51.22-1,.4-1.46.18-.46.4-.89.67-1.29.27-.4.59-.74.96-1.03.37-.29.79-.52,1.26-.68s1-.25,1.59-.25c.7,0,1.33.11,1.89.32.55.22,1.03.52,1.43.92.4.4.72.87.96,1.43.24.56.4,1.17.48,1.84h-1.79c-.06-.43-.16-.82-.3-1.19-.14-.37-.33-.69-.57-.97-.24-.28-.53-.49-.88-.65-.34-.16-.75-.24-1.22-.24-.43,0-.8.07-1.13.21-.33.14-.61.33-.84.57-.24.24-.43.52-.59.83s-.28.65-.38,1.01c-.1.36-.17.72-.21,1.09s-.06.73-.06,1.08v1.98c0,.35.02.71.06,1.08s.11.74.21,1.09c.1.36.22.69.38,1.01.15.32.35.59.59.84.24.24.52.43.84.57.32.14.7.21,1.13.21.47,0,.88-.07,1.22-.22.35-.15.64-.36.88-.62.24-.27.43-.58.57-.95.14-.36.24-.76.3-1.18h1.79Z"/><path class="cls-14" d="m670.92,305.62c0,.5-.05,1.01-.13,1.52-.08.51-.2,1.01-.37,1.49-.17.48-.38.92-.64,1.33-.26.41-.57.77-.93,1.08-.36.31-.78.55-1.24.73-.47.18-.99.27-1.57.27s-1.1-.09-1.57-.27c-.47-.18-.88-.42-1.24-.73-.36-.31-.67-.67-.94-1.09-.26-.42-.48-.86-.65-1.34-.17-.48-.3-.97-.38-1.48-.08-.51-.13-1.02-.14-1.52v-1.6c0-.5.05-1.01.13-1.52.08-.51.21-1.01.38-1.48.17-.48.39-.92.65-1.34.26-.42.57-.78.93-1.09.36-.31.78-.56,1.24-.74.47-.18.99-.27,1.57-.27s1.11.09,1.58.27c.47.18.89.42,1.25.73.36.31.67.67.93,1.09.26.42.48.86.65,1.34.17.48.3.97.38,1.49.08.52.12,1.03.13,1.53v1.6Zm-1.77-1.62c0-.34-.03-.69-.07-1.05-.04-.36-.1-.73-.2-1.08-.09-.36-.22-.7-.37-1.03s-.35-.61-.58-.86c-.23-.25-.51-.44-.82-.59-.32-.14-.68-.22-1.1-.22s-.78.07-1.09.22c-.32.15-.59.35-.82.6-.23.25-.43.53-.58.86s-.28.67-.37,1.03-.16.72-.2,1.08c-.04.36-.07.71-.07,1.04v1.62c0,.33.03.68.07,1.04.04.37.11.73.21,1.09.1.36.22.7.38,1.03s.35.62.58.87c.23.25.51.45.82.59.32.15.68.22,1.1.22s.79-.07,1.11-.22c.32-.15.59-.35.82-.59.23-.25.42-.53.57-.86.15-.33.27-.67.37-1.03.09-.36.16-.72.19-1.09s.06-.72.06-1.05v-1.62Z"/><path class="cls-14" d="m369.98,335.62v-14.08h3.26c.98.01,1.86.18,2.63.5s1.42.76,1.95,1.33c.53.57.94,1.25,1.22,2.05.28.8.42,1.68.43,2.65v1.03c0,.97-.15,1.85-.43,2.65-.28.8-.69,1.48-1.22,2.05-.53.57-1.18,1.02-1.95,1.33s-1.65.48-2.63.49h-3.26Zm1.82-12.61v11.15h1.44c.76,0,1.42-.14,1.97-.4.55-.26,1.01-.62,1.38-1.07.36-.45.63-.98.81-1.6.18-.61.27-1.28.28-1.99v-1.05c0-.72-.1-1.38-.28-1.99-.18-.61-.45-1.14-.81-1.59-.36-.45-.82-.8-1.37-1.06-.55-.26-1.21-.39-1.97-.41h-1.44Z"/><path class="cls-14" d="m391.78,329.11h-5.88v4.99h6.86v1.52h-8.65v-14.08h8.56v1.53h-6.77v4.53h5.88v1.52Z"/><path class="cls-14" d="m415.98,332.74l3.33-11.2h1.91l-4.44,14.08h-1.56l-4.45-14.08h1.92l3.3,11.2Z"/><path class="cls-14" d="m432.35,331.97h-4.7l-1.13,3.65h-1.79l4.55-14.08h1.5l4.47,14.08h-1.78l-1.11-3.65Zm-4.22-1.56h3.74l-1.86-6.11-1.89,6.11Z"/><path class="cls-14" d="m441.52,334.1h6.89v1.52h-8.68v-14.08h1.79v12.56Z"/><path class="cls-14" d="m455.39,334.1h6.89v1.52h-8.68v-14.08h1.79v12.56Z"/><path class="cls-14" d="m473.95,331.97h-4.7l-1.13,3.65h-1.79l4.55-14.08h1.5l4.47,14.08h-1.78l-1.11-3.65Zm-4.22-1.56h3.74l-1.86-6.11-1.89,6.11Z"/><path class="cls-14" d="m480.91,335.62v-14.08h3.26c.98.01,1.86.18,2.63.5s1.42.76,1.95,1.33c.53.57.94,1.25,1.22,2.05.28.8.42,1.68.43,2.65v1.03c0,.97-.15,1.85-.43,2.65-.28.8-.69,1.48-1.22,2.05-.53.57-1.18,1.02-1.95,1.33s-1.65.48-2.63.49h-3.26Zm1.82-12.61v11.15h1.44c.76,0,1.42-.14,1.97-.4.55-.26,1.01-.62,1.38-1.07s.63-.98.81-1.6c.18-.61.27-1.28.28-1.99v-1.05c0-.72-.1-1.38-.28-1.99-.18-.61-.45-1.14-.81-1.59-.36-.45-.82-.8-1.37-1.06-.55-.26-1.21-.39-1.97-.41h-1.44Z"/><path class="cls-14" d="m504.12,329.39c0,.5-.05,1.01-.13,1.52-.08.51-.2,1.01-.37,1.49-.17.48-.38.92-.64,1.33-.26.41-.57.77-.93,1.08-.36.31-.78.55-1.24.73-.47.18-.99.27-1.57.27s-1.1-.09-1.57-.27c-.47-.18-.88-.42-1.24-.73-.36-.31-.67-.67-.94-1.09-.26-.42-.48-.86-.65-1.34-.17-.48-.3-.97-.38-1.48-.08-.51-.13-1.02-.14-1.52v-1.6c0-.5.05-1.01.13-1.52.08-.51.21-1.01.38-1.48.17-.48.39-.92.65-1.34.26-.42.57-.78.93-1.09.36-.31.78-.56,1.24-.74.47-.18.99-.27,1.57-.27s1.11.09,1.58.27c.47.18.89.42,1.25.73.36.31.67.67.93,1.09.26.42.48.86.65,1.34.17.48.3.97.38,1.49.08.52.12,1.03.13,1.53v1.6Zm-1.77-1.62c0-.34-.03-.69-.07-1.05-.04-.36-.1-.73-.2-1.08-.09-.36-.22-.7-.37-1.03s-.35-.61-.58-.86c-.23-.25-.51-.44-.82-.59-.32-.14-.68-.22-1.1-.22s-.78.07-1.09.22c-.32.15-.59.35-.82.6-.23.25-.43.53-.58.86s-.28.67-.37,1.03-.16.72-.2,1.08c-.04.36-.07.71-.07,1.04v1.62c0,.33.03.68.07,1.04.04.37.11.73.21,1.09s.22.7.38,1.03.35.62.58.87c.23.25.51.45.82.59.32.15.68.22,1.1.22s.79-.07,1.11-.22c.32-.15.59-.35.82-.59.23-.25.42-.53.57-.86.15-.33.27-.67.37-1.03.09-.36.16-.72.19-1.09s.06-.72.06-1.05v-1.62Z"/><path class="cls-14" d="m510.85,334.1h6.89v1.52h-8.68v-14.08h1.79v12.56Z"/><path class="cls-14" d="m522.7,321.54h8.51v1.56h-3.37v10.98h3.37v1.55h-8.51v-1.55h3.3v-10.98h-3.3v-1.56Z"/><path class="cls-14" d="m536.38,335.62v-14.08h3.26c.98.01,1.86.18,2.63.5s1.42.76,1.95,1.33c.53.57.94,1.25,1.22,2.05.28.8.42,1.68.43,2.65v1.03c0,.97-.15,1.85-.43,2.65-.28.8-.69,1.48-1.22,2.05-.53.57-1.18,1.02-1.95,1.33s-1.65.48-2.63.49h-3.26Zm1.82-12.61v11.15h1.44c.76,0,1.42-.14,1.97-.4.55-.26,1.01-.62,1.38-1.07s.63-.98.81-1.6c.18-.61.27-1.28.28-1.99v-1.05c0-.72-.1-1.38-.28-1.99-.18-.61-.45-1.14-.81-1.59-.36-.45-.82-.8-1.37-1.06-.55-.26-1.21-.39-1.97-.41h-1.44Z"/><path class="cls-4" d="m1119.47,153.14c-4.65-1.55-10.21-10.97-10.06-17.02,5.62,2.12,10.95,11.67,10.06,17.02"/><path class="cls-1" d="m1119.47,153.14c-4.65-1.55-10.21-10.97-10.06-17.02,5.62,2.12,10.95,11.67,10.06,17.02Z"/><line class="cls-4" x1="1119.47" y1="153.14" x2="1113.41" y2="142.34"/><line class="cls-1" x1="1119.47" y1="153.14" x2="1113.41" y2="142.34"/><path class="cls-4" d="m1120.05,154.62c-4.18-3.84-6.87-16.56-4.85-23,4.97,4.92,7.39,17.68,4.85,23"/><path class="cls-1" d="m1120.05,154.62c-4.18-3.84-6.87-16.56-4.85-23,4.97,4.92,7.39,17.68,4.85,23Z"/><line class="cls-4" x1="1120.05" y1="154.62" x2="1117.29" y2="140.2"/><line class="cls-1" x1="1120.05" y1="154.62" x2="1117.29" y2="140.2"/><path class="cls-4" d="m1121.49,156.65c-4.46.86-12.68-7.19-14.85-14.55,5.48-.73,13.55,7.61,14.85,14.55"/><path class="cls-1" d="m1121.49,156.65c-4.46.86-12.68-7.19-14.85-14.55,5.48-.73,13.55,7.61,14.85,14.55Z"/><line class="cls-4" x1="1121.49" y1="156.65" x2="1112.32" y2="147.25"/><line class="cls-1" x1="1121.49" y1="156.65" x2="1112.32" y2="147.25"/><path class="cls-4" d="m1125.61,164.38c-4.03-4.19-6.1-16.97-3.75-23.12,4.77,5.31,6.57,18.12,3.75,23.12"/><path class="cls-1" d="m1125.61,164.38c-4.03-4.19-6.1-16.97-3.75-23.12,4.77,5.31,6.57,18.12,3.75,23.12Z"/><line class="cls-4" x1="1125.61" y1="164.38" x2="1123.55" y2="149.9"/><line class="cls-1" x1="1125.61" y1="164.38" x2="1123.55" y2="149.9"/><path class="cls-4" d="m1126.59,165.53c-4.34,1.47-13.03-5.65-15.71-12.89,5.36-1.47,13.93,5.98,15.71,12.89"/><path class="cls-1" d="m1126.59,165.53c-4.34,1.47-13.03-5.65-15.71-12.89,5.36-1.47,13.93,5.98,15.71,12.89Z"/><line class="cls-4" x1="1126.59" y1="165.53" x2="1116.86" y2="157.14"/><line class="cls-1" x1="1126.59" y1="165.53" x2="1116.86" y2="157.14"/><path class="cls-4" d="m1127.58,180.06c-4.69.41-13.46-8.5-13.68-20.15,10.11,1.29,13.13,11.41,13.68,20.15"/><path class="cls-1" d="m1127.58,180.06c-4.69.41-13.46-8.5-13.68-20.15,10.11,1.29,13.13,11.41,13.68,20.15Z"/><line class="cls-4" x1="1127.58" y1="180.06" x2="1119.2" y2="167.1"/><line class="cls-1" x1="1127.58" y1="180.06" x2="1119.2" y2="167.1"/><path class="cls-4" d="m1127.58,180.06c-3.59-5.82-3.88-19.81,1.15-28.42,5.46,9.65,2.37,22.86-1.15,28.42"/><path class="cls-1" d="m1127.58,180.06c-3.59-5.82-3.88-19.81,1.15-28.42,5.46,9.65,2.37,22.86-1.15,28.42Z"/><line class="cls-4" x1="1127.58" y1="180.06" x2="1127.31" y2="162.09"/><line class="cls-1" x1="1127.58" y1="180.06" x2="1127.31" y2="162.09"/><path class="cls-4" d="m1125.79,194c-4.14-.9-9.83-10.9-7.57-21.01,8.46,3.79,8.93,13.32,7.57,21.01"/><path class="cls-1" d="m1125.79,194c-4.14-.9-9.83-10.9-7.57-21.01,8.46,3.79,8.93,13.32,7.57,21.01Z"/><line class="cls-4" x1="1125.79" y1="194" x2="1121.28" y2="180.59"/><line class="cls-1" x1="1125.79" y1="194" x2="1121.28" y2="180.59"/><path class="cls-4" d="m1125.79,194c-1.88-5.97.82-18.11,6.98-24.21,2.67,9.77-2.76,20.35-6.98,24.21"/><path class="cls-1" d="m1125.79,194c-1.88-5.97.82-18.11,6.98-24.21,2.67,9.77-2.76,20.35-6.98,24.21Z"/><line class="cls-4" x1="1125.79" y1="194" x2="1129.34" y2="178.42"/><line class="cls-1" x1="1125.79" y1="194" x2="1129.34" y2="178.42"/><path class="cls-4" d="m1121.13,205.7c-3.31-1.62-6.76-13.05-3.62-23.31,6.52,5.38,5.71,15.46,3.62,23.31"/><path class="cls-1" d="m1121.13,205.7c-3.31-1.62-6.76-13.05-3.62-23.31,6.52,5.38,5.71,15.46,3.62,23.31Z"/><line class="cls-4" x1="1121.13" y1="205.7" x2="1119.08" y2="190.88"/><line class="cls-1" x1="1121.13" y1="205.7" x2="1119.08" y2="190.88"/><path class="cls-4" d="m1121.13,205.7c-1.54-12.7,4.85-15.98,12.28-22.84.99,10.7-8.31,19.47-12.28,22.84"/><path class="cls-1" d="m1121.13,205.7c-1.54-12.7,4.85-15.98,12.28-22.84.99,10.7-8.31,19.47-12.28,22.84Z"/><line class="cls-4" x1="1121.13" y1="205.7" x2="1129.2" y2="191.67"/><line class="cls-1" x1="1121.13" y1="205.7" x2="1129.2" y2="191.67"/><path class="cls-4" d="m1113.06,218.28c-3.11-2.62-4.01-15.99,1.78-26.39,8.38,11.25,2.65,17.72-1.78,26.39"/><path class="cls-1" d="m1113.06,218.28c-3.11-2.62-4.01-15.99,1.78-26.39,8.38,11.25,2.65,17.72-1.78,26.39Z"/><line class="cls-4" x1="1113.06" y1="218.28" x2="1114.46" y2="201.57"/><line class="cls-1" x1="1113.06" y1="218.28" x2="1114.46" y2="201.57"/><path class="cls-4" d="m1112.78,218.28c1.42-14.27,8.97-16.25,18.49-21.85-1.52,11.94-13.48,19.17-18.49,21.85"/><path class="cls-1" d="m1112.78,218.28c1.42-14.27,8.97-16.25,18.49-21.85-1.52,11.94-13.48,19.17-18.49,21.85Z"/><line class="cls-4" x1="1112.78" y1="218.28" x2="1124.7" y2="205"/><line class="cls-1" x1="1112.78" y1="218.28" x2="1124.7" y2="205"/><path class="cls-4" d="m1100.05,228.35c-1.97-3.57,1.95-16.37,11.06-23.98,3.82,13.54-3.84,17.5-11.06,23.98"/><path class="cls-1" d="m1100.05,228.35c-1.97-3.57,1.95-16.37,11.06-23.98,3.82,13.54-3.84,17.5-11.06,23.98Z"/><line class="cls-4" x1="1100.05" y1="228.35" x2="1107.31" y2="213.26"/><line class="cls-1" x1="1100.05" y1="228.35" x2="1107.31" y2="213.26"/><path class="cls-4" d="m1099.78,228.25c6.41-12.8,14.16-11.9,25.03-13.67-5.68,10.58-19.4,12.99-25.03,13.67"/><path class="cls-1" d="m1099.78,228.25c6.41-12.8,14.16-11.9,25.03-13.67-5.68,10.58-19.4,12.99-25.03,13.67Z"/><line class="cls-4" x1="1099.78" y1="228.25" x2="1115.65" y2="220.17"/><line class="cls-1" x1="1099.78" y1="228.25" x2="1115.65" y2="220.17"/><path class="cls-4" d="m1080.15,233.57c-.7-6.86,13.8-18,24.28-18.26-2.98,14.86-11.8,15.3-24.28,18.26"/><path class="cls-1" d="m1080.15,233.57c-.7-6.86,13.8-18,24.28-18.26-2.98,14.86-11.8,15.3-24.28,18.26Z"/><line class="cls-4" x1="1080.15" y1="233.57" x2="1095.9" y2="223.57"/><line class="cls-1" x1="1080.15" y1="233.57" x2="1095.9" y2="223.57"/><path class="cls-4" d="m1079.9,233.38c13.66-8.39,22.7-7.49,35.73-4.72-11.72,6.78-29.1,6.35-35.73,4.72"/><path class="cls-1" d="m1079.9,233.38c13.66-8.39,22.7-7.49,35.73-4.72-11.72,6.78-29.1,6.35-35.73,4.72Z"/><line class="cls-4" x1="1079.9" y1="233.38" x2="1102.85" y2="230.1"/><line class="cls-1" x1="1079.9" y1="233.38" x2="1102.85" y2="230.1"/><path class="cls-4" d="m1088.95,235.73c-6.29-2.01-14.16-.57-14.16-.57l.67-2.31s7.01-1.47,13.59.55c6.58,2.02,11.31,6.89,11.31,6.89l-.99,3.18s-4.12-5.72-10.4-7.73"/><path class="cls-1" d="m1088.95,235.73c-6.29-2.01-14.16-.57-14.16-.57l.67-2.31s7.01-1.47,13.59.55c6.58,2.02,11.31,6.89,11.31,6.89l-.99,3.18s-4.12-5.72-10.4-7.73Z"/><path class="cls-12" d="m1119.38,175.2c.85,0,1.53-.69,1.53-1.54s-.68-1.55-1.53-1.55-1.54.69-1.54,1.55.69,1.54,1.54,1.54"/><path class="cls-1" d="m1119.38,175.2c.85,0,1.53-.69,1.53-1.54s-.68-1.55-1.53-1.55-1.54.69-1.54,1.55.69,1.54,1.54,1.54Z"/><path class="cls-12" d="m1119.04,184.55c.84,0,1.53-.69,1.53-1.54s-.69-1.55-1.53-1.55-1.54.69-1.54,1.55.68,1.54,1.54,1.54"/><path class="cls-1" d="m1119.04,184.55c.84,0,1.53-.69,1.53-1.54s-.69-1.55-1.53-1.55-1.54.69-1.54,1.55.68,1.54,1.54,1.54Z"/><path class="cls-12" d="m1131.37,185.59c.85,0,1.53-.69,1.53-1.54s-.69-1.55-1.53-1.55-1.54.69-1.54,1.55.69,1.54,1.54,1.54"/><path class="cls-1" d="m1131.37,185.59c.85,0,1.53-.69,1.53-1.54s-.69-1.55-1.53-1.55-1.54.69-1.54,1.55.69,1.54,1.54,1.54Z"/><path class="cls-12" d="m1112.86,153.74c.85,0,1.54-.69,1.54-1.54s-.69-1.55-1.54-1.55-1.53.7-1.53,1.55.68,1.54,1.53,1.54"/><path class="cls-1" d="m1112.86,153.74c.85,0,1.54-.69,1.54-1.54s-.69-1.55-1.54-1.55-1.53.7-1.53,1.55.68,1.54,1.53,1.54Z"/><path class="cls-12" d="m1120.75,145.43c.85,0,1.53-.69,1.53-1.55s-.68-1.54-1.53-1.54-1.54.69-1.54,1.54.69,1.55,1.54,1.55"/><path class="cls-1" d="m1120.75,145.43c.85,0,1.53-.69,1.53-1.55s-.68-1.54-1.53-1.54-1.54.69-1.54,1.54.69,1.55,1.54,1.55Z"/><path class="cls-12" d="m1113.73,159.81c0-.85.69-1.54,1.53-1.54s1.54.7,1.54,1.54-.69,1.55-1.54,1.55-1.53-.7-1.53-1.55"/><path class="cls-1" d="m1113.73,159.81c0-.85.69-1.54,1.53-1.54s1.54.7,1.54,1.54-.69,1.55-1.54,1.55-1.53-.7-1.53-1.55Z"/><path class="cls-12" d="m1127.26,154.78c.84,0,1.53-.69,1.53-1.54s-.69-1.55-1.53-1.55-1.54.69-1.54,1.55.69,1.54,1.54,1.54"/><path class="cls-1" d="m1127.26,154.78c.84,0,1.53-.69,1.53-1.54s-.69-1.55-1.53-1.55-1.54.69-1.54,1.55.69,1.54,1.54,1.54Z"/><path class="cls-12" d="m1131.37,172.43c.85,0,1.53-.69,1.53-1.55s-.69-1.55-1.53-1.55-1.54.69-1.54,1.55.69,1.55,1.54,1.55"/><path class="cls-1" d="m1131.37,172.43c.85,0,1.53-.69,1.53-1.55s-.69-1.55-1.53-1.55-1.54.69-1.54,1.55.69,1.55,1.54,1.55Z"/><path class="cls-12" d="m1116.29,194.59c.85,0,1.54-.69,1.54-1.55s-.69-1.54-1.54-1.54-1.53.69-1.53,1.54.69,1.55,1.53,1.55"/><path class="cls-1" d="m1116.29,194.59c.85,0,1.54-.69,1.54-1.55s-.69-1.54-1.54-1.54-1.53.69-1.53,1.54.69,1.55,1.53,1.55Z"/><path class="cls-12" d="m1130,198.4c.85,0,1.54-.7,1.54-1.55s-.69-1.55-1.54-1.55-1.54.7-1.54,1.55.68,1.55,1.54,1.55"/><path class="cls-1" d="m1130,198.4c.85,0,1.54-.7,1.54-1.55s-.69-1.55-1.54-1.55-1.54.7-1.54,1.55.68,1.55,1.54,1.55Z"/><path class="cls-12" d="m1110.3,206.19c0-.86.68-1.55,1.53-1.55s1.54.7,1.54,1.55-.69,1.55-1.54,1.55-1.53-.7-1.53-1.55"/><path class="cls-1" d="m1110.3,206.19c0-.86.68-1.55,1.53-1.55s1.54.7,1.54,1.55-.69,1.55-1.54,1.55-1.53-.7-1.53-1.55Z"/><path class="cls-12" d="m1122.46,215.01c.85,0,1.53-.69,1.53-1.55s-.68-1.54-1.53-1.54-1.53.69-1.53,1.54.68,1.55,1.53,1.55"/><path class="cls-1" d="m1122.46,215.01c.85,0,1.53-.69,1.53-1.55s-.68-1.54-1.53-1.54-1.53.69-1.53,1.54.68,1.55,1.53,1.55Z"/><path class="cls-12" d="m1111.33,226.62c0-.85.68-1.55,1.53-1.55s1.54.69,1.54,1.55-.69,1.54-1.54,1.54-1.53-.69-1.53-1.54"/><path class="cls-1" d="m1111.33,226.62c0-.85.68-1.55,1.53-1.55s1.54.69,1.54,1.55-.69,1.54-1.54,1.54-1.53-.69-1.53-1.54Z"/><path class="cls-4" d="m1029.27,153.14c4.65-1.55,10.21-10.97,10.05-17.02-5.62,2.12-10.94,11.67-10.05,17.02"/><path class="cls-1" d="m1029.27,153.14c4.65-1.55,10.21-10.97,10.05-17.02-5.62,2.12-10.94,11.67-10.05,17.02Z"/><line class="cls-4" x1="1029.27" y1="153.14" x2="1035.33" y2="142.34"/><line class="cls-1" x1="1029.27" y1="153.14" x2="1035.33" y2="142.34"/><path class="cls-4" d="m1028.69,154.62c4.19-3.84,6.87-16.56,4.86-23-4.97,4.92-7.39,17.68-4.86,23"/><path class="cls-1" d="m1028.69,154.62c4.19-3.84,6.87-16.56,4.86-23-4.97,4.92-7.39,17.68-4.86,23Z"/><line class="cls-4" x1="1028.69" y1="154.62" x2="1031.46" y2="140.2"/><line class="cls-1" x1="1028.69" y1="154.62" x2="1031.46" y2="140.2"/><path class="cls-4" d="m1027.26,156.65c4.46.86,12.68-7.19,14.86-14.55-5.48-.73-13.56,7.61-14.86,14.55"/><path class="cls-1" d="m1027.26,156.65c4.46.86,12.68-7.19,14.86-14.55-5.48-.73-13.56,7.61-14.86,14.55Z"/><line class="cls-4" x1="1027.26" y1="156.65" x2="1036.42" y2="147.25"/><line class="cls-1" x1="1027.26" y1="156.65" x2="1036.42" y2="147.25"/><path class="cls-4" d="m1023.13,164.38c4.04-4.19,6.1-16.97,3.75-23.12-4.77,5.31-6.57,18.12-3.75,23.12"/><path class="cls-1" d="m1023.13,164.38c4.04-4.19,6.1-16.97,3.75-23.12-4.77,5.31-6.57,18.12-3.75,23.12Z"/><line class="cls-4" x1="1023.13" y1="164.38" x2="1025.2" y2="149.9"/><line class="cls-1" x1="1023.13" y1="164.38" x2="1025.2" y2="149.9"/><path class="cls-4" d="m1022.16,165.53c4.34,1.47,13.04-5.65,15.72-12.89-5.36-1.47-13.94,5.98-15.72,12.89"/><path class="cls-1" d="m1022.16,165.53c4.34,1.47,13.04-5.65,15.72-12.89-5.36-1.47-13.94,5.98-15.72,12.89Z"/><line class="cls-4" x1="1022.16" y1="165.53" x2="1031.88" y2="157.14"/><line class="cls-1" x1="1022.16" y1="165.53" x2="1031.88" y2="157.14"/><path class="cls-4" d="m1021.16,180.06c4.7.41,13.46-8.5,13.69-20.15-10.12,1.29-13.14,11.41-13.69,20.15"/><path class="cls-1" d="m1021.16,180.06c4.7.41,13.46-8.5,13.69-20.15-10.12,1.29-13.14,11.41-13.69,20.15Z"/><line class="cls-4" x1="1021.16" y1="180.06" x2="1029.54" y2="167.1"/><line class="cls-1" x1="1021.16" y1="180.06" x2="1029.54" y2="167.1"/><path class="cls-4" d="m1021.16,180.06c3.59-5.82,3.88-19.81-1.15-28.42-5.45,9.65-2.37,22.86,1.15,28.42"/><path class="cls-1" d="m1021.16,180.06c3.59-5.82,3.88-19.81-1.15-28.42-5.45,9.65-2.37,22.86,1.15,28.42Z"/><line class="cls-4" x1="1021.16" y1="180.06" x2="1021.43" y2="162.09"/><line class="cls-1" x1="1021.16" y1="180.06" x2="1021.43" y2="162.09"/><path class="cls-4" d="m1022.96,194c4.13-.9,9.82-10.9,7.56-21.01-8.46,3.79-8.92,13.32-7.56,21.01"/><path class="cls-1" d="m1022.96,194c4.13-.9,9.82-10.9,7.56-21.01-8.46,3.79-8.92,13.32-7.56,21.01Z"/><line class="cls-4" x1="1022.96" y1="194" x2="1027.47" y2="180.59"/><line class="cls-1" x1="1022.96" y1="194" x2="1027.47" y2="180.59"/><path class="cls-4" d="m1022.96,194c1.87-5.97-.83-18.11-6.99-24.21-2.68,9.77,2.77,20.35,6.99,24.21"/><path class="cls-1" d="m1022.96,194c1.87-5.97-.83-18.11-6.99-24.21-2.68,9.77,2.77,20.35,6.99,24.21Z"/><line class="cls-4" x1="1022.96" y1="194" x2="1019.4" y2="178.42"/><line class="cls-1" x1="1022.96" y1="194" x2="1019.4" y2="178.42"/><path class="cls-4" d="m1027.61,205.7c3.32-1.62,6.77-13.05,3.63-23.31-6.52,5.38-5.72,15.46-3.63,23.31"/><path class="cls-1" d="m1027.61,205.7c3.32-1.62,6.77-13.05,3.63-23.31-6.52,5.38-5.72,15.46-3.63,23.31Z"/><line class="cls-4" x1="1027.61" y1="205.7" x2="1029.66" y2="190.88"/><line class="cls-1" x1="1027.61" y1="205.7" x2="1029.66" y2="190.88"/><path class="cls-4" d="m1027.61,205.7c1.55-12.7-4.84-15.98-12.28-22.84-.99,10.7,8.31,19.47,12.28,22.84"/><path class="cls-1" d="m1027.61,205.7c1.55-12.7-4.84-15.98-12.28-22.84-.99,10.7,8.31,19.47,12.28,22.84Z"/><line class="cls-4" x1="1027.61" y1="205.7" x2="1019.54" y2="191.67"/><line class="cls-1" x1="1027.61" y1="205.7" x2="1019.54" y2="191.67"/><path class="cls-4" d="m1035.68,218.28c3.11-2.62,4.01-15.99-1.77-26.39-8.4,11.25-2.65,17.72,1.77,26.39"/><path class="cls-1" d="m1035.68,218.28c3.11-2.62,4.01-15.99-1.77-26.39-8.4,11.25-2.65,17.72,1.77,26.39Z"/><line class="cls-4" x1="1035.68" y1="218.28" x2="1034.28" y2="201.57"/><line class="cls-1" x1="1035.68" y1="218.28" x2="1034.28" y2="201.57"/><path class="cls-4" d="m1035.97,218.28c-1.43-14.27-8.98-16.25-18.5-21.85,1.54,11.94,13.49,19.17,18.5,21.85"/><path class="cls-1" d="m1035.97,218.28c-1.43-14.27-8.98-16.25-18.5-21.85,1.54,11.94,13.49,19.17,18.5,21.85Z"/><line class="cls-4" x1="1035.97" y1="218.28" x2="1024.05" y2="205"/><line class="cls-1" x1="1035.97" y1="218.28" x2="1024.05" y2="205"/><path class="cls-4" d="m1048.69,228.35c1.97-3.57-1.95-16.37-11.06-23.98-3.81,13.54,3.85,17.5,11.06,23.98"/><path class="cls-1" d="m1048.69,228.35c1.97-3.57-1.95-16.37-11.06-23.98-3.81,13.54,3.85,17.5,11.06,23.98Z"/><line class="cls-4" x1="1048.69" y1="228.35" x2="1041.43" y2="213.26"/><line class="cls-1" x1="1048.69" y1="228.35" x2="1041.43" y2="213.26"/><path class="cls-4" d="m1048.96,228.25c-6.41-12.8-14.16-11.9-25.04-13.67,5.68,10.58,19.41,12.99,25.04,13.67"/><path class="cls-1" d="m1048.96,228.25c-6.41-12.8-14.16-11.9-25.04-13.67,5.68,10.58,19.41,12.99,25.04,13.67Z"/><line class="cls-4" x1="1048.96" y1="228.25" x2="1033.1" y2="220.17"/><line class="cls-1" x1="1048.96" y1="228.25" x2="1033.1" y2="220.17"/><path class="cls-4" d="m1068.59,233.57c.69-6.86-13.79-18-24.28-18.26,2.98,14.86,11.8,15.3,24.28,18.26"/><path class="cls-1" d="m1068.59,233.57c.69-6.86-13.79-18-24.28-18.26,2.98,14.86,11.8,15.3,24.28,18.26Z"/><line class="cls-4" x1="1068.59" y1="233.57" x2="1052.84" y2="223.57"/><line class="cls-1" x1="1068.59" y1="233.57" x2="1052.84" y2="223.57"/><path class="cls-4" d="m1068.83,233.38c-13.65-8.39-22.69-7.49-35.72-4.72,11.71,6.78,29.1,6.35,35.72,4.72"/><path class="cls-1" d="m1068.83,233.38c-13.65-8.39-22.69-7.49-35.72-4.72,11.71,6.78,29.1,6.35,35.72,4.72Z"/><line class="cls-4" x1="1068.83" y1="233.38" x2="1045.9" y2="230.1"/><line class="cls-1" x1="1068.83" y1="233.38" x2="1045.9" y2="230.1"/><path class="cls-4" d="m1059.79,235.73c6.29-2.01,14.16-.57,14.16-.57l-.67-2.31s-7.01-1.47-13.58.55c-6.57,2.02-11.29,6.89-11.29,6.89l.99,3.18s4.11-5.72,10.4-7.73"/><path class="cls-1" d="m1059.79,235.73c6.29-2.01,14.16-.57,14.16-.57l-.67-2.31s-7.01-1.47-13.58.55c-6.57,2.02-11.29,6.89-11.29,6.89l.99,3.18s4.11-5.72,10.4-7.73Z"/><path class="cls-12" d="m1029.37,175.2c-.85,0-1.54-.69-1.54-1.54s.69-1.55,1.54-1.55,1.53.69,1.53,1.55-.68,1.54-1.53,1.54"/><path class="cls-1" d="m1029.37,175.2c-.85,0-1.54-.69-1.54-1.54s.69-1.55,1.54-1.55,1.53.69,1.53,1.55-.68,1.54-1.53,1.54Z"/><path class="cls-12" d="m1029.71,184.55c-.85,0-1.53-.69-1.53-1.54s.69-1.55,1.53-1.55,1.54.69,1.54,1.55-.69,1.54-1.54,1.54"/><path class="cls-1" d="m1029.71,184.55c-.85,0-1.53-.69-1.53-1.54s.69-1.55,1.53-1.55,1.54.69,1.54,1.55-.69,1.54-1.54,1.54Z"/><path class="cls-12" d="m1017.37,185.59c-.84,0-1.53-.69-1.53-1.54s.69-1.55,1.53-1.55,1.53.69,1.53,1.55-.68,1.54-1.53,1.54"/><path class="cls-1" d="m1017.37,185.59c-.84,0-1.53-.69-1.53-1.54s.69-1.55,1.53-1.55,1.53.69,1.53,1.55-.68,1.54-1.53,1.54Z"/><path class="cls-12" d="m1035.89,153.74c-.85,0-1.54-.69-1.54-1.54s.69-1.55,1.54-1.55,1.53.7,1.53,1.55-.68,1.54-1.53,1.54"/><path class="cls-1" d="m1035.89,153.74c-.85,0-1.54-.69-1.54-1.54s.69-1.55,1.54-1.55,1.53.7,1.53,1.55-.68,1.54-1.53,1.54Z"/><path class="cls-12" d="m1028,145.43c-.85,0-1.54-.69-1.54-1.55s.69-1.54,1.54-1.54,1.53.69,1.53,1.54-.68,1.55-1.53,1.55"/><path class="cls-1" d="m1028,145.43c-.85,0-1.54-.69-1.54-1.55s.69-1.54,1.54-1.54,1.53.69,1.53,1.54-.68,1.55-1.53,1.55Z"/><path class="cls-12" d="m1035.02,159.81c0-.85-.68-1.54-1.53-1.54s-1.53.7-1.53,1.54.69,1.55,1.53,1.55,1.53-.7,1.53-1.55"/><path class="cls-1" d="m1035.02,159.81c0-.85-.68-1.54-1.53-1.54s-1.53.7-1.53,1.54.69,1.55,1.53,1.55,1.53-.7,1.53-1.55Z"/><path class="cls-12" d="m1021.48,154.78c-.84,0-1.54-.69-1.54-1.54s.69-1.55,1.54-1.55,1.54.69,1.54,1.55-.69,1.54-1.54,1.54"/><path class="cls-1" d="m1021.48,154.78c-.84,0-1.54-.69-1.54-1.54s.69-1.55,1.54-1.55,1.54.69,1.54,1.55-.69,1.54-1.54,1.54Z"/><path class="cls-12" d="m1017.37,172.43c-.84,0-1.53-.69-1.53-1.55s.69-1.55,1.53-1.55,1.53.69,1.53,1.55-.68,1.55-1.53,1.55"/><path class="cls-1" d="m1017.37,172.43c-.84,0-1.53-.69-1.53-1.55s.69-1.55,1.53-1.55,1.53.69,1.53,1.55-.68,1.55-1.53,1.55Z"/><path class="cls-12" d="m1032.46,194.59c-.85,0-1.53-.69-1.53-1.55s.69-1.54,1.53-1.54,1.53.69,1.53,1.54-.68,1.55-1.53,1.55"/><path class="cls-1" d="m1032.46,194.59c-.85,0-1.53-.69-1.53-1.55s.69-1.54,1.53-1.54,1.53.69,1.53,1.54-.68,1.55-1.53,1.55Z"/><path class="cls-12" d="m1018.74,198.4c-.84,0-1.53-.7-1.53-1.55s.69-1.55,1.53-1.55,1.54.7,1.54,1.55-.69,1.55-1.54,1.55"/><path class="cls-1" d="m1018.74,198.4c-.84,0-1.53-.7-1.53-1.55s.69-1.55,1.53-1.55,1.54.7,1.54,1.55-.69,1.55-1.54,1.55Z"/><path class="cls-12" d="m1038.45,206.19c0-.86-.69-1.55-1.53-1.55s-1.54.7-1.54,1.55.69,1.55,1.54,1.55,1.53-.7,1.53-1.55"/><path class="cls-1" d="m1038.45,206.19c0-.86-.69-1.55-1.53-1.55s-1.54.7-1.54,1.55.69,1.55,1.54,1.55,1.53-.7,1.53-1.55Z"/><path class="cls-12" d="m1026.28,215.01c-.85,0-1.53-.69-1.53-1.55s.68-1.54,1.53-1.54,1.54.69,1.54,1.54-.69,1.55-1.54,1.55"/><path class="cls-1" d="m1026.28,215.01c-.85,0-1.53-.69-1.53-1.55s.68-1.54,1.53-1.54,1.54.69,1.54,1.54-.69,1.55-1.54,1.55Z"/><path class="cls-12" d="m1037.42,226.62c0-.85-.68-1.55-1.53-1.55s-1.54.69-1.54,1.55.69,1.54,1.54,1.54,1.53-.69,1.53-1.54"/><path class="cls-1" d="m1037.42,226.62c0-.85-.68-1.55-1.53-1.55s-1.54.69-1.54,1.55.69,1.54,1.54,1.54,1.53-.69,1.53-1.54Z"/><path class="cls-10" d="m1012.17,174.82c-6.3,0-14.41,4.44-14.41,4.44h66.05v-4.44h-51.64Z"/><path class="cls-1" d="m1012.17,174.82c-6.3,0-14.41,4.44-14.41,4.44h66.05v-4.44h-51.64Z"/><path class="cls-16" d="m1012.15,183.72c-6.3,0-14.39-4.46-14.39-4.46l66.05.1-.02,4.42s-45.33-.06-51.64-.06"/><path class="cls-1" d="m1012.15,183.72c-6.3,0-14.39-4.46-14.39-4.46l66.05.1-.02,4.42s-45.33-.06-51.64-.06Z"/><path class="cls-10" d="m1069.97,240.9c0,6.38,4.38,14.59,4.38,14.59v-66.88h-4.38v52.29Z"/><path class="cls-3" d="m1069.97,240.9c0,6.38,4.38,14.59,4.38,14.59v-66.88h-4.38v52.29Z"/><path class="cls-16" d="m1078.76,240.91c0,6.39-4.4,14.58-4.4,14.58l.09-66.88h4.37s-.06,45.91-.06,52.3"/><path class="cls-2" d="m1078.76,240.91c0,6.39-4.4,14.58-4.4,14.58l.09-66.88h4.37s-.06,45.91-.06,52.3Z"/><path class="cls-10" d="m1135.91,174.82c6.31,0,14.41,4.44,14.41,4.44h-66.05v-4.44h51.64Z"/><path class="cls-3" d="m1135.91,174.82c6.31,0,14.41,4.44,14.41,4.44h-66.05v-4.44h51.64Z"/><path class="cls-16" d="m1135.92,183.72c6.31,0,14.4-4.46,14.4-4.46l-66.05.1v4.42s45.35-.06,51.65-.06"/><path class="cls-2" d="m1135.92,183.72c6.31,0,14.4-4.46,14.4-4.46l-66.05.1v4.42s45.35-.06,51.65-.06Z"/><path class="cls-10" d="m1078.66,110.07c0-6.38-4.37-14.59-4.37-14.59v66.88h4.37v-52.29Z"/><path class="cls-1" d="m1078.66,110.07c0-6.38-4.37-14.59-4.37-14.59v66.88h4.37v-52.29Z"/><path class="cls-16" d="m1069.87,110.06c.02-6.38,4.4-14.58,4.4-14.58l-.09,66.88-4.37-.02s.06-45.89.06-52.28"/><path class="cls-1" d="m1069.87,110.06c.02-6.38,4.4-14.58,4.4-14.58l-.09,66.88-4.37-.02s.06-45.89.06-52.28Z"/><rect class="cls-8" x="1051.74" y="147.79" width="45.31" height="62.82"/><path class="cls-6" d="m1059.3,206.66s4.07.06,6.18-.51c2.11-.56,4.75-2.12,6.47-2.52,1.71-.38,3.78.49,6.21-.05,2.44-.53,4.37-2.28,6.81-2.81,2.43-.54,8.58.38,8.58.38,0,0-5.55-2.8-8.04-3.05-2.49-.25-4.86.8-7.33.55-2.5-.25-4.19-1.74-5.94-1.9-1.75-.15-4.74.5-6.91.37-2.19-.12-6.05-1.43-6.05-1.43,0,0,4.08.08,6.19-.48,2.11-.57,4.75-2.13,6.47-2.52,1.71-.39,3.78.48,6.21-.05,2.44-.53,4.37-2.28,6.81-2.82,2.43-.54,8.58.39,8.58.39,0,0-5.55-2.8-8.04-3.06-2.49-.25-4.86.81-7.33.55-2.5-.25-4.19-1.73-5.94-1.9-1.75-.16-4.74.51-6.91.38-2.19-.13-6.05-1.43-6.05-1.43,0,0,4.08.07,6.19-.49,2.11-.56,4.75-2.13,6.47-2.52,1.71-.4,3.78.48,6.21-.06,2.44-.53,4.37-2.29,6.81-2.83,2.43-.53,8.58.4,8.58.4,0,0-5.55-2.81-8.04-3.06-2.49-.25-4.86.8-7.33.56-2.5-.26-4.19-1.74-5.94-1.91-1.75-.17-4.74.5-6.91.37-2.19-.12-6.05-1.42-6.05-1.42,0,0,4.08.07,6.19-.49,2.11-.55,4.75-2.12,6.47-2.52,1.71-.39,3.78.49,6.21-.05,2.44-.53,4.37-2.28,6.81-2.81,2.43-.54,8.58.39,8.58.39,0,0-5.55-2.81-8.04-3.06-2.49-.26-4.86.8-7.33.55-2.5-.26-4.19-1.74-5.94-1.9-1.75-.16-4.74.51-6.91.38-2.19-.13-6.05-1.43-6.05-1.43,0,0,4.08.08,6.19-.48,2.11-.57,4.75-2.13,6.47-2.52,1.71-.4,3.78.48,6.21-.05,2.44-.54,4.37-2.3,6.81-2.83,2.43-.53,8.58.39,8.58.39,0,0-5.55-2.8-8.04-3.06-2.49-.25-4.86.81-7.33.55-2.5-.26-4.19-1.73-5.94-1.89-1.75-.17-4.74.49-6.91.37-2.19-.13-6.05-1.45-6.05-1.45l-4.55.04v54.78h4.56Z"/><path class="cls-1" d="m1059.3,206.66s4.07.06,6.18-.51c2.11-.56,4.75-2.12,6.47-2.52,1.71-.38,3.78.49,6.21-.05,2.44-.53,4.37-2.28,6.81-2.81,2.43-.54,8.58.38,8.58.38,0,0-5.55-2.8-8.04-3.05-2.49-.25-4.86.8-7.33.55-2.5-.25-4.19-1.74-5.94-1.9-1.75-.15-4.74.5-6.91.37-2.19-.12-6.05-1.43-6.05-1.43,0,0,4.08.08,6.19-.48,2.11-.57,4.75-2.13,6.47-2.52,1.71-.39,3.78.48,6.21-.05,2.44-.53,4.37-2.28,6.81-2.82,2.43-.54,8.58.39,8.58.39,0,0-5.55-2.8-8.04-3.06-2.49-.25-4.86.81-7.33.55-2.5-.25-4.19-1.73-5.94-1.9-1.75-.16-4.74.51-6.91.38-2.19-.13-6.05-1.43-6.05-1.43,0,0,4.08.07,6.19-.49,2.11-.56,4.75-2.13,6.47-2.52,1.71-.4,3.78.48,6.21-.06,2.44-.53,4.37-2.29,6.81-2.83,2.43-.53,8.58.4,8.58.4,0,0-5.55-2.81-8.04-3.06-2.49-.25-4.86.8-7.33.56-2.5-.26-4.19-1.74-5.94-1.91-1.75-.17-4.74.5-6.91.37-2.19-.12-6.05-1.42-6.05-1.42,0,0,4.08.07,6.19-.49,2.11-.55,4.75-2.12,6.47-2.52,1.71-.39,3.78.49,6.21-.05,2.44-.53,4.37-2.28,6.81-2.81,2.43-.54,8.58.39,8.58.39,0,0-5.55-2.81-8.04-3.06-2.49-.26-4.86.8-7.33.55-2.5-.26-4.19-1.74-5.94-1.9-1.75-.16-4.74.51-6.91.38-2.19-.13-6.05-1.43-6.05-1.43,0,0,4.08.08,6.19-.48,2.11-.57,4.75-2.13,6.47-2.52,1.71-.4,3.78.48,6.21-.05,2.44-.54,4.37-2.3,6.81-2.83,2.43-.53,8.58.39,8.58.39,0,0-5.55-2.8-8.04-3.06-2.49-.25-4.86.81-7.33.55-2.5-.26-4.19-1.73-5.94-1.89-1.75-.17-4.74.49-6.91.37-2.19-.13-6.05-1.45-6.05-1.45l-4.55.04v54.78h4.56Z"/><path class="cls-3" d="m1059.3,206.66s4.07.06,6.18-.51c2.11-.56,4.75-2.12,6.47-2.52,1.71-.38,3.78.49,6.21-.05,2.44-.53,4.37-2.28,6.81-2.81,2.43-.54,8.58.38,8.58.38,0,0-5.55-2.8-8.04-3.05-2.49-.25-4.86.8-7.33.55-2.5-.25-4.19-1.74-5.94-1.9-1.75-.15-4.74.5-6.91.37-2.19-.12-6.05-1.43-6.05-1.43,0,0,4.08.08,6.19-.48,2.11-.57,4.75-2.13,6.47-2.52,1.71-.39,3.78.48,6.21-.05,2.44-.53,4.37-2.28,6.81-2.82,2.43-.54,8.58.39,8.58.39,0,0-5.55-2.8-8.04-3.06-2.49-.25-4.86.81-7.33.55-2.5-.25-4.19-1.73-5.94-1.9-1.75-.16-4.74.51-6.91.38-2.19-.13-6.05-1.43-6.05-1.43,0,0,4.08.07,6.19-.49,2.11-.56,4.75-2.13,6.47-2.52,1.71-.4,3.78.48,6.21-.06,2.44-.53,4.37-2.29,6.81-2.83,2.43-.53,8.58.4,8.58.4,0,0-5.55-2.81-8.04-3.06-2.49-.25-4.86.8-7.33.56-2.5-.26-4.19-1.74-5.94-1.91-1.75-.17-4.74.5-6.91.37-2.19-.12-6.05-1.42-6.05-1.42,0,0,4.08.07,6.19-.49,2.11-.55,4.75-2.12,6.47-2.52,1.71-.39,3.78.49,6.21-.05,2.44-.53,4.37-2.28,6.81-2.81,2.43-.54,8.58.39,8.58.39,0,0-5.55-2.81-8.04-3.06-2.49-.26-4.86.8-7.33.55-2.5-.26-4.19-1.74-5.94-1.9-1.75-.16-4.74.51-6.91.38-2.19-.13-6.05-1.43-6.05-1.43,0,0,4.08.08,6.19-.48,2.11-.57,4.75-2.13,6.47-2.52,1.71-.4,3.78.48,6.21-.05,2.44-.54,4.37-2.3,6.81-2.83,2.43-.53,8.58.39,8.58.39,0,0-5.55-2.8-8.04-3.06-2.49-.25-4.86.81-7.33.55-2.5-.26-4.19-1.73-5.94-1.89-1.75-.17-4.74.49-6.91.37-2.19-.13-6.05-1.45-6.05-1.45l-4.55.04v54.78h4.56Z"/><path class="cls-12" d="m1054.9,202.59v-50.69h38.82v50.69s.28,4.09-4.04,4.09h-11.25c-4.04,0-4.04,3.08-4.04,3.08,0,0,0-3.08-4.05-3.08h-11.4c-3.89,0-4.04-4.09-4.04-4.09m-4.78,14.68h17.94c6.35,0,6.35,4.25,6.35,4.25,0,0,0-4.25,6.36-4.25h17.71c6.81,0,6.35-5.67,6.35-5.67v-70.32h-61.06v70.32s.23,5.67,6.36,5.67"/><path class="cls-2" d="m1054.9,202.59v-50.69h38.82v50.69s.28,4.09-4.04,4.09h-11.25c-4.04,0-4.04,3.08-4.04,3.08,0,0,0-3.08-4.05-3.08h-11.4c-3.89,0-4.04-4.09-4.04-4.09Zm-4.78,14.68h17.94c6.35,0,6.35,4.25,6.35,4.25,0,0,0-4.25,6.36-4.25h17.71c6.81,0,6.35-5.67,6.35-5.67v-70.32h-61.06v70.32s.23,5.67,6.36,5.67Z"/><path class="cls-6" d="m1098.9,214.96v-1.17s0-.69.67-.69c.69,0,.67.7.67.7v1.16h1.75v-1.85s-1.74-1.25-1.74-2.27h-1.36c0,1.01-1.74,2.27-1.74,2.27v1.85h1.74Z"/><path class="cls-3" d="m1098.9,214.96v-1.17s0-.69.67-.69c.69,0,.67.7.67.7v1.16h1.75v-1.85s-1.74-1.25-1.74-2.27h-1.36c0,1.01-1.74,2.27-1.74,2.27v1.85h1.74Z"/><rect class="cls-6" x="1098.56" y="209.69" width="2.01" height="1.15"/><rect class="cls-3" x="1098.56" y="209.69" width="2.01" height="1.15"/><rect class="cls-6" x="1098.9" y="209.09" width="1.36" height=".6"/><rect class="cls-3" x="1098.9" y="209.09" width="1.36" height=".6"/><rect class="cls-6" x="1098.56" y="208.44" width="2.01" height=".65"/><rect class="cls-3" x="1098.56" y="208.44" width="2.01" height=".65"/><path class="cls-6" d="m1098.9,182.24v-1.17s0-.7.67-.69c.69.01.67.69.67.69v1.17h1.75v-1.85s-1.74-1.26-1.74-2.28h-1.36c0,1.03-1.74,2.28-1.74,2.28v1.85h1.74Z"/><path class="cls-3" d="m1098.9,182.24v-1.17s0-.7.67-.69c.69.01.67.69.67.69v1.17h1.75v-1.85s-1.74-1.26-1.74-2.28h-1.36c0,1.03-1.74,2.28-1.74,2.28v1.85h1.74Z"/><rect class="cls-6" x="1098.56" y="176.98" width="2.01" height="1.14"/><rect class="cls-3" x="1098.56" y="176.98" width="2.01" height="1.14"/><rect class="cls-6" x="1098.9" y="176.36" width="1.36" height=".61"/><rect class="cls-3" x="1098.9" y="176.36" width="1.36" height=".61"/><rect class="cls-6" x="1098.56" y="175.73" width="2.01" height=".64"/><rect class="cls-3" x="1098.56" y="175.73" width="2.01" height=".64"/><path class="cls-6" d="m1048.53,214.96v-1.17s0-.69.68-.69c.67,0,.67.7.67.7v1.16h1.75v-1.85s-1.75-1.25-1.75-2.27h-1.36c0,1.01-1.74,2.27-1.74,2.27v1.85h1.74Z"/><path class="cls-3" d="m1048.53,214.96v-1.17s0-.69.68-.69c.67,0,.67.7.67.7v1.16h1.75v-1.85s-1.75-1.25-1.75-2.27h-1.36c0,1.01-1.74,2.27-1.74,2.27v1.85h1.74Z"/><rect class="cls-6" x="1048.21" y="209.69" width="2.01" height="1.15"/><rect class="cls-3" x="1048.21" y="209.69" width="2.01" height="1.15"/><rect class="cls-6" x="1048.53" y="209.09" width="1.36" height=".6"/><rect class="cls-3" x="1048.53" y="209.09" width="1.36" height=".6"/><rect class="cls-6" x="1048.21" y="208.44" width="2.01" height=".65"/><rect class="cls-3" x="1048.21" y="208.44" width="2.01" height=".65"/><path class="cls-6" d="m1048.53,182.24v-1.17s0-.7.68-.69c.67.01.67.69.67.69v1.17h1.75v-1.85s-1.75-1.26-1.75-2.28h-1.36c0,1.03-1.74,2.28-1.74,2.28v1.85h1.74Z"/><path class="cls-3" d="m1048.53,182.24v-1.17s0-.7.68-.69c.67.01.67.69.67.69v1.17h1.75v-1.85s-1.75-1.26-1.75-2.28h-1.36c0,1.03-1.74,2.28-1.74,2.28v1.85h1.74Z"/><rect class="cls-6" x="1048.21" y="176.98" width="2.01" height="1.14"/><rect class="cls-3" x="1048.21" y="176.98" width="2.01" height="1.14"/><rect class="cls-6" x="1048.53" y="176.36" width="1.36" height=".61"/><rect class="cls-3" x="1048.53" y="176.36" width="1.36" height=".61"/><rect class="cls-6" x="1048.21" y="175.73" width="2.01" height=".64"/><rect class="cls-3" x="1048.21" y="175.73" width="2.01" height=".64"/><path class="cls-6" d="m1098.9,149.81v-1.17s0-.7.67-.69c.69,0,.67.7.67.7v1.17h1.75v-1.86s-1.74-1.26-1.74-2.28h-1.36c0,1.02-1.74,2.28-1.74,2.28v1.86h1.74Z"/><path class="cls-3" d="m1098.9,149.81v-1.17s0-.7.67-.69c.69,0,.67.7.67.7v1.17h1.75v-1.86s-1.74-1.26-1.74-2.28h-1.36c0,1.02-1.74,2.28-1.74,2.28v1.86h1.74Z"/><rect class="cls-6" x="1098.56" y="144.53" width="2.01" height="1.15"/><rect class="cls-3" x="1098.56" y="144.53" width="2.01" height="1.15"/><rect class="cls-6" x="1098.9" y="143.94" width="1.36" height=".6"/><rect class="cls-3" x="1098.9" y="143.94" width="1.36" height=".6"/><rect class="cls-6" x="1098.56" y="143.29" width="2.01" height=".65"/><rect class="cls-3" x="1098.56" y="143.29" width="2.01" height=".65"/><path class="cls-6" d="m1048.53,149.81v-1.17s0-.7.68-.69c.67,0,.67.7.67.7v1.17h1.75v-1.86s-1.75-1.26-1.75-2.28h-1.36c0,1.02-1.74,2.28-1.74,2.28v1.86h1.74Z"/><path class="cls-3" d="m1048.53,149.81v-1.17s0-.7.68-.69c.67,0,.67.7.67.7v1.17h1.75v-1.86s-1.75-1.26-1.75-2.28h-1.36c0,1.02-1.74,2.28-1.74,2.28v1.86h1.74Z"/><rect class="cls-6" x="1048.21" y="144.53" width="2.01" height="1.15"/><rect class="cls-3" x="1048.21" y="144.53" width="2.01" height="1.15"/><rect class="cls-6" x="1048.53" y="143.94" width="1.36" height=".6"/><rect class="cls-3" x="1048.53" y="143.94" width="1.36" height=".6"/><rect class="cls-6" x="1048.21" y="143.29" width="2.01" height=".65"/><rect class="cls-3" x="1048.21" y="143.29" width="2.01" height=".65"/><path class="cls-6" d="m1073.72,216.98v-1.18s0-.7.67-.69c.68,0,.68.69.68.69v1.18h1.74v-1.86s-1.74-1.25-1.74-2.28h-1.36c0,1.03-1.75,2.28-1.75,2.28v1.86h1.75Z"/><path class="cls-3" d="m1073.72,216.98v-1.18s0-.7.67-.69c.68,0,.68.69.68.69v1.18h1.74v-1.86s-1.74-1.25-1.74-2.28h-1.36c0,1.03-1.75,2.28-1.75,2.28v1.86h1.75Z"/><rect class="cls-6" x="1073.4" y="211.7" width="2" height="1.14"/><rect class="cls-3" x="1073.4" y="211.7" width="2" height="1.14"/><rect class="cls-6" x="1073.72" y="211.1" width="1.36" height=".6"/><rect class="cls-3" x="1073.72" y="211.1" width="1.36" height=".6"/><rect class="cls-6" x="1073.4" y="210.45" width="2" height=".65"/><rect class="cls-3" x="1073.4" y="210.45" width="2" height=".65"/><path class="cls-6" d="m1073.71,149.81v-1.17s0-.7.67-.69c.68,0,.68.7.68.7v1.17h1.75v-1.86s-1.75-1.26-1.75-2.28h-1.36c0,1.02-1.74,2.28-1.74,2.28v1.86h1.74Z"/><path class="cls-3" d="m1073.71,149.81v-1.17s0-.7.67-.69c.68,0,.68.7.68.7v1.17h1.75v-1.86s-1.75-1.26-1.75-2.28h-1.36c0,1.02-1.74,2.28-1.74,2.28v1.86h1.74Z"/><rect class="cls-6" x="1073.4" y="144.53" width="1.99" height="1.15"/><rect class="cls-3" x="1073.4" y="144.53" width="1.99" height="1.15"/><rect class="cls-6" x="1073.71" y="143.94" width="1.36" height=".6"/><rect class="cls-3" x="1073.71" y="143.94" width="1.36" height=".6"/><rect class="cls-6" x="1073.4" y="143.29" width="1.99" height=".65"/><rect class="cls-3" x="1073.4" y="143.29" width="1.99" height=".65"/><path class="cls-9" d="m1104.85,131.46s-.08-.05-.13-.07c0,0-12.76-8.82-30.04-8.92l7.62,3.19-8.01,3.1c14.23-.05,26.28,7.08,28.77,8.47l.18.09-2.34-4,3.94-1.84Z"/><path class="cls-3" d="m1104.85,131.46s-.08-.05-.13-.07c0,0-12.76-8.82-30.04-8.92l7.62,3.19-8.01,3.1c14.23-.05,26.28,7.08,28.77,8.47l.18.09-2.34-4,3.94-1.84Z"/><path class="cls-9" d="m1073.78,122.47c-17.27.1-30.03,8.92-30.03,8.92-.04.03-.08.05-.13.08l3.94,1.84-2.34,4,.18-.09c2.5-1.39,14.54-8.52,28.77-8.47l-8.02-3.1,7.62-3.19Z"/><path class="cls-3" d="m1073.78,122.47c-17.27.1-30.03,8.92-30.03,8.92-.04.03-.08.05-.13.08l3.94,1.84-2.34,4,.18-.09c2.5-1.39,14.54-8.52,28.77-8.47l-8.02-3.1,7.62-3.19Z"/><path class="cls-7" d="m1037.92,114.03c0-1.17-.87-2.12-1.95-2.12-1.08,0-1.95.94-1.96,2.1,0,1.16.87,2.11,1.95,2.11,1.07,0,1.96-.94,1.96-2.09"/><path class="cls-3" d="m1037.92,114.03c0-1.17-.87-2.12-1.95-2.12-1.08,0-1.95.94-1.96,2.1,0,1.16.87,2.11,1.95,2.11,1.07,0,1.96-.94,1.96-2.09Z"/><path class="cls-7" d="m1110.6,114.03c0-1.17.87-2.12,1.94-2.12,1.09,0,1.96.94,1.96,2.1s-.87,2.11-1.95,2.11c-1.07,0-1.95-.94-1.95-2.09"/><path class="cls-3" d="m1110.6,114.03c0-1.17.87-2.12,1.94-2.12,1.09,0,1.96.94,1.96,2.1s-.87,2.11-1.95,2.11c-1.07,0-1.95-.94-1.95-2.09Z"/><path class="cls-9" d="m1116.94,109.86c-.32-1.49-1.97-1.91-2.81-1.79-.82.11-1.24.96-1.24.96,0,0-.53-1.28-1.88-.95-1.34.32-1.14,1.28-1.14,1.28,0,0-.92.1-1.34.96-.58,1.2.12,3.41.12,3.41,0,0-.83.31-.51,1.8.31,1.51,1.96,2.47,1.96,2.47,0,0-.52,3.92-2.09,5.83-1.56,1.9-2.28,2.23-3.84,1.62-3.28-1.31-1.17-7.15-1.17-7.15,0,0-2.82,5.7-6.68,3.97-2.96-1.34-3.13-4.08-2.15-5.69,1.43,1.31,4.56,2.17,5.55-.32,1.01-2.55.84-4.53-1.44-5.11,2.13-.74,2.44-6.65-1.88-7.29-3.84-.57-4.97,1.48-5.1,5.28-2.71-.73-3.55.44-3.69,3.23-.13,2.63,1.44,3.34,5,3.48-.56,2.19-2.56,4.42-5.11,3.67-4.42-1.29-3.31-7.72-3.31-7.72,0,0-1.54,6.72-5.53,6.15-3.99-.57-3-2.32-3.3-5.25,2.14,1.02,5.72,1.29,6.12-2.35.27-2.48-1.45-4.38-4.15-3.34.98-2.77-.28-5.67-3.1-5.68h0s0,0,0,0h0c-2.82.02-4.09,2.91-3.11,5.69-2.7-1.04-4.41.86-4.14,3.34.4,3.64,3.98,3.38,6.12,2.35-.3,2.93.69,4.68-3.29,5.25-3.99.57-5.53-6.15-5.53-6.15,0,0,1.12,6.43-3.3,7.72-2.56.75-4.55-1.48-5.11-3.67,3.56-.14,5.13-.85,5-3.48-.14-2.79-.98-3.96-3.69-3.23-.13-3.8-1.26-5.85-5.11-5.28-4.31.64-4.01,6.55-1.88,7.29-2.27.58-2.45,2.55-1.43,5.11.99,2.49,4.11,1.63,5.55.32.99,1.61.82,4.34-2.15,5.69-3.86,1.73-6.68-3.97-6.68-3.97,0,0,2.11,5.84-1.16,7.15-1.56.61-2.28.28-3.84-1.62-1.57-1.91-2.09-5.83-2.09-5.83,0,0,1.65-.96,1.96-2.47.32-1.48-.51-1.8-.51-1.8,0,0,.7-2.21.12-3.41-.42-.86-1.34-.96-1.34-.96,0,0,.2-.96-1.14-1.28-1.35-.33-1.88.95-1.88.95,0,0-.4-.85-1.23-.96-.83-.11-2.49.31-2.81,1.79-.32,1.5,1.03,2.56,1.76,2.56.72,0,1.14-1.16,1.14-1.16l2.17,2.35s-.93,1.27-.73,3.19c.2,1.92,1.45,6.12,2.86,7.88,1.42,1.76,3.55,3.97,6.12,2.51,2.56-1.45,3-3.64,3-3.64,0,0,1.28,1.22,3.77.68.68-.27,1.4-.55,2.15-.83,2.42-1.38,2.77-3.47,2.77-3.47,0,0,.65,1.99,4.3,1.29.31-.07.62-.15.93-.22,3.69-1.04,3.17-2.94,3.17-2.94,0,0,.57,2.05,4.98,1.62,4.09-.38,4.27-2.29,4.27-2.57,0,.02,0,.07.01.11v.12s0-.04,0-.06c0,.01,0,.03,0,.06v-.12s0-.09,0-.11c0,.28.18,2.19,4.27,2.57,4.41.43,4.98-1.62,4.98-1.62,0,0-.52,1.9,3.18,2.94.31.08.61.15.92.22,3.66.7,4.3-1.29,4.3-1.29,0,0,.36,2.09,2.78,3.47.74.28,1.46.56,2.14.83,2.48.54,3.77-.68,3.77-.68,0,0,.44,2.19,3,3.64,2.57,1.45,4.69-.75,6.12-2.51,1.42-1.76,2.68-5.97,2.87-7.88.21-1.92-.73-3.19-.73-3.19l2.17-2.35s.42,1.17,1.14,1.16c.73,0,2.07-1.06,1.76-2.56m-42.7.59c-.83,0-1.5-.72-1.49-1.56,0-.85.67-1.53,1.49-1.54.82.01,1.49.69,1.49,1.54s-.67,1.56-1.49,1.56"/><path class="cls-1" d="m1116.94,109.86c-.32-1.49-1.97-1.91-2.81-1.79-.82.11-1.24.96-1.24.96,0,0-.53-1.28-1.88-.95-1.34.32-1.14,1.28-1.14,1.28,0,0-.92.1-1.34.96-.58,1.2.12,3.41.12,3.41,0,0-.83.31-.51,1.8.31,1.51,1.96,2.47,1.96,2.47,0,0-.52,3.92-2.09,5.83-1.56,1.9-2.28,2.23-3.84,1.62-3.28-1.31-1.17-7.15-1.17-7.15,0,0-2.82,5.7-6.68,3.97-2.96-1.34-3.13-4.08-2.15-5.69,1.43,1.31,4.56,2.17,5.55-.32,1.01-2.55.84-4.53-1.44-5.11,2.13-.74,2.44-6.65-1.88-7.29-3.84-.57-4.97,1.48-5.1,5.28-2.71-.73-3.55.44-3.69,3.23-.13,2.63,1.44,3.34,5,3.48-.56,2.19-2.56,4.42-5.11,3.67-4.42-1.29-3.31-7.72-3.31-7.72,0,0-1.54,6.72-5.53,6.15-3.99-.57-3-2.32-3.3-5.25,2.14,1.02,5.72,1.29,6.12-2.35.27-2.48-1.45-4.38-4.15-3.34.98-2.77-.28-5.67-3.1-5.68h0s0,0,0,0h0c-2.82.02-4.09,2.91-3.11,5.69-2.7-1.04-4.41.86-4.14,3.34.4,3.64,3.98,3.38,6.12,2.35-.3,2.93.69,4.68-3.29,5.25-3.99.57-5.53-6.15-5.53-6.15,0,0,1.12,6.43-3.3,7.72-2.56.75-4.55-1.48-5.11-3.67,3.56-.14,5.13-.85,5-3.48-.14-2.79-.98-3.96-3.69-3.23-.13-3.8-1.26-5.85-5.11-5.28-4.31.64-4.01,6.55-1.88,7.29-2.27.58-2.45,2.55-1.43,5.11.99,2.49,4.11,1.63,5.55.32.99,1.61.82,4.34-2.15,5.69-3.86,1.73-6.68-3.97-6.68-3.97,0,0,2.11,5.84-1.16,7.15-1.56.61-2.28.28-3.84-1.62-1.57-1.91-2.09-5.83-2.09-5.83,0,0,1.65-.96,1.96-2.47.32-1.48-.51-1.8-.51-1.8,0,0,.7-2.21.12-3.41-.42-.86-1.34-.96-1.34-.96,0,0,.2-.96-1.14-1.28-1.35-.33-1.88.95-1.88.95,0,0-.4-.85-1.23-.96-.83-.11-2.49.31-2.81,1.79-.32,1.5,1.03,2.56,1.76,2.56.72,0,1.14-1.16,1.14-1.16l2.17,2.35s-.93,1.27-.73,3.19c.2,1.92,1.45,6.12,2.86,7.88,1.42,1.76,3.55,3.97,6.12,2.51,2.56-1.45,3-3.64,3-3.64,0,0,1.28,1.22,3.77.68.68-.27,1.4-.55,2.15-.83,2.42-1.38,2.77-3.47,2.77-3.47,0,0,.65,1.99,4.3,1.29.31-.07.62-.15.93-.22,3.69-1.04,3.17-2.94,3.17-2.94,0,0,.57,2.05,4.98,1.62,4.09-.38,4.27-2.29,4.27-2.57,0,.02,0,.07.01.11v.12s0-.04,0-.06c0,.01,0,.03,0,.06v-.12s0-.09,0-.11c0,.28.18,2.19,4.27,2.57,4.41.43,4.98-1.62,4.98-1.62,0,0-.52,1.9,3.18,2.94.31.08.61.15.92.22,3.66.7,4.3-1.29,4.3-1.29,0,0,.36,2.09,2.78,3.47.74.28,1.46.56,2.14.83,2.48.54,3.77-.68,3.77-.68,0,0,.44,2.19,3,3.64,2.57,1.45,4.69-.75,6.12-2.51,1.42-1.76,2.68-5.97,2.87-7.88.21-1.92-.73-3.19-.73-3.19l2.17-2.35s.42,1.17,1.14,1.16c.73,0,2.07-1.06,1.76-2.56Zm-42.7.59c-.83,0-1.5-.72-1.49-1.56,0-.85.67-1.53,1.49-1.54.82.01,1.49.69,1.49,1.54s-.67,1.56-1.49,1.56Z"/><path class="cls-9" d="m1102.97,137.2c-2.49-1.39-14.5-8.5-28.7-8.47h-.06c-14.21-.03-26.21,7.08-28.7,8.47-3.2,1.77-2.55,3.77-1.15,3.79.33-.02.69-.14,1.05-.39,0,0,12.25-9,28.76-8.94h.13c16.51-.06,28.76,8.94,28.76,8.94.36.25.72.37,1.04.39,1.41-.01,2.06-2.02-1.14-3.79"/><path class="cls-3" d="m1102.97,137.2c-2.49-1.39-14.5-8.5-28.7-8.47h-.06c-14.21-.03-26.21,7.08-28.7,8.47-3.2,1.77-2.55,3.77-1.15,3.79.33-.02.69-.14,1.05-.39,0,0,12.25-9,28.76-8.94h.13c16.51-.06,28.76,8.94,28.76,8.94.36.25.72.37,1.04.39,1.41-.01,2.06-2.02-1.14-3.79Z"/><path class="cls-9" d="m1074.11,122.41c17.52-.06,30.52,8.92,30.52,8.92,2.1,1.4,4.25-1.17,0-3.39-2.63-1.4-15.42-8.51-30.53-8.46-15.11.06-27.53,7.3-30.97,8.96-3.43,1.68-1.01,3.99,1.11,2.73,0,0,12.66-8.71,29.87-8.77"/><path class="cls-3" d="m1074.11,122.41c17.52-.06,30.52,8.92,30.52,8.92,2.1,1.4,4.25-1.17,0-3.39-2.63-1.4-15.42-8.51-30.53-8.46-15.11.06-27.53,7.3-30.97,8.96-3.43,1.68-1.01,3.99,1.11,2.73,0,0,12.66-8.71,29.87-8.77Z"/><path class="cls-7" d="m1082.71,112.22c0-.85.67-1.55,1.49-1.55.85,0,1.52.68,1.52,1.54,0,.87-.67,1.56-1.51,1.56s-1.5-.69-1.5-1.55"/><path class="cls-3" d="m1082.71,112.22c0-.85.67-1.55,1.49-1.55.85,0,1.52.68,1.52,1.54,0,.87-.67,1.56-1.51,1.56s-1.5-.69-1.5-1.55Z"/><path class="cls-7" d="m1103.03,120.27c-.83,0-1.5-.69-1.51-1.55,0-.85.67-1.55,1.5-1.55.83,0,1.51.69,1.51,1.54s-.67,1.56-1.51,1.56"/><path class="cls-3" d="m1103.03,120.27c-.83,0-1.5-.69-1.51-1.55,0-.85.67-1.55,1.5-1.55.83,0,1.51.69,1.51,1.54s-.67,1.56-1.51,1.56Z"/><path class="cls-7" d="m1092.82,111.31c0-.86.67-1.56,1.5-1.56s1.51.69,1.51,1.54c0,.86-.66,1.55-1.5,1.55-.83,0-1.5-.68-1.51-1.54"/><path class="cls-3" d="m1092.82,111.31c0-.86.67-1.56,1.5-1.56s1.51.69,1.51,1.54c0,.86-.66,1.55-1.5,1.55-.83,0-1.5-.68-1.51-1.54Z"/><path class="cls-7" d="m1075.73,108.88c0-.84-.67-1.53-1.48-1.54h-.01c-.82.01-1.49.7-1.49,1.54,0,.85.67,1.55,1.49,1.56h0s0,0,0,0h.01c.82-.01,1.48-.72,1.48-1.56"/><path class="cls-3" d="m1075.73,108.88c0-.84-.67-1.53-1.48-1.54h-.01c-.82.01-1.49.7-1.49,1.54,0,.85.67,1.55,1.49,1.56h0s0,0,0,0h.01c.82-.01,1.48-.72,1.48-1.56Z"/><path class="cls-7" d="m1065.8,112.22c0-.85-.67-1.55-1.5-1.55-.84,0-1.52.68-1.52,1.54,0,.87.67,1.56,1.51,1.56s1.51-.69,1.51-1.55"/><path class="cls-3" d="m1065.8,112.22c0-.85-.67-1.55-1.5-1.55-.84,0-1.52.68-1.52,1.54,0,.87.67,1.56,1.51,1.56s1.51-.69,1.51-1.55Z"/><path class="cls-7" d="m1045.48,120.27c.84,0,1.51-.69,1.52-1.55,0-.85-.67-1.55-1.5-1.55-.83,0-1.51.69-1.52,1.54,0,.85.67,1.56,1.5,1.56"/><path class="cls-3" d="m1045.48,120.27c.84,0,1.51-.69,1.52-1.55,0-.85-.67-1.55-1.5-1.55-.83,0-1.51.69-1.52,1.54,0,.85.67,1.56,1.5,1.56Z"/><path class="cls-7" d="m1055.7,111.31c0-.86-.67-1.56-1.5-1.56s-1.51.69-1.51,1.54c0,.86.66,1.55,1.5,1.55.83,0,1.51-.68,1.51-1.54"/><path class="cls-3" d="m1055.7,111.31c0-.86-.67-1.56-1.5-1.56s-1.51.69-1.51,1.54c0,.86.66,1.55,1.5,1.55.83,0,1.51-.68,1.51-1.54Z"/><path class="cls-15" d="m949.95,299.27l-1.88-5.2h-8.8l-1.79,5.2h-5.06l10.23-26.01h2l10.32,26.01h-5.02Zm-6.29-18.16l-3.09,9.48h6.17l-3.09-9.48Z"/><path class="cls-15" d="m965.38,302.28c-.47,1.25-1.47,2.29-3.01,3.11-1.53.83-3.33,1.24-5.37,1.24v-3.88c3.38,0,5.07-.84,5.07-2.53,0-1.13-.47-2.84-1.4-5.16l-5.87-14.55h4.53l5.12,12.97,4.61-12.97h4.54l-8.22,21.77Z"/><path class="cls-15" d="m988.32,299.29v-1.58c-.62.53-1.47.98-2.56,1.36-1.09.37-2.09.55-3,.55-4.35,0-6.54-2.3-6.54-6.93v-12.18h4.37v11.84c0,2.4,1.08,3.61,3.24,3.61.99,0,1.92-.25,2.77-.77.85-.51,1.42-1.11,1.7-1.79v-12.89h4.37v18.78h-4.37Z"/><path class="cls-15" d="m1009.5,299.27v-10.84c0-1.6-.31-2.77-.92-3.51-.61-.74-1.62-1.1-3-1.1-.65,0-1.33.18-2.06.55-.73.36-1.3.81-1.72,1.35v13.55h-4.37v-18.76h3.16l.8,1.75c1.19-1.4,2.95-2.1,5.27-2.1s3.99.66,5.28,2.01c1.29,1.33,1.93,3.2,1.93,5.59v11.51h-4.37Z"/><path class="cls-15" d="m1019.28,284.03h-2.18v-3.52h2.18v-3.82l4.38-1.61v5.43h5.16v3.52h-5.16v8.22c0,1.34.21,2.29.63,2.85.41.55,1.15.83,2.2.83s2.04-.29,2.95-.87v4.03c-1.02.35-2.47.52-4.35.52s-3.3-.52-4.31-1.58c-1.01-1.06-1.51-2.56-1.51-4.52v-9.49Z"/><path class="cls-15" d="m1043.28,297.4c-.4.65-1.09,1.19-2.08,1.6-.98.42-2.02.62-3.09.62-2.02,0-3.61-.49-4.77-1.5-1.16-1.02-1.73-2.45-1.73-4.3,0-2.18.81-3.88,2.45-5.1,1.62-1.22,3.94-1.84,6.95-1.84.51,0,1.12.09,1.82.27,0-2.21-1.4-3.31-4.19-3.31-1.65,0-3.02.28-4.13.83l-.94-3.4c1.5-.73,3.3-1.09,5.37-1.09,2.86,0,4.96.65,6.29,1.95,1.33,1.29,2,3.77,2,7.4v4.01c0,2.5.5,4.08,1.5,4.72-.36.63-.76,1.01-1.2,1.17-.45.14-.96.21-1.53.21-.63,0-1.2-.23-1.7-.69-.51-.47-.84-.97-1.02-1.52m-.42-6.96c-.74-.15-1.31-.22-1.68-.22-3.45,0-5.19,1.13-5.19,3.4,0,1.68.98,2.52,2.93,2.52,2.63,0,3.94-1.32,3.94-3.94v-1.76Z"/><path class="cls-15" d="m1073.67,299.27v-11.75c0-2.47-1.1-3.7-3.31-3.7-.65,0-1.29.2-1.89.59-.61.38-1.04.82-1.28,1.32v13.54h-4.38v-12.44c0-.92-.28-1.65-.86-2.2-.57-.55-1.38-.82-2.42-.82-.54,0-1.15.2-1.8.61-.65.41-1.12.85-1.41,1.34v13.49h-4.38v-18.76h3.02l.89,1.64c1.21-1.33,2.79-1.99,4.72-1.99,2.49,0,4.36.67,5.62,2.03.54-.62,1.31-1.12,2.3-1.48.98-.37,1.96-.55,2.94-.55,2.09,0,3.72.6,4.88,1.8,1.17,1.19,1.74,2.84,1.74,4.93v12.38h-4.38Z"/><path class="cls-15" d="m1083.96,299.27v-15.16h-2.4v-3.59h6.84v18.76h-4.43Zm2.26-26.03c.69,0,1.31.24,1.8.74.5.5.74,1.1.74,1.8s-.25,1.3-.74,1.79c-.49.5-1.1.74-1.8.74s-1.3-.24-1.79-.74c-.49-.5-.74-1.09-.74-1.79s.25-1.3.74-1.8c.49-.5,1.1-.74,1.79-.74"/><path class="cls-15" d="m1110.24,291.24h-13.41c.08,1.49.6,2.65,1.54,3.48.95.83,2.22,1.24,3.82,1.24,1.99,0,3.52-.53,4.55-1.56l1.7,3.34c-1.54,1.25-3.84,1.87-6.9,1.87-2.86,0-5.13-.83-6.79-2.51-1.67-1.68-2.5-4.01-2.5-7.02s.91-5.35,2.74-7.19c1.83-1.83,4.02-2.75,6.58-2.75,2.72,0,4.9.81,6.55,2.43,1.65,1.62,2.47,3.69,2.47,6.2,0,.53-.12,1.35-.36,2.44m-13.25-3.3h9.22c-.31-2.74-1.82-4.12-4.55-4.12-2.5,0-4.06,1.38-4.66,4.12"/><path class="cls-15" d="m1126.18,299.27v-10.84c0-1.6-.31-2.77-.92-3.51-.61-.74-1.61-1.1-3-1.1-.64,0-1.33.18-2.06.55-.73.36-1.3.81-1.71,1.35v13.55h-4.38v-18.76h3.15l.81,1.75c1.19-1.4,2.95-2.1,5.27-2.1s3.99.66,5.29,2.01c1.29,1.33,1.94,3.2,1.94,5.59v11.51h-4.39Z"/><path class="cls-15" d="m1135.96,284.03h-2.17v-3.52h2.17v-3.82l4.38-1.61v5.43h5.16v3.52h-5.16v8.22c0,1.34.21,2.29.63,2.85.42.55,1.16.83,2.2.83s2.04-.29,2.95-.87v4.03c-1.01.35-2.46.52-4.34.52s-3.3-.52-4.31-1.58c-1.01-1.06-1.51-2.56-1.51-4.52v-9.49Z"/><path class="cls-15" d="m1148.29,289.85c0-2.86.83-5.19,2.48-6.99,1.65-1.79,3.83-2.7,6.54-2.7,2.85,0,5.07.87,6.64,2.59,1.58,1.73,2.37,4.1,2.37,7.1s-.8,5.37-2.41,7.13c-1.61,1.77-3.8,2.64-6.6,2.64s-5.07-.88-6.64-2.67c-1.59-1.77-2.38-4.15-2.38-7.1m4.55,0c0,4.13,1.49,6.2,4.47,6.2,1.37,0,2.45-.54,3.25-1.61.8-1.08,1.2-2.61,1.2-4.59,0-4.08-1.49-6.11-4.45-6.11-1.36,0-2.45.54-3.26,1.61-.8,1.07-1.21,2.57-1.21,4.5"/><path class="cls-15" d="m1192.53,299.25v-1.39c-1.16,1.16-2.84,1.74-5.05,1.74-2.35,0-4.25-.84-5.7-2.52-1.47-1.68-2.2-3.93-2.2-6.72s.84-5.22,2.52-7.22c1.69-1.98,3.69-2.98,6-2.98,1.94,0,3.41.45,4.42,1.37v-8.71h3.32v26.44h-3.32Zm0-14.4c-.85-1.26-2-1.89-3.45-1.89-1.8,0-3.23.66-4.34,1.99-1.1,1.34-1.65,3.03-1.65,5.09,0,4.52,2.06,6.78,6.17,6.78.52,0,1.15-.17,1.89-.51.74-.33,1.2-.68,1.39-1.06v-10.4Z"/><path class="cls-15" d="m1216.43,290.22h-13.53c0,2.19.61,3.88,1.81,5.06,1.06,1.03,2.43,1.55,4.1,1.55,1.91,0,3.49-.56,4.77-1.67l1.41,2.4c-.52.51-1.31.96-2.37,1.33-1.33.49-2.81.73-4.45.73-2.36,0-4.36-.79-6.01-2.4-1.83-1.76-2.75-4.13-2.75-7.1s.94-5.58,2.82-7.46c1.68-1.66,3.67-2.5,5.98-2.5,2.67,0,4.77.75,6.29,2.26,1.47,1.45,2.2,3.37,2.2,5.77,0,.73-.1,1.41-.26,2.03m-8.08-7.26c-1.48,0-2.73.48-3.73,1.45-.95.9-1.5,2.04-1.63,3.39h10.39c0-1.34-.42-2.47-1.26-3.36-.92-.98-2.18-1.47-3.77-1.47"/><polygon class="cls-15" points="953.58 361.87 949.14 361.87 932.12 315.77 941 315.77 951.53 346.5 962.64 315.77 971.33 315.77 953.58 361.87"/><path class="cls-15" d="m989.46,357.92c-.71,1.17-1.93,2.11-3.68,2.85-1.75.74-3.58,1.1-5.48,1.1-3.58,0-6.39-.9-8.44-2.68-2.05-1.79-3.07-4.34-3.07-7.62,0-3.85,1.44-6.86,4.33-9.04,2.88-2.17,6.99-3.26,12.31-3.26.92,0,1.99.16,3.23.47,0-3.91-2.47-5.87-7.42-5.87-2.91,0-5.36.49-7.32,1.46l-1.68-6.03c2.67-1.28,5.85-1.93,9.53-1.93,5.07,0,8.79,1.16,11.15,3.47,2.36,2.31,3.54,6.68,3.54,13.12v7.1c0,4.42.88,7.21,2.67,8.35-.65,1.12-1.36,1.8-2.15,2.06-.79.26-1.68.39-2.7.39-1.11,0-2.12-.42-3.01-1.24-.88-.83-1.49-1.72-1.8-2.71m-.75-12.32c-1.32-.27-2.31-.4-2.97-.4-6.13,0-9.19,2.01-9.19,6.03,0,2.98,1.73,4.46,5.18,4.46,4.66,0,6.98-2.33,6.98-6.98v-3.1Z"/><path class="cls-15" d="m1006.16,315.61l7.76-1.86v37.38c0,4.09,1.22,6.53,3.66,7.32-1.2,2.27-3.25,3.42-6.14,3.42-3.52,0-5.28-2.44-5.28-7.33v-38.93Z"/><path class="cls-15" d="m1024.91,315.61l7.76-1.86v37.38c0,4.09,1.22,6.53,3.66,7.32-1.2,2.27-3.25,3.42-6.15,3.42-3.52,0-5.28-2.44-5.28-7.33v-38.93Z"/><path class="cls-15" d="m1060.83,357.92c-.71,1.17-1.93,2.11-3.68,2.85-1.75.74-3.58,1.1-5.48,1.1-3.58,0-6.39-.9-8.44-2.68-2.06-1.79-3.08-4.34-3.08-7.62,0-3.85,1.45-6.86,4.33-9.04,2.88-2.17,6.99-3.26,12.31-3.26.91,0,1.99.16,3.23.47,0-3.91-2.47-5.87-7.42-5.87-2.93,0-5.37.49-7.33,1.46l-1.68-6.03c2.67-1.28,5.85-1.93,9.53-1.93,5.07,0,8.79,1.16,11.14,3.47,2.36,2.31,3.54,6.68,3.54,13.12v7.1c0,4.42.89,7.21,2.67,8.35-.64,1.12-1.36,1.8-2.15,2.06-.78.26-1.69.39-2.7.39-1.12,0-2.12-.42-3.01-1.24-.89-.83-1.49-1.72-1.8-2.71m-.74-12.32c-1.32-.27-2.32-.4-2.98-.4-6.12,0-9.19,2.01-9.19,6.03,0,2.98,1.72,4.46,5.18,4.46,4.66,0,6.98-2.33,6.98-6.98v-3.1Z"/><path class="cls-15" d="m1097.58,361.24v-2.02c-.64.71-1.72,1.32-3.25,1.85-1.54.53-3.12.79-4.76.79-4.63,0-8.28-1.47-10.94-4.41-2.66-2.94-3.99-7.04-3.99-12.29s1.53-9.54,4.57-12.84c3.06-3.3,6.88-4.96,11.48-4.96,2.52,0,4.82.52,6.88,1.56v-13.32l7.76-1.86v47.49h-7.76Zm0-25.29c-1.65-1.33-3.38-1.99-5.18-1.99-3.11,0-5.5.95-7.17,2.84-1.67,1.9-2.52,4.61-2.52,8.15,0,6.91,3.33,10.37,10,10.37.74,0,1.66-.22,2.74-.67,1.09-.45,1.8-.89,2.12-1.35v-17.35Z"/><path class="cls-15" d="m1110.94,344.55c0-5.07,1.47-9.2,4.39-12.39,2.94-3.18,6.8-4.78,11.6-4.78,5.05,0,8.98,1.54,11.77,4.59,2.79,3.07,4.19,7.25,4.19,12.58s-1.42,9.51-4.27,12.63c-2.84,3.13-6.75,4.69-11.69,4.69s-8.98-1.58-11.78-4.73c-2.8-3.16-4.2-7.36-4.2-12.59m8.07,0c0,7.33,2.64,10.99,7.91,10.99,2.42,0,4.34-.95,5.76-2.85,1.42-1.91,2.13-4.61,2.13-8.14,0-7.22-2.63-10.84-7.89-10.84-2.42,0-4.35.95-5.77,2.86-1.43,1.89-2.14,4.55-2.14,7.98"/><path class="cls-15" d="m1150.43,315.61l7.76-1.86v37.38c0,4.09,1.22,6.53,3.67,7.32-1.2,2.27-3.25,3.42-6.15,3.42-3.52,0-5.27-2.44-5.27-7.33v-38.93Z"/><path class="cls-15" d="m1169.92,361.24v-26.88h-4.25v-6.36h12.11v33.24h-7.85Zm4-46.13c1.24,0,2.3.44,3.18,1.32.88.88,1.32,1.95,1.32,3.19s-.44,2.31-1.32,3.18c-.88.88-1.94,1.32-3.18,1.32s-2.3-.45-3.18-1.32c-.88-.88-1.32-1.94-1.32-3.18s.44-2.31,1.32-3.19c.88-.88,1.94-1.32,3.18-1.32"/><path class="cls-15" d="m1208.65,361.24v-2.02c-.64.71-1.73,1.32-3.27,1.85-1.53.53-3.11.79-4.75.79-4.64,0-8.27-1.47-10.93-4.41-2.67-2.94-3.99-7.04-3.99-12.29s1.52-9.54,4.58-12.84c3.06-3.3,6.88-4.96,11.47-4.96,2.53,0,4.82.52,6.89,1.56v-13.32l7.76-1.86v47.49h-7.76Zm0-25.29c-1.66-1.33-3.39-1.99-5.19-1.99-3.1,0-5.49.95-7.17,2.84-1.68,1.9-2.52,4.61-2.52,8.15,0,6.91,3.33,10.37,10,10.37.74,0,1.66-.22,2.75-.67,1.09-.45,1.79-.89,2.13-1.35v-17.35Z"/><polygon class="cls-11" points="1103.27 137.31 1100.85 133.31 1104.81 131.26 1107.1 135.04 1103.27 137.31"/><polygon class="cls-3" points="1103.27 137.31 1100.85 133.31 1104.81 131.26 1107.1 135.04 1103.27 137.31"/><path class="cls-5" d="m1093.4,127.53c3.34,1.1,5.79,2.77,5.5,3.76-.31.98-3.26.88-6.59-.22-3.34-1.09-5.8-2.77-5.5-3.75.31-.98,3.26-.89,6.6.21"/><path class="cls-3" d="m1093.4,127.53c3.34,1.1,5.79,2.77,5.5,3.76-.31.98-3.26.88-6.59-.22-3.34-1.09-5.8-2.77-5.5-3.75.31-.98,3.26-.89,6.6.21Z"/><polygon class="cls-11" points="1082.22 125.66 1074.59 122.47 1074.25 122.47 1074.24 122.47 1074.22 122.47 1073.88 122.47 1066.25 125.66 1074.22 128.74 1074.24 128.74 1074.25 128.74 1082.22 125.66"/><polygon class="cls-3" points="1082.22 125.66 1074.59 122.47 1074.25 122.47 1074.24 122.47 1074.22 122.47 1073.88 122.47 1066.25 125.66 1074.22 128.74 1074.24 128.74 1074.25 128.74 1082.22 125.66"/><polygon class="cls-11" points="1045.24 137.31 1047.67 133.31 1043.71 131.26 1041.42 135.04 1045.24 137.31"/><polygon class="cls-3" points="1045.24 137.31 1047.67 133.31 1043.71 131.26 1041.42 135.04 1045.24 137.31"/><path class="cls-5" d="m1055.11,127.53c-3.34,1.1-5.79,2.77-5.49,3.76.31.98,3.26.88,6.59-.22,3.34-1.09,5.79-2.77,5.49-3.75-.31-.98-3.26-.89-6.59.21"/><path class="cls-3" d="m1055.11,127.53c-3.34,1.1-5.79,2.77-5.49,3.76.31.98,3.26.88,6.59-.22,3.34-1.09,5.79-2.77,5.49-3.75-.31-.98-3.26-.89-6.59.21Z"/></svg>