<svg width="293" height="101" viewBox="0 0 293 101" fill="none" xmlns="http://www.w3.org/2000/svg">
<rect x="0.0776978" y="0.3479" width="292.922" height="100.054" fill="#005BFF"/>
<path d="M50.1368 56.0147C50.1368 57.2948 49.9968 58.5349 49.7168 59.7349C49.4367 60.935 48.9967 61.9951 48.3967 62.9152C47.7966 63.8352 47.0366 64.5753 46.1165 65.1353C45.2364 65.6554 44.1564 65.9154 42.8763 65.9154C41.6362 65.9154 40.5561 65.6554 39.636 65.1353C38.716 64.5753 37.9559 63.8352 37.3559 62.9152C36.7558 61.9951 36.3158 60.935 36.0358 59.7349C35.7558 58.5349 35.6157 57.2948 35.6157 56.0147C35.6157 54.6946 35.7558 53.4345 36.0358 52.2344C36.3158 51.0343 36.7558 49.9742 37.3559 49.0542C37.9559 48.1341 38.716 47.4141 39.636 46.894C40.5561 46.334 41.6362 46.054 42.8763 46.054C44.1564 46.054 45.2364 46.334 46.1165 46.894C47.0366 47.4141 47.7966 48.1341 48.3967 49.0542C48.9967 49.9742 49.4367 51.0343 49.7168 52.2344C49.9968 53.4345 50.1368 54.6946 50.1368 56.0147ZM27.3952 28.6527V71.4958H35.4957V67.5355H35.6157C36.5358 69.2556 37.8959 70.4757 39.696 71.1958C41.4962 71.9158 43.5363 72.2758 45.8165 72.2758C47.3766 72.2758 48.9167 71.9558 50.4368 71.3158C51.9569 70.6757 53.317 69.6956 54.5171 68.3756C55.7572 67.0555 56.7573 65.3753 57.5173 63.3352C58.2774 61.255 58.6574 58.7949 58.6574 55.9547C58.6574 53.1145 58.2774 50.6743 57.5173 48.6341C56.7573 46.554 55.7572 44.8539 54.5171 43.5338C53.317 42.2137 51.9569 41.2336 50.4368 40.5936C48.9167 39.9535 47.3766 39.6335 45.8165 39.6335C43.8963 39.6335 42.0362 40.0135 40.2361 40.7736C38.476 41.4936 37.0759 42.6537 36.0358 44.2538H35.9158V28.6527H27.3952Z" fill="white"/>
<path d="M61.0773 40.4736V71.4958H69.5979V57.5148C69.5979 56.1147 69.7379 54.8146 70.0179 53.6145C70.2979 52.4144 70.7579 51.3743 71.398 50.4943C72.078 49.5742 72.9581 48.8542 74.0382 48.3341C75.1183 47.8141 76.4384 47.5541 77.9985 47.5541C78.5185 47.5541 79.0585 47.5941 79.6186 47.6741C80.1786 47.7141 80.6587 47.7741 81.0587 47.8541V39.9335C80.3786 39.7335 79.7586 39.6335 79.1986 39.6335C78.1185 39.6335 77.0784 39.7935 76.0783 40.1135C75.0783 40.4336 74.1382 40.8936 73.2581 41.4936C72.3781 42.0537 71.598 42.7537 70.918 43.5938C70.2379 44.3938 69.6979 45.2739 69.2978 46.234H69.1778V40.4736H61.0773Z" fill="white"/>
<path d="M90.1597 56.0147C90.1597 54.7746 90.2797 53.5545 90.5197 52.3544C90.7597 51.1543 91.1597 50.0942 91.7198 49.1742C92.3198 48.2541 93.0999 47.5141 94.0599 46.954C95.02 46.354 96.2201 46.054 97.6602 46.054C99.1003 46.054 100.3 46.354 101.26 46.954C102.261 47.5141 103.041 48.2541 103.601 49.1742C104.201 50.0942 104.621 51.1543 104.861 52.3544C105.101 53.5545 105.221 54.7746 105.221 56.0147C105.221 57.2548 105.101 58.4748 104.861 59.6749C104.621 60.835 104.201 61.8951 103.601 62.8552C103.041 63.7752 102.261 64.5153 101.26 65.0753C100.3 65.6354 99.1003 65.9154 97.6602 65.9154C96.2201 65.9154 95.02 65.6354 94.0599 65.0753C93.0999 64.5153 92.3198 63.7752 91.7198 62.8552C91.1597 61.8951 90.7597 60.835 90.5197 59.6749C90.2797 58.4748 90.1597 57.2548 90.1597 56.0147ZM81.639 56.0147C81.639 58.4948 82.0191 60.735 82.7791 62.7351C83.5392 64.7353 84.6193 66.4554 86.0194 67.8955C87.4195 69.2956 89.0996 70.3757 91.0597 71.1358C93.0199 71.8958 95.22 72.2758 97.6602 72.2758C100.1 72.2758 102.301 71.8958 104.261 71.1358C106.261 70.3757 107.961 69.2956 109.361 67.8955C110.761 66.4554 111.841 64.7353 112.601 62.7351C113.361 60.735 113.741 58.4948 113.741 56.0147C113.741 53.5345 113.361 51.2943 112.601 49.2942C111.841 47.254 110.761 45.5339 109.361 44.1338C107.961 42.6937 106.261 41.5936 104.261 40.8336C102.301 40.0335 100.1 39.6335 97.6602 39.6335C95.22 39.6335 93.0199 40.0335 91.0597 40.8336C89.0996 41.5936 87.4195 42.6937 86.0194 44.1338C84.6193 45.5339 83.5392 47.254 82.7791 49.2942C82.0191 51.2943 81.639 53.5345 81.639 56.0147Z" fill="white"/>
<path d="M124.442 56.0147C124.442 54.7746 124.562 53.5545 124.802 52.3544C125.042 51.1543 125.442 50.0942 126.002 49.1742C126.602 48.2541 127.382 47.5141 128.342 46.954C129.302 46.354 130.502 46.054 131.942 46.054C133.382 46.054 134.583 46.354 135.543 46.954C136.543 47.5141 137.323 48.2541 137.883 49.1742C138.483 50.0942 138.903 51.1543 139.143 52.3544C139.383 53.5545 139.503 54.7746 139.503 56.0147C139.503 57.2548 139.383 58.4748 139.143 59.6749C138.903 60.835 138.483 61.8951 137.883 62.8552C137.323 63.7752 136.543 64.5153 135.543 65.0753C134.583 65.6354 133.382 65.9154 131.942 65.9154C130.502 65.9154 129.302 65.6354 128.342 65.0753C127.382 64.5153 126.602 63.7752 126.002 62.8552C125.442 61.8951 125.042 60.835 124.802 59.6749C124.562 58.4748 124.442 57.2548 124.442 56.0147ZM115.921 56.0147C115.921 58.4948 116.301 60.735 117.061 62.7351C117.821 64.7353 118.901 66.4554 120.301 67.8955C121.702 69.2956 123.382 70.3757 125.342 71.1358C127.302 71.8958 129.502 72.2758 131.942 72.2758C134.382 72.2758 136.583 71.8958 138.543 71.1358C140.543 70.3757 142.243 69.2956 143.643 67.8955C145.043 66.4554 146.123 64.7353 146.883 62.7351C147.643 60.735 148.023 58.4948 148.023 56.0147C148.023 53.5345 147.643 51.2943 146.883 49.2942C146.123 47.254 145.043 45.5339 143.643 44.1338C142.243 42.6937 140.543 41.5936 138.543 40.8336C136.583 40.0335 134.382 39.6335 131.942 39.6335C129.502 39.6335 127.302 40.0335 125.342 40.8336C123.382 41.5936 121.702 42.6937 120.301 44.1338C118.901 45.5339 117.821 47.254 117.061 49.2942C116.301 51.2943 115.921 53.5345 115.921 56.0147Z" fill="white"/>
<path d="M150.743 28.6527V71.4958H159.264V60.815L162.564 57.6348L171.085 71.4958H181.406L168.385 51.8744L180.085 40.4736H170.005L159.264 51.6344V28.6527H150.743Z" fill="white"/>
<path d="M194.02 40.4736V31.1729H185.499V40.4736H180.339V46.174H185.499V64.4753C185.499 66.0354 185.759 67.2955 186.279 68.2555C186.799 69.2156 187.499 69.9557 188.379 70.4757C189.299 70.9957 190.339 71.3358 191.499 71.4958C192.699 71.6958 193.96 71.7958 195.28 71.7958C196.12 71.7958 196.98 71.7758 197.86 71.7358C198.74 71.6958 199.54 71.6158 200.26 71.4958V64.8953C199.86 64.9753 199.44 65.0353 199 65.0753C198.56 65.1153 198.1 65.1353 197.62 65.1353C196.18 65.1353 195.22 64.8953 194.74 64.4153C194.26 63.9352 194.02 62.9752 194.02 61.5351V46.174H200.26V40.4736H194.02Z" fill="white"/>
<path d="M223.995 52.6544H210.134C210.174 52.0544 210.295 51.3743 210.495 50.6143C210.735 49.8542 211.115 49.1342 211.635 48.4541C212.195 47.7741 212.915 47.214 213.795 46.774C214.715 46.294 215.855 46.054 217.215 46.054C219.295 46.054 220.835 46.614 221.835 47.7341C222.875 48.8542 223.595 50.4943 223.995 52.6544ZM210.134 58.0548H232.516C232.676 55.6546 232.476 53.3545 231.916 51.1543C231.356 48.9542 230.436 46.994 229.156 45.2739C227.916 43.5538 226.316 42.1937 224.356 41.1936C222.395 40.1535 220.095 39.6335 217.455 39.6335C215.095 39.6335 212.935 40.0535 210.975 40.8936C209.054 41.7336 207.394 42.8937 205.994 44.3738C204.594 45.8139 203.514 47.5341 202.754 49.5342C201.994 51.5343 201.614 53.6945 201.614 56.0147C201.614 58.4148 201.974 60.615 202.694 62.6151C203.454 64.6153 204.514 66.3354 205.874 67.7755C207.234 69.2156 208.894 70.3357 210.855 71.1358C212.815 71.8958 215.015 72.2758 217.455 72.2758C220.975 72.2758 223.975 71.4758 226.456 69.8757C228.936 68.2755 230.776 65.6154 231.976 61.8951H224.476C224.196 62.8552 223.435 63.7752 222.195 64.6553C220.955 65.4953 219.475 65.9154 217.755 65.9154C215.355 65.9154 213.515 65.2953 212.235 64.0552C210.955 62.8152 210.255 60.815 210.134 58.0548Z" fill="white"/>
<path d="M257.491 51.3943H265.832C265.712 49.3942 265.232 47.6741 264.392 46.234C263.551 44.7539 262.451 43.5338 261.091 42.5737C259.771 41.5736 258.251 40.8336 256.531 40.3535C254.851 39.8735 253.091 39.6335 251.251 39.6335C248.73 39.6335 246.49 40.0535 244.53 40.8936C242.57 41.7336 240.91 42.9137 239.55 44.4338C238.19 45.9139 237.15 47.6941 236.43 49.7742C235.749 51.8144 235.409 54.0345 235.409 56.4347C235.409 58.7549 235.789 60.895 236.55 62.8552C237.31 64.7753 238.37 66.4354 239.73 67.8355C241.09 69.2356 242.73 70.3357 244.65 71.1358C246.61 71.8958 248.75 72.2758 251.071 72.2758C255.191 72.2758 258.571 71.1958 261.211 69.0356C263.851 66.8754 265.452 63.7352 266.012 59.6149H257.791C257.511 61.5351 256.811 63.0752 255.691 64.2353C254.611 65.3553 253.051 65.9154 251.011 65.9154C249.69 65.9154 248.57 65.6154 247.65 65.0153C246.73 64.4153 245.99 63.6552 245.43 62.7351C244.91 61.7751 244.53 60.715 244.29 59.5549C244.05 58.3948 243.93 57.2548 243.93 56.1347C243.93 54.9746 244.05 53.8145 244.29 52.6544C244.53 51.4543 244.93 50.3743 245.49 49.4142C246.09 48.4141 246.85 47.6141 247.77 47.014C248.69 46.374 249.83 46.054 251.191 46.054C254.831 46.054 256.931 47.8341 257.491 51.3943Z" fill="white"/>
</svg>
