<svg xmlns="http://www.w3.org/2000/svg" xmlns:xlink="http://www.w3.org/1999/xlink" viewBox="0 0 183.39 193.16"><defs><style>.cls-1{fill:#e5dbc8;}.cls-2{clip-path:url(#clip-path);}.cls-3{fill:#938b89;}.cls-12,.cls-13,.cls-4,.cls-7,.cls-8{fill:none;}.cls-12,.cls-14,.cls-4,.cls-7,.cls-8,.cls-9{stroke:#6c5353;}.cls-4,.cls-8{stroke-linejoin:round;}.cls-12,.cls-13,.cls-14,.cls-4,.cls-7,.cls-8,.cls-9{stroke-width:3px;}.cls-5,.cls-9{fill:#f1dcac;}.cls-6{fill:#e8c495;}.cls-12,.cls-8{stroke-linecap:round;}.cls-10{fill:#ba9686;}.cls-11{fill:#6c5353;}.cls-13{stroke:#be2f74;}.cls-14{fill:#fff;stroke-miterlimit:10;}</style><clipPath id="clip-path"><circle class="cls-1" cx="90" cy="99.84" r="90"/></clipPath></defs><title>Recurso 11</title><g id="Capa_2" data-name="Capa 2"><g id="Capa_10" data-name="Capa 10"><circle class="cls-1" cx="90" cy="99.84" r="90"/><g class="cls-2"><path class="cls-3" d="M125.09,125.07l-35.6-19.64L52.91,125.12a22.89,22.89,0,0,0-12,20.16v46.38h96.07V145.11A22.89,22.89,0,0,0,125.09,125.07Z"/><path class="cls-4" d="M125.09,125.07l-35.6-19.64L52.91,125.12a22.89,22.89,0,0,0-12,20.16v46.38h96.07V145.11A22.89,22.89,0,0,0,125.09,125.07Z"/><polygon class="cls-3" points="107.58 108.3 71.37 108.3 83.36 128.42 95.59 128.42 107.58 108.3"/><polygon class="cls-4" points="107.58 108.3 71.37 108.3 83.36 128.42 95.59 128.42 107.58 108.3"/><path class="cls-5" d="M79.29,104h20a0,0,0,0,1,0,0v24a10,10,0,0,1-10,10h0a10,10,0,0,1-10-10V104A0,0,0,0,1,79.29,104Z"/><path class="cls-6" d="M79.29,114.53l2.33,1.57a14,14,0,0,0,15.68,0l2-1.35V103h-20Z"/><path class="cls-7" d="M79.29,104h20a0,0,0,0,1,0,0v24a10,10,0,0,1-10,10h0a10,10,0,0,1-10-10V104A0,0,0,0,1,79.29,104Z"/><polygon class="cls-3" points="63.59 118.62 73.87 143.3 83.36 128.42 71.37 108.3 63.59 118.62"/><polygon class="cls-3" points="115.36 118.62 105.08 143.3 95.59 128.42 107.58 108.3 115.36 118.62"/><polygon class="cls-4" points="63.59 118.62 73.87 143.3 83.36 128.42 71.37 108.3 63.59 118.62"/><polygon class="cls-4" points="115.36 118.62 105.08 143.3 95.59 128.42 107.58 108.3 115.36 118.62"/><rect class="cls-5" x="40.86" y="162.14" width="16" height="29.52"/><rect class="cls-7" x="40.86" y="162.14" width="16" height="29.52"/><rect class="cls-5" x="120.93" y="162.14" width="16" height="29.52"/><rect class="cls-7" x="120.93" y="162.14" width="16" height="29.52"/><line class="cls-8" x1="56.86" y1="151.66" x2="56.86" y2="191.66"/><line class="cls-8" x1="120.93" y1="151.66" x2="120.93" y2="191.66"/></g><circle class="cls-4" cx="91.89" cy="99.84" r="90"/><rect class="cls-9" x="41.11" y="50.64" width="24" height="20" rx="10" ry="10"/><rect class="cls-9" x="115.11" y="50.64" width="24" height="20" rx="10" ry="10"/><path class="cls-5" d="M129,38.5c0-20.43-17.46-37-39-37h0c-21.54,0-39,16.57-39,37V61.75h0c0,.07,0,.15,0,.22,0,27.36,17.46,49.53,39,49.53S129,89.32,129,62c0-.07,0-.15,0-.22h0Z"/><path class="cls-10" d="M100,78.18H80a10,10,0,0,0-10,10v15.29l6.17,5.64c4.74,3.2,22.94,3.2,27.68,0l6.15-5.63V88.18A10,10,0,0,0,100,78.18Z"/><path class="cls-7" d="M129,38.5c0-20.43-17.46-37-39-37h0c-21.54,0-39,16.57-39,37V61.75h0c0,.07,0,.15,0,.22,0,27.36,17.46,49.53,39,49.53S129,89.32,129,62c0-.07,0-.15,0-.22h0Z"/><circle class="cls-11" cx="72.97" cy="58.48" r="4"/><circle class="cls-11" cx="106.97" cy="58.48" r="4"/><path class="cls-12" d="M83.11,72.85a6,6,0,0,0,6,6h2a6,6,0,0,0,6-6"/><path class="cls-13" d="M90.11,88.85"/><path class="cls-12" d="M86.32,104.11a18.32,18.32,0,0,0,7.57,0"/><line class="cls-12" x1="63.97" y1="42.76" x2="81.97" y2="42.76"/><line class="cls-12" x1="115.97" y1="42.76" x2="97.97" y2="42.76"/><path class="cls-14" d="M90.12,97.9a12,12,0,0,0,12-12h-24A12,12,0,0,0,90.12,97.9Z"/><path class="cls-12" d="M93.15,54.68a10.63,10.63,0,0,0-2.84-.37,13.24,13.24,0,0,0-3.17.37"/><rect class="cls-12" x="94.66" y="50.48" width="26" height="16" rx="2" ry="2"/><rect class="cls-12" x="59.66" y="50.48" width="26" height="16" rx="2" ry="2"/></g></g></svg>