<?xml version="1.0" encoding="UTF-8"?>
<svg width="223px" height="235px" viewBox="0 0 223 235" version="1.1" xmlns="http://www.w3.org/2000/svg" xmlns:xlink="http://www.w3.org/1999/xlink">
    <!-- Generator: Sketch 43.1 (39012) - http://www.bohemiancoding.com/sketch -->
    <title>Group 3</title>
    <desc>Created with Sketch.</desc>
    <defs>
        <ellipse id="path-1" cx="110" cy="109.563895" rx="109.392265" ry="109.421053"></ellipse>
    </defs>
    <g id="Page-1" stroke="none" stroke-width="1" fill="none" fill-rule="evenodd">
        <g id="Website" transform="translate(-251.000000, -3377.000000)">
            <g id="Ponentes" transform="translate(1.000000, 1844.000000)">
                <g id="Group-13" transform="translate(251.000000, 1535.000000)">
                    <g id="Group-3">
                        <ellipse id="Oval" fill="#E5DBC8" fill-rule="nonzero" cx="110" cy="121.506" rx="109.392265" ry="109.421053"></ellipse>
                        <g id="Group" transform="translate(0.000000, 11.942105)">
                            <mask id="mask-2" fill="white">
                                <use xlink:href="#path-1"></use>
                            </mask>
                            <use id="Mask" fill="#E5DBC8" fill-rule="nonzero" xlink:href="#path-1"></use>
                            <g mask="url(#mask-2)">
                                <g transform="translate(51.049724, 112.068421)">
                                    <path d="M73.1554696,10.2734211 L43.9051934,10.2734211 C19.7392265,10.2734211 0.148287293,29.8695158 0.148287293,54.0418421 L0.148287293,106.864247 L116.913591,106.864247 L116.913591,54.0418421 C116.912376,29.8683 97.3214365,10.2734211 73.1554696,10.2734211 Z" id="Shape" stroke="#6C5353" stroke-width="3.64640884" fill="#F1DCAC" fill-rule="nonzero"></path>
                                    <rect id="Rectangle-path" stroke="none" fill="#F1DCAC" fill-rule="nonzero" x="46.8502762" y="5.12455263" width="24.3093923" height="25.3382684"></rect>
                                    <path d="M46.8502762,14.3049789 L49.678674,16.2174158 C55.4351381,20.1079421 62.9771271,20.1079421 68.7335912,16.2174158 L71.1596685,14.5773158 L71.1596685,0.260178947 L46.8502762,0.260178947 L46.8502762,14.3049789 Z" id="Shape" stroke="none" fill="#E8C495" fill-rule="nonzero"></path>
                                    <path d="M71.1620994,4.19447368 L71.1620994,23.6471053" id="Shape" stroke="#6C5353" stroke-width="3.64640884" fill="none" stroke-linecap="round"></path>
                                    <path d="M46.8502762,4.19447368 L46.8502762,23.6471053" id="Shape" stroke="#6C5353" stroke-width="3.64640884" fill="none" stroke-linecap="round"></path>
                                    <rect id="Rectangle-path" stroke="none" fill="#F1DCAC" fill-rule="nonzero" x="0.148287293" y="62.4684789" width="19.4475138" height="44.3957684"></rect>
                                    <path d="M0.148287293,54.0418421 L0.148287293,106.864247 L19.5958011,106.864247 L19.5958011,17.6484 C7.87016575,25.4999684 0.148287293,38.8675737 0.148287293,54.0418421 Z" id="Shape" stroke="#6C5353" stroke-width="3.64640884" fill="none"></path>
                                    <rect id="Rectangle-path" stroke="none" fill="#F1DCAC" fill-rule="nonzero" x="97.4648619" y="62.4684789" width="19.4475138" height="44.3957684"></rect>
                                    <path d="M97.4648619,17.6484 L97.4648619,106.864247 L116.912376,106.864247 L116.912376,54.0418421 C116.912376,38.8675737 109.190497,25.4999684 97.4648619,17.6484 Z" id="Shape" stroke="#6C5353" stroke-width="3.64640884" fill="none"></path>
                                    <path d="M82.2629834,11.2290316 L82.2629834,19.5693474 C82.2629834,27.6263842 75.7322652,34.1588211 67.6773481,34.1588211 L48.2298343,34.1588211 C40.1749171,34.1588211 33.6441989,27.6263842 33.6441989,19.5693474 L33.6441989,11.4965053 C28.558674,12.7195895 23.8171271,14.8229053 19.5958011,17.6496158 L19.5958011,106.865463 L97.4660773,106.865463 L97.4660773,17.6496158 C92.9262983,14.6089263 87.7860773,12.3986211 82.2629834,11.2290316 Z" id="Shape" stroke="none" fill="#CDDEB8" fill-rule="nonzero"></path>
                                    <path d="M82.2629834,11.2290316 L82.2629834,19.5693474 C82.2629834,27.6263842 75.7322652,34.1588211 67.6773481,34.1588211 L48.2298343,34.1588211 C40.1749171,34.1588211 33.6441989,27.6263842 33.6441989,19.5693474 L33.6441989,11.4965053 C28.558674,12.7195895 23.8171271,14.8229053 19.5958011,17.6496158 L19.5958011,106.865463 L97.4660773,106.865463 L97.4660773,17.6496158 C92.9262983,14.6089263 87.7860773,12.3986211 82.2629834,11.2290316 Z" id="Shape" stroke="#6C5353" stroke-width="3.64640884" fill="none"></path>
                                    <path d="M42.6070718,73.0592211 C42.6070718,68.0805632 44.5068508,63.1031211 48.301547,59.3062105 C55.8970166,51.7075263 68.2121547,51.7075263 75.8051934,59.3062105 L69.6634254,64.6021895 C69.6646409,64.6021895 54.4457459,52.7604 42.6070718,73.0592211 Z" id="Shape" stroke="none" fill="#6C5353" fill-rule="nonzero"></path>
                                    <path d="M42.9632044,76.7369842 C44.6843094,85.7192368 52.5714917,92.5130684 62.0533702,92.5130684 C63.5058564,92.5130684 64.9194475,92.3501526 66.281989,92.0474211 C57.5743646,90.1143158 51.060663,82.3515 51.060663,73.0604368 C51.060663,70.2398053 51.6683978,67.5626368 52.7489503,65.1432158 C52.7501657,65.1432158 48.2662983,67.7960684 42.9632044,76.7369842 Z" id="Shape" stroke="none" fill="#6C5353" fill-rule="nonzero"></path>
                                    <path d="M70.239558,90.7112684 C72.2548066,89.7763263 74.1424309,88.4766474 75.8064088,86.8134474 L69.6646409,81.5174684 C63.2117127,85.9344316 57.9329282,84.8766947 57.9329282,84.8766947 C57.9329282,84.8766947 61.4407735,89.4796737 70.239558,90.7112684 Z" id="Shape" stroke="none" fill="#6C5353" fill-rule="nonzero"></path>
                                </g>
                            </g>
                        </g>
                        <ellipse id="Oval" stroke="#6C5353" stroke-width="3.64640884" stroke-linejoin="round" cx="110.607735" cy="121.578947" rx="109.392265" ry="109.421053"></ellipse>
                        <g id="Group-2" transform="translate(49.834254, 0.000000)">
                            <path d="M13.018895,86.0146737 L17.8807735,86.0146737 C24.5938122,86.0146737 30.0354696,80.5715842 30.0354696,73.8567789 L30.0354696,73.8567789 C30.0354696,67.1419737 24.5938122,61.6988842 17.8807735,61.6988842 L13.018895,61.6988842 C6.30585635,61.6988842 0.864198895,67.1419737 0.864198895,73.8567789 L0.864198895,73.8567789 C0.864198895,80.5715842 6.30585635,86.0146737 13.018895,86.0146737 Z" id="Shape" stroke="#6C5353" stroke-width="3.64640884" fill="#F1DCAC" fill-rule="nonzero"></path>
                            <path d="M102.963646,86.0146737 L107.825525,86.0146737 C114.538564,86.0146737 119.980221,80.5715842 119.980221,73.8567789 L119.980221,73.8567789 C119.980221,67.1419737 114.538564,61.6988842 107.825525,61.6988842 L102.963646,61.6988842 C96.2506077,61.6988842 90.8089503,67.1419737 90.8089503,73.8567789 L90.8089503,73.8567789 C90.8089503,80.5715842 96.2506077,86.0146737 102.963646,86.0146737 Z" id="Shape" stroke="#6C5353" stroke-width="3.64640884" fill="#F1DCAC" fill-rule="nonzero"></path>
                            <path d="M107.825525,45.5921053 C107.825525,20.7474474 86.6022099,0.607894737 60.4222099,0.607894737 L60.4222099,0.607894737 C34.2422099,0.607894737 13.018895,20.7474474 13.018895,45.5921053 L13.018895,73.8567789 L13.0237569,73.8567789 C13.0237569,73.9467474 13.018895,74.0342842 13.018895,74.1242526 C13.018895,107.384605 34.2422099,134.347168 60.4222099,134.347168 C86.6022099,134.347168 107.825525,107.384605 107.825525,74.1242526 C107.825525,74.0342842 107.820663,73.9467474 107.820663,73.8567789 L107.825525,73.8567789 L107.825525,45.5921053 Z" id="Shape" stroke="#6C5353" stroke-width="3.64640884" fill="#F1DCAC" fill-rule="nonzero"></path>
                            <path d="M100.96663,105.344511 C90.5512707,97.7288053 76.2427624,93.0103263 60.4222099,93.0103263 C44.6016575,93.0103263 30.2931492,97.7288053 19.8777901,105.344511 C27.7734807,121.857363 41.7440884,133.160558 57.8478453,134.255984 C58.7023204,134.299753 59.5543646,134.347168 60.419779,134.347168 L60.4209945,134.347168 C61.2864088,134.347168 62.1396685,134.299753 62.9941436,134.255984 C79.1003315,133.160558 93.0709392,121.857363 100.96663,105.344511 Z" id="Shape" fill="#BA9686" fill-rule="nonzero"></path>
                            <path d="M23.7672928,17.0696842 C19.518011,21.9814737 16.3468508,27.7637684 14.5880663,34.0907368 L106.255138,34.0907368 C104.496354,27.7637684 101.325193,21.9814737 97.0759116,17.0696842 L23.7672928,17.0696842 Z" id="Shape" fill="#CDDEB8" fill-rule="nonzero"></path>
                            <path d="M23.7672928,17.0696842 C19.518011,21.9814737 16.3468508,27.7637684 14.5880663,34.0907368 L106.255138,34.0907368 C104.496354,27.7637684 101.325193,21.9814737 97.0759116,17.0696842 L23.7672928,17.0696842 Z" id="Shape" stroke="#6C5353" stroke-width="3.74364641" stroke-linejoin="round"></path>
                            <path d="M51.9139227,91.1307158 C51.9139227,95.1598421 55.178674,98.4254526 59.2067403,98.4254526 L61.6376796,98.4254526 C65.6657459,98.4254526 68.9304972,95.1598421 68.9304972,91.1307158" id="Shape" stroke="#6C5353" stroke-width="3.64640884" fill="#F1DCAC" fill-rule="nonzero" stroke-linecap="round" stroke-linejoin="round"></path>
                            <path d="M46.9888398,108.214989 C50.698453,110.9493 55.3524862,112.593047 60.4222099,112.593047 C65.4919337,112.593047 70.1459669,110.9493 73.8555801,108.214989" id="Shape" stroke="#6C5353" stroke-width="3.64640884" stroke-linecap="round"></path>
                            <path d="M55.8216575,120.624553 C57.3057459,120.927284 58.840884,121.104789 60.4222099,121.104789 C62.0035359,121.104789 63.538674,120.927284 65.0227624,120.624553" id="Shape" stroke="#6C5353" stroke-width="3.64640884" stroke-linecap="round"></path>
                            <path d="M45.0246409,82.7235316 C50.5708287,82.7235316 55.7888398,81.3898105 60.3407735,79.0433368 C64.8927072,81.3898105 70.1095028,82.7235316 75.6569061,82.7235316 C93.378453,82.7235316 107.744088,69.1152 107.744088,52.3287947 L12.9374586,52.3287947 C12.9374586,69.1152 27.3030939,82.7235316 45.0246409,82.7235316 Z" id="Shape" fill="#BA9686" fill-rule="nonzero"></path>
                            <path d="M69.7570166,82.2056053 C71.6701657,82.5423789 73.640442,82.7235316 75.6569061,82.7235316 C78.3904972,82.7235316 81.0426519,82.3977 83.5756906,81.7885895 L94.8953591,52.3287947 L81.2371271,52.3287947 L69.7570166,82.2056053 Z" id="Shape" fill="#FFFFFF" fill-rule="nonzero"></path>
                            <path d="M45.0246409,82.7235316 C50.5708287,82.7235316 55.7888398,81.3898105 60.3407735,79.0433368 C64.8927072,81.3898105 70.1095028,82.7235316 75.6569061,82.7235316 C93.378453,82.7235316 107.744088,69.1152 107.744088,52.3287947 L12.9374586,52.3287947 C12.9374586,69.1152 27.3030939,82.7235316 45.0246409,82.7235316 Z" id="Shape" stroke="#6C5353" stroke-width="3.64640884" stroke-linejoin="round"></path>
                            <path d="M107.825525,45.5921053 C107.825525,20.7474474 86.6022099,0.607894737 60.4222099,0.607894737 L60.4222099,0.607894737 C34.2422099,0.607894737 13.018895,20.7474474 13.018895,45.5921053 L13.018895,73.8567789 L13.0237569,73.8567789 C13.0237569,73.9467474 13.018895,74.0342842 13.018895,74.1242526 C13.018895,107.384605 34.2422099,134.347168 60.4222099,134.347168 C86.6022099,134.347168 107.825525,107.384605 107.825525,74.1242526 C107.825525,74.0342842 107.820663,73.9467474 107.820663,73.8567789 L107.825525,73.8567789 L107.825525,45.5921053 Z" id="Shape" stroke="#6C5353" stroke-width="3.64640884"></path>
                            <path d="M28.6170166,45.6334421 L50.4954696,41.7149526" id="Shape" stroke="#6C5353" stroke-width="3.64640884" stroke-linecap="round"></path>
                            <path d="M91.8238674,45.6334421 L69.9454144,41.7149526" id="Shape" stroke="#6C5353" stroke-width="3.64640884" stroke-linecap="round"></path>
                        </g>
                    </g>
                </g>
            </g>
        </g>
    </g>
</svg>