<svg xmlns="http://www.w3.org/2000/svg" xmlns:xlink="http://www.w3.org/1999/xlink" viewBox="0 0 183 212.5"><defs><style>.cls-1{fill:#e5dbc8;}.cls-2{clip-path:url(#clip-path);}.cls-3{fill:#f2bd7c;}.cls-12,.cls-14,.cls-4,.cls-7,.cls-8{fill:none;}.cls-10,.cls-12,.cls-13,.cls-4,.cls-7,.cls-8,.cls-9{stroke:#6c5353;}.cls-4,.cls-8,.cls-9{stroke-linejoin:round;}.cls-10,.cls-12,.cls-13,.cls-14,.cls-4,.cls-7,.cls-8,.cls-9{stroke-width:3px;}.cls-10,.cls-5{fill:#f1dcac;}.cls-6{fill:#e8c495;}.cls-12,.cls-8{stroke-linecap:round;}.cls-15,.cls-9{fill:#ba9686;}.cls-11{fill:#6c5353;}.cls-13{fill:#fff;stroke-miterlimit:10;}.cls-14{stroke:#be2f74;}</style><clipPath id="clip-path"><circle class="cls-1" cx="91.5" cy="119.18" r="90"/></clipPath></defs><title>Recurso 9</title><g id="Capa_2" data-name="Capa 2"><g id="Capa_8" data-name="Capa 8"><circle class="cls-1" cx="91.5" cy="119.18" r="90"/><g class="cls-2"><path class="cls-3" d="M125.35,144.41l-35.6-19.64L53.17,144.46a22.89,22.89,0,0,0-12,20.16V211h96.07V164.46A22.89,22.89,0,0,0,125.35,144.41Z"/><path class="cls-4" d="M125.35,144.41l-35.6-19.64L53.17,144.46a22.89,22.89,0,0,0-12,20.16V211h96.07V164.46A22.89,22.89,0,0,0,125.35,144.41Z"/><polygon class="cls-3" points="107.84 127.64 71.63 127.64 83.61 147.77 95.85 147.77 107.84 127.64"/><polygon class="cls-4" points="107.84 127.64 71.63 127.64 83.61 147.77 95.85 147.77 107.84 127.64"/><path class="cls-5" d="M79.55,123.32h20a0,0,0,0,1,0,0v24a10,10,0,0,1-10,10h0a10,10,0,0,1-10-10v-24A0,0,0,0,1,79.55,123.32Z"/><path class="cls-6" d="M79.55,133.87l2.33,1.57a14,14,0,0,0,15.68,0l2-1.35V122.32h-20Z"/><path class="cls-7" d="M79.55,123.32h20a0,0,0,0,1,0,0v24a10,10,0,0,1-10,10h0a10,10,0,0,1-10-10v-24A0,0,0,0,1,79.55,123.32Z"/><polygon class="cls-3" points="63.85 137.97 74.13 162.64 83.61 147.77 71.63 127.64 63.85 137.97"/><polygon class="cls-3" points="115.62 137.97 105.34 162.64 95.85 147.77 107.84 127.64 115.62 137.97"/><polygon class="cls-4" points="63.85 137.97 74.13 162.64 83.61 147.77 71.63 127.64 63.85 137.97"/><polygon class="cls-4" points="115.62 137.97 105.34 162.64 95.85 147.77 107.84 127.64 115.62 137.97"/><rect class="cls-5" x="41.12" y="181.49" width="16" height="29.52"/><rect class="cls-7" x="41.12" y="181.49" width="16" height="29.52"/><rect class="cls-5" x="121.19" y="181.49" width="16" height="29.52"/><rect class="cls-7" x="121.19" y="181.49" width="16" height="29.52"/><line class="cls-8" x1="57.12" y1="171" x2="57.12" y2="211"/><line class="cls-8" x1="121.19" y1="171" x2="121.19" y2="211"/></g><circle class="cls-4" cx="91.5" cy="119.18" r="90"/><path class="cls-9" d="M126.71,70s12-18.58,7-37.81C126.19,3.5,72.27-.68,68.92,2.32S74.5,15.49,74.5,15.49s-19-11.83-22.92-9.67,5.44,14,5.44,14S43.19,13,38.85,16.32s8.86,11.83,8.86,11.83-17.19,3.5,5,41.83Z"/><rect class="cls-10" x="40.71" y="69.99" width="24" height="20" rx="10" ry="10"/><rect class="cls-10" x="114.71" y="69.99" width="24" height="20" rx="10" ry="10"/><path class="cls-5" d="M120.55,112.9l-23,15.54a14,14,0,0,1-15.68,0l-23-15.54a14,14,0,0,1-6.16-11.6V30.74h74V101.3A14,14,0,0,1,120.55,112.9Z"/><path class="cls-6" d="M126.71,37.43s-54.48-.94-74,7.9v-7.9S86.4,25.7,126.71,37.43Z"/><path class="cls-7" d="M120.55,112.9l-23,15.54a14,14,0,0,1-15.68,0l-23-15.54a14,14,0,0,1-6.16-11.6V30.74h74V101.3A14,14,0,0,1,120.55,112.9Z"/><circle class="cls-11" cx="72.58" cy="77.82" r="4"/><circle class="cls-11" cx="106.58" cy="77.82" r="4"/><path class="cls-12" d="M82.71,91.2a6,6,0,0,0,6,6h2a6,6,0,0,0,6-6"/><path class="cls-13" d="M90,115.55a12,12,0,0,0,12-12H78A12,12,0,0,0,90,115.55Z"/><path class="cls-14" d="M89.71,108.2"/><path class="cls-12" d="M85.93,120.46a18.32,18.32,0,0,0,7.57,0"/><line class="cls-12" x1="63.58" y1="67.1" x2="81.58" y2="63.88"/><line class="cls-12" x1="115.58" y1="67.1" x2="97.58" y2="63.88"/><path class="cls-15" d="M48.71,38.42C57.86,36,75,32.5,89.71,32.5s31.85,3.52,41,5.93l-2-9.24-39.17-6-37.83,6Z"/><path class="cls-12" d="M130.71,38.42c-9.15-2.41-26.34-5.93-41-5.93s-31.85,3.52-41,5.93"/></g></g></svg>