<?xml version="1.0" encoding="UTF-8"?>
<svg width="224px" height="269px" viewBox="0 0 224 269" version="1.1" xmlns="http://www.w3.org/2000/svg" xmlns:xlink="http://www.w3.org/1999/xlink">
    <!-- Generator: Sketch 43.1 (39012) - http://www.bohemiancoding.com/sketch -->
    <title>Group 3</title>
    <desc>Created with Sketch.</desc>
    <defs>
        <ellipse id="path-1" cx="110" cy="109.907834" rx="110" ry="109.907834"></ellipse>
    </defs>
    <g id="Page-1" stroke="none" stroke-width="1" fill="none" fill-rule="evenodd">
        <g id="Website" transform="translate(-250.000000, -3800.000000)">
            <g id="Ponentes" transform="translate(1.000000, 1844.000000)">
                <g id="Group-21" transform="translate(251.000000, 1958.000000)">
                    <g id="Group-3">
                        <ellipse id="Oval" fill="#E5DBC8" fill-rule="nonzero" cx="110" cy="155.092166" rx="110" ry="109.907834"></ellipse>
                        <g id="Group" transform="translate(0.000000, 45.184332)">
                            <mask id="mask-2" fill="white">
                                <use xlink:href="#path-1"></use>
                            </mask>
                            <use id="Mask" fill="#E5DBC8" fill-rule="nonzero" xlink:href="#path-1"></use>
                            <g mask="url(#mask-2)">
                                <g transform="translate(50.111111, 102.580645)">
                                    <path d="M103.095667,37.9963594 L59.5833333,14.0169124 L14.8707778,38.0537558 C5.80311111,42.9287788 0.147888889,52.3845161 0.147888889,62.6718894 L0.147888889,119.315945 L117.561889,119.315945 L117.561889,62.4752765 C117.561889,52.2917051 112.020333,42.9141244 103.095667,37.9963594 Z" id="Shape" stroke="none" fill="#8BBBE3" fill-rule="nonzero"></path>
                                    <path d="M103.095667,37.9963594 L59.5833333,14.0169124 L14.8707778,38.0537558 C5.80311111,42.9287788 0.147888889,52.3845161 0.147888889,62.6718894 L0.147888889,119.315945 L117.561889,119.315945 L117.561889,62.4752765 C117.561889,52.2917051 112.020333,42.9141244 103.095667,37.9963594 Z" id="Shape" stroke="#6C5353" stroke-width="3.66666667" fill="none" stroke-linejoin="round"></path>
                                    <path d="M59.3327778,41.5476037 L59.3327778,41.5476037 C52.5824444,41.5476037 47.1105556,36.0802995 47.1105556,29.3356221 L47.1105556,0.0256451613 L71.555,0.0256451613 L71.555,29.3356221 C71.555,36.0802995 66.0831111,41.5476037 59.3327778,41.5476037 Z" id="Shape" stroke="none" fill="#F1DCAC" fill-rule="nonzero"></path>
                                    <path d="M47.1105556,25.1249309 L49.9546667,27.0458756 C55.7431111,30.9537097 63.327,30.9537097 69.1154444,27.0458756 L71.555,25.3984793 L71.555,11.0176498 L47.1105556,11.0176498 L47.1105556,25.1249309 Z" id="Shape" stroke="none" fill="#E8C495" fill-rule="nonzero"></path>
                                    <path d="M59.3327778,41.5476037 L59.3327778,41.5476037 C52.5824444,41.5476037 47.1105556,36.0802995 47.1105556,29.3356221 L47.1105556,0.0256451613 L71.555,0.0256451613 L71.555,29.3356221 C71.555,36.0802995 66.0831111,41.5476037 59.3327778,41.5476037 Z" id="Shape" stroke="#6C5353" stroke-width="3.66666667" fill="none"></path>
                                    <rect id="Rectangle-path" stroke="none" fill="#F1DCAC" fill-rule="nonzero" x="0.149111111" y="83.2722811" width="19.5555556" height="36.0436636"></rect>
                                    <rect id="Rectangle-path" stroke="#6C5353" stroke-width="3.66666667" fill="none" x="0.149111111" y="83.2722811" width="19.5555556" height="36.0436636"></rect>
                                    <rect id="Rectangle-path" stroke="none" fill="#F1DCAC" fill-rule="nonzero" x="98.0063333" y="83.2722811" width="19.5555556" height="36.0436636"></rect>
                                    <rect id="Rectangle-path" stroke="#6C5353" stroke-width="3.66666667" fill="none" x="98.0063333" y="83.2722811" width="19.5555556" height="36.0436636"></rect>
                                    <path d="M19.7046667,70.4680184 L19.7046667,119.315945" id="Shape" stroke="#6C5353" stroke-width="3.66666667" fill="none" stroke-linecap="round" stroke-linejoin="round"></path>
                                    <path d="M98.0063333,70.4680184 L98.0063333,119.315945" id="Shape" stroke="#6C5353" stroke-width="3.66666667" fill="none" stroke-linecap="round" stroke-linejoin="round"></path>
                                    <path d="M71.5158889,81.7164747 C71.4303333,75.4993548 66.3422222,70.4680184 60.1015556,70.4680184 C57.3246667,70.4680184 54.6504444,71.4767281 52.569,73.3097465 C50.7124444,74.9449309 49.4425556,77.1308756 48.939,79.5293088 C48.9023333,79.5293088 48.8656667,79.5280876 48.829,79.5280876 C43.4964444,79.5280876 39.1575556,83.863341 39.1575556,89.1914286 C39.1575556,94.5195161 43.4964444,98.8547696 48.829,98.8547696 L71.3887778,98.8547696 C76.1187778,98.8547696 79.9663333,95.0104378 79.9663333,90.2844009 C79.9663333,85.6023272 76.1872222,81.7836406 71.5158889,81.7164747 Z" id="Shape" stroke="#6C5353" stroke-width="3.66666667" fill="#FFFFFF" fill-rule="nonzero"></path>
                                </g>
                            </g>
                        </g>
                        <ellipse id="Oval" stroke="#6C5353" stroke-width="3.66666667" stroke-linejoin="round" cx="110" cy="155.092166" rx="110" ry="109.907834"></ellipse>
                        <g id="Group-2" transform="translate(48.888889, 0.000000)">
                            <path d="M14.1753333,94.8724424 C14.1753333,94.8724424 -0.666111111,80.6870046 5.64911111,45.037788 C11.9643333,9.38857143 72.1538889,-2.41552995 76.2458889,1.24806452 C80.3378889,4.91165899 69.4332222,17.3275806 69.4332222,17.3275806 C69.4332222,17.3275806 92.697,2.87714286 97.4502222,5.52225806 C102.203444,8.16737327 90.7976667,22.6190323 90.7976667,22.6190323 C90.7976667,22.6190323 107.705889,14.2745853 113.001778,18.3448387 C118.297667,22.4150922 102.176556,32.7952765 102.176556,32.7952765 C102.176556,32.7952765 131.742111,48.0602535 104.619778,94.8724424 L14.1753333,94.8724424 L14.1753333,94.8724424 Z" id="Shape" stroke="#6C5353" stroke-width="3.66666667" fill="#BA9686" fill-rule="nonzero" stroke-linejoin="round"></path>
                            <path d="M13.0912222,119.296406 L17.9801111,119.296406 C24.7304444,119.296406 30.2023333,113.829101 30.2023333,107.084424 L30.2023333,107.084424 C30.2023333,100.339747 24.7304444,94.8724424 17.9801111,94.8724424 L13.0912222,94.8724424 C6.34088889,94.8724424 0.869,100.339747 0.869,107.084424 L0.869,107.084424 C0.869,113.829101 6.34088889,119.296406 13.0912222,119.296406 Z" id="Shape" stroke="#6C5353" stroke-width="3.66666667" fill="#F1DCAC" fill-rule="nonzero"></path>
                            <path d="M103.535667,119.296406 L108.424556,119.296406 C115.174889,119.296406 120.646778,113.829101 120.646778,107.084424 L120.646778,107.084424 C120.646778,100.339747 115.174889,94.8724424 108.424556,94.8724424 L103.535667,94.8724424 C96.7853333,94.8724424 91.3134444,100.339747 91.3134444,107.084424 L91.3134444,107.084424 C91.3134444,113.829101 96.7853333,119.296406 103.535667,119.296406 Z" id="Shape" stroke="#6C5353" stroke-width="3.66666667" fill="#F1DCAC" fill-rule="nonzero"></path>
                            <path d="M98.4487778,147.281382 L70.3376667,166.261244 C64.5492222,170.169078 56.9653333,170.169078 51.1768889,166.261244 L23.0657778,147.281382 C18.3565556,144.102604 15.5344444,138.794055 15.5344444,133.115484 L15.5344444,50.6076728 L105.978889,50.6076728 L105.978889,133.115484 C105.980111,138.794055 103.158,144.102604 98.4487778,147.281382 Z" id="Shape" fill="#F1DCAC" fill-rule="nonzero"></path>
                            <path d="M72.9801111,127.243963 L48.5356667,127.243963 C41.7853333,127.243963 36.3134444,132.711267 36.3134444,139.455945 L36.3134444,156.225438 L51.1781111,166.261244 C56.9665556,170.169078 64.5504444,170.169078 70.3388889,166.261244 L85.2035556,156.225438 L85.2035556,139.455945 C85.2023333,132.711267 79.7304444,127.243963 72.9801111,127.243963 Z" id="Shape" fill="#BA9686" fill-rule="nonzero"></path>
                            <path d="M105.980111,62.434977 C105.980111,62.434977 39.3983333,61.2907143 15.5356667,72.0775576 L15.5356667,62.434977 C15.5356667,62.434977 56.7135556,48.1115438 105.980111,62.434977 Z" id="Shape" fill="#E8C495" fill-rule="nonzero"></path>
                            <path d="M98.4487778,147.281382 L70.3376667,166.261244 C64.5492222,170.169078 56.9653333,170.169078 51.1768889,166.261244 L23.0657778,147.281382 C18.3565556,144.102604 15.5344444,138.794055 15.5344444,133.115484 L15.5344444,50.6076728 L105.978889,50.6076728 L105.978889,133.115484 C105.980111,138.794055 103.158,144.102604 98.4487778,147.281382 Z" id="Shape" stroke="#6C5353" stroke-width="3.66666667"></path>
                            <ellipse id="Oval" fill="#6C5353" fill-rule="nonzero" cx="39.8163333" cy="104.438088" rx="4.88888889" ry="4.88479263"></ellipse>
                            <ellipse id="Oval" fill="#6C5353" fill-rule="nonzero" cx="81.3743333" cy="104.438088" rx="4.88888889" ry="4.88479263"></ellipse>
                            <path d="M52.2023333,123.214009 C52.2023333,127.26106 55.4852222,130.541198 59.5356667,130.541198 L61.9801111,130.541198 C66.0305556,130.541198 69.3134444,127.26106 69.3134444,123.214009" id="Shape" stroke="#6C5353" stroke-width="3.66666667" fill="#F1DCAC" fill-rule="nonzero" stroke-linecap="round" stroke-linejoin="round"></path>
                            <path d="M56.1317778,154.060253 C57.6241111,154.364332 59.1677778,154.542627 60.7578889,154.542627 C62.348,154.542627 63.8916667,154.364332 65.384,154.060253" id="Shape" stroke="#6C5353" stroke-width="3.66666667" stroke-linecap="round"></path>
                            <path d="M70.3743333,90.124424 L92.3743333,86.1885023" id="Shape" stroke="#6C5353" stroke-width="3.66666667" stroke-linecap="round"></path>
                            <path d="M50.8163333,90.124424 L28.8163333,86.1885023" id="Shape" stroke="#6C5353" stroke-width="3.66666667" stroke-linecap="round"></path>
                            <path d="M10.6467778,63.6537327 C21.8252222,60.7057604 42.8352222,56.4132488 60.7578889,56.4132488 C78.6805556,56.4132488 99.6905556,60.7057604 110.869,63.6537327 L110.869,45.037788 L60.555,32.8258065 L10.6467778,45.037788 L10.6467778,63.6537327 Z" id="Shape" fill="#BA9686" fill-rule="nonzero"></path>
                            <path d="M110.869,63.6537327 C99.6905556,60.7057604 78.6805556,56.4132488 60.7578889,56.4132488 C42.8352222,56.4132488 21.8252222,60.7057604 10.6467778,63.6537327" id="Shape" stroke="#6C5353" stroke-width="3.66666667" stroke-linecap="round"></path>
                            <path d="M48.2936667,144.321198 L72.7381111,144.321198" id="Shape" stroke="#6C5353" stroke-width="3.66666667" stroke-linecap="round"></path>
                        </g>
                    </g>
                </g>
            </g>
        </g>
    </g>
</svg>