<?xml version="1.0" encoding="utf-8"?>
<!-- Generator: Adobe Illustrator 22.0.0, SVG Export Plug-In . SVG Version: 6.00 Build 0)  -->
<svg version="1.1" xmlns="http://www.w3.org/2000/svg" xmlns:xlink="http://www.w3.org/1999/xlink" x="0px" y="0px"
	 viewBox="0 0 368 506.281" style="enable-background:new 0 0 368 506.281;" xml:space="preserve">
<style type="text/css">
	.st0{fill:#DDD3C5;}
	.st1{clip-path:url(#SVGID_2_);}
	.st2{fill:#FFFFFF;}
	.st3{fill:none;stroke:#4A546C;stroke-width:8;stroke-miterlimit:10;}
	.st4{fill:#F1DCAC;}
	.st5{fill:#E8C495;}
	.st6{fill:none;stroke:#485269;stroke-width:8;}
	.st7{fill:none;stroke:#485269;stroke-width:8;stroke-linecap:round;stroke-linejoin:round;}
	.st8{fill:none;stroke:#485269;stroke-width:8;stroke-linecap:round;}
	.st9{fill:#BA9686;stroke:#464E66;stroke-width:8;stroke-linejoin:round;}
	.st10{fill:#D28170;stroke:#485269;stroke-width:8;}
	.st11{fill:#F1DCAC;stroke:#464E66;stroke-width:8;}
	.st12{fill:#485269;}
	.st13{fill:#E6BC96;}
	.st14{fill:none;stroke:#BE2F74;stroke-width:7.3469;}
	.st15{fill:#FFFFFF;stroke:#485269;stroke-width:7.3469;stroke-miterlimit:10;}
	.st16{fill:none;stroke:#485068;stroke-width:8;stroke-linecap:round;}
	.st17{fill:#BA9686;}
	.st18{fill:#A38072;}
	.st19{fill:none;stroke:#464E66;stroke-width:8;stroke-linejoin:round;}
	.st20{fill:#F6EEB5;stroke:#485269;stroke-width:8;}
	.st21{fill:#D28170;}
	.st22{fill:#CDDEB8;stroke:#485269;stroke-width:7.3469;}
	.st23{fill:#F6EEB5;stroke:#485269;stroke-width:7.3469;}
	.st24{fill:none;stroke:#485269;stroke-width:4;stroke-linecap:round;}
	.st25{fill:none;stroke:#485269;stroke-width:4;stroke-linecap:round;stroke-dasharray:11.1885,16.7828;}
	.st26{fill:#8BBBE3;stroke:#485068;stroke-width:8;}
	.st27{fill:#CDDEB8;stroke:#485269;stroke-width:8;}
</style>
<g id="Capa_2">
</g>
<g id="Capa_1">
	<circle class="st0" cx="184" cy="322.281" r="180"/>
	<g>
		<defs>
			<circle id="SVGID_1_" cx="180" cy="322.281" r="180"/>
		</defs>
		<clipPath id="SVGID_2_">
			<use xlink:href="#SVGID_1_"  style="overflow:visible;"/>
		</clipPath>
		<g class="st1">
			<path class="st2" d="M273.782,382.573l-87.186-48.088l-89.591,48.204c-18.168,9.775-29.499,28.739-29.499,49.37v74.222h235.263
				v-74.617C302.768,411.243,291.663,392.436,273.782,382.573z"/>
			<path class="st3" d="M273.782,382.573l-87.186-48.088l-89.591,48.204c-18.168,9.775-29.499,28.739-29.499,49.37v74.222h235.263
				v-74.617C302.768,411.243,291.663,392.436,273.782,382.573z"/>
			<path class="st4" d="M186.094,431.33L186.094,431.33c27.051,0,48.98-21.929,48.98-48.98v-21.126l-48.478-26.738l-49.481,26.623
				v21.242C137.114,409.401,159.043,431.33,186.094,431.33z"/>
			<path class="st5" d="M161.604,364.109l5.7,3.851c11.598,7.837,26.794,7.837,38.392,0l4.888-3.303v-28.838h-48.98V364.109z"/>
			<path class="st6" d="M186.094,431.33L186.094,431.33c27.051,0,48.98-21.929,48.98-48.98v-21.126l-48.478-26.738l-49.481,26.623
				v21.242C137.114,409.401,159.043,431.33,186.094,431.33z"/>
			<polygon class="st4" points="105.689,464.281 66.505,464.281 67.505,506.281 106.689,506.281 			"/>
			<polygon class="st6" points="105.689,464.281 66.505,464.281 67.505,506.281 106.689,506.281 			"/>
			<rect x="263.584" y="473.37" class="st4" width="39.184" height="32.912"/>
			<polygon class="st4" points="303.768,462.281 264.584,462.281 263.584,506.281 302.768,506.281 			"/>
			<polygon class="st6" points="303.768,462.281 264.584,462.281 263.584,506.281 302.768,506.281 			"/>
			<line class="st7" x1="106.689" y1="439.692" x2="106.689" y2="506.281"/>
			<line class="st7" x1="263.584" y1="447.693" x2="263.584" y2="506.281"/>
			<line class="st8" x1="161.604" y1="353.538" x2="161.604" y2="382.925"/>
			<line class="st8" x1="210.587" y1="353.538" x2="210.587" y2="382.925"/>
			<g>
				<path class="st9" d="M118.161,325.012l19.438-19.506c3.904-3.917,10.233-3.917,14.137,0s3.904,10.269,0,14.186l-19.438,19.506
					L118.161,325.012z"/>
				<path class="st9" d="M132.39,310.778l-19.438-19.506c-3.904-3.917-10.233-3.917-14.137,0c-3.904,3.917-3.904,10.269,0,14.186
					l19.438,19.506L132.39,310.778z"/>
				<path class="st9" d="M118.161,352.942l19.438-19.506c3.904-3.917,10.233-3.917,14.137,0s3.904,10.269,0,14.186l-19.438,19.506
					L118.161,352.942z"/>
				<path class="st9" d="M132.39,338.709l-19.438-19.506c-3.904-3.917-10.233-3.917-14.137,0c-3.904,3.917-3.904,10.269,0,14.186
					l19.438,19.506L132.39,338.709z"/>
				<path class="st9" d="M118.161,381.487l19.438-19.506c3.904-3.917,10.233-3.917,14.137,0c3.904,3.917,3.904,10.269,0,14.186
					l-19.438,19.506L118.161,381.487z"/>
				<path class="st9" d="M132.39,367.254l-19.438-19.506c-3.904-3.917-10.233-3.917-14.137,0c-3.904,3.917-3.904,10.269,0,14.186
					l19.438,19.506L132.39,367.254z"/>
				<path class="st9" d="M132.39,395.797l-19.438-19.506c-3.904-3.917-10.233-3.917-14.137,0c-3.904,3.917-3.904,10.269,0,14.186
					l19.438,19.506L132.39,395.797z"/>
			</g>
			<path class="st9" d="M142.372,448.349c3.669-10.769,8.566-34.046-16.835-34.046c-23.136,0-20.575,24.365-17.135,33.19
				s17.135,29.466,17.135,29.466S138.702,459.118,142.372,448.349z"/>
			<path class="st10" d="M139.641,394.711h-29.388c-5.41,0-9.796,4.386-9.796,9.796v0c0,5.41,4.386,9.796,9.796,9.796h29.388
				c5.41,0,9.796-4.386,9.796-9.796v0C149.436,399.096,145.051,394.711,139.641,394.711z"/>
		</g>
	</g>
	<circle class="st6" cx="184" cy="322.281" r="180"/>
	<path class="st11" d="M90.99,263.779h9.796c13.525,0,24.49-10.964,24.49-24.49v0c0-13.525-10.964-24.49-24.49-24.49H90.99
		c-13.525,0-24.49,10.964-24.49,24.49v0C66.5,252.814,77.464,263.779,90.99,263.779z"/>
	<path class="st11" d="M272.214,263.779h9.796c13.525,0,24.49-10.964,24.49-24.49v0c0-13.525-10.964-24.49-24.49-24.49h-9.796
		c-13.525,0-24.49,10.964-24.49,24.49v0C247.724,252.814,258.689,263.779,272.214,263.779z"/>
	<path class="st4" d="M186.5,346.44L186.5,346.44c-50.044,0-90.612-40.568-90.612-90.612v-95.51h181.224v95.51
		C277.112,305.871,236.544,346.44,186.5,346.44z"/>
	<path class="st6" d="M186.5,346.44L186.5,346.44c-50.044,0-90.612-40.568-90.612-90.612v-90.611h181.224v90.611
		C277.112,305.871,236.544,346.44,186.5,346.44z"/>
	<circle class="st12" cx="144.538" cy="229.082" r="9.796"/>
	<circle class="st13" cx="134.743" cy="270.717" r="9.796"/>
	<circle class="st12" cx="227.807" cy="229.082" r="9.796"/>
	<circle class="st13" cx="237.606" cy="270.717" r="9.796"/>
	<path class="st14" d="M186.5,283.879"/>
	<path class="st15" d="M186.553,323.906c16.23,0,29.388-13.157,29.388-29.388h-58.776
		C157.166,310.748,170.323,323.906,186.553,323.906z"/>
	<path class="st16" d="M168.879,263.007c2.362,5.693,8.704,9.768,16.156,9.768c7.676,0,14.173-4.324,16.358-10.285"/>
	<path class="st5" d="M121.628,187.821c0,0,69.081-13.831,129.747,0v-12.81c0,0-64.855-14.702-129.747,0V187.821z"/>
	<path class="st17" d="M95.888,214.799c0,0,28.184-3.81,28.184-46.591l-28.184,0.297V214.799z"/>
	<path class="st18" d="M95.888,193.489c0,0,15.497-3.945,25.74-5.668v-12.81c0,0-16.391,3.189-25.74,6.283L95.888,193.489z"/>
	<path class="st19" d="M95.888,214.799c0,0,28.184-3.81,28.184-46.591l-28.184,0.297V214.799z"/>
	<path class="st17" d="M277.112,214.799c0,0-28.184-3.81-28.184-46.591l28.184,0.297V214.799z"/>
	<path class="st18" d="M277.112,193.489c0,0-15.497-3.945-25.74-5.668v-12.81c0,0,16.391,3.189,25.74,6.283L277.112,193.489z"/>
	<path class="st19" d="M277.112,214.799c0,0-28.184-3.81-28.184-46.591l28.184,0.297V214.799z"/>
	<path class="st16" d="M164.13,210.09c-5.41-5.508-12.198-8.82-19.592-8.82c-7.394,0-14.181,3.312-19.592,8.82"/>
	<path class="st16" d="M247.4,210.09c-5.41-5.508-12.198-8.82-19.592-8.82c-7.394,0-14.181,3.312-19.592,8.82"/>
	<path class="st10" d="M146.277,21.239c-15.939-2.757-50.389-9.175-50.389,12.648c0,21.682,36.06,15.457,49.122,12.873
		c13.062-2.584,43.61-12.873,43.61-12.873S162.216,23.995,146.277,21.239z"/>
	<path class="st20" d="M226.723,21.239c15.939-2.757,50.389-9.175,50.389,12.648c0,21.682-36.06,15.457-49.122,12.873
		c-13.062-2.584-43.61-12.873-43.61-12.873S210.784,23.995,226.723,21.239z"/>
	<path class="st21" d="M186.553,77.469L186.553,77.469c-5.41,0-9.796-4.386-9.796-9.796V13.796c0-5.41,4.386-9.796,9.796-9.796h0
		c5.41,0,9.796,4.386,9.796,9.796v53.878C196.349,73.084,191.964,77.469,186.553,77.469z"/>
	<path class="st6" d="M186.553,77.469L186.553,77.469c-5.41,0-9.796-4.386-9.796-9.796V13.796c0-5.41,4.386-9.796,9.796-9.796h0
		c5.41,0,9.796,4.386,9.796,9.796v53.878C196.349,73.084,191.964,77.469,186.553,77.469z"/>
	<path class="st22" d="M277.112,158.897c0-50.044-40.569-95.511-90.612-95.511c-50.044,0-90.612,45.467-90.612,95.511
		c0,0.476,0,9.608,0,9.608h181.224C277.112,168.506,277.112,159.374,277.112,158.897z"/>
	<path class="st23" d="M277.112,158.897c0-50.026-40.54-95.491-90.559-95.51v105.118h90.559
		C277.112,168.506,277.112,159.374,277.112,158.897z"/>
	<path class="st10" d="M186.5,63.387l0,104.822l-62.428-0.001C124.072,168.208,125.928,63.387,186.5,63.387z"/>
	<g>
		<g>
			<path class="st24" d="M176.392,74.878c-1.5,0.689-2.942,1.455-4.328,2.292"/>
			<path class="st25" d="M159.516,88.199c-9.93,12.09-15.333,28.608-18.268,43.412"/>
			<path class="st24" d="M139.82,139.878c-0.247,1.662-0.464,3.284-0.655,4.853"/>
		</g>
	</g>
	<path class="st26" d="M186.5,63.387l0.296,104.822l62.428-0.001C249.225,168.208,247.072,63.387,186.5,63.387z"/>
	<g>
		<g>
			<path class="st24" d="M197.944,74.878c1.5,0.689,2.942,1.455,4.328,2.292"/>
			<path class="st25" d="M214.819,88.199c9.93,12.09,15.333,28.608,18.268,43.412"/>
			<path class="st24" d="M234.516,139.878c0.247,1.662,0.464,3.284,0.655,4.853"/>
		</g>
	</g>
	<path class="st27" d="M296.553,172.307c-0.665-3.773-3.422-6.619-6.857-7.649c-34.371-10.856-69.194-14.305-100.36-14.132
		l-0.021-0.003l-0.024,0.003c-60.397,0.341-106.537,14.297-106.537,14.297c-4.389,1.592-7.145,6.129-6.307,10.885v0
		c0.939,5.328,6.02,8.885,11.348,7.946c0.501-0.088,0.97-0.247,1.437-0.406c0,0,93.533-31.911,194.538-0.007
		c1.511,0.515,3.153,0.71,4.837,0.413C293.935,182.716,297.492,177.635,296.553,172.307z"/>
</g>
</svg>
