<?xml version="1.0" encoding="UTF-8"?>
<svg width="224px" height="273px" viewBox="0 0 224 273" version="1.1" xmlns="http://www.w3.org/2000/svg" xmlns:xlink="http://www.w3.org/1999/xlink">
    <!-- Generator: Sketch 43.1 (39012) - http://www.bohemiancoding.com/sketch -->
    <title>Group 3</title>
    <desc>Created with Sketch.</desc>
    <defs>
        <ellipse id="path-1" cx="110" cy="110.045455" rx="110" ry="110.045455"></ellipse>
    </defs>
    <g id="Page-1" stroke="none" stroke-width="1" fill="none" fill-rule="evenodd">
        <g id="Website" transform="translate(-249.000000, -2501.000000)">
            <g id="Ponentes" transform="translate(1.000000, 1844.000000)">
                <g id="Group-15" transform="translate(250.000000, 659.000000)">
                    <g id="Group-3">
                        <g id="Group" transform="translate(0.000000, 48.909091)">
                            <mask id="mask-2" fill="white">
                                <use xlink:href="#path-1"></use>
                            </mask>
                            <use id="Mask" fill="#E5DBC8" fill-rule="nonzero" xlink:href="#path-1"></use>
                            <g mask="url(#mask-2)">
                                <g transform="translate(35.444444, 114.713636)">
                                    <path d="M146.832889,47.8540682 C146.362333,22.9483364 113.730222,2.8467 73.5215556,2.8467 C33.3128889,2.8467 0.680777778,22.9483364 0.210222222,47.8540682 L0.188222222,47.8540682 L0.188222222,111.67065 L146.854889,111.67065 L146.854889,47.8540682 L146.832889,47.8540682 Z" id="Shape" stroke="none" fill="#938B89" fill-rule="nonzero"></path>
                                    <path d="M146.832889,47.8540682 C146.362333,22.9483364 113.730222,2.8467 73.5215556,2.8467 C33.3128889,2.8467 0.680777778,22.9483364 0.210222222,47.8540682 L0.188222222,47.8540682 L0.188222222,111.67065 L146.854889,111.67065 L146.854889,47.8540682 L146.832889,47.8540682 Z" id="Shape" stroke="#6C5353" stroke-width="3.66666667" fill="none" stroke-linejoin="round"></path>
                                    <rect id="Rectangle-path" stroke="none" fill="#F1DCAC" fill-rule="nonzero" x="0.188222222" y="68.2454909" width="24.4444444" height="36.0887955"></rect>
                                    <rect id="Rectangle-path" stroke="#6C5353" stroke-width="3.66666667" fill="none" x="0.188222222" y="68.2454909" width="24.4444444" height="36.0887955"></rect>
                                    <path d="M24.6326667,62.7615591 L24.6326667,111.67065" id="Shape" stroke="#6C5353" stroke-width="3.66666667" fill="none" stroke-linecap="round" stroke-linejoin="round"></path>
                                    <rect id="Rectangle-path" stroke="none" fill="#F1DCAC" fill-rule="nonzero" transform="translate(134.633522, 86.289889) rotate(-180.000000) translate(-134.633522, -86.289889) " x="122.4113" y="68.2454909" width="24.4444444" height="36.0887955"></rect>
                                    <rect id="Rectangle-path" stroke="#6C5353" stroke-width="3.66666667" fill="none" transform="translate(134.633522, 86.289889) rotate(-180.000000) translate(-134.633522, -86.289889) " x="122.4113" y="68.2454909" width="24.4444444" height="36.0887955"></rect>
                                    <path d="M122.410444,62.7615591 L122.410444,111.67065" id="Shape" stroke="#6C5353" stroke-width="3.66666667" fill="none" stroke-linecap="round" stroke-linejoin="round"></path>
                                    <polygon id="Shape" stroke="none" fill="#8BBBE3" fill-rule="nonzero" points="50.732 57.87065 50.732 106.779741 99.6208889 57.87065"></polygon>
                                    <polygon id="Shape" stroke="#6C5353" stroke-width="3.52354444" fill="none" stroke-linejoin="round" points="50.732 57.87065 50.732 106.779741 99.6208889 57.87065"></polygon>
                                    <polygon id="Shape" stroke="none" fill="#74A2CF" fill-rule="nonzero" points="81.0198889 76.4793364 50.732 57.87065 69.5884444 87.9155045 88.2163333 95.0880227"></polygon>
                                    <polygon id="Shape" stroke="#6C5353" stroke-width="3.52354444" fill="none" stroke-linejoin="round" points="81.0198889 76.4793364 50.732 57.87065 69.5884444 87.9155045 88.2163333 95.0880227"></polygon>
                                    <path d="M73.9994444,41.5814773 L73.9994444,41.5814773 C65.8997778,41.5814773 59.3327778,35.0117636 59.3327778,26.90875 L59.3327778,0.00752727273 L88.6661111,0.00752727273 L88.6661111,26.90875 C88.6661111,35.0117636 82.1003333,41.5814773 73.9994444,41.5814773 Z" id="Shape" stroke="none" fill="#F1DCAC" fill-rule="nonzero"></path>
                                    <rect id="Rectangle-path" stroke="none" fill="#E8C495" fill-rule="nonzero" x="59.3327778" y="1.05173636" width="29.3333333" height="20.7606864"></rect>
                                    <path d="M73.9994444,41.5814773 L73.9994444,41.5814773 C65.8997778,41.5814773 59.3327778,35.0117636 59.3327778,26.90875 L59.3327778,0.00752727273 L88.6661111,0.00752727273 L88.6661111,26.90875 C88.6661111,35.0117636 82.1003333,41.5814773 73.9994444,41.5814773 Z" id="Shape" stroke="#6C5353" stroke-width="3.66666667" fill="none"></path>
                                </g>
                            </g>
                        </g>
                        <ellipse id="Oval" stroke="#6C5353" stroke-width="3.66666667" stroke-linejoin="round" cx="110" cy="158.954545" rx="110" ry="110.045455"></ellipse>
                        <g id="Group-2" transform="translate(48.888889, 0.000000)">
                            <path d="M13.0912222,122.873086 L17.9801111,122.873086 C24.7304444,122.873086 30.2023333,117.398936 30.2023333,110.645814 L30.2023333,110.645814 C30.2023333,103.892691 24.7304444,98.4185409 17.9801111,98.4185409 L13.0912222,98.4185409 C6.34088889,98.4185409 0.869,103.892691 0.869,110.645814 L0.869,110.645814 C0.869,117.398936 6.34088889,122.873086 13.0912222,122.873086 Z" id="Shape" stroke="#6C5353" stroke-width="3.66666667" fill="#F1DCAC" fill-rule="nonzero"></path>
                            <path d="M103.535667,122.873086 L108.424556,122.873086 C115.174889,122.873086 120.646778,117.398936 120.646778,110.645814 L120.646778,110.645814 C120.646778,103.892691 115.174889,98.4185409 108.424556,98.4185409 L103.535667,98.4185409 C96.7853333,98.4185409 91.3134444,103.892691 91.3134444,110.645814 L91.3134444,110.645814 C91.3134444,117.398936 96.7853333,122.873086 103.535667,122.873086 Z" id="Shape" stroke="#6C5353" stroke-width="3.66666667" fill="#F1DCAC" fill-rule="nonzero"></path>
                            <path d="M105.980111,65.9392364 C105.980111,65.9392364 39.3983333,64.7935409 15.5356667,75.5938909 L15.5356667,65.9392364 C15.5356667,65.9392364 56.7135556,51.5978682 105.980111,65.9392364 Z" id="Shape" fill="#D4BC8B" fill-rule="nonzero"></path>
                            <path d="M105.980111,139.689255 C105.980111,155.896505 92.8473333,169.034709 76.6467778,169.034709 L60.7578889,169.034709 L44.869,169.034709 C28.6684444,169.034709 15.5356667,155.896505 15.5356667,139.689255 L15.5356667,78.5528909 L105.980111,78.5528909 L105.980111,139.689255 Z" id="Shape" fill="#F1DCAC" fill-rule="nonzero"></path>
                            <path d="M105.980111,139.689255 C105.980111,155.896505 92.8473333,169.034709 76.6467778,169.034709 L60.7578889,169.034709 L44.869,169.034709 C28.6684444,169.034709 15.5356667,155.896505 15.5356667,139.689255 L15.5356667,78.5528909 L105.980111,78.5528909 L105.980111,139.689255 Z" id="Shape" stroke="#6C5353" stroke-width="3.66666667"></path>
                            <path d="M107.258556,66.3256182 C103.967111,52.9110773 93.5036667,30.1830227 60.7762222,29.9568182 C28.0475556,30.1830227 17.5853333,52.9110773 14.2938889,66.3256182 C10.9853333,79.8074091 15.5735556,103.30945 15.5735556,103.30945 L60.7774444,103.30945 L105.981333,103.30945 C105.978889,103.30945 110.565889,79.8086318 107.258556,66.3256182 Z" id="Shape" fill="#F1DCAC" fill-rule="nonzero"></path>
                            <path d="M15.5723333,103.30945 C15.5723333,103.30945 10.9853333,79.8074091 14.2926667,66.3256182 C17.5841111,52.9110773 28.0475556,30.1830227 60.775,29.9568182 C93.5036667,30.1830227 103.965889,52.9110773 107.257333,66.3256182 C110.565889,79.8074091 105.977667,103.30945 105.977667,103.30945" id="Shape" stroke="#6C5353" stroke-width="3.66666667" stroke-linecap="round" stroke-linejoin="round"></path>
                            <ellipse id="Oval" fill="#6C5353" fill-rule="nonzero" cx="44.7052222" cy="107.994941" rx="4.88888889" ry="4.89090909"></ellipse>
                            <ellipse id="Oval" fill="#6C5353" fill-rule="nonzero" cx="76.4854444" cy="107.994941" rx="4.88888889" ry="4.89090909"></ellipse>
                            <path d="M105.980111,139.689255 L105.980111,98.4967955 L105.943444,98.4185409 C105.943444,98.4185409 105.71,123.856159 90.0814444,134.164973 C82.0881111,130.045605 71.9045556,127.561023 60.7835556,127.561023 C49.6405556,127.561023 39.4374444,130.056609 31.438,134.19065 L31.438,134.169864 C15.8057778,123.863495 15.5711111,98.4197636 15.5711111,98.4197636 L15.5344444,98.4980182 L15.5344444,139.690477 C15.5344444,143.268177 16.1871111,146.691814 17.3604444,149.861123 C17.3958889,149.957718 17.4325556,150.054314 17.4692222,150.150909 C17.732,150.839305 18.0118889,151.520364 18.3235556,152.184305 L18.3272222,152.183082 C23.0168889,162.142195 33.1344444,169.037155 44.8677778,169.037155 L60.7566667,169.037155 L76.6455556,169.037155 C88.3788889,169.037155 98.4952222,162.140973 103.184889,152.183082 L103.189778,152.185527 C103.51,151.505691 103.794778,150.807514 104.063667,150.102 C104.100333,150.005405 104.137,149.910032 104.172444,149.812214 C105.334778,146.653909 105.980111,143.248614 105.980111,139.689255 Z" id="Shape" fill="#BA9686" fill-rule="nonzero"></path>
                            <path d="M105.980111,139.689255 L105.980111,98.4967955 L105.943444,98.4185409 C105.943444,98.4185409 105.71,123.856159 90.0814444,134.164973 C82.0881111,130.045605 71.9045556,127.561023 60.7835556,127.561023 C49.6405556,127.561023 39.4374444,130.056609 31.438,134.19065 L31.438,134.169864 C15.8057778,123.863495 15.5711111,98.4197636 15.5711111,98.4197636 L15.5344444,98.4980182 L15.5344444,139.690477 C15.5344444,143.268177 16.1871111,146.691814 17.3604444,149.861123 C17.3958889,149.957718 17.4325556,150.054314 17.4692222,150.150909 C17.732,150.839305 18.0118889,151.520364 18.3235556,152.184305 L18.3272222,152.183082 C23.0168889,162.142195 33.1344444,169.037155 44.8677778,169.037155 L60.7566667,169.037155 L76.6455556,169.037155 C88.3788889,169.037155 98.4952222,162.140973 103.184889,152.183082 L103.189778,152.185527 C103.51,151.505691 103.794778,150.807514 104.063667,150.102 C104.100333,150.005405 104.137,149.910032 104.172444,149.812214 C105.334778,146.653909 105.980111,143.248614 105.980111,139.689255 Z" id="Shape" stroke="#6C5353" stroke-width="3.66666667" fill="#BA9686" fill-rule="nonzero" stroke-linejoin="round"></path>
                            <path d="M56.1317778,155.233786 C57.6241111,155.538245 59.1677778,155.716764 60.7578889,155.716764 C62.348,155.716764 63.8916667,155.538245 65.384,155.233786" id="Shape" stroke="#6C5353" stroke-width="3.66666667" stroke-linecap="round"></path>
                            <path d="M71.7847778,177.471527 L49.7847778,177.471527 C44.385,177.471527 40.007,173.091718 40.007,167.689709 L40.007,160.353345 L81.5625556,160.353345 L81.5625556,167.689709 C81.5625556,173.091718 77.1845556,177.471527 71.7847778,177.471527 Z" id="Shape" fill="#BA9686" fill-rule="nonzero"></path>
                            <path d="M81.5625556,160.353345 L81.5625556,167.689709 C81.5625556,173.091718 77.1845556,177.471527 71.7847778,177.471527 L49.7847778,177.471527 C44.385,177.471527 40.007,173.091718 40.007,167.689709 L40.007,160.353345" id="Shape" stroke="#6C5353" stroke-width="3.66666667" stroke-linecap="round" stroke-linejoin="round"></path>
                            <path d="M95.007,46.1506182 C95.007,44.9609045 94.8334444,43.7980909 94.5181111,42.6634 C87.3974444,35.5373455 76.7408889,30.0680864 60.7762222,29.9568182 C44.8298889,30.0668636 34.1806667,35.5238955 27.06,42.6377227 C26.7397778,43.77975 26.5637778,44.9523455 26.5637778,46.1506182 C26.5637778,57.6308045 41.8855556,66.9369818 60.786,66.9369818 C79.6852222,66.9369818 95.007,57.6308045 95.007,46.1506182 Z" id="Shape" fill="#E8C495" fill-rule="nonzero"></path>
                            <path d="M107.258556,66.3256182 C105.266333,58.2067091 100.624333,46.6935091 90.0313333,38.8056955 C90.0313333,38.7995818 90.0337778,38.7934682 90.0337778,38.7873545 C89.5265556,38.4095318 89.001,38.0427136 88.4656667,37.6820091 C88.3336667,37.59275 88.198,37.5071591 88.0635556,37.4191227 C87.3522222,36.9520409 86.6237778,36.4971864 85.8635556,36.0643409 C85.8611111,36.0631182 85.8586667,36.0618955 85.8562222,36.0606727 L85.8562222,36.0606727 C79.4493333,32.4145 71.258,30.0289591 60.775,29.9568182 C50.292,30.0289591 42.1018889,32.4145 35.6937778,36.0606727 L35.6937778,36.0606727 C35.6913333,36.0618955 35.6888889,36.0631182 35.6864444,36.0643409 C34.9262222,36.4971864 34.1977778,36.9532636 33.4864444,37.4191227 C33.352,37.5071591 33.2163333,37.59275 33.0843333,37.6820091 C32.549,38.0427136 32.0234444,38.4083091 31.5162222,38.7873545 C31.5162222,38.7934682 31.5186667,38.7995818 31.5186667,38.8056955 C20.9268889,46.6935091 16.2836667,58.2067091 14.2914444,66.3256182 C10.9828889,79.8074091 15.5711111,103.30945 15.5711111,103.30945 C16.0685556,76.9694591 38.016,51.1735818 38.016,51.1735818 L38.0111111,51.1320091 C43.3864444,56.1072864 51.5728889,59.3022727 60.775,59.3022727 C69.9771111,59.3022727 78.1635556,56.1072864 83.5388889,51.1320091 L83.5327778,51.1723591 C83.5327778,51.1723591 105.481444,76.9682364 105.977667,103.308227 C105.978889,103.30945 110.565889,79.8086318 107.258556,66.3256182 Z" id="Shape" stroke="#6C5353" stroke-width="3.66666667" fill="#BA9686" fill-rule="nonzero" stroke-linejoin="round"></path>
                            <path d="M93.9754444,136.400118 C85.547,130.950423 73.799,127.5598 60.7847778,127.5598 C47.7705556,127.5598 36.0213333,130.9492 27.5928889,136.398895" id="Shape" stroke="#6C5353" stroke-width="3.66666667" fill="#BA9686" fill-rule="nonzero" stroke-linecap="round" stroke-linejoin="round"></path>
                            <path d="M52.2023333,125.571645 C52.2023333,129.623764 55.4852222,132.908009 59.5356667,132.908009 L61.9801111,132.908009 C66.0305556,132.908009 69.3134444,129.623764 69.3134444,125.571645" id="Shape" stroke="#6C5353" stroke-width="3.66666667" fill="#F1DCAC" fill-rule="nonzero" stroke-linecap="round" stroke-linejoin="round"></path>
                            <path d="M47.2498889,142.753409 C50.9801111,145.503323 55.66,147.15645 60.7578889,147.15645 C65.8557778,147.15645 70.5356667,145.503323 74.2658889,142.753409" id="Shape" stroke="#6C5353" stroke-width="3.66666667" stroke-linecap="round"></path>
                            <path d="M78.4104444,38.5159091 L41.7437778,38.5159091 C38.3692222,38.5159091 35.6326667,35.7782227 35.6326667,32.4022727 L35.6326667,32.4022727 C35.6326667,29.0263227 38.3692222,26.2886364 41.7437778,26.2886364 L78.4104444,26.2886364 C81.785,26.2886364 84.5215556,29.0263227 84.5215556,32.4022727 L84.5215556,32.4022727 C84.5215556,35.7782227 81.7862222,38.5159091 78.4104444,38.5159091 Z" id="Shape" fill="#8285B9" fill-rule="nonzero"></path>
                            <path d="M78.4104444,38.5159091 L41.7437778,38.5159091 C38.3692222,38.5159091 35.6326667,35.7782227 35.6326667,32.4022727 L35.6326667,32.4022727 C35.6326667,29.0263227 38.3692222,26.2886364 41.7437778,26.2886364 L78.4104444,26.2886364 C81.785,26.2886364 84.5215556,29.0263227 84.5215556,32.4022727 L84.5215556,32.4022727 C84.5215556,35.7782227 81.7862222,38.5159091 78.4104444,38.5159091 Z" id="Shape" stroke="#6C5353" stroke-width="3.66666667" stroke-linejoin="round"></path>
                            <path d="M60.0771111,0.611363636 L60.0771111,0.611363636 C50.9642222,0.611363636 43.5771111,8.00152727 43.5771111,17.1181818 L43.5771111,26.2886364 L76.5771111,26.2886364 L76.5771111,17.1181818 C76.5771111,8.00152727 69.19,0.611363636 60.0771111,0.611363636 Z" id="Shape" fill="#8285B9" fill-rule="nonzero"></path>
                            <rect id="Rectangle-path" fill="#6E73A1" fill-rule="nonzero" x="43.5771111" y="18.0352273" width="33" height="7.33636364"></rect>
                            <path d="M60.0771111,0.611363636 L60.0771111,0.611363636 C50.9642222,0.611363636 43.5771111,8.00152727 43.5771111,17.1181818 L43.5771111,26.2886364 L76.5771111,26.2886364 L76.5771111,17.1181818 C76.5771111,8.00152727 69.19,0.611363636 60.0771111,0.611363636 Z" id="Shape" stroke="#6C5353" stroke-width="3.66666667" stroke-linejoin="round"></path>
                            <path d="M34.9274444,94.9545545 L49.5941111,94.9545545" id="Shape" stroke="#6C5353" stroke-width="4.01658889" stroke-linecap="round"></path>
                            <path d="M71.5965556,94.9545545 L86.2632222,94.9545545" id="Shape" stroke="#6C5353" stroke-width="4.01658889" stroke-linecap="round"></path>
                        </g>
                    </g>
                </g>
            </g>
        </g>
    </g>
</svg>