<?xml version="1.0" encoding="UTF-8"?>
<svg width="184px" height="192px" viewBox="0 0 184 192" version="1.1" xmlns="http://www.w3.org/2000/svg" xmlns:xlink="http://www.w3.org/1999/xlink">
    <!-- Generator: Sketch 43.2 (39069) - http://www.bohemiancoding.com/sketch -->
    <title>Recurso 8</title>
    <desc>Created with Sketch.</desc>
    <defs>
        <circle id="path-1" cx="90" cy="90.84" r="90"></circle>
    </defs>
    <g id="Page-1" stroke="none" stroke-width="1" fill="none" fill-rule="evenodd">
        <g id="Recurso-8" transform="translate(0.000000, 1.000000)">
            <circle id="Oval" fill="#E5DBC8" fill-rule="nonzero" cx="90" cy="98.84" r="90"></circle>
            <g id="Group" transform="translate(0.000000, 8.000000)">
                <mask id="mask-2" fill="white">
                    <use xlink:href="#path-1"></use>
                </mask>
                <use id="Mask" fill="#E5DBC8" fill-rule="nonzero" xlink:href="#path-1"></use>
                <g mask="url(#mask-2)">
                    <g transform="translate(40.000000, 94.000000)">
                        <path d="M85.09,22.07 L49.49,2.43 L12.91,22.12 C5.50844071,26.1234082 0.90028091,33.8651166 0.91,42.28 L0.91,88.66 L96.98,88.66 L96.98,42.11 C96.9677161,33.7615642 92.4112762,26.0819129 85.09,22.07 Z" id="Shape" stroke="none" fill="#E66E5E" fill-rule="nonzero"></path>
                        <path d="M85.09,22.07 L49.49,2.43 L12.91,22.12 C5.50844071,26.1234082 0.90028091,33.8651166 0.91,42.28 L0.91,88.66 L96.98,88.66 L96.98,42.11 C96.9677161,33.7615642 92.4112762,26.0819129 85.09,22.07 Z" id="Shape" stroke="#6C5353" stroke-width="3" fill="none" stroke-linejoin="round"></path>
                        <polygon id="Shape" stroke="none" fill="#E66E5E" fill-rule="nonzero" points="67.58 5.3 31.37 5.3 43.36 25.42 55.59 25.42"></polygon>
                        <polygon id="Shape" stroke="#6C5353" stroke-width="3" fill="none" stroke-linejoin="round" points="67.58 5.3 31.37 5.3 43.36 25.42 55.59 25.42"></polygon>
                        <path d="M39.29,1 L59.29,1 L59.29,25 C59.29,27.6521649 58.2364316,30.195704 56.3610678,32.0710678 C54.485704,33.9464316 51.9421649,35 49.29,35 L49.29,35 C43.7671525,35 39.29,30.5228475 39.29,25 L39.29,1 Z" id="Shape" stroke="none" fill="#F1DCAC" fill-rule="nonzero"></path>
                        <path d="M39.29,11.53 L41.62,13.1 C46.3564202,16.3014713 52.5635798,16.3014713 57.3,13.1 L59.3,11.75 L59.3,0 L39.3,0 L39.29,11.53 Z" id="Shape" stroke="none" fill="#F5C594" fill-rule="nonzero"></path>
                        <path d="M39.29,1 L59.29,1 L59.29,25 C59.29,27.6521649 58.2364316,30.195704 56.3610678,32.0710678 C54.485704,33.9464316 51.9421649,35 49.29,35 L49.29,35 C43.7671525,35 39.29,30.5228475 39.29,25 L39.29,1 Z" id="Shape" stroke="#6C5353" stroke-width="3" fill="none"></path>
                        <polygon id="Shape" stroke="none" fill="#E66E5E" fill-rule="nonzero" points="23.59 15.62 33.87 40.3 43.36 25.42 31.37 5.3"></polygon>
                        <polygon id="Shape" stroke="none" fill="#E66E5E" fill-rule="nonzero" points="75.36 15.62 65.08 40.3 55.59 25.42 67.58 5.3"></polygon>
                        <polygon id="Shape" stroke="#6C5353" stroke-width="3" fill="none" stroke-linejoin="round" points="23.59 15.62 33.87 40.3 43.36 25.42 31.37 5.3"></polygon>
                        <polygon id="Shape" stroke="#6C5353" stroke-width="3" fill="none" stroke-linejoin="round" points="75.36 15.62 65.08 40.3 55.59 25.42 67.58 5.3"></polygon>
                        <rect id="Rectangle-path" stroke="none" fill="#F8DDAB" fill-rule="nonzero" x="0.86" y="59.14" width="16" height="29.52"></rect>
                        <rect id="Rectangle-path" stroke="#6C5353" stroke-width="3" fill="none" x="0.86" y="59.14" width="16" height="29.52"></rect>
                        <rect id="Rectangle-path" stroke="none" fill="#F8DDAB" fill-rule="nonzero" x="80.93" y="59.14" width="16" height="29.52"></rect>
                        <rect id="Rectangle-path" stroke="#6C5353" stroke-width="3" fill="none" x="80.93" y="59.14" width="16" height="29.52"></rect>
                        <path d="M16.86,48.66 L16.86,88.66" id="Shape" stroke="#6C5353" stroke-width="3" fill="none" stroke-linecap="round" stroke-linejoin="round"></path>
                        <path d="M80.93,48.66 L80.93,88.66" id="Shape" stroke="#6C5353" stroke-width="3" fill="none" stroke-linecap="round" stroke-linejoin="round"></path>
                    </g>
                </g>
            </g>
            <circle id="Oval" stroke="#6C5353" stroke-width="3" stroke-linejoin="round" cx="91.89" cy="98.84" r="90"></circle>
            <rect id="Rectangle-path" stroke="#6C5353" stroke-width="3" fill="#F8DDAB" fill-rule="nonzero" x="41.11" y="49.64" width="24" height="20" rx="10"></rect>
            <rect id="Rectangle-path" stroke="#6C5353" stroke-width="3" fill="#F8DDAB" fill-rule="nonzero" x="115.11" y="49.64" width="24" height="20" rx="10"></rect>
            <path d="M129,37.5 C129,17.07 111.54,0.5 90,0.5 L90,0.5 C68.46,0.5 51,17.07 51,37.5 L51,60.75 L51,60.75 L51,60.97 C51,88.33 68.46,110.5 90,110.5 C111.54,110.5 129,88.32 129,61 L129,60.78 L129,60.78 L129,37.5 Z" id="Shape" fill="#F8DDAB" fill-rule="nonzero"></path>
            <path d="M123.48,86.65 C114.91,80.39 103.14,76.5 90.12,76.5 C77.1,76.5 65.34,80.38 56.77,86.65 C63.27,100.23 74.77,109.53 88.01,110.43 C88.71,110.43 89.41,110.51 90.13,110.51 L90.13,110.51 C90.84,110.51 91.54,110.51 92.25,110.43 C105.49,109.53 117,100.23 123.48,86.65 Z" id="Shape" fill="#C89786" fill-rule="nonzero"></path>
            <path d="M129,37.5 C129,17.07 111.54,0.5 90,0.5 L90,0.5 C68.46,0.5 51,17.07 51,37.5 L51,60.75 L51,60.75 L51,60.97 C51,88.33 68.46,110.5 90,110.5 C111.54,110.5 129,88.32 129,61 L129,60.78 L129,60.78 L129,37.5 Z" id="Shape" stroke="#6C5353" stroke-width="3"></path>
            <circle id="Oval" fill="#6C5353" fill-rule="nonzero" cx="72.97" cy="57.48" r="4"></circle>
            <circle id="Oval" fill="#6C5353" fill-rule="nonzero" cx="106.97" cy="57.48" r="4"></circle>
            <path d="M83,71.8000031 C83,75.1137116 85.6862915,77.8000031 89,77.8000031 L91,77.8000031 C94.3137085,77.8000031 97,75.1137116 97,71.8000031" id="Shape" stroke="#6C5353" stroke-width="3" stroke-linecap="round"></path>
            <path d="M86,102.800003 C88.4958154,103.327021 91.0741846,103.327021 93.57,102.800003" id="Shape" stroke="#6C5353" stroke-width="3" stroke-linecap="round"></path>
            <path d="M63.97,43.76 L81.97,40.53" id="Shape" stroke="#6C5353" stroke-width="3" stroke-linecap="round"></path>
            <path d="M115.97,43.76 L97.97,40.53" id="Shape" stroke="#6C5353" stroke-width="3" stroke-linecap="round"></path>
            <path d="M90,96.8000031 C96.627417,96.8000031 102,91.42742 102,84.8000031 L78,84.8000031 C78,91.42742 83.372583,96.8000031 90,96.8000031 Z" id="Shape" stroke="#6C5353" stroke-width="3" fill="#FFFFFF" fill-rule="nonzero"></path>
        </g>
    </g>
</svg>