<?xml version="1.0" encoding="UTF-8"?>
<svg width="223px" height="251px" viewBox="0 0 223 251" version="1.1" xmlns="http://www.w3.org/2000/svg" xmlns:xlink="http://www.w3.org/1999/xlink">
    <!-- Generator: Sketch 43.1 (39012) - http://www.bohemiancoding.com/sketch -->
    <title>Group 3</title>
    <desc>Created with Sketch.</desc>
    <defs>
        <ellipse id="path-1" cx="110" cy="109.670706" rx="109.392265" ry="109.411765"></ellipse>
    </defs>
    <g id="Page-1" stroke="none" stroke-width="1" fill="none" fill-rule="evenodd">
        <g id="Website" transform="translate(-248.000000, -2025.000000)">
            <g id="Ponentes" transform="translate(0.000000, 1843.000000)">
                <g id="Group-16" transform="translate(250.000000, 184.000000)">
                    <g id="Group-3">
                        <ellipse id="SVGID_1_" fill="#E5DBC8" fill-rule="nonzero" cx="110" cy="137.63149" rx="109.392265" ry="109.411765"></ellipse>
                        <g id="Group-2" transform="translate(0.000000, 27.960784)">
                            <mask id="mask-2" fill="white">
                                <use xlink:href="#path-1"></use>
                            </mask>
                            <use id="Mask" fill="#E5DBC8" fill-rule="nonzero" xlink:href="#path-1"></use>
                            <g mask="url(#mask-2)">
                                <g transform="translate(46.187845, 113.058824)">
                                    <path d="M104.957017,27.2872941 L61.6850829,3.41607843 L17.219558,27.3444314 C8.20198895,32.197451 2.57801105,41.6105098 2.57801105,51.851451 L2.57801105,108.239843 L119.343315,108.239843 L119.343315,51.6557255 C119.343315,41.5193333 113.832376,32.1840784 104.957017,27.2872941 Z" id="Shape" stroke="none" fill="#CC6D5F" fill-rule="nonzero"></path>
                                    <path d="M104.957017,27.2872941 L61.6850829,3.41607843 L17.219558,27.3444314 C8.20198895,32.197451 2.57801105,41.6105098 2.57801105,51.851451 L2.57801105,108.239843 L119.343315,108.239843 L119.343315,51.6557255 C119.343315,41.5193333 113.832376,32.1840784 104.957017,27.2872941 Z" id="Shape" stroke="#6C5353" stroke-width="3.64640884" fill="none" stroke-linejoin="round"></path>
                                    <polygon id="Shape" stroke="none" fill="#AA5446" fill-rule="nonzero" points="83.6729282 6.89780392 39.6559116 6.89780392 54.2281768 31.3634902 69.100663 31.3634902"></polygon>
                                    <polygon id="Shape" stroke="#6C5353" stroke-width="3.64640884" fill="none" stroke-linejoin="round" points="83.6729282 6.89780392 39.6559116 6.89780392 54.2281768 31.3634902 69.100663 31.3634902"></polygon>
                                    <path d="M61.4359116,42.9805882 L61.4359116,42.9805882 C54.7228729,42.9805882 49.2812155,37.5379608 49.2812155,30.8237255 L49.2812155,1.64603922 L73.5906077,1.64603922 L73.5906077,30.8237255 C73.5906077,37.5379608 68.1489503,42.9805882 61.4359116,42.9805882 Z" id="Shape" stroke="none" fill="#F1DCAC" fill-rule="nonzero"></path>
                                    <path d="M49.2812155,14.4739608 L52.1096133,16.3862353 C57.8660773,20.2764314 65.4080663,20.2764314 71.1645304,16.3862353 L73.5906077,14.7462745 L73.5906077,0.430352941 L49.2812155,0.430352941 L49.2812155,14.4739608 Z" id="Shape" stroke="none" fill="#E8C495" fill-rule="nonzero"></path>
                                    <path d="M61.4359116,42.9805882 L61.4359116,42.9805882 C54.7228729,42.9805882 49.2812155,37.5379608 49.2812155,30.8237255 L49.2812155,1.64603922 L73.5906077,1.64603922 L73.5906077,30.8237255 C73.5906077,37.5379608 68.1489503,42.9805882 61.4359116,42.9805882 Z" id="Shape" stroke="#6C5353" stroke-width="3.64640884" fill="none"></path>
                                    <polygon id="Shape" stroke="none" fill="#CC6D5F" fill-rule="nonzero" points="30.2032044 19.448549 42.6945856 49.4468235 54.2281768 31.3634902 39.6559116 6.89780392"></polygon>
                                    <polygon id="Shape" stroke="none" fill="#CC6D5F" fill-rule="nonzero" points="93.1256354 19.448549 80.6342541 49.4468235 69.100663 31.3634902 83.6729282 6.89780392"></polygon>
                                    <polygon id="Shape" stroke="#6C5353" stroke-width="3.64640884" fill="none" stroke-linejoin="round" points="30.2032044 19.448549 42.6945856 49.4468235 54.2281768 31.3634902 39.6559116 6.89780392"></polygon>
                                    <polygon id="Shape" stroke="#6C5353" stroke-width="3.64640884" fill="none" stroke-linejoin="round" points="93.1256354 19.448549 80.6342541 49.4468235 69.100663 31.3634902 83.6729282 6.89780392"></polygon>
                                    <rect id="Rectangle-path" stroke="none" fill="#F1DCAC" fill-rule="nonzero" x="2.57922652" y="72.3588627" width="19.4475138" height="35.8809804"></rect>
                                    <rect id="Rectangle-path" stroke="#6C5353" stroke-width="3.64640884" fill="none" x="2.57922652" y="72.3588627" width="19.4475138" height="35.8809804"></rect>
                                    <rect id="Rectangle-path" stroke="none" fill="#F1DCAC" fill-rule="nonzero" x="99.8958011" y="72.3588627" width="19.4475138" height="35.8809804"></rect>
                                    <rect id="Rectangle-path" stroke="#6C5353" stroke-width="3.64640884" fill="none" x="99.8958011" y="72.3588627" width="19.4475138" height="35.8809804"></rect>
                                    <path d="M22.0267403,59.6136078 L22.0267403,108.241059" id="Shape" stroke="#6C5353" stroke-width="3.64640884" fill="none" stroke-linecap="round" stroke-linejoin="round"></path>
                                    <path d="M99.8958011,59.6136078 L99.8958011,108.241059" id="Shape" stroke="#6C5353" stroke-width="3.64640884" fill="none" stroke-linecap="round" stroke-linejoin="round"></path>
                                    <ellipse id="Oval" stroke="none" fill="#6C5353" fill-rule="nonzero" cx="61.7373481" cy="91.0147843" rx="8.14972376" ry="8.15117647"></ellipse>
                                    <ellipse id="Oval" stroke="#6C5353" stroke-width="3.64640884" fill="none" stroke-linejoin="round" cx="61.7373481" cy="91.0147843" rx="24.3093923" ry="24.2772549"></ellipse>
                                    <path d="M61.7373481,36.308902 C31.5292818,36.308902 7.04121547,60.8013333 7.04121547,91.0147843 C7.04121547,121.228235 31.5292818,145.720667 61.7373481,145.720667 C91.9454144,145.720667 116.433481,121.228235 116.433481,91.0147843 C116.433481,60.8013333 91.9454144,36.308902 61.7373481,36.308902 Z M61.7373481,135.995176 C36.8992265,135.995176 16.7649724,115.857333 16.7649724,91.0147843 C16.7649724,66.1722353 36.8992265,46.0343922 61.7373481,46.0343922 C86.5754696,46.0343922 106.709724,66.1722353 106.709724,91.0147843 C106.709724,115.856118 86.5754696,135.995176 61.7373481,135.995176 Z" id="Shape" stroke="#6C5353" stroke-width="3.64640884" fill="#BA9686" fill-rule="evenodd" stroke-linejoin="round"></path>
                                    <path d="M61.7373481,36.308902 C31.5292818,36.308902 7.04121547,60.8013333 7.04121547,91.0147843 C7.04121547,121.228235 31.5292818,145.720667 61.7373481,145.720667 C91.9454144,145.720667 116.433481,121.228235 116.433481,91.0147843 C116.433481,60.8013333 91.9454144,36.308902 61.7373481,36.308902 Z M61.7373481,135.995176 C36.8992265,135.995176 16.7649724,115.857333 16.7649724,91.0147843 C16.7649724,66.1722353 36.8992265,46.0343922 61.7373481,46.0343922 C86.5754696,46.0343922 106.709724,66.1722353 106.709724,91.0147843 C106.709724,115.856118 86.5754696,135.995176 61.7373481,135.995176 Z" id="Shape" stroke="#6C5353" stroke-width="3.64640884" fill="none" stroke-linejoin="round"></path>
                                    <path d="M18.3754696,72.5193333 L6.22928177,72.5193333 C2.87093923,72.5193333 0.148287293,75.2424706 0.148287293,78.6014118 L0.148287293,100.475255 C0.148287293,103.834196 2.87093923,106.557333 6.22928177,106.557333 L18.3754696,106.557333 C21.7338122,106.557333 24.4564641,103.834196 24.4564641,100.475255 L24.4564641,78.6014118 C24.4576796,75.2424706 21.7338122,72.5193333 18.3754696,72.5193333 Z" id="Shape" stroke="#6C5353" stroke-width="3.64640884" fill="#F1DCAC" fill-rule="evenodd"></path>
                                    <path d="M116.834586,72.5193333 L104.688398,72.5193333 C101.330055,72.5193333 98.6074033,75.2424706 98.6074033,78.6014118 L98.6074033,100.475255 C98.6074033,103.834196 101.330055,106.557333 104.688398,106.557333 L116.834586,106.557333 C120.192928,106.557333 122.91558,103.834196 122.91558,100.475255 L122.91558,78.6014118 C122.916796,75.2424706 120.194144,72.5193333 116.834586,72.5193333 Z" id="Shape" stroke="#6C5353" stroke-width="3.64640884" fill="#F1DCAC" fill-rule="evenodd"></path>
                                </g>
                            </g>
                        </g>
                        <ellipse id="Oval" stroke="#6C5353" stroke-width="3.66666667" stroke-linejoin="round" cx="109.392265" cy="137.510287" rx="109.392265" ry="109.411765"></ellipse>
                        <path d="M145.308177,130.001843 L117.352376,148.896039 C111.595912,152.786235 104.053923,152.786235 98.2974586,148.896039 L70.3416575,130.001843 C65.658453,126.837412 62.8519337,121.552824 62.8519337,115.899882 L62.8519337,33.7644706 L152.796685,33.7644706 L152.796685,115.899882 C152.797901,121.552824 149.991381,126.837412 145.308177,130.001843 Z" id="Shape" fill="#F1DCAC" fill-rule="nonzero"></path>
                        <path d="M152.797901,52.8325098 C152.797901,52.8325098 86.5839779,51.6934118 62.8531492,62.4315686 L62.8531492,52.8325098 C62.8531492,52.8325098 103.803536,38.5737255 152.797901,52.8325098 Z" id="Shape" fill="#E8C495" fill-rule="nonzero"></path>
                        <path d="M145.308177,130.001843 L117.352376,148.896039 C111.595912,152.786235 104.053923,152.786235 98.2974586,148.896039 L70.3416575,130.001843 C65.658453,126.837412 62.8519337,121.552824 62.8519337,115.899882 L62.8519337,33.7644706 L152.796685,33.7644706 L152.796685,115.899882 C152.797901,121.552824 149.991381,126.837412 145.308177,130.001843 Z" id="Shape" stroke="#6C5353" stroke-width="3.64640884"></path>
                        <ellipse id="Oval" fill="#6C5353" fill-rule="nonzero" cx="86.9996685" cy="87.3507059" rx="4.86187845" ry="4.8627451"></ellipse>
                        <ellipse id="Oval" fill="#6C5353" fill-rule="nonzero" cx="128.328066" cy="87.3507059" rx="4.86187845" ry="4.8627451"></ellipse>
                        <path d="M99.3172376,110.905843 C99.3172376,114.934627 102.581989,118.199961 106.610055,118.199961 L109.040994,118.199961 C113.069061,118.199961 116.333812,114.934627 116.333812,110.905843" id="Shape" stroke="#6C5353" stroke-width="3.64640884" stroke-linecap="round"></path>
                        <path d="M94.3921547,124.341608 C98.101768,127.075686 102.755801,128.719294 107.825525,128.719294 C112.895249,128.719294 117.549282,127.075686 121.258895,124.341608" id="Shape" stroke="#6C5353" stroke-width="3.64640884" stroke-linecap="round"></path>
                        <path d="M103.224972,136.748902 C104.709061,137.051608 106.244199,137.229098 107.825525,137.229098 C109.406851,137.229098 110.941989,137.051608 112.426077,136.748902" id="Shape" stroke="#6C5353" stroke-width="3.64640884" stroke-linecap="round"></path>
                        <path d="M111.272597,82.4879608 C109.788508,82.1852549 109.406851,82.0393725 107.825525,82.0393725 C106.244199,82.0393725 105.460221,82.1840392 103.974917,82.4879608" id="Shape" stroke="#6C5353" stroke-width="3.64640884" stroke-linecap="round"></path>
                        <path d="M76.060442,70.6702745 L97.938895,66.7533333" id="Shape" stroke="#6C5353" stroke-width="3.64640884" stroke-linecap="round"></path>
                        <path d="M139.267293,70.6702745 L117.38884,66.7533333" id="Shape" stroke="#6C5353" stroke-width="3.64640884" stroke-linecap="round"></path>
                        <path d="M70.5251934,79.7210588 C69.0022099,81.7062745 70.7646409,88.0509412 72.4103867,92.7921176 C73.5723757,96.138902 76.7374586,98.3721176 80.279337,98.3721176 L91.4300552,98.3721176 C95.9892818,98.3721176 100.106077,95.6015686 101.778564,91.3588235 C103.468066,87.0723137 104.878011,81.9712941 103.269945,79.6019216 C100.223978,75.1160392 73.058232,76.4204706 70.5251934,79.7210588 Z" id="Shape" stroke="#6C5353" stroke-width="3.64640884" stroke-linecap="round"></path>
                        <path d="M144.72232,79.7210588 C146.245304,81.7062745 144.482873,88.0509412 142.837127,92.7921176 C141.675138,96.138902 138.510055,98.3721176 134.968177,98.3721176 L123.817459,98.3721176 C119.258232,98.3721176 115.141436,95.6015686 113.46895,91.3588235 C111.779448,87.0723137 110.369503,81.9712941 111.977569,79.6019216 C115.023536,75.1160392 142.190497,76.4204706 144.72232,79.7210588 Z" id="Shape" stroke="#6C5353" stroke-width="3.64640884" stroke-linecap="round"></path>
                        <path d="M107.623757,0.607843137 C71.9472928,0.607843137 43.0227624,29.5375294 43.0227624,65.2203529 C43.0227624,68.3774902 43.2488398,71.4896471 43.6876243,74.5264314 C44.3062983,78.8165882 45.3491713,82.9705882 46.7688398,86.9592549 C46.7688398,86.9592549 47.2064088,92.9112549 48.4607735,99.2717255 C49.880442,106.523294 52.3575691,114.303686 56.4062983,114.303686 C57.3130387,114.303686 58.3097238,113.91102 59.381768,113.03451 C60.7564641,111.917294 61.8285083,110.904627 62.6598895,109.997725 L60.4841989,84.3151373 L60.4841989,61.5805882 C60.4841989,58.6653725 62.0545856,55.9458824 64.6082873,54.5101569 C65.1066298,54.2232549 69.6682873,51.684902 77.2054144,49.2231373 C87.0689503,46.0052157 97.3396685,44.3591765 107.716133,44.3591765 C122.381989,44.3591765 136.656464,47.697451 150.174917,54.269451 C152.954696,55.6285882 154.75116,58.5000392 154.75116,61.5963922 L154.75116,84.3321569 L154.75116,84.3321569 L152.546298,109.939373 C153.376464,110.860863 154.48011,111.902706 155.883978,113.035725 C156.956022,113.912235 157.952707,114.304902 158.859448,114.304902 C162.922762,114.304902 165.39989,106.479529 166.819558,99.2133725 C168.058122,92.8832941 168.495691,86.9762745 168.495691,86.9762745 C169.915359,83.0034118 170.958232,78.8494118 171.576906,74.543451 C171.99989,71.5066667 172.225967,68.3945098 172.225967,65.2215686 C172.225967,29.5375294 143.300221,0.607843137 107.623757,0.607843137 Z" id="Shape" fill="#CC6D5F" fill-rule="nonzero"></path>
                        <path d="M107.623757,0.607843137 C71.9472928,0.607843137 43.0227624,29.5375294 43.0227624,65.2203529 C43.0227624,68.3774902 43.2488398,71.4896471 43.6876243,74.5264314 C44.3062983,78.8165882 45.3491713,82.9705882 46.7688398,86.9592549 C46.7688398,86.9592549 47.2064088,92.9112549 48.4607735,99.2717255 C49.880442,106.523294 52.3575691,114.303686 56.4062983,114.303686 C57.3130387,114.303686 58.3097238,113.91102 59.381768,113.03451 C60.7564641,111.917294 61.8285083,110.904627 62.6598895,109.997725 L60.4841989,84.3151373 L60.4841989,61.5805882 C60.4841989,58.6653725 62.0545856,55.9458824 64.6082873,54.5101569 C65.1066298,54.2232549 69.6682873,51.684902 77.2054144,49.2231373 C87.0689503,46.0052157 97.3396685,44.3591765 107.716133,44.3591765 C122.381989,44.3591765 136.656464,47.697451 150.174917,54.269451 C152.954696,55.6285882 154.75116,58.5000392 154.75116,61.5963922 L154.75116,84.3321569 L154.75116,84.3321569 L152.546298,109.939373 C153.376464,110.860863 154.48011,111.902706 155.883978,113.035725 C156.956022,113.912235 157.952707,114.304902 158.859448,114.304902 C162.922762,114.304902 165.39989,106.479529 166.819558,99.2133725 C168.058122,92.8832941 168.495691,86.9762745 168.495691,86.9762745 C169.915359,83.0034118 170.958232,78.8494118 171.576906,74.543451 C171.99989,71.5066667 172.225967,68.3945098 172.225967,65.2215686 C172.225967,29.5375294 143.300221,0.607843137 107.623757,0.607843137 Z" id="Shape" stroke="#6C5353" stroke-width="3.64640884" stroke-linejoin="round"></path>
                        <g id="Group" transform="translate(89.944751, 4.862745)" fill="#6C5353">
                            <path d="M2.62176796,6.20486275 C6.61093923,4.588 13.1914917,4.37890196 16.0502762,4.48709804 L17.879558,6.83701961 L19.7100552,4.48709804 C22.5688398,4.37890196 29.1493923,4.58921569 33.1385635,6.20486275 C32.5879558,7.25156863 30.1922652,8.73956863 28.8759116,9.06901961 C28.8005525,7.01329412 25.8955801,6.58415686 23.1085083,6.58415686 L17.879558,34.6312549 L12.6530387,6.58415686 C9.86353591,6.58415686 6.95734807,7.01329412 6.88198895,9.06901961 C5.56685083,8.73835294 3.17237569,7.25035294 2.62176796,6.20486275 L2.62176796,6.20486275 Z" id="Shape"></path>
                            <path d="M0.771823204,3.41729412 L1.79281768,4.91623529 C5.66530387,3.55588235 10.259779,2.90305882 15.1107182,2.75717647 C16.9460773,2.7012549 18.8154696,2.7012549 20.6483978,2.75717647 C25.4981215,2.90305882 30.0950276,3.55709804 33.9675138,4.91623529 L34.9897238,3.41729412 C30.4171271,1.86729412 25.5576796,1.35062745 20.7067403,1.22541176 C18.8276243,1.17678431 16.9351381,1.17678431 15.058453,1.22541176 C10.2026519,1.35062745 5.34563536,1.86729412 0.771823204,3.41729412 L0.771823204,3.41729412 Z" id="Shape"></path>
                        </g>
                    </g>
                </g>
            </g>
        </g>
    </g>
</svg>