<?xml version="1.0" encoding="utf-8"?>
<!-- Generator: Adobe Illustrator 21.1.0, SVG Export Plug-In . SVG Version: 6.00 Build 0)  -->
<svg version="1.1" id="Capa_1" xmlns="http://www.w3.org/2000/svg" xmlns:xlink="http://www.w3.org/1999/xlink" x="0px" y="0px"
	 viewBox="0 0 841.9 595.3" style="enable-background:new 0 0 841.9 595.3;" xml:space="preserve">
<style type="text/css">
	.st0{fill:#10069F;}
</style>
<g>
	<g>
		<path class="st0" d="M63.2,304.4c0,24.2,18.1,43.2,41.1,43.2c8.5,0,16.1-2.1,22.7-6.3l1.2-0.8v5.4h26.6v-82.7h-26.6v5.2l-1.2-0.8
			c-6.5-4.2-14.2-6.3-22.7-6.3C81.2,261.3,63.2,280.2,63.2,304.4z M131.6,304.5c0,13.8-7.9,21.7-21.7,21.7
			c-11.8,0-20.6-9.3-20.6-21.7c0-12.4,8.9-21.8,20.6-21.8C129.5,282.6,131.6,297.9,131.6,304.5z"/>
		<path class="st0" d="M201.1,306.2v-43h-26.6v47.4c0,23.1,13.8,38,35.2,38c8.3,0,15.5-2.5,22.6-8l1.3-1v6.4h26.6v-82.7h-26.6v52.7
			l-0.2,0.2c-5.1,5.6-10.6,8.6-16.1,8.6C207,324.7,201.1,318,201.1,306.2z"/>
		<path class="st0" d="M329.7,324.2c-9,0-14-4.8-14-13.5v-25h28.7v-22.6h-28.7v-34l-26.6,13.7v20.3h-16.5v22.6h16.5v25.8
			c0,22.4,13,36.9,33.1,36.9c8,0,14.1-0.6,24.7-3.9l-2.9-22.3C337.9,323.4,333.6,324.2,329.7,324.2z"/>
		<path class="st0" d="M400.2,261.3c-25.9,0-44.1,17.8-44.1,43.2c0,25.5,18.6,43.4,45.3,43.4c20.2,0,35.8-10.5,40-26.7H415
			c-2.7,3.9-7.4,6.1-13.3,6.1c-10,0-17-5-19.7-14.1l-0.3-1H442c0.5-3,0.5-6.2,0.5-9.3C442.5,278.3,425.1,261.3,400.2,261.3z
			 M381.4,297.1l0.2-1c2.3-9.3,9-14.7,18.5-14.7c9.7,0,15.9,5.2,17.5,14.8l0.2,0.9H381.4z"/>
		<path class="st0" d="M508.7,260.6c-8.4,0-15.9,2.7-22.8,8.2l-1.3,1v-6.6h-26.6v82.7h26.6v-52.4l0.2-0.2c5-5.7,9.1-8.8,16.3-8.8
			c10.2,0,16.1,6.8,16.1,18.5v42.9h26.7v-47.4C543.9,275.5,530.1,260.6,508.7,260.6z"/>
		<path class="st0" d="M611.2,324.2c-9,0-14-4.8-14-13.5v-25h28.7v-22.6h-28.7v-41.4l-26.6,13.7v27.7h-16.5v22.6h16.5v25.8
			c0,22.4,13,36.9,33.1,36.9c8,0,14.1-0.6,24.7-3.9l-2.9-22.3C619.4,323.4,615.1,324.2,611.2,324.2z"/>
		<rect x="644.9" y="263.2" class="st0" width="26.6" height="82.7"/>
		<path class="st0" d="M729.5,261.3c-23.1,0-41.1,19-41.1,43.2c0,24.2,18.1,43.2,41.1,43.2c8.5,0,16.1-2.1,22.7-6.3l1.2-0.8v5.4H780
			v-82.7h-26.6v5.2l-1.2-0.8C745.7,263.4,738,261.3,729.5,261.3z M756.8,304.5c0,13.8-7.9,21.7-21.7,21.7
			c-11.8,0-20.6-9.3-20.6-21.7c0-12.4,8.9-21.8,20.6-21.8C754.7,282.6,756.8,297.9,756.8,304.5z"/>
		<path class="st0" d="M657.3,218.2c-8.2,0.3-15,7.1-15,15.1c0,4.1,1.5,7.9,4.4,10.7c3,3,7.2,4.6,11.8,4.5c8.3-0.2,15.3-7.1,15.3-15
			c0-4.2-1.6-8-4.6-10.8C666.1,219.6,661.8,217.9,657.3,218.2z"/>
	</g>
	<g>
		<rect x="458.1" y="362.3" class="st0" width="85.9" height="16.4"/>
	</g>
</g>
</svg>
