<?xml version="1.0" encoding="UTF-8"?>
<svg width="320px" height="98px" viewBox="0 0 320 98" version="1.1" xmlns="http://www.w3.org/2000/svg" xmlns:xlink="http://www.w3.org/1999/xlink">
    <!-- Generator: Sketch 46.2 (44496) - http://www.bohemiancoding.com/sketch -->
    <title>logo1 naranja</title>
    <desc>Created with Sketch.</desc>
    <defs></defs>
    <g id="Page-1" stroke="none" stroke-width="1" fill="none" fill-rule="evenodd">
        <g id="Logotipo" transform="translate(-80.000000, -184.000000)">
            <g id="logo1-naranja" transform="translate(80.000000, 184.000000)">
                <path d="M5.40038095,94.4112254 C5.88074376,94.4112254 6.33788662,94.3220015 6.77326077,94.1464791 C7.2050068,93.9716881 7.5895873,93.7318075 7.92047166,93.430494 C8.24845351,93.1277179 8.51475737,92.7722851 8.70849887,92.3634642 C8.90224036,91.9531806 8.99947392,91.519494 8.99947392,91.0580164 C8.99947392,90.5965388 8.90224036,90.1628522 8.70849887,89.7547627 C8.51475737,89.3437478 8.24845351,88.9861209 7.92047166,88.6811507 C7.5895873,88.3761806 7.2050068,88.1348373 6.77326077,87.9585836 C6.33788662,87.7837925 5.88074376,87.6967627 5.40038095,87.6967627 L2.97824943,87.6967627 L2.97824943,94.4112254 L5.40038095,94.4112254 Z M0.000290249433,97.2451806 L0.000290249433,84.8606134 L5.40038095,84.8606134 C6.0019229,84.8606134 6.58459864,84.9359418 7.14478005,85.0829418 C7.70858957,85.2292104 8.23176417,85.4383746 8.71648073,85.709703 C9.20337415,85.9795687 9.64600454,86.3028224 10.0516281,86.6809269 C10.4558005,87.0583 10.799746,87.475897 11.0856417,87.9337179 C11.372263,88.3915388 11.5914014,88.8844642 11.7495873,89.4110313 C11.9070476,89.9397925 11.9861406,90.486106 11.9861406,91.0580164 C11.9861406,91.6277328 11.9070476,92.175509 11.7495873,92.7042701 C11.5914014,93.2293746 11.372263,93.7237627 11.0856417,94.1815836 C10.799746,94.6394045 10.4558005,95.0555388 10.0516281,95.4343746 C9.64600454,95.8110164 9.20337415,96.1335388 8.71648073,96.4026731 C8.23176417,96.6696134 7.70858957,96.8765836 7.14478005,97.0235836 C6.58459864,97.1705836 6.0019229,97.2451806 5.40038095,97.2451806 L0.000290249433,97.2451806 Z" id="Fill-1" fill="#575756"></path>
                <polygon id="Fill-3" fill="#575756" points="23.0109751 97.2452537 25.999093 97.2452537 25.999093 84.8606866 23.0109751 84.8606866"></polygon>
                <path d="M48.7790295,90.2974194 L48.7790295,95.6793746 C48.4343583,96.0216433 48.0613878,96.2988224 47.6644717,96.5153 C47.2646531,96.7317776 46.8524989,96.8977925 46.4200272,97.0235836 C45.9890068,97.1486433 45.547102,97.2356731 45.0950385,97.2832104 C44.6429751,97.3344045 44.184381,97.3578075 43.7243356,97.3578075 C43.110458,97.3578075 42.516898,97.2817478 41.9480091,97.1347478 C41.3754921,96.9826284 40.84361,96.7720015 40.3487347,96.4977478 C39.8538594,96.2249567 39.4017959,95.8943896 38.991093,95.5133597 C38.5811156,95.1301358 38.2342676,94.7052254 37.9447438,94.2371657 C37.65522,93.7720313 37.4288254,93.2674045 37.2706395,92.7298672 C37.1088254,92.1908672 37.0282812,91.6313896 37.0282812,91.0463149 C37.0282812,90.467091 37.1088254,89.9068821 37.2706395,89.3686134 C37.4288254,88.8296134 37.65522,88.3257179 37.9447438,87.8605836 C38.2342676,87.3925239 38.5811156,86.9690761 38.991093,86.5843896 C39.4017959,86.2026284 39.8538594,85.8742552 40.3487347,85.6000015 C40.84361,85.3257478 41.3754921,85.1151209 41.9480091,84.9644642 C42.516898,84.8160015 43.110458,84.7392104 43.7243356,84.7392104 C44.2097778,84.7392104 44.6915918,84.7977179 45.1726803,84.9125388 C45.6530431,85.028091 46.1181678,85.1904493 46.5702313,85.4025388 C47.023746,85.6109716 47.4612971,85.8684045 47.88361,86.1755687 C48.3051973,86.4805388 48.7006621,86.8242701 49.0707302,87.203106 L48.3146304,87.9461507 C47.9380317,88.3220612 47.4634739,88.5092851 46.8829751,88.5092851 C46.4795283,88.5092851 46.1109116,88.4017776 45.7807528,88.187494 C45.4788934,87.9988075 45.1559909,87.8474194 44.8105941,87.7347925 C44.4688254,87.622897 44.1045624,87.5665836 43.7243356,87.5665836 C43.2200272,87.5665836 42.7432925,87.6580015 42.2934059,87.8423 C41.8449705,88.0258672 41.4509569,88.2767179 41.1157188,88.5904642 C40.776127,88.9034791 40.5076463,89.2735388 40.3088254,89.6962552 C40.1078277,90.1211657 40.0084172,90.5709418 40.0084172,91.0463149 C40.0084172,91.5494791 40.1121814,92.0153448 40.3226122,92.4417179 C40.5308662,92.868091 40.8124082,93.2352254 41.1592562,93.5416582 C41.5075556,93.8502851 41.9124535,94.0916284 42.3688707,94.2678821 C42.8289161,94.4455985 43.3107302,94.5326284 43.8143129,94.5326284 C44.1618866,94.5326284 44.5065578,94.5004493 44.8526803,94.436091 C45.1973515,94.3731955 45.5115465,94.2766582 45.7938141,94.1508672 L45.7938141,92.9587776 C45.4992109,92.9529269 45.2336327,92.9075836 44.9912744,92.8205537 C44.7467392,92.7335239 44.5392109,92.6179716 44.3665125,92.4709716 C44.1930884,92.3217776 44.0588481,92.1506433 43.9601633,91.9509866 C43.864381,91.7535239 43.8143129,91.5333896 43.8143129,91.2920463 L43.8143129,90.2974194 L48.7790295,90.2974194 Z" id="Fill-5" fill="#575756"></path>
                <polygon id="Fill-6" fill="#575756" points="60.2398186 97.2452537 63.2279365 97.2452537 63.2279365 84.8606866 60.2398186 84.8606866"></polygon>
                <polygon id="Fill-7" fill="#575756" points="73.8201542 87.4970328 73.8201542 84.8524955 84.0608798 84.8524955 84.0608798 87.4970328 80.4349388 87.4970328 80.4349388 97.2451075 77.456254 97.2451075 77.456254 87.4970328"></polygon>
                <path d="M96.6595918,92.2071761 L99.4459864,92.2071761 L98.3089342,89.6145642 C98.2508844,89.4931612 98.2109751,89.3827284 98.1797732,89.2788776 C98.1492971,89.1735642 98.1231746,89.0828776 98.1064853,89.0009672 C98.0810884,88.9102806 98.066576,88.8225194 98.060771,88.7435343 C98.0477098,88.8225194 98.0295692,88.9117433 98.0056236,89.0104746 C97.987483,89.0909224 97.9620862,89.1823403 97.9294331,89.2876537 C97.8953288,89.3907731 97.8554195,89.4982806 97.8060771,89.6145642 L96.6595918,92.2071761 Z M96.7756916,84.8608328 L99.3458503,84.8608328 L105.048526,97.2454 L103.123447,97.2454 C102.925351,97.2454 102.734512,97.219803 102.546576,97.170803 C102.361542,97.121803 102.189569,97.0508627 102.032109,96.9550567 C101.873923,96.8599821 101.731701,96.7458925 101.604717,96.6098627 C101.479184,96.4738328 101.374694,96.3217134 101.294875,96.1491164 L100.655601,94.774191 L95.4637642,94.774191 L94.8455329,96.1491164 C94.7715193,96.3026985 94.6713832,96.4467731 94.5393197,96.580609 C94.4087075,96.7115194 94.2621315,96.8292657 94.0988662,96.9294597 C93.9341497,97.0311164 93.7578231,97.1093701 93.5684354,97.1627582 C93.3819501,97.2183403 93.1925624,97.2454 93.0053515,97.2454 L91.0744671,97.2454 L96.7756916,84.8608328 Z" id="Fill-8" fill="#575756"></path>
                <polygon id="Fill-9" fill="#575756" points="114.602449 97.2451806 114.602449 84.8606134 117.582585 84.8606134 117.582585 94.6006433 122.736689 94.6006433 122.736689 97.2451806"></polygon>
                <path d="M150.803592,87.5734582 C150.646132,87.5734582 150.492299,87.5888164 150.342821,87.6136821 C150.194068,87.6414731 150.061279,87.6802343 149.945905,87.7409358 C149.832707,87.7972493 149.738376,87.8689209 149.670168,87.9544881 C149.599057,88.0422493 149.563501,88.1461 149.563501,88.265309 C149.563501,88.4503388 149.61502,88.5958761 149.7079,88.6975328 C149.805859,88.8013836 149.956063,88.8920701 150.150531,88.9695925 C150.348626,89.0485776 150.596789,89.1246373 150.889941,89.2043537 C151.183093,89.2826075 151.529215,89.3864582 151.92468,89.5107866 C152.424635,89.6724134 152.888308,89.8691448 153.304816,90.1024433 C153.719147,90.3364731 154.073252,90.6114582 154.370757,90.9230104 C154.665361,91.2382194 154.895383,91.5892642 155.056472,91.9819955 C155.221188,92.3754582 155.303184,92.8135328 155.303184,93.2940254 C155.303184,93.8959209 155.169669,94.4451597 154.904091,94.9424731 C154.634159,95.4412493 154.278603,95.8690851 153.833796,96.2267119 C153.387537,96.5828761 152.871619,96.8600552 152.288943,97.0604433 C151.704816,97.257906 151.100372,97.3581 150.474159,97.3581 C149.940825,97.3581 149.432889,97.281309 148.949624,97.134309 C148.464907,96.9821896 148.023728,96.7752194 147.61883,96.5060851 C147.215383,96.2398761 146.860553,95.9180851 146.557968,95.547294 C146.253932,95.1757716 146.017379,94.7706075 145.847583,94.3332642 L146.795247,93.8154731 C146.947628,93.7321 147.108717,93.6706672 147.281415,93.6202045 C147.45629,93.5719358 147.627537,93.5470701 147.806766,93.5470701 C148.067265,93.5470701 148.301642,93.5982642 148.512798,93.7013836 C148.720327,93.8052343 148.925678,93.9171299 149.128127,94.0392642 C149.326948,94.1606672 149.534476,94.273294 149.745633,94.3749507 C149.960417,94.4802642 150.202776,94.5329209 150.474159,94.5329209 C150.657741,94.5329209 150.855837,94.5058612 151.069896,94.4495478 C151.288308,94.394697 151.489306,94.3149806 151.673615,94.2118612 C151.859374,94.1087418 152.011029,93.9814881 152.131483,93.8271746 C152.254839,93.6757866 152.315791,93.4980701 152.315791,93.2940254 C152.315791,93.1060701 152.260644,92.9495627 152.145995,92.8281597 C152.036426,92.7082194 151.88332,92.602906 151.692481,92.5122194 C151.499465,92.4229955 151.27815,92.3425478 151.031438,92.2686821 C150.784,92.191891 150.520599,92.1033985 150.24849,92.0002791 C149.798603,91.8379209 149.353796,91.6623985 148.916971,91.4715179 C148.480871,91.2828313 148.088308,91.0466075 147.742186,90.7657716 C147.396063,90.4893239 147.114522,90.1485179 146.899011,89.7492045 C146.683501,89.347697 146.576109,88.8518463 146.576109,88.2587269 C146.576109,87.6992493 146.696562,87.2012045 146.936018,86.7675179 C147.1762,86.3323687 147.494023,85.9652343 147.887311,85.6661149 C148.282776,85.3655328 148.732662,85.1373537 149.241324,84.9793836 C149.74781,84.8214134 150.267356,84.739503 150.803592,84.739503 C151.190349,84.739503 151.572027,84.8016672 151.937016,84.9267269 C152.30273,85.0503239 152.651755,85.2119507 152.979737,85.4116075 C153.306993,85.6090701 153.615383,85.8343239 153.900553,86.090294 C154.184998,86.3426075 154.444045,86.6022343 154.674794,86.8655179 L153.753977,87.6005179 C153.57112,87.7489806 153.383184,87.8572194 153.184363,87.9208463 C152.987719,87.9844731 152.769306,88.0166522 152.524045,88.0166522 C152.331029,88.0166522 152.159782,87.9925179 152.016834,87.9464433 C151.869533,87.9003687 151.73239,87.849906 151.606132,87.7957866 C151.477696,87.7409358 151.349261,87.6919358 151.222277,87.6451299 C151.095293,87.5968612 150.954522,87.5734582 150.803592,87.5734582" id="Fill-10" fill="#575756"></path>
                <path d="M168.083229,91.0466075 C168.083229,91.5263687 168.185542,91.9783388 168.382912,92.4025179 C168.583909,92.824503 168.853841,93.1960254 169.19561,93.512697 C169.533751,93.8286373 169.92849,94.077294 170.376925,94.2593985 C170.827537,94.4400403 171.304998,94.5329209 171.810032,94.5329209 C172.308535,94.5329209 172.780916,94.4400403 173.23298,94.2593985 C173.685043,94.077294 174.08341,93.8286373 174.424454,93.512697 C174.76332,93.1960254 175.032526,92.824503 175.234249,92.4025179 C175.435247,91.9783388 175.536109,91.5263687 175.536109,91.0466075 C175.536109,90.5712343 175.435247,90.1207269 175.234249,89.6958164 C175.032526,89.2731 174.76332,88.9030403 174.424454,88.5907567 C174.08341,88.2770104 173.685043,88.0261597 173.23298,87.8418612 C172.780916,87.6575627 172.308535,87.5661448 171.810032,87.5661448 C171.304998,87.5661448 170.827537,87.6575627 170.376925,87.8418612 C169.92849,88.0261597 169.533751,88.2770104 169.19561,88.5907567 C168.853841,88.9030403 168.583909,89.2731 168.382912,89.6958164 C168.185542,90.1207269 168.083229,90.5712343 168.083229,91.0466075 M165.105995,91.0466075 C165.105995,90.4673836 165.185814,89.9064433 165.344726,89.368906 C165.505088,88.829906 165.73366,88.3252791 166.026086,87.8608761 C166.314884,87.3928164 166.665361,86.9693687 167.070984,86.5839507 C167.480961,86.2029209 167.933025,85.8745478 168.428626,85.600294 C168.927855,85.3260403 169.461914,85.1154134 170.03298,84.9647567 C170.602594,84.8155627 171.196154,84.739503 171.810032,84.739503 C172.422458,84.739503 173.016744,84.8155627 173.584181,84.9647567 C174.156698,85.1154134 174.690032,85.3260403 175.188535,85.600294 C175.686313,85.8745478 176.138376,86.2029209 176.544726,86.5839507 C176.952526,86.9693687 177.302277,87.3928164 177.596154,87.8608761 C177.885678,88.3252791 178.110621,88.829906 178.27171,89.368906 C178.433524,89.9064433 178.513342,90.4673836 178.513342,91.0466075 C178.513342,91.6316821 178.433524,92.1904284 178.27171,92.7301597 C178.110621,93.267697 177.885678,93.7723239 177.596154,94.2367269 C177.302277,94.7055179 176.952526,95.1304284 176.544726,95.5129209 C176.138376,95.8946821 175.686313,96.2252493 175.188535,96.497309 C174.690032,96.7715627 174.156698,96.9821896 173.584181,97.134309 C173.016744,97.281309 172.422458,97.3581 171.810032,97.3581 C171.188172,97.3581 170.596789,97.281309 170.027175,97.134309 C169.460463,96.9821896 168.927855,96.7715627 168.428626,96.497309 C167.933025,96.2252493 167.480961,95.8946821 167.070984,95.5129209 C166.665361,95.1304284 166.314884,94.7055179 166.026086,94.2367269 C165.73366,93.7723239 165.505088,93.267697 165.344726,92.7301597 C165.185814,92.1904284 165.105995,91.6316821 165.105995,91.0466075" id="Fill-11" fill="#575756"></path>
                <polygon id="Fill-12" fill="#575756" points="189.225506 97.2451806 189.225506 84.8606134 192.203465 84.8606134 192.203465 94.6006433 197.360472 94.6006433 197.360472 97.2451806"></polygon>
                <path d="M210.422349,92.2579313 C210.422349,92.5702149 210.490558,92.8642149 210.621896,93.1406627 C210.756136,93.4163791 210.936091,93.6591851 211.161034,93.8668866 C211.384526,94.0731254 211.644299,94.2369463 211.940354,94.3583493 C212.233506,94.4804836 212.546975,94.5397224 212.87278,94.5397224 C213.202939,94.5397224 213.513506,94.4804836 213.806658,94.3583493 C214.101261,94.2369463 214.362485,94.0731254 214.589605,93.8668866 C214.817451,93.6591851 215.000308,93.4163791 215.130195,93.1406627 C215.266612,92.8642149 215.33337,92.5702149 215.33337,92.2579313 L215.33337,84.8611254 L218.31278,84.8611254 L218.31278,92.2579313 C218.31278,92.9680657 218.169107,93.6328567 217.882485,94.2515731 C217.600943,94.8702896 217.207655,95.4092896 216.718585,95.8722299 C216.22371,96.3337075 215.649016,96.6971851 214.99015,96.963394 C214.33346,97.2332597 213.626703,97.3649015 212.87278,97.3649015 C212.375002,97.3649015 211.894639,97.3071254 211.434594,97.1835284 C210.973823,97.0657821 210.540626,96.890991 210.140807,96.669394 C209.740263,96.4485284 209.373823,96.1808567 209.037134,95.8722299 C208.703347,95.5606776 208.418902,95.2176776 208.182349,94.8381104 C207.944345,94.4629313 207.762213,94.0548418 207.633052,93.6196925 C207.500263,93.1852746 207.433506,92.7318418 207.433506,92.2579313 L207.433506,84.8611254 L210.422349,84.8611254 L210.422349,92.2579313 Z" id="Fill-13" fill="#575756"></path>
                <polygon id="Fill-14" fill="#575756" points="228.32341 87.4970328 228.32341 84.8524955 238.56341 84.8524955 238.56341 87.4970328 234.937469 87.4970328 234.937469 97.2451075 231.958059 97.2451075 231.958059 87.4970328"></polygon>
                <polygon id="Fill-15" fill="#575756" points="249.195102 97.2452537 252.181043 97.2452537 252.181043 84.8606866 249.195102 84.8606866"></polygon>
                <path d="M266.191891,91.0466075 C266.191891,91.5263687 266.291302,91.9783388 266.492299,92.4025179 C266.690395,92.824503 266.961778,93.1960254 267.302821,93.512697 C267.642413,93.8286373 268.035701,94.077294 268.486313,94.2593985 C268.934023,94.4400403 269.412934,94.5329209 269.916517,94.5329209 C270.413569,94.5329209 270.888853,94.4400403 271.341642,94.2593985 C271.795156,94.077294 272.189896,93.8286373 272.531664,93.512697 C272.869805,93.1960254 273.140463,92.824503 273.340735,92.4025179 C273.541732,91.9783388 273.642594,91.5263687 273.642594,91.0466075 C273.642594,90.5712343 273.541732,90.1207269 273.340735,89.6958164 C273.140463,89.2731 272.869805,88.9030403 272.531664,88.5907567 C272.189896,88.2770104 271.795156,88.0261597 271.341642,87.8418612 C270.888853,87.6575627 270.413569,87.5661448 269.916517,87.5661448 C269.412934,87.5661448 268.934023,87.6575627 268.486313,87.8418612 C268.035701,88.0261597 267.642413,88.2770104 267.302821,88.5907567 C266.961778,88.9030403 266.690395,89.2731 266.492299,89.6958164 C266.291302,90.1207269 266.191891,90.5712343 266.191891,91.0466075 M263.213932,91.0466075 C263.213932,90.4673836 263.293025,89.9064433 263.453388,89.368906 C263.613751,88.829906 263.840145,88.3252791 264.13112,87.8608761 C264.424272,87.3928164 264.772571,86.9693687 265.178921,86.5839507 C265.586721,86.2029209 266.037333,85.8745478 266.535111,85.600294 C267.033615,85.3260403 267.567673,85.1154134 268.138739,84.9647567 C268.711982,84.8155627 269.301188,84.739503 269.916517,84.739503 C270.529669,84.739503 271.121052,84.8155627 271.692118,84.9647567 C272.261732,85.1154134 272.797243,85.3260403 273.296472,85.600294 C273.792073,85.8745478 274.247039,86.2029209 274.652662,86.5839507 C275.059737,86.9693687 275.410939,87.3928164 275.701188,87.8608761 C275.992889,88.3252791 276.216381,88.829906 276.380372,89.368906 C276.540735,89.9064433 276.62273,90.4673836 276.62273,91.0466075 C276.62273,91.6316821 276.540735,92.1904284 276.380372,92.7301597 C276.216381,93.267697 275.992889,93.7723239 275.701188,94.2367269 C275.410939,94.7055179 275.059737,95.1304284 274.652662,95.5129209 C274.247039,95.8946821 273.792073,96.2252493 273.296472,96.497309 C272.797243,96.7715627 272.261732,96.9821896 271.692118,97.134309 C271.121052,97.281309 270.529669,97.3581 269.916517,97.3581 C269.298286,97.3581 268.703274,97.281309 268.135837,97.134309 C267.567673,96.9821896 267.033615,96.7715627 266.535111,96.497309 C266.037333,96.2252493 265.586721,95.8946821 265.178921,95.5129209 C264.772571,95.1304284 264.424272,94.7055179 264.13112,94.2367269 C263.840145,93.7723239 263.613751,93.267697 263.453388,92.7301597 C263.293025,92.1904284 263.213932,91.6316821 263.213932,91.0466075" id="Fill-16" fill="#575756"></path>
                <path d="M299.521016,97.2451806 L296.55902,97.2451806 L290.320109,88.6811507 L290.320109,97.2451806 L287.350857,97.2451806 L287.350857,84.8606134 L290.282376,84.8606134 C290.574077,84.8606134 290.833125,84.9037627 291.058794,84.9827478 C291.282286,85.0646582 291.458612,85.1867925 291.576163,85.3528075 L296.141061,91.6986731 C296.208544,91.7893597 296.26732,91.8917478 296.311583,91.9999866 C296.361651,92.1096881 296.405188,92.2120761 296.441469,92.3064194 C296.478476,92.4029567 296.505324,92.4834045 296.523465,92.5521507 C296.543057,92.623091 296.551764,92.6662403 296.551764,92.6830612 L296.551764,84.8606134 L299.521016,84.8606134 L299.521016,97.2451806 Z" id="Fill-17" fill="#575756"></path>
                <path d="M314.926295,87.5734582 C314.766658,87.5734582 314.613551,87.5888164 314.462621,87.6136821 C314.313868,87.6414731 314.184707,87.6802343 314.070059,87.7409358 C313.952508,87.7972493 313.858902,87.8689209 313.790694,87.9544881 C313.72176,88.0422493 313.686204,88.1461 313.686204,88.265309 C313.686204,88.4503388 313.734095,88.5958761 313.830603,88.6975328 C313.928562,88.8013836 314.074413,88.8920701 314.273234,88.9695925 C314.471329,89.0485776 314.71659,89.1246373 315.011193,89.2043537 C315.305796,89.2826075 315.650467,89.3864582 316.045932,89.5107866 C316.55024,89.6724134 317.00956,89.8691448 317.426068,90.1024433 C317.842576,90.3364731 318.197406,90.6114582 318.490558,90.9230104 C318.785887,91.2382194 319.013732,91.5892642 319.178449,91.9819955 C319.34244,92.3754582 319.425161,92.8135328 319.425161,93.2940254 C319.425161,93.8959209 319.290921,94.4451597 319.02244,94.9424731 C318.756862,95.4412493 318.401306,95.8690851 317.953596,96.2267119 C317.507338,96.5828761 316.993596,96.8600552 316.410195,97.0604433 C315.826068,97.257906 315.222349,97.3581 314.596136,97.3581 C314.060626,97.3581 313.553415,97.281309 313.069424,97.134309 C312.58761,96.9821896 312.144254,96.7752194 311.740082,96.5060851 C311.335184,96.2398761 310.981805,95.9180851 310.67922,95.547294 C310.375184,95.1757716 310.13863,94.7706075 309.96956,94.3332642 L310.919401,93.8154731 C311.068154,93.7321 311.23142,93.6706672 311.404844,93.6202045 C311.576091,93.5719358 311.753143,93.5470701 311.928018,93.5470701 C312.187791,93.5470701 312.425796,93.5982642 312.631873,93.7013836 C312.841578,93.8052343 313.04693,93.9171299 313.247927,94.0392642 C313.4482,94.1606672 313.654277,94.273294 313.866884,94.3749507 C314.078766,94.4802642 314.322576,94.5329209 314.596136,94.5329209 C314.778993,94.5329209 314.977814,94.5058612 315.192599,94.4495478 C315.40956,94.394697 315.609832,94.3149806 315.794866,94.2118612 C315.978449,94.1087418 316.130104,93.9814881 316.254186,93.8271746 C316.376816,93.6757866 316.437043,93.4980701 316.437043,93.2940254 C316.437043,93.1060701 316.38117,92.9495627 316.268698,92.8281597 C316.156227,92.7082194 316.004571,92.602906 315.813732,92.5122194 C315.622893,92.4229955 315.398676,92.3425478 315.151964,92.2686821 C314.9038,92.191891 314.64185,92.1033985 314.36829,92.0002791 C313.917678,91.8379209 313.476499,91.6623985 313.038222,91.4715179 C312.600671,91.2828313 312.20956,91.0466075 311.863438,90.7657716 C311.518041,90.4893239 311.235773,90.1485179 311.020263,89.7492045 C310.804753,89.347697 310.698086,88.8518463 310.698086,88.2587269 C310.698086,87.6992493 310.816363,87.2012045 311.058721,86.7675179 C311.297451,86.3323687 311.614549,85.9652343 312.009288,85.6661149 C312.405478,85.3655328 312.854639,85.1373537 313.36185,84.9793836 C313.869061,84.8214134 314.390785,84.739503 314.926295,84.739503 C315.314503,84.739503 315.691828,84.8016672 316.057542,84.9267269 C316.425433,85.0503239 316.773007,85.2119507 317.100989,85.4116075 C317.431873,85.6090701 317.736635,85.8343239 318.023256,86.090294 C318.306975,86.3426075 318.567474,86.6022343 318.796771,86.8655179 L317.87668,87.6005179 C317.695274,87.7489806 317.502984,87.8572194 317.307066,87.9208463 C317.108971,87.9844731 316.889107,88.0166522 316.645297,88.0166522 C316.452281,88.0166522 316.281034,87.9925179 316.135909,87.9464433 C315.990059,87.9003687 315.852916,87.849906 315.726658,87.7957866 C315.599673,87.7409358 315.471964,87.6919358 315.34498,87.6451299 C315.21727,87.5968612 315.075048,87.5734582 314.926295,87.5734582" id="Fill-18" fill="#575756"></path>
                <path d="M80.0801088,22.0446612 L90.2040091,45.4615418 L69.9598367,45.4615418 L80.0801088,22.0446612 Z M84.9751655,6.09479552 L75.1857778,6.09479552 L47.47639,70.1319448 L54.1499501,70.1319448 C55.7093152,70.1319448 57.1540317,69.706303 58.4441905,68.8645269 C59.7343492,68.0198254 60.6943492,66.8716164 61.2973424,65.4550045 L65.2135329,56.3658701 L94.909678,56.3658701 L98.867229,65.4608552 C99.4999728,66.9074522 100.467229,68.0600493 101.74215,68.8871985 C103.011991,69.7136164 104.448,70.1319448 106.010268,70.1319448 L112.687456,70.1319448 L84.9751655,6.09479552 Z" id="Fill-19" fill="#FF7900"></path>
                <polygon id="Fill-20" fill="#FF7900" points="123.070839 70.1321642 133.889161 70.1321642 133.889161 6.09501493 123.070839 6.09501493"></polygon>
                <path d="M156.891283,17.000294 L169.196408,17.000294 C170.332009,17.000294 171.408834,17.2204284 172.39278,17.6533836 C173.390512,18.0936522 174.273596,18.6970104 175.017361,19.4473687 C175.76185,20.1962642 176.359764,21.086309 176.79659,22.091906 C177.225433,23.0814134 177.44312,24.1659955 177.44312,25.3142045 C177.44312,26.4624134 177.225433,27.5469955 176.79659,28.5357716 C176.359764,29.5421 175.761125,30.4321448 175.016635,31.1817716 C174.272871,31.9321299 173.394141,32.5259806 172.40439,32.9494284 C171.418993,33.3714134 170.339265,33.585697 169.196408,33.585697 L156.891283,33.585697 L156.891283,17.000294 Z M176.55278,43.0090552 C177.882848,42.452503 179.145433,41.7423687 180.32312,40.8881597 C181.941986,39.7143537 183.357678,38.3182194 184.526658,36.7421746 C185.706522,35.1588164 186.633868,33.3750701 187.284753,31.4406672 C187.934912,29.5040701 188.264345,27.4424134 188.264345,25.3142045 C188.264345,22.6689358 187.757859,20.1428761 186.759401,17.8062343 C185.765297,15.4842194 184.39532,13.4342642 182.688653,11.7148761 C180.984889,9.99768209 178.950966,8.61690597 176.643483,7.6120403 C174.32439,6.60571194 171.819537,6.09523433 169.196408,6.09523433 L146.07151,6.09523433 L146.07151,70.1316522 L156.891283,70.1316522 L156.891283,44.4914881 L164.202667,44.4914881 L179.831147,65.7457866 C180.765025,67.1938463 181.968834,68.3003687 183.407746,69.033906 C184.83795,69.7630552 186.489469,70.1316522 188.317315,70.1316522 L196.471147,70.1316522 L176.55278,43.0090552 Z" id="Fill-21" fill="#FF7900"></path>
                <path d="M312.943601,36.5108507 C312.041651,35.8153433 311.088907,35.205403 310.112943,34.6985821 C309.172535,34.2085821 308.18859,33.7434478 307.191583,33.3148806 C306.220698,32.8965522 305.2041,32.4979701 304.169361,32.1293731 C303.131719,31.7600448 302.130358,31.3804776 301.145687,30.9833582 C299.164009,30.307597 297.455166,29.6647463 296.067773,29.0716269 C294.736254,28.5019104 293.64927,27.8970896 292.83512,27.2732537 C292.081197,26.6976866 291.530449,26.042403 291.20029,25.3271493 C290.862875,24.600194 290.692354,23.6787015 290.692354,22.589 C290.692354,21.6931045 290.90859,20.8864328 291.353397,20.1229104 C291.811265,19.3359851 292.441832,18.6419403 293.227683,18.0627164 C294.038204,17.467403 294.99385,16.9934925 296.066322,16.6541493 C297.154032,16.3111493 298.329542,16.1378209 299.5602,16.1378209 C300.425143,16.1378209 301.380789,16.3542985 302.399565,16.783597 C303.466957,17.2319104 304.5358,17.8462388 305.629315,18.6463284 C306.830222,19.4083881 308.208181,19.7945373 309.723283,19.7945373 C311.514122,19.7945373 313.114122,19.1962985 314.426776,18.0568657 L317.400381,15.8240746 L316.771991,15.0503134 C315.973079,14.0659254 314.962286,13.0179104 313.770812,11.9355224 C312.567728,10.8414328 311.199202,9.8219403 309.701515,8.90483582 C308.199474,7.98334328 306.5719,7.21470149 304.863782,6.62231343 C303.122286,6.01749254 301.337252,5.7110597 299.5602,5.7110597 C297.171447,5.7110597 294.804463,6.08770149 292.523828,6.83220896 C290.235211,7.58256716 288.167909,8.68543284 286.380698,10.1108209 C284.578975,11.5486418 283.109587,13.3353134 282.011719,15.4247612 C280.90732,17.5317612 280.346413,19.9539701 280.346413,22.6255672 C280.346413,25.5253433 280.863057,27.9958209 281.881832,29.9697164 C282.8919,31.9304478 284.25317,33.6110746 285.928635,34.9640597 C287.564916,36.2870597 289.445732,37.4235672 291.518113,38.3421343 C293.516481,39.227791 295.603374,40.1010149 297.714939,40.9369403 C299.259791,41.5571194 300.684916,42.1085522 302.07376,42.6234179 C303.461152,43.1375522 304.732444,43.7716269 305.854259,44.5088209 C306.924553,45.2087164 307.804735,46.0614627 308.470132,47.042194 C309.09707,47.9636866 309.415619,49.1711343 309.415619,50.6323582 C309.415619,52.1681791 309.066594,53.529209 308.378703,54.6759552 C307.663964,55.8665821 306.745324,56.8721791 305.647456,57.6649552 C304.525642,58.4760149 303.26088,59.1035075 301.887274,59.5291493 C298.802649,60.4828209 295.833397,60.3175373 293.640562,59.4823433 C292.428045,59.0223284 291.308408,58.3604627 290.296889,57.5033284 L289.659791,56.9833433 C288.20927,55.4753134 286.414077,54.7110597 284.323556,54.7110597 C282.912943,54.7110597 282.14088,55.1403582 281.029224,55.8205075 L277.966367,57.5318507 L278.368363,58.3487612 C278.474304,58.5645075 278.590404,58.7656269 278.729723,59.0040448 C278.821152,59.1605522 278.923465,59.3360746 279.041016,59.5496269 C279.434304,60.2670746 279.809451,60.9011493 280.156299,61.4364925 C280.289814,61.639806 280.395755,61.8270299 280.500245,62.0113284 C280.724463,62.4069851 280.956662,62.815806 281.382603,63.3182388 C281.984145,64.0312985 282.67639,64.7377761 283.439746,65.4164627 C287.298612,68.8574328 292.147955,70.6024179 297.852807,70.6024179 C300.71249,70.6024179 303.493805,70.1124179 306.120562,69.1455821 C308.751673,68.1765522 311.104145,66.8001642 313.113397,65.0544478 C315.137887,63.2992239 316.767637,61.1768657 317.954757,58.7466119 C319.154939,56.2966119 319.763011,53.5606567 319.763011,50.6184627 C319.763011,44.7333433 317.467864,39.9869254 312.943601,36.5108507" id="Fill-22" fill="#FF7900"></path>
                <path d="M23.6330522,37.7042567 C23.4988118,37.532391 23.3689252,37.3758836 23.2390385,37.2347343 C23.3725533,37.087003 23.5096961,36.9217194 23.652644,36.7359582 L46.0461134,6.09633134 L37.8988118,6.09633134 C36.0716916,6.09633134 34.4194467,6.46492836 32.9863401,7.19188358 C31.5423492,7.92980896 30.3392653,9.03706269 29.4104671,10.4851224 L12.3111474,33.8632418 C11.9817143,34.3203313 11.6609887,34.7020925 11.3584036,34.9938985 C11.3388118,35.0129134 11.31922,35.0319284 11.3003537,35.0494806 L11.3003537,6.09633134 L0.478403628,6.09633134 L0.478403628,70.1320179 L11.3003537,70.1320179 L11.3003537,39.4843463 C11.3257506,39.5077493 11.3511474,39.5311522 11.3772698,39.5552866 C11.6769524,39.8317343 11.9984036,40.1930179 12.3184036,40.6106149 L30.8189025,65.7468836 C31.7469751,67.1920179 32.950059,68.2985403 34.3955011,69.0364657 C35.8199002,69.7634209 37.4721451,70.1320179 39.3057959,70.1320179 L47.4625306,70.1320179 L23.6330522,37.7042567 Z" id="Fill-23" fill="#FF7900"></path>
                <path d="M242.800472,69.4834627 C228.270585,72.321806 218.969542,64.7099851 218.969542,64.7099851 C218.969542,64.7099851 225.854259,58.0913284 226.701787,56.816597 C232.696889,60.3723881 240.714304,58.9184776 240.714304,58.9184776 C249.402195,56.8465821 252.931628,51.5333731 252.931628,51.5333731 L263.019973,55.8541493 C259.462966,60.9377164 253.616617,67.3720746 242.800472,69.4834627 L242.800472,69.4834627 Z M223.479293,30.8078358 C222.549769,30.2856567 220.54995,29.1754776 218.15902,27.8502836 C221.054984,22.561209 226.156844,18.5439403 232.495166,17.2728657 C233.876753,16.9956866 235.253986,16.8655075 236.610902,16.8647761 L236.610902,23.0373134 C236.610902,23.0373134 244.217615,22.6277612 249.04156,29.7393433 C249.934803,29.1454925 251.849723,27.8583284 254.133986,26.3203134 C255.62224,28.5684627 256.709224,31.1398657 257.265052,33.954806 C258.111129,38.241209 257.609723,42.4822687 256.059791,46.2355224 L250.410086,43.8835224 C250.410086,43.8835224 248.438567,49.4541642 242.312127,52.0211791 C242.312127,52.0211791 233.566912,56.0618507 226.048726,48.7520746 C225.581424,49.223791 223.866776,50.9534179 221.719655,53.1189254 C220.199474,51.5926119 218.906413,49.8205672 217.897796,47.8539851 L223.312399,45.0178358 C223.312399,45.0178358 219.443374,38.3999104 223.479293,30.8078358 L223.479293,30.8078358 Z M215.847184,41.9059701 L206.08029,47.0048955 C203.151673,37.2948507 206.300154,28.4119552 206.300154,28.4119552 C206.300154,28.4119552 213.766821,33.1371642 215.936435,33.8151194 C215.038113,38.4430597 215.847184,41.9059701 215.847184,41.9059701 L215.847184,41.9059701 Z M242.808454,6.70861194 C252.705959,8.56768657 259.073306,15.4810746 259.073306,15.4810746 C259.073306,15.4810746 251.471673,19.9795672 249.873125,21.6060746 C246.215256,18.6704627 242.790313,17.7965075 242.790313,17.7965075 L242.808454,6.70861194 Z M265.939882,50.3493284 C268.270585,44.6945821 269.022331,38.3070299 267.74741,31.8507313 C266.909315,27.6016269 265.26868,23.7218507 263.021424,20.3306119 C265.897796,18.3903582 268.052898,16.9349851 268.052898,16.9349851 C268.052898,16.9349851 258.294712,0.255970149 236.610902,0 L236.610902,6.08916418 C234.56537,6.09062687 232.490812,6.2888209 230.408998,6.70568657 C220.846005,8.62253731 213.152943,14.6853731 208.789769,22.6679851 C205.733442,20.9793134 203.438295,19.7118955 203.438295,19.7118955 C203.438295,19.7118955 193.25707,36.1290896 203.03122,55.640597 L208.41317,52.822 C209.932626,55.7802836 211.879474,58.4438358 214.165188,60.7409851 C211.72927,63.1982985 209.893442,65.0500597 209.893442,65.0500597 C209.893442,65.0500597 220.282921,76.4941194 236.610902,76.1957313 C252.541243,75.9039254 265.398567,67.1892388 271.538794,52.6801194 L265.939882,50.3493284 Z" id="Fill-24" fill="#FF7900"></path>
            </g>
        </g>
    </g>
</svg>