<svg xmlns="http://www.w3.org/2000/svg" xmlns:xlink="http://www.w3.org/1999/xlink" viewBox="0 0 183 205.84"><defs><style>.cls-1,.cls-14,.cls-15,.cls-5,.cls-8,.cls-9{fill:none;}.cls-2{fill:#e5dbc8;}.cls-3{clip-path:url(#clip-path);}.cls-4{fill:#fff;}.cls-10,.cls-11,.cls-15,.cls-5,.cls-8,.cls-9{stroke:#6c5353;}.cls-11,.cls-5,.cls-9{stroke-linejoin:round;}.cls-10,.cls-11,.cls-14,.cls-15,.cls-5,.cls-8,.cls-9{stroke-width:3px;}.cls-10,.cls-6{fill:#f1dcac;}.cls-7{fill:#e8c495;}.cls-15,.cls-9{stroke-linecap:round;}.cls-11,.cls-12{fill:#ba9686;}.cls-13{fill:#6c5353;}.cls-14{stroke:#be2f74;}</style><clipPath id="clip-path"><circle class="cls-1" cx="91.5" cy="112.52" r="90"/></clipPath></defs><title>Recurso 12</title><g id="Capa_2" data-name="Capa 2"><g id="Capa_9" data-name="Capa 9"><circle class="cls-2" cx="91.5" cy="112.52" r="90"/><g class="cls-3"><path class="cls-4" d="M125.35,137.75l-35.6-19.64L53.17,137.8a22.89,22.89,0,0,0-12,20.16v46.38h96.07V157.8A22.89,22.89,0,0,0,125.35,137.75Z"/><path class="cls-5" d="M125.35,137.75l-35.6-19.64L53.17,137.8a22.89,22.89,0,0,0-12,20.16v46.38h96.07V157.8A22.89,22.89,0,0,0,125.35,137.75Z"/><path class="cls-6" d="M79.55,106.66h20a0,0,0,0,1,0,0v24a10,10,0,0,1-10,10h0a10,10,0,0,1-10-10v-24a0,0,0,0,1,0,0Z"/><path class="cls-7" d="M79.55,127.21l2.33,1.57a14,14,0,0,0,15.68,0l2-1.35V115.66h-20Z"/><path class="cls-8" d="M79.55,106.66h20a0,0,0,0,1,0,0v24a10,10,0,0,1-10,10h0a10,10,0,0,1-10-10v-24a0,0,0,0,1,0,0Z"/><rect class="cls-6" x="41.12" y="174.83" width="16" height="29.52"/><rect class="cls-8" x="41.12" y="174.83" width="16" height="29.52"/><rect class="cls-6" x="121.19" y="174.83" width="16" height="29.52"/><rect class="cls-8" x="121.19" y="174.83" width="16" height="29.52"/><line class="cls-9" x1="57.12" y1="164.34" x2="57.12" y2="204.34"/><line class="cls-9" x1="121.19" y1="164.34" x2="121.19" y2="204.34"/></g><circle class="cls-5" cx="91.5" cy="112.52" r="90"/><rect class="cls-10" x="40.71" y="63.33" width="24" height="20" rx="10" ry="10"/><rect class="cls-10" x="114.71" y="63.33" width="24" height="20" rx="10" ry="10"/><path class="cls-11" d="M49.56,12.88C56.56,4.13,72.12,1,94,1.56c14.33.37,29.38,4.81,37.21,19.31,6.79,12.57-2.89,42.45-2.89,42.45h-74s-7.8-9.75-8-26.35A31.12,31.12,0,0,1,53,17.38S48.13,14.66,49.56,12.88Z"/><path class="cls-6" d="M120.55,106.24l-17,15.54c-4.74,3.2-22.94,3.2-27.68,0l-17-15.54c-2.62-2.81-6.16-7-6.16-11.6V27.08h74V94.64C126.71,99.29,124,102.86,120.55,106.24Z"/><path class="cls-12" d="M99.7,91.86h-20a10,10,0,0,0-10,10v14.29l6.17,5.64c4.74,3.2,22.94,3.2,27.68,0l6.15-5.63v-14.3A10,10,0,0,0,99.7,91.86Z"/><path class="cls-8" d="M120.55,106.24l-17,15.54c-4.74,3.2-22.94,3.2-27.68,0l-17-15.54c-2.62-2.81-6.16-7-6.16-11.6V27.08h74V94.64C126.71,99.29,124,102.86,120.55,106.24Z"/><path class="cls-7" d="M57.63,20.88l-6.37,9.75V45.88s11.25-.46,14.93-5.64l.07,3.64s19.45,5.84,27.24-5.5c0,0,22.67,28.78,36.26,3.6v-7.6l-10.83-13.5Z"/><circle class="cls-13" cx="72.58" cy="72.16" r="4"/><circle class="cls-13" cx="106.58" cy="72.16" r="4"/><path class="cls-14" d="M89.71,101.54"/><line class="cls-15" x1="97.58" y1="62.44" x2="115.58" y2="64.44"/><line class="cls-15" x1="81.58" y1="62.44" x2="63.58" y2="64.44"/><path class="cls-15" d="M85.92,113.17a18.32,18.32,0,0,0,7.57,0"/><path class="cls-12" d="M51.19,54.36l2.52,4s6.66-9.83,6.66-28.83l-7.25-1.87L49.31,37Z"/><path class="cls-9" d="M52.71,63.33A81.25,81.25,0,0,0,60.38,29.5"/><path class="cls-12" d="M128.44,57.54l-.77,2.9a72.82,72.82,0,0,1-8.35-33.36L128,25.13,130.38,37Z"/><path class="cls-9" d="M127,63.33a81.25,81.25,0,0,1-7.66-33.83"/><path class="cls-12" d="M57.63,15.88l-7.38,9.75V40.88s13.26-.38,21-10.75v8.75s14.45,3.84,22.24-7.5c0,0,25.13,33.06,36.26,5.6v-7.6l-10.83-13.5Z"/><path class="cls-9" d="M56,40.27s7.52.22,15.26-10.15v8.75s14.45,3.84,22.24-7.5c0,0,19.7,25.91,31.94,12.8"/><path class="cls-15" d="M82.71,86.53a6,6,0,0,0,6,6h2a6,6,0,0,0,6-6"/><path class="cls-15" d="M78.69,102a18.76,18.76,0,0,0,22.1,0"/></g></g></svg>