<svg xmlns="http://www.w3.org/2000/svg" xmlns:xlink="http://www.w3.org/1999/xlink" viewBox="0 0 183 206.8"><defs><style>.cls-1,.cls-14,.cls-15,.cls-16,.cls-5,.cls-8,.cls-9{fill:none;}.cls-2{fill:#e5dbc8;}.cls-3{clip-path:url(#clip-path);}.cls-17,.cls-4{fill:#fff;}.cls-10,.cls-11,.cls-15,.cls-16,.cls-17,.cls-5,.cls-8,.cls-9{stroke:#6c5353;}.cls-11,.cls-5,.cls-9{stroke-linejoin:round;}.cls-10,.cls-11,.cls-14,.cls-15,.cls-17,.cls-5,.cls-8,.cls-9{stroke-width:3px;}.cls-10,.cls-6{fill:#f1dcac;}.cls-7{fill:#e8c495;}.cls-15,.cls-16,.cls-9{stroke-linecap:round;}.cls-11,.cls-12{fill:#ba9686;}.cls-13{fill:#6c5353;}.cls-14{stroke:#be2f74;}.cls-16{stroke-width:2.77px;}.cls-17{stroke-miterlimit:10;}</style><clipPath id="clip-path"><circle class="cls-1" cx="91.5" cy="113.47" r="90"/></clipPath></defs><title>Recurso 13</title><g id="Capa_2" data-name="Capa 2"><g id="Capa_11" data-name="Capa 11"><circle class="cls-2" cx="91.5" cy="113.47" r="90"/><g class="cls-3"><path class="cls-4" d="M125.35,138.71l-35.6-19.64L53.17,138.75a22.89,22.89,0,0,0-12,20.16V205.3h96.07V158.75A22.89,22.89,0,0,0,125.35,138.71Z"/><path class="cls-5" d="M125.35,138.71l-35.6-19.64L53.17,138.75a22.89,22.89,0,0,0-12,20.16V205.3h96.07V158.75A22.89,22.89,0,0,0,125.35,138.71Z"/><path class="cls-6" d="M79.55,107.61h20a0,0,0,0,1,0,0v24a10,10,0,0,1-10,10h0a10,10,0,0,1-10-10v-24a0,0,0,0,1,0,0Z"/><path class="cls-7" d="M79.55,128.17l2.33,1.57a14,14,0,0,0,15.68,0l2-1.35V116.62h-20Z"/><path class="cls-8" d="M79.55,107.61h20a0,0,0,0,1,0,0v24a10,10,0,0,1-10,10h0a10,10,0,0,1-10-10v-24a0,0,0,0,1,0,0Z"/><rect class="cls-6" x="41.12" y="175.78" width="16" height="29.52"/><rect class="cls-8" x="41.12" y="175.78" width="16" height="29.52"/><rect class="cls-6" x="121.19" y="175.78" width="16" height="29.52"/><rect class="cls-8" x="121.19" y="175.78" width="16" height="29.52"/><line class="cls-9" x1="57.12" y1="165.3" x2="57.12" y2="205.3"/><line class="cls-9" x1="121.19" y1="165.3" x2="121.19" y2="205.3"/></g><circle class="cls-5" cx="91.5" cy="113.47" r="90"/><rect class="cls-10" x="40.71" y="64.28" width="24" height="20" rx="10" ry="10"/><rect class="cls-10" x="114.71" y="64.28" width="24" height="20" rx="10" ry="10"/><path class="cls-11" d="M42.55,19.83C54.84,14.48,71.12,1,93,1.52c14.33.37,30.13,5.25,38.21,26.31,5.12,13.34-2.89,36.45-2.89,36.45h-74s-7.8-3.75-8-20.35A31.12,31.12,0,0,1,53,24.33S40.46,20.74,42.55,19.83Z"/><path class="cls-6" d="M120.55,107.2l-17,15.54c-4.74,3.2-22.94,3.2-27.68,0l-17-15.54c-2.62-2.81-6.16-7-6.16-11.6V32h74V95.6C126.71,100.25,124,103.82,120.55,107.2Z"/><path class="cls-12" d="M71.16,118.56l4.57,4.18c4.74,3.2,22.94,3.2,27.68,0l4.57-4.18Z"/><path class="cls-8" d="M120.55,107.2l-17,15.54c-4.74,3.2-22.94,3.2-27.68,0l-17-15.54c-2.62-2.81-6.16-7-6.16-11.6V34h74V95.6C126.71,100.25,124,103.82,120.55,107.2Z"/><path class="cls-7" d="M57.63,27.83l-6.37,9.75V52.83s11.25-.46,14.93-5.64l.07,3.64s19.45,5.84,27.24-5.5c0,0,22.09,8,31.26-11.4l-5.83-6.1Z"/><circle class="cls-13" cx="72.58" cy="73.11" r="4"/><circle class="cls-13" cx="106.58" cy="73.11" r="4"/><path class="cls-14" d="M89.71,102.49"/><line class="cls-15" x1="97.58" y1="55.39" x2="115.58" y2="57.39"/><line class="cls-15" x1="81.58" y1="55.39" x2="63.58" y2="57.39"/><path class="cls-12" d="M50.75,57.9l2,3.42s7.66-11.86,7.66-30.86l-8.25-.87L49.31,38Z"/><path class="cls-9" d="M52.71,64.28a81.25,81.25,0,0,0,7.66-33.83"/><path class="cls-12" d="M128.44,58.49l-.77,2.9A72.82,72.82,0,0,1,119.32,28L127,26.09,130.38,38Z"/><path class="cls-9" d="M127,64.28a81.25,81.25,0,0,1-7.66-33.83"/><path class="cls-12" d="M57.63,22.83l-7.38,9.75V47.83s13.26-.38,21-10.75v8.75s14.45,3.84,22.24-7.5c0,0,21.22,9.5,32.26-14.4l-6.83-1.1Z"/><path class="cls-9" d="M56,47.23s7.52.22,15.26-10.15v8.75s14.45,3.84,22.24-7.5c0,0,15.7,6.91,27.94-6.2"/><path class="cls-12" d="M109.3,102.56a10,10,0,0,0-9.74-7.75h-20a10,10,0,0,0-9.74,7.75Z"/><path class="cls-15" d="M82.71,89.49a6,6,0,0,0,6,6h2a6,6,0,0,0,6-6"/><path class="cls-16" d="M65.56,63.51h14a5,5,0,0,1,5,5v5a9,9,0,0,1-9,9h-6a9,9,0,0,1-9-9v-5a5,5,0,0,1,5-5Z"/><path class="cls-16" d="M99.56,63.51h14a5,5,0,0,1,5,5v5a9,9,0,0,1-9,9h-6a9,9,0,0,1-9-9v-5a5,5,0,0,1,5-5Z"/><path class="cls-16" d="M84.56,69.85s1.19-1,5-1,5,1,5,1"/><path class="cls-17" d="M89.84,114.56a12,12,0,0,0,12-12h-24A12,12,0,0,0,89.84,114.56Z"/></g></g></svg>