<?xml version="1.0" encoding="UTF-8"?>
<svg width="183px" height="207px" viewBox="0 0 183 207" version="1.1" xmlns="http://www.w3.org/2000/svg" xmlns:xlink="http://www.w3.org/1999/xlink">
    <!-- Generator: Sketch 43.2 (39069) - http://www.bohemiancoding.com/sketch -->
    <title>lalalalia</title>
    <desc>Created with Sketch.</desc>
    <defs>
        <circle id="path-1" cx="90.5" cy="90.52" r="90"></circle>
    </defs>
    <g id="Page-1" stroke="none" stroke-width="1" fill="none" fill-rule="evenodd">
        <g id="lalalalia" transform="translate(1.000000, 1.000000)">
            <circle id="Oval" fill="#E5DBC8" fill-rule="nonzero" cx="90.5" cy="114.52" r="90"></circle>
            <g id="Group" transform="translate(0.000000, 24.000000)">
                <g id="Mask" fill-rule="nonzero" fill="#E5DBC8">
                    <circle id="path-1" cx="90.5" cy="90.52" r="90"></circle>
                </g>
                <g id="Clipped">
                    <mask id="mask-2" fill="white">
                        <use xlink:href="#path-1"></use>
                    </mask>
                    <g id="path-1"></g>
                    <g id="Group" mask="url(#mask-2)">
                        <g transform="translate(40.000000, 95.000000)">
                            <path d="M84.35,19.75 L48.75,0.11 L12.17,19.8 C4.76844071,23.8034082 0.16028091,31.5451166 0.17,39.96 L0.17,86.34 L96.24,86.34 L96.24,39.8 C96.2313621,31.4479795 91.6744134,23.763638 84.35,19.75 L84.35,19.75 Z" id="Shape" stroke="none" fill="#6C5353" fill-rule="nonzero"></path>
                            <path d="M84.35,19.75 L48.75,0.11 L12.17,19.8 C4.76844071,23.8034082 0.16028091,31.5451166 0.17,39.96 L0.17,86.34 L96.24,86.34 L96.24,39.8 C96.2313621,31.4479795 91.6744134,23.763638 84.35,19.75 L84.35,19.75 Z" id="Shape" stroke="#6C5353" stroke-width="3" fill="none" stroke-linejoin="round"></path>
                            <path d="M48.55,39.66 L48.55,39.66 C59.595695,39.66 68.55,30.705695 68.55,19.66 L68.55,11 L48.75,0.08 L28.55,11 L28.55,19.67 C28.5555209,30.7117896 37.5082091,39.6600014 48.55,39.66 L48.55,39.66 Z" id="Shape" stroke="none" fill="#F8DDAB" fill-rule="nonzero"></path>
                            <path d="M38.55,12.21 L40.88,13.78 C45.6164202,16.9814713 51.8235798,16.9814713 56.56,13.78 L58.56,12.43 L58.56,0.66 L38.56,0.66 L38.55,12.21 Z" id="Shape" stroke="none" fill="#E8C495" fill-rule="nonzero"></path>
                            <path d="M48.55,39.66 L48.55,39.66 C59.595695,39.66 68.55,30.705695 68.55,19.66 L68.55,11 L48.75,0.08 L28.55,11 L28.55,19.67 C28.5555209,30.7117896 37.5082091,39.6600014 48.55,39.66 L48.55,39.66 Z" id="Shape" stroke="#6C5353" stroke-width="3" fill="none"></path>
                            <rect id="Rectangle-path" stroke="none" fill="#F8DDAB" fill-rule="nonzero" x="0.12" y="56.83" width="16" height="29.52"></rect>
                            <rect id="Rectangle-path" stroke="#6C5353" stroke-width="3" fill="none" x="0.12" y="56.83" width="16" height="29.52"></rect>
                            <rect id="Rectangle-path" stroke="none" fill="#F8DDAB" fill-rule="nonzero" x="80.19" y="56.83" width="16" height="29.52"></rect>
                            <rect id="Rectangle-path" stroke="#6C5353" stroke-width="3" fill="none" x="80.19" y="56.83" width="16" height="29.52"></rect>
                            <path d="M16.12,46.34 L16.12,86.34" id="Shape" stroke="#5B4545" stroke-width="3" fill="none" stroke-linecap="round" stroke-linejoin="round"></path>
                            <path d="M80.19,46.34 L80.19,86.34" id="Shape" stroke="#5B4545" stroke-width="3" fill="none" stroke-linecap="round" stroke-linejoin="round"></path>
                            <path d="M38.55,7.9 L38.55,19.9" id="Shape" stroke="#6C5353" stroke-width="3" fill="none" stroke-linecap="round"></path>
                            <path d="M58.55,7.9 L58.55,19.9" id="Shape" stroke="#6C5353" stroke-width="3" fill="none" stroke-linecap="round"></path>
                        </g>
                    </g>
                </g>
            </g>
            <circle id="Oval" cx="90.5" cy="113.52" r="90"></circle>
            <circle id="Oval" stroke="#6C5353" stroke-width="3" stroke-linejoin="round" cx="90.5" cy="113.52" r="90"></circle>
            <path d="M88.15,0.5 L88.15,0.5 C63.2971863,0.5 43.15,20.6471863 43.15,45.5 L43.15,87.23 L133.15,87.23 L133.15,45.5 C133.15,20.6471863 113.002814,0.5 88.15,0.5 L88.15,0.5 Z" id="Shape" stroke="#6C5353" stroke-width="3" fill="#BB9787" fill-rule="nonzero" stroke-linejoin="round"></path>
            <path d="M43.15,127.08 C70.7642375,127.08 93.15,104.694237 93.15,77.08 L43.15,77.08 L43.15,127.08 Z" id="Shape" stroke="#6C5353" stroke-width="3.07" fill="#A1776A" fill-rule="nonzero" stroke-linejoin="round"></path>
            <path d="M83.15,77.08 L114.54,110.14 L114.84,141.02 C138.16,128.09 146.84,121.54 132.97,41.55" id="Shape" stroke="#6C5353" stroke-width="3.07" fill="#A1776A" fill-rule="nonzero" stroke-linejoin="round"></path>
            <path d="M99.71,43.86 C99.71,43.86 109.58,113.52 93.55,139.68 C93.55,139.68 146.55,140.54 132.98,41.54" id="Shape" stroke="#6C5353" stroke-width="3" fill="#BB9787" fill-rule="nonzero" stroke-linecap="round" stroke-linejoin="round"></path>
            <path d="M125.71,37.76 C125.71,37.76 71.23,36.82 51.71,45.66 L51.71,37.76 C51.71,37.76 85.4,26 125.71,37.76 Z" id="Shape" fill="#D4BC8B" fill-rule="nonzero"></path>
            <path d="M119.55,110.14 L96.55,125.68 C91.8135798,128.881471 85.6064202,128.881471 80.87,125.68 L57.87,110.14 C54.0177691,107.536176 51.7096335,103.189686 51.71,98.54 L51.71,31 L125.71,31 L125.71,98.54 C125.710366,103.189686 123.402231,107.536176 119.55,110.14 Z" id="Shape" fill="#F8DDAB" fill-rule="nonzero"></path>
            <path d="M51.74,99 L52.68,99 C70.62,99 98.75,92.08 96.17,38.34 L51.71,34 L51.71,98.54 C51.71,98.71 51.74,98.87 51.74,99 Z" id="Shape" fill="#F5C594" fill-rule="nonzero"></path>
            <path d="M119.55,110.14 L96.55,125.68 C91.8135798,128.881471 85.6064202,128.881471 80.87,125.68 L57.87,110.14 C54.0177691,107.536176 51.7096335,103.189686 51.71,98.54 L51.71,31 L125.71,31 L125.71,98.54 C125.710366,103.189686 123.402231,107.536176 119.55,110.14 Z" id="Shape" stroke="#6C5353" stroke-width="3"></path>
            <circle id="Oval" fill="#6C5353" fill-rule="nonzero" cx="105.58" cy="75.16" r="4"></circle>
            <circle id="Oval" fill="#F5BD95" fill-rule="nonzero" cx="109.58" cy="94.16" r="4"></circle>
            <path d="M91.85,70.79 C90.9211291,70.5382226 89.9623689,70.413752 89,70.42 C87.9322796,70.4150608 86.8678819,70.5392965 85.83,70.79" id="Shape" stroke="#6C5353" stroke-width="3" stroke-linecap="round"></path>
            <path d="M96.88,59.06 L114.88,55.84" id="Shape" stroke="#6C5353" stroke-width="3" stroke-linecap="round"></path>
            <path d="M43.15,93.16 C43.15,93.16 38.71,107.72 30.5,105.53 C30.5,105.53 48.75,119.87 52.68,94.08 L43.15,93.16 Z" id="Shape" stroke="#6C5353" stroke-width="3" fill="#BB9787" fill-rule="nonzero" stroke-linejoin="round"></path>
            <path d="M48.75,93.7 C48.75,93.7 48.75,109.51 30.5,121.13 C30.5,121.13 51.71,127.13 59.5,93.7 L48.75,93.7 Z" id="Shape" stroke="#6C5353" stroke-width="3" fill="#BB9787" fill-rule="nonzero" stroke-linejoin="round"></path>
            <path d="M50.71,29 C43.42,37.51 38.95,80.08 38.71,92.11 C41.93,92.76 49.27,94.11 52.71,94.11 C70.65,94.11 92.2,87.25 92.2,41.45 C99.9,46.29 121.2,54.45 112.86,77.19 C112.86,77.19 125.78,61.67 109.21,39.14 C108.8,38.58 128.21,30.5 128.21,30.5 L128.21,28.38 L50.71,29 Z" id="Shape" fill="#BB9787" fill-rule="nonzero"></path>
            <path d="M51.71,31 C44.42,39.51 38.95,80.08 38.71,92.11 C41.93,92.76 49.27,94.11 52.71,94.11 C70.65,94.11 92.2,87.25 92.2,41.45 C99.9,46.29 121.2,54.45 112.86,77.19 C112.86,77.19 130.19,57.48 99.74,31.01" id="Shape" stroke="#6C5353" stroke-width="3" stroke-linecap="round" stroke-linejoin="round"></path>
            <path d="M85.55,95.03 L91.55,95.03" id="Shape" stroke="#6C5353" stroke-width="3" stroke-linecap="round"></path>
            <path d="M119.37,68.51 C120.62,70.14 119.17,75.36 117.82,79.26 C116.858824,82.0101735 114.263299,83.8515122 111.35,83.85 L102.18,83.85 C98.4278962,83.855729 95.0534316,81.5677547 93.67,78.08 C92.28,74.55 91.12,70.36 92.44,68.41 C94.94,64.72 117.29,65.79 119.37,68.51 Z" id="Shape" stroke="#6C5353" stroke-width="3" stroke-linecap="round"></path>
            <path d="M77.69,105.59 C84.2749023,110.389582 93.2050977,110.389582 99.79,105.59" id="Shape" stroke="#6C5353" stroke-width="3" stroke-linecap="round"></path>
            <path d="M85,115.79 C87.4958154,116.317018 90.0741846,116.317018 92.57,115.79" id="Shape" stroke="#6C5353" stroke-width="3" stroke-linecap="round"></path>
            <path d="M99.71,31 C99.71,31 127.25,40.23 116.58,102.73 C116.58,102.73 136.58,81.26 125.71,31" id="Shape" stroke="#6C5353" stroke-width="3" fill="#BB9787" fill-rule="nonzero" stroke-linecap="round" stroke-linejoin="round"></path>
            <path d="M48.75,87.16 C48.75,87.16 81.5,93.16 85.55,52.45" id="Shape" stroke="#6C5353" stroke-width="3" stroke-linecap="round" stroke-linejoin="round"></path>
            <path d="M101.21,172.88 C96.9,167.28 88.41,170.58 88.41,176.27 C88.41,170.58 79.92,167.27 75.61,172.88 C71.15,178.67 75.55,188.81 88.41,194.63 C101.27,188.81 105.66,178.67 101.21,172.88 Z" id="Shape" fill="#FF6E5F" fill-rule="nonzero"></path>
        </g>
    </g>
</svg>