<svg xmlns="http://www.w3.org/2000/svg" xmlns:xlink="http://www.w3.org/1999/xlink" viewBox="0 0 183 200.8"><defs><style>.cls-1,.cls-16,.cls-17,.cls-5,.cls-8,.cls-9{fill:none;}.cls-2{fill:#e5dbc8;}.cls-3{clip-path:url(#clip-path);}.cls-4{fill:#e3e5e7;}.cls-10,.cls-11,.cls-13,.cls-15,.cls-17,.cls-18,.cls-5,.cls-8,.cls-9{stroke:#6c5353;}.cls-11,.cls-13,.cls-15,.cls-5,.cls-9{stroke-linejoin:round;}.cls-10,.cls-11,.cls-13,.cls-15,.cls-16,.cls-17,.cls-18,.cls-5,.cls-8,.cls-9{stroke-width:3px;}.cls-10,.cls-15,.cls-6{fill:#f1dcac;}.cls-7{fill:#e8c495;}.cls-13,.cls-15,.cls-17,.cls-9{stroke-linecap:round;}.cls-11,.cls-12,.cls-13{fill:#ba9686;}.cls-14{fill:#6c5353;}.cls-16{stroke:#be2f74;}.cls-18{fill:#fff;stroke-miterlimit:10;}</style><clipPath id="clip-path"><circle class="cls-1" cx="91.5" cy="107.48" r="90"/></clipPath></defs><title>Recurso 15</title><g id="Capa_2" data-name="Capa 2"><g id="Capa_13" data-name="Capa 13"><circle class="cls-2" cx="91.5" cy="107.48" r="90"/><g class="cls-3"><path class="cls-4" d="M125.35,132.71l-35.6-19.64L53.17,132.76a22.89,22.89,0,0,0-12,20.16V199.3h96.07V152.76A22.89,22.89,0,0,0,125.35,132.71Z"/><path class="cls-5" d="M125.35,132.71l-35.6-19.64L53.17,132.76a22.89,22.89,0,0,0-12,20.16V199.3h96.07V152.76A22.89,22.89,0,0,0,125.35,132.71Z"/><path class="cls-6" d="M79.55,101.62h20a0,0,0,0,1,0,0v24a10,10,0,0,1-10,10h0a10,10,0,0,1-10-10v-24A0,0,0,0,1,79.55,101.62Z"/><path class="cls-7" d="M79.55,122.17l2.33,1.57a14,14,0,0,0,15.68,0l2-1.35V110.62h-20Z"/><path class="cls-8" d="M79.55,101.62h20a0,0,0,0,1,0,0v24a10,10,0,0,1-10,10h0a10,10,0,0,1-10-10v-24A0,0,0,0,1,79.55,101.62Z"/><rect class="cls-6" x="41.12" y="169.79" width="16" height="29.52"/><rect class="cls-8" x="41.12" y="169.79" width="16" height="29.52"/><rect class="cls-6" x="121.19" y="169.79" width="16" height="29.52"/><rect class="cls-8" x="121.19" y="169.79" width="16" height="29.52"/><line class="cls-9" x1="57.12" y1="159.3" x2="57.12" y2="199.3"/><line class="cls-9" x1="121.19" y1="159.3" x2="121.19" y2="199.3"/></g><circle class="cls-5" cx="91.5" cy="107.48" r="90"/><rect class="cls-10" x="40.71" y="58.29" width="24" height="20" rx="10" ry="10"/><rect class="cls-10" x="114.71" y="58.29" width="24" height="20" rx="10" ry="10"/><path class="cls-11" d="M84.92,1.52A38.83,38.83,0,0,0,49.71,25.84C44.38,39.09,51.6,58.29,51.6,58.29h74s6.79-9.84,5-26.35c-1.39-13.1-12.3-20.87-12.3-20.87S106.81,1,84.92,1.52Z"/><path class="cls-10" d="M120.55,101.2l-17,15.54c-4.74,3.2-22.94,3.2-27.68,0l-17-15.54c-2.62-2.81-6.16-7-6.16-11.6V31h74V89.6C126.71,94.25,124,97.82,120.55,101.2Z"/><path class="cls-12" d="M121.71,32V85.6c0,4.65-2.67,8.22-6.16,11.6l-17,15.54c-4.74,3.2-12.94,3.2-17.68,0l-17-15.54c-2.62-2.81-6.16-7-6.16-11.6V32h-5V89.6c0,4.65,3.54,8.79,6.16,11.6l17,15.54c4.74,3.2,22.94,3.2,27.68,0l17-15.54c3.49-3.38,6.16-7,6.16-11.6V32Z"/><path class="cls-12" d="M100.5,85.49h-20a10,10,0,0,0-10,10v15.29l6.17,5.64c4.74,3.2,22.94,3.2,27.68,0l6.15-5.63V95.49A10,10,0,0,0,100.5,85.49Z"/><path class="cls-8" d="M120.55,101.2l-17,15.54c-4.74,3.2-22.94,3.2-27.68,0l-17-15.54c-2.62-2.81-6.16-7-6.16-11.6V30h74V89.6C126.71,94.25,124,97.82,120.55,101.2Z"/><path class="cls-7" d="M58.44,32.17s51.38,25.31,63.06,0l-.18-7.25H58.37Z"/><path class="cls-12" d="M58.44,27.17s51.38,24.31,63.06-1l.82-4.25H56.37Z"/><path class="cls-13" d="M60.38,27s14.46,7.74,29.35,10.38c12,2.13,24.37.93,29.59-10.38"/><circle class="cls-14" cx="72.58" cy="68.12" r="4"/><circle class="cls-14" cx="106.58" cy="68.12" r="4"/><path class="cls-15" d="M81.71,82.49c0,2.21,3.07,4,6.86,4h2.29c3.79,0,6.86-1.79,6.86-4"/><path class="cls-16" d="M89.71,96.49"/><line class="cls-17" x1="97.58" y1="57.18" x2="115.58" y2="60.4"/><line class="cls-17" x1="81.58" y1="57.18" x2="63.58" y2="60.4"/><path class="cls-12" d="M51.25,53.15l1.46,4.14s7.66-9.83,7.66-28.83l-2.19-3.89L51.1,27.13,49.31,36Z"/><path class="cls-9" d="M52.71,58.29S60.38,46,60.38,27"/><path class="cls-12" d="M128.19,47.92l-2.52,7.48S119.32,45,119.32,26l7.66-.95,1.48,3.64.92,8.23Z"/><path class="cls-9" d="M127,58.29S119.32,46,119.32,27"/><path class="cls-17" d="M85.92,111.15a18.32,18.32,0,0,0,7.57,0"/><path class="cls-18" d="M89.73,105.57a12,12,0,0,0,12-12h-24A12,12,0,0,0,89.73,105.57Z"/></g></g></svg>