<?xml version="1.0" encoding="UTF-8"?><svg id="Capa_1" xmlns="http://www.w3.org/2000/svg" viewBox="0 0 929.4 402.97"><defs><style>.cls-1{fill:#fff;}</style></defs><g><g><path class="cls-1" d="M221.07,369.51v-95.85h9.17v48.05l-1.29,13.69,.9,13.69v20.41h-8.78Zm35.01,.64c-5.94,0-11.28-1.36-16.02-4.07-4.74-2.71-8.48-6.65-11.24-11.82-2.76-5.17-4.13-11.41-4.13-18.73s1.4-13.67,4.2-18.79c2.8-5.12,6.57-9.02,11.3-11.69,4.74-2.67,10.03-4,15.89-4,6.46,0,12.25,1.44,17.37,4.33,5.12,2.89,9.15,6.91,12.08,12.08,2.93,5.17,4.39,11.2,4.39,18.08s-1.47,12.81-4.39,18.02c-2.93,5.21-6.96,9.28-12.08,12.21-5.12,2.93-10.92,4.39-17.37,4.39Zm-.65-8.14c4.82,0,9.13-1.1,12.92-3.29,3.79-2.2,6.8-5.29,9.04-9.3,2.24-4.01,3.36-8.63,3.36-13.89s-1.12-9.99-3.36-13.95c-2.24-3.96-5.25-7.04-9.04-9.23-3.79-2.2-8.1-3.29-12.92-3.29s-9.15,1.1-12.98,3.29c-3.83,2.2-6.85,5.28-9.04,9.23-2.2,3.96-3.29,8.61-3.29,13.95s1.1,9.88,3.29,13.89c2.2,4,5.21,7.1,9.04,9.3,3.83,2.2,8.16,3.29,12.98,3.29Z"/><path class="cls-1" d="M307.23,395.22c-3.19,0-6.22-.52-9.11-1.55-2.89-1.03-5.36-2.58-7.43-4.65l4.26-6.85c1.72,1.63,3.59,2.91,5.62,3.81,2.02,.9,4.28,1.36,6.78,1.36,3.01,0,5.62-.84,7.82-2.52,2.2-1.68,4.28-4.63,6.26-8.85l4.39-9.95,1.03-1.42,27.9-62.91h9.04l-33.97,75.95c-1.9,4.39-3.98,7.88-6.27,10.46-2.28,2.58-4.76,4.41-7.43,5.49-2.67,1.08-5.64,1.62-8.91,1.62Zm18.08-23.77l-31.26-69.75h9.56l27.64,62.26-5.94,7.49Z"/></g><g><path class="cls-1" d="M599.33,350.48c-4.04,0-7.88-.5-11.5-1.47-3.64-.97-6.84-2.49-9.59-4.55-2.76-2.06-5.01-4.69-6.74-7.91-1.74-3.22-2.69-7.13-2.8-11.76l56.91,.12c1.64-.07,5.87-.45,8.21-2.66,2.21-2.11,2.78-4.48,2.93-5.79,.03-.94,.05-1.9,.05-2.89,.02-8.59-1.04-16.24-3.18-22.92-2.14-6.68-5.16-12.24-9.06-16.68-3.89-4.44-8.6-7.82-14.11-10.14-5.52-2.32-11.71-3.49-18.59-3.51-8.22-.02-15.52,1.51-21.93,4.58-6.4,3.07-11.8,7.23-16.19,12.49-4.41,5.26-7.74,11.35-10.04,18.28-2.31,6.93-3.47,14.25-3.49,21.94-.02,8.36,1.17,15.87,3.59,22.56,2.41,6.68,5.93,12.37,10.56,17.07,4.63,4.7,10.32,8.31,17.05,10.83,6.72,2.52,14.46,3.79,23.22,3.81,7,.02,13.64-.52,19.9-1.6,6.27-1.07,13.26-2.56,20.55-5.92l.1-21.13c-7.34,2.89-14.89,5.15-20.8,6.06-4.41,.68-9.4,1.23-15.05,1.22Zm-28.95-53.91c.95-2.88,2.26-5.55,3.95-7.99,1.68-2.44,3.81-4.45,6.37-6.06,2.57-1.6,5.66-2.39,9.3-2.39,3.63,0,6.69,.79,9.19,2.33,2.48,1.55,4.46,3.55,5.94,5.99,1.47,2.45,2.51,5.11,3.12,8,.59,2.89,.89,5.75,.88,8.57l-40.39-.09c.13-2.7,.69-5.49,1.64-8.38Z"/><path class="cls-1" d="M919.64,287.01c-2.42-1.29-5.49-2.55-9.19-3.78-3.7-1.23-7.7-1.85-12.01-1.85-4.57,0-8.05,.94-10.41,2.86-2.36,1.92-3.55,4.36-3.56,7.32,0,2.95,1.24,5.43,3.73,7.42,2.48,2,6.95,4.29,13.42,6.87,9.55,3.75,16.57,8.28,21.08,13.62,4.49,5.34,6.73,11.73,6.71,19.18-.02,10.28-3.88,18.49-11.57,24.64-7.69,6.14-18.62,9.2-32.74,9.17-6.2-.01-12.09-.67-17.67-1.96-5.59-1.3-10.27-3.04-14.03-5.24l5.7-20.59c2.96,1.67,6.9,3.29,11.82,4.84,4.9,1.55,9.71,2.33,14.42,2.34,5.25,.01,9.17-.94,11.73-2.86,2.56-1.92,3.84-4.55,3.85-7.9,0-3.33-1.12-6.03-3.4-8.1-2.3-2.05-6.52-4.37-12.72-6.96-10.48-4.13-17.89-8.9-22.18-14.3-4.3-5.41-6.45-11.06-6.43-16.97,.01-4.74,1.01-9.21,2.97-13.38,1.96-4.17,4.73-7.76,8.31-10.77,3.58-3.01,7.9-5.39,12.95-7.1,5.05-1.72,10.75-2.58,17.08-2.57,5.78,.01,11.07,.6,15.85,1.76,4.77,1.17,8.78,2.6,12.01,4.27l-5.7,20.03Z"/><path class="cls-1" d="M836.11,370.44l-29.9-.06,.25-107.3,29.9,.06-.25,107.3Z"/><path class="cls-1" d="M431.89,369.57l-29.89-.06,.25-107.3,29.89,.06-.25,107.3Z"/><path class="cls-1" d="M837.45,233.6c-.01,4.63-1.52,8.32-4.57,11.08-3.03,2.75-6.91,4.12-11.62,4.11-4.72-.01-8.56-1.47-11.51-4.35-2.96-2.9-4.43-6.53-4.42-10.9,.01-4.49,1.49-8.14,4.47-10.97,2.97-2.82,6.81-4.22,11.53-4.21,4.84,.01,8.74,1.43,11.71,4.26,2.94,2.84,4.42,6.5,4.41,10.99Z"/><path class="cls-1" d="M727.96,237l29.49,.06-.06,25.9,33.33,.07-.05,23.11-33.33-.07-.11,44.64c-.02,6.57,1.05,11.28,3.2,14.11,2.15,2.84,5.5,4.26,10.09,4.27,2.15,0,3.94-.08,5.35-.27,1.42-.18,2.87-.41,4.35-.67v21.5c-2.01,.76-4.44,1.46-7.94,1.91-3.5,.43-7.4,.65-11.71,.64-8.08-.02-14.34-1.47-18.78-4.38-4.43-2.9-7.69-6.4-9.77-10.52-2.07-4.12-3.31-8.39-3.7-12.83-.4-4.43-.59-8.12-.58-11.07l.23-96.41Z"/><path class="cls-1" d="M433.23,232.73c-.01,4.63-1.54,8.32-4.58,11.08-3.03,2.75-6.91,4.12-11.62,4.11-4.72-.01-8.56-1.47-11.51-4.35-2.95-2.9-4.42-6.53-4.41-10.9,.01-4.49,1.49-8.14,4.46-10.97,2.97-2.82,6.82-4.22,11.53-4.21,4.85,.01,8.75,1.43,11.71,4.26,2.95,2.84,4.43,6.5,4.42,10.99Z"/><path class="cls-1" d="M710.27,264.98c-2.18-1.11-4.69-2.1-7.54-2.94-1.69-.5-3.97-.94-5.32-1.15-3.22-.5-7.36-.95-13.08-.26-3.16,.38-6.12,1.11-8.83,2.23-4.17,1.72-7.75,4.09-10.71,7.11-2.96,3.01-5.25,6.6-6.87,10.77-1.04,2.67-1.71,5.49-2.09,8.4-.13,1.43-.23,2.77-.32,4.05-.17,2.57-.28,4.85-.28,6.8l-.13,56.05-.02,9.81v4.21l10.57,.02,18.92,.04,.05-19.5,.05-22.11,.06-25.09c0-.98,.05-1.91,.1-2.8,.31-4.99,1.35-8.69,3.16-11.05,2.17-2.83,5.52-4.23,10.11-4.22,2.16,0,3.94,.1,5.35,.29,1.41,.19,2.87,.43,4.34,.69v-.06c.05,.03,.1,.05,.14,.08l4.72-20.03c-.73-.46-1.54-.9-2.38-1.32Z"/><path class="cls-1" d="M485.18,346.77v-.39c4.82-5.34,10.04-11.63,15.06-18.12l.03,.04,30.71-41.36,.33-.45c.48-.69,.9-1.44,1.27-2.21,.97-2.05,1.52-4.42,1.53-7.18,.02-10.21-6.82-14.61-14.29-14.62h-.36l-28.06-.06-38.14-.08-.05,22.92,38.14,.08,8.91,.02v.58c-4.86,5.57-9.72,11.34-14.79,17.88l-30.71,41.36-.33,.44c-1.76,2.5-2.79,5.59-2.8,9.39-.02,10.21,6.82,14.61,14.29,14.63l70.48,.15,.05-22.92-51.29-.11Z"/></g></g><g><path class="cls-1" d="M0,112.01c0,31.44,23.41,56.06,53.3,56.06,10.4,.18,20.61-2.67,29.42-8.2l1.59-1.01v6.95h34.45V58.41h-34.49v6.73l-1.59-1.02c-8.8-5.53-19.02-8.37-29.42-8.19C23.41,55.99,0,80.6,0,112.01Zm88.7,0c0,17.85-10.28,28.1-28.2,28.1-15.23,0-26.73-12.09-26.73-28.12s11.5-28.32,26.73-28.32c25.45,.01,28.2,19.82,28.2,28.35h0Z"/><path class="cls-1" d="M178.8,114.28V58.41h-34.46v61.5c0,29.93,17.92,49.3,45.64,49.3,10.81,0,20.13-3.3,29.35-10.38l1.67-1.3v8.29h34.41V58.41h-34.41V126.85l-.27,.3c-6.6,7.3-13.79,11.17-20.83,11.17-13.41,0-21.09-8.77-21.09-24.04h0Z"/><path class="cls-1" d="M345.57,137.65c-11.67,0-18.15-6.21-18.15-17.49v-32.44h37.2v-29.31h-37.21V14.3l-34.41,17.79v26.32h-21.44v29.33h21.44v33.53c0,29.1,16.85,47.91,42.91,47.91,10.37,0,18.25-.79,32.01-5.11l-3.8-28.95c-7.91,1.53-13.56,2.52-18.55,2.52h0Z"/><path class="cls-1" d="M436.91,55.99c-33.62,0-57.04,23.03-57.04,56.02s24.14,56.28,58.69,56.28c26.16,0,46.36-13.58,51.86-34.71h-34.23c-3.5,5.1-9.59,7.9-17.23,7.9-12.96,0-22.04-6.49-25.57-18.35l-.39-1.3h78.16c.53-4,.74-8.02,.64-12.04,0-31.71-22.57-53.82-54.89-53.82Zm-24.31,46.46l.32-1.3c2.97-12.12,11.67-19.07,24-19.07s20.57,6.8,22.66,19.14l.21,1.21-47.19,.03h0Z"/><path class="cls-1" d="M577.67,55.08c-10.8-.04-21.26,3.71-29.57,10.61l-1.67,1.3v-8.58h-34.43v107.35h34.43V97.87l.26-.3c6.48-7.4,11.75-11.4,21.08-11.4,13.25,0,20.85,8.77,20.85,24.05v55.59h34.68v-61.46c0-29.93-17.84-49.28-45.62-49.28Z"/><path class="cls-1" d="M710.46,137.65c-11.67,0-18.15-6.21-18.15-17.49v-32.44h37.21v-29.31h-37.21V4.78l-34.43,17.75V58.41h-21.4v29.33h21.4v33.53c0,29.1,16.85,47.91,42.93,47.91,10.37,0,18.25-.79,32.01-5.11l-3.8-28.95c-7.88,1.53-13.52,2.52-18.55,2.52Z"/><rect class="cls-1" x="754.19" y="58.46" width="34.46" height="107.35"/><path class="cls-1" d="M863.87,55.99c-29.88,0-53.3,24.65-53.3,56.02s23.41,56.06,53.3,56.06c10.38,.17,20.6-2.67,29.39-8.2l1.59-1.01v6.95h34.46V58.41h-34.43v6.73l-1.62-.97c-8.8-5.53-19.01-8.37-29.39-8.19Zm35.41,56.04c0,17.85-10.27,28.1-28.19,28.1-15.25,0-26.73-12.09-26.73-28.12s11.49-28.32,26.73-28.32c25.44,0,28.19,19.81,28.19,28.34Z"/><path class="cls-1" d="M770.27,.03c-10.66,.44-19.45,9.21-19.45,19.55-.08,5.19,1.97,10.18,5.67,13.83,4.08,3.94,9.61,6.05,15.27,5.81,10.76-.26,19.84-9.19,19.84-19.46,.04-5.31-2.1-10.39-5.94-14.05-4.14-3.92-9.7-5.98-15.39-5.68Z"/><rect class="cls-1" x="511.99" y="187.1" width="111.3" height="21.3"/></g></svg>