<?xml version="1.0" encoding="utf-8"?>
<!-- Generator: Adobe Illustrator 22.0.0, SVG Export Plug-In . SVG Version: 6.00 Build 0)  -->
<svg version="1.1" id="Capa_1" xmlns="http://www.w3.org/2000/svg" xmlns:xlink="http://www.w3.org/1999/xlink" x="0px" y="0px"
	 viewBox="0 0 474 155" style="enable-background:new 0 0 474 155;" xml:space="preserve">
<style type="text/css">
	.st0{fill:#FF2069;}
	.st1{fill:#CCCCCC;}
	.st2{fill:#7DCAD4;}
</style>
<g>
	<path class="st0" d="M41.6,65.5c0-0.6,0-1.5,0.1-2.7s0.2-2.5,0.4-4s0.4-3.1,0.7-4.8c0.2-1.7,0.5-3.4,0.7-5c0.5-3.9,1.2-8.1,2-12.6
		h-1.1c-0.6,0.7-1.3,1.8-2,3.3c-0.8,1.5-1.8,3.6-3.2,6.4c-1.4,2.8-3.1,6.5-5.2,11s-4.9,10.2-8.2,17c-1,2-2.1,3.4-3.4,4.1
		s-2.7,1.1-4.3,1.1c-2,0-3.6-0.4-4.8-1.3s-2.2-2-2.8-3.4c-0.7-1.4-1.1-3.1-1.3-4.9S8.9,66,8.9,64c0-2,0.1-4.4,0.4-7.1
		c0.2-2.7,0.6-5.6,1-8.6c0.4-3,0.8-6.1,1.4-9.3c0.5-3.1,1-6.2,1.6-9c0.6-2.9,1.1-5.5,1.7-7.9c0.6-2.4,1.1-4.3,1.6-5.9
		c0.5-1.6,1-2.8,1.4-3.7s0.9-1.6,1.5-2.2c0.6-0.5,1.2-0.9,2-1c0.8-0.2,1.8-0.3,3-0.3c1.9,0,3.3,0.1,4.4,0.2c1,0.1,1.8,0.4,2.3,0.9
		s0.8,1.1,0.9,2c0.1,0.9,0.1,2.1,0.1,3.6c0,0.8,0,1.8-0.1,2.9c-0.1,1.1-0.2,2.2-0.3,3.4c-0.1,1.2-0.3,2.5-0.5,3.8s-0.4,2.6-0.5,3.8
		c-0.4,2.9-0.9,5.9-1.4,8.9l0.8,0.9c0.1-0.1,0.6-1.1,1.6-2.8s2.1-3.8,3.5-6.2s2.9-4.9,4.5-7.5s3.1-4.9,4.6-6.9c1.4-2,2.9-3.7,4.5-5
		s3.5-2,5.7-2c2.1,0,3.8,0.6,5.3,1.8s2.2,2.9,2.2,5.1c0,1.9-0.1,3.7-0.4,5.4c-0.2,1.7-0.5,3.4-0.9,5s-0.7,3.2-1.1,4.7
		c-0.4,1.5-0.8,3.1-1.1,4.7c-0.2,1.1-0.4,1.8-0.4,2.1s-0.1,0.5-0.1,0.6l0.8,0.9c0.1-0.1,0.7-1.1,1.7-2.7c1-1.7,2.3-3.7,3.8-6.1
		s3.1-4.9,4.8-7.5c1.7-2.6,3.3-5,4.7-7c1.4-2,2.8-3.6,4.2-4.9c1.4-1.3,3.1-2,5.2-2c2.3,0,4.2,0.6,5.8,1.8c1.6,1.2,2.4,2.9,2.4,5.1
		c0,3.4-0.2,6.6-0.5,9.6s-0.7,6-1.2,8.9c-0.4,2.9-0.8,5.9-1.2,8.9c-0.3,3-0.5,6.2-0.5,9.6c0,2.6,0.3,4.8,1,6.4
		c0.7,1.7,1.5,2.5,2.5,2.5s2.1-0.2,3.2-0.7c1.1-0.4,2.3-1,3.4-1.7c1.2-0.7,2.3-1.5,3.4-2.4s2.2-1.8,3.2-2.8c2.4-2.2,4.8-4.8,7.1-7.6
		l1.2,17.3c-2.1,1.7-4.3,3.5-6.4,5.3s-4.4,3.5-6.7,5c-2.4,1.5-5,2.7-7.8,3.7s-6,1.4-9.6,1.4c-1.8,0-3.2-0.6-4.4-1.7
		C77,76.6,76,75,75.3,72.9c-0.7-2.1-1.3-4.5-1.6-7.2c-0.3-2.8-0.5-5.8-0.5-9.1c0-3.1,0.1-6.3,0.3-9.8c0.2-3.4,0.5-6.9,0.9-10.4h-1.1
		L58.5,74c-1.3,2.1-2.7,3.4-4.2,4.1c-1.6,0.7-3.4,1.1-5.4,1.1c-1.6,0-2.8-0.4-3.7-1.3s-1.6-2-2.2-3.3c-0.5-1.3-0.9-2.8-1-4.4
		C41.7,68.6,41.6,67,41.6,65.5z"/>
	<path class="st0" d="M152.2,24.4c1.4,2.8,2.5,5.8,3.2,9c0.7,3.1,1.1,6.2,1.1,9c0,2.9-0.3,5.8-1,8.7c-0.6,2.9-1.6,5.8-2.7,8.5
		c-1.2,2.7-2.7,5.3-4.4,7.7s-3.7,4.5-5.9,6.2c-2.2,1.8-4.7,3.1-7.3,4.2c-2.6,1-5.4,1.5-8.4,1.5c-4.3,0-8-0.9-11-2.8
		c-3.1-1.9-5.6-4.3-7.5-7.4c-2-3-3.4-6.4-4.3-10.3c-0.9-3.8-1.4-7.7-1.4-11.6c0-5.4,0.8-10.4,2.4-15.1s3.9-8.7,6.9-12.2
		c3-3.4,6.7-6.2,11-8.1c4.3-2,9.2-3,14.6-3c4.6,0,9,0.7,13,2.2c4.1,1.4,7.8,3.4,11.4,5.8c3.5,2.4,6.8,5.2,9.9,8.3
		c3.1,3.1,5.9,6.3,8.5,9.7L179,45.2c-1.3-1.8-3.1-3.7-5.3-5.7c-2.2-2.1-4.6-4.1-7.1-6c-2.5-2-5-3.8-7.4-5.5s-4.5-3.2-6.3-4.4
		L152.2,24.4z M129.6,65.2c1.7,0,3.3-0.8,4.8-2.5c1.6-1.7,2.9-3.8,4.1-6.4c1.2-2.6,2.1-5.4,2.8-8.5s1.1-6.1,1.1-8.9
		c0-2.2-0.2-4.3-0.5-6.3c-0.3-1.9-0.9-3.6-1.5-5c-0.7-1.4-1.6-2.5-2.6-3.4c-1.1-0.8-2.4-1.2-3.9-1.2c-2,0-3.9,0.9-5.7,2.6
		s-3.4,3.9-4.8,6.6s-2.4,5.6-3.2,8.8c-0.8,3.2-1.2,6.3-1.2,9.3c0,2.1,0.2,4,0.6,5.8s1,3.4,1.8,4.7s1.9,2.4,3.3,3.2
		C126,64.8,127.7,65.2,129.6,65.2z"/>
	<path class="st0" d="M171.2,63.9c0-2.1,0.1-4.7,0.4-7.5c0.2-2.9,0.6-5.9,1-9c0.4-3.2,0.9-6.4,1.5-9.7s1.2-6.4,1.8-9.4
		s1.3-5.7,1.9-8.2c0.6-2.5,1.3-4.5,1.9-6.2c0.4-1.1,0.8-1.9,1.2-2.6c0.4-0.6,0.8-1.1,1.4-1.5c0.5-0.4,1.1-0.6,1.9-0.7
		c0.8-0.1,1.7-0.2,2.8-0.2c1.3,0,2.3,0.1,3,0.2c0.7,0.1,1.2,0.4,1.6,0.9c0.3,0.5,0.5,1.1,0.6,2s0.1,2.1,0.1,3.6c0,1.8,0,4,0,6.6
		s0,5.1,0.1,7.6h0.8c1-2,2.1-4.1,3.3-6.6c1.2-2.4,2.6-4.7,4.2-6.8c1.6-2.1,3.4-3.9,5.5-5.3s4.4-2.2,7.1-2.2c0.9,0,1.8,0.2,2.7,0.5
		s1.6,0.8,2.3,1.4c0.7,0.6,1.2,1.3,1.6,2.2c0.4,0.9,0.6,1.8,0.6,2.9c0,0.8-0.1,2-0.4,3.5c-0.2,1.5-0.5,3.1-0.8,4.7s-0.6,3.2-0.8,4.8
		c-0.2,1.5-0.4,2.8-0.4,3.8c0,1.8,0.2,3.2,0.5,4.4s0.8,2.1,1.4,2.8c0.6,0.7,1.2,1.2,1.9,1.5s1.5,0.4,2.2,0.4c2.2,0,4.5-0.5,6.8-1.5
		s4.5-2.1,6.4-3.3c2.3-1.4,4.5-3,6.7-4.8l-1,17.1c-1.3,0.8-2.7,1.8-4.3,2.8s-3.3,2-5.2,2.9c-1.8,0.9-3.7,1.7-5.7,2.3s-4,0.9-6,0.9
		c-3.7,0-6.6-0.7-8.9-2.2c-2.2-1.5-4-3.4-5.3-5.9c-1.3-2.4-2.3-5.1-2.9-8.1c-0.6-3-1.1-6-1.5-9.1H202l-13.1,36.5
		c-0.7,1.9-1.3,3.5-1.9,4.7c-0.6,1.2-1.2,2.3-1.9,3c-0.6,0.8-1.3,1.3-2.1,1.6c-0.7,0.3-1.5,0.5-2.4,0.5c-2,0-3.6-0.4-4.8-1.3
		s-2.2-2-2.8-3.4c-0.7-1.4-1.1-3.1-1.3-4.9C171.3,67.8,171.2,65.9,171.2,63.9z"/>
	<path class="st0" d="M264.7,71.5c-2.6,2.3-5.4,4.2-8.2,5.7c-2.9,1.4-5.6,2.2-8.3,2.2c-2.3,0-4.6-0.5-6.8-1.4
		c-2.2-1-4.2-2.3-5.9-4.1c-1.7-1.8-3.1-4-4.1-6.5s-1.5-5.5-1.5-8.7c0-3.7,0.5-7.4,1.5-11.3s2.4-7.6,4.2-11.3s3.9-7.2,6.4-10.4
		c2.5-3.3,5.2-6.1,8.1-8.6c2.9-2.4,6-4.4,9.3-5.8c3.2-1.4,6.6-2.2,9.9-2.2c1.1,0,2,0.2,2.6,0.7c0.6,0.4,1.2,0.9,1.6,1.5
		s0.8,1.1,1.2,1.6c0.4,0.5,0.9,0.9,1.5,1.2c0.6,0.2,1.2,0.4,1.8,0.5c0.6,0.1,1.2,0.1,1.9,0.1c0.5,0,1.1,0,1.6,0c0.6,0,1.1,0,1.6,0
		c0.7,0,1.4,0.1,2.1,0.2c0.6,0.1,1.2,0.5,1.7,1c0.5,0.5,0.9,1.2,1.1,2.1c0.3,0.9,0.4,2.1,0.4,3.6c0,1.3-0.1,3-0.3,5.1
		c-0.2,2.1-0.5,4.5-0.8,7.2c-0.3,2.6-0.7,5.4-1.1,8.4s-0.8,5.8-1.3,8.7c-1,6.7-2.2,13.9-3.5,21.6c1.5-0.8,3.1-1.9,4.8-3.1
		c1.7-1.2,3.6-2.9,5.7-4.9c2.1-2.1,4.4-4.6,7-7.7c2.6-3.1,5.5-7,8.7-11.6l3.5,16.3c-0.9,1.5-2,3.1-3.4,4.7s-2.9,3.2-4.6,4.8
		c-1.7,1.6-3.4,3.1-5.3,4.6c-1.8,1.5-3.6,2.9-5.4,4.2c-4.2,3.1-8.6,6.2-13.4,9.1c-0.9,5.2-2,10.3-3.3,15.3s-2.8,9.6-4.5,13.9
		s-3.7,8.3-5.9,11.9c-2.2,3.6-4.7,6.7-7.5,9.3c-2.8,2.6-5.9,4.6-9.4,6s-7.3,2.2-11.5,2.2c-1.7,0-3.5-0.2-5.4-0.5s-3.7-1-5.3-2.1
		c-1.6-1-3-2.5-4.1-4.4s-1.6-4.4-1.6-7.6c0-2.2,0.6-4.7,1.7-7.4c1.1-2.8,2.7-5.7,4.6-8.7c2-3.1,4.3-6.2,7-9.5s5.6-6.6,8.8-9.9
		c3.1-3.3,6.4-6.5,9.9-9.7c3.4-3.2,6.9-6.2,10.4-9.1L264.7,71.5z M237.7,133.1c2.1,0,4-0.6,5.8-1.8s3.5-2.8,5.1-4.7
		c1.5-2,2.9-4.2,4.2-6.7s2.4-5,3.4-7.7c1-2.6,1.8-5.2,2.5-7.7s1.2-4.7,1.6-6.7c-1.9,1.3-3.8,2.8-5.8,4.5c-2,1.8-3.9,3.6-5.8,5.7
		c-1.9,2-3.7,4.1-5.3,6.3c-1.7,2.1-3.2,4.2-4.4,6.2c-1.3,2-2.3,3.8-3,5.5s-1.1,3.1-1.1,4.2C234.8,132.2,235.7,133.1,237.7,133.1z
		 M248.5,55.5c0,1.2,0.1,2.4,0.3,3.6c0.2,1.1,0.5,2.2,0.9,3.1c0.4,0.9,1,1.6,1.8,2.2c0.7,0.6,1.7,0.8,2.8,0.8c1.8,0,3.4-0.8,4.9-2.3
		c1.5-1.6,2.7-3.4,3.8-5.6c1.1-2.2,1.9-4.5,2.6-6.8s1.1-4.3,1.3-5.9l4.5-21.5c-2,0-4,0.5-5.9,1.5s-3.7,2.4-5.4,4.1
		c-1.7,1.7-3.2,3.7-4.7,5.9c-1.4,2.2-2.6,4.5-3.7,6.9c-1,2.4-1.8,4.8-2.4,7.3C248.8,51,248.5,53.3,248.5,55.5z"/>
	<path class="st0" d="M379,61.3c-1.1,1.6-2.6,3.4-4.5,5.5c-1.9,2.1-4,4.1-6.3,6s-4.9,3.5-7.5,4.8c-2.7,1.3-5.4,2-8.1,2
		c-3.2,0-5.9-1-8.1-3.1c-2.1-2.1-4-5.1-5.6-9c-1.2,1.4-2.6,2.8-4.3,4.2c-1.7,1.4-3.6,2.7-5.6,3.8c-2,1.1-4.1,2.1-6.3,2.8
		c-2.2,0.7-4.4,1.1-6.6,1.1c-2.3,0-4.6-0.5-6.8-1.4c-2.2-1-4.2-2.3-5.9-4.1c-1.7-1.8-3.1-4-4.1-6.5c-1-2.6-1.5-5.5-1.5-8.7
		c0-3.7,0.5-7.4,1.5-11.3s2.4-7.6,4.2-11.3c1.8-3.7,3.9-7.2,6.4-10.4c2.5-3.3,5.2-6.1,8.1-8.6c2.9-2.4,6-4.4,9.3-5.8
		c3.2-1.4,6.6-2.2,9.9-2.2c1.1,0,2,0.2,2.6,0.7c0.6,0.4,1.2,0.9,1.6,1.5s0.8,1.1,1.2,1.6c0.4,0.5,0.9,0.9,1.5,1.2
		c0.6,0.2,1.2,0.4,1.8,0.5c0.6,0.1,1.2,0.1,1.9,0.1c0.5,0,1.1,0,1.6,0c0.6,0,1.1,0,1.6,0c0.7,0,1.4,0.1,2.1,0.2
		c0.6,0.1,1.2,0.5,1.7,1c0.5,0.5,0.9,1.2,1.1,2.1c0.3,0.9,0.4,2.1,0.4,3.6c0,2.3-0.2,4.9-0.7,7.8s-1,5.8-1.6,8.8s-1.1,6-1.6,9
		s-0.7,5.8-0.7,8.5c0,2.3,0.2,4.1,0.6,5.4c0.4,1.3,1.3,1.9,2.7,1.9c1,0,2.1-0.3,3.2-0.8s2.3-1.2,3.4-2s2.3-1.8,3.4-2.8
		s2.2-2.1,3.3-3.3c2.4-2.6,4.8-5.6,7.3-8.9L379,61.3z M316.5,55.5c0,1.2,0.1,2.4,0.3,3.6c0.2,1.1,0.5,2.2,0.9,3.1
		c0.4,0.9,1,1.6,1.8,2.2c0.7,0.6,1.7,0.8,2.8,0.8c1.8,0,3.4-0.8,4.9-2.3c1.5-1.6,2.7-3.4,3.8-5.6c1.1-2.2,1.9-4.5,2.6-6.8
		s1.1-4.3,1.3-5.9l4.5-21.5c-2,0-4,0.5-5.9,1.5s-3.7,2.4-5.4,4.1c-1.7,1.7-3.2,3.7-4.7,5.9c-1.4,2.2-2.6,4.5-3.7,6.9
		c-1,2.4-1.8,4.8-2.4,7.3C316.8,51,316.5,53.3,316.5,55.5z"/>
	<path class="st0" d="M443.1,54.5c0-2.2,0.7-4.2,1.8-5.9l-0.1-1.3c-2.8,2.9-5.5,5.5-8.1,7.8c-1.1,1-2.3,1.9-3.4,2.9
		c-1.1,0.9-2.3,1.7-3.4,2.5c-1.1,0.7-2.1,1.3-3.1,1.7s-1.8,0.7-2.5,0.7c-1.6,0-2.8-1-3.6-2.9c-0.8-2-1.1-4.4-1.1-7.5
		c0-1.8,0.1-3.8,0.3-5.9c0.2-2.1,0.5-4.3,0.8-6.5s0.7-4.3,1.1-6.4s0.8-4,1.1-5.8c0.3-1.8,0.6-3.3,0.8-4.5c0.2-1.3,0.3-2.2,0.3-2.7
		c0-3.6-0.7-6.4-2.2-8.5c-1.4-2.1-3.4-3.1-5.8-3.1s-4.7,0.5-6.7,1.5s-3.8,2.8-5.3,5.4c-0.3,0.6-0.9,1.5-1.5,2.7
		c-0.7,1.2-1.4,2.6-2.3,4.2c-0.8,1.6-1.7,3.2-2.7,5c-1,1.7-1.8,3.4-2.7,4.9c-0.8,1.6-1.6,2.9-2.2,4.1c-0.6,1.2-1.1,2.1-1.4,2.6H390
		c0-0.3,0.1-1,0.2-2s0.3-2.2,0.5-3.5s0.5-2.8,0.7-4.4s0.5-3.1,0.7-4.6s0.4-2.9,0.5-4.1s0.2-2.2,0.2-3c0-2.7-0.5-4.8-1.5-6.4
		s-2.9-2.4-5.5-2.4s-4.7,0.8-6.3,2.3c-1.5,1.5-2.6,3.4-3.1,5.6c-0.7,2.9-1.4,6.3-2.1,10.4s-1.4,8.3-2,12.6
		c-0.6,4.4-1.1,8.7-1.5,12.9s-0.6,7.9-0.6,11.2c0,2,0.1,3.8,0.3,5.7c0.2,1.8,0.7,3.5,1.3,4.9c0.7,1.4,1.6,2.6,2.8,3.4
		c1.2,0.9,2.8,1.3,4.8,1.3c1.6,0,3-0.4,4.2-1.1s2.3-2.1,3.3-4.1l19.2-38.1h1.2c-0.6,3.9-1.1,7.6-1.5,10.9c-0.4,3.4-0.6,6.6-0.6,9.5
		c0,7.5,0.9,13.1,2.7,17c1.8,3.9,4.1,5.8,6.8,5.8c2.7,0,5.2-0.4,7.7-1.1c2.4-0.8,4.8-1.7,7-2.9c2.2-1.2,4.4-2.6,6.5-4.1
		s4.1-3,6.1-4.5l3.7-2.8l-0.2-2.1C444.2,59.8,443.1,57.3,443.1,54.5z"/>
	<g>
		<path class="st1" d="M372.9,95.7v2.5h0.1c0.5-0.9,1.1-1.7,1.9-2.2s1.8-0.8,3-0.8c1,0,1.9,0.2,2.7,0.7c0.8,0.5,1.3,1.2,1.6,2.2
			c0.4-1,1.1-1.7,2-2.2s1.8-0.7,2.8-0.7c3.3,0,5,1.8,5,5.2v10.2h-2v-10.1c0-1.2-0.3-2.2-0.8-2.8c-0.5-0.6-1.4-1-2.8-1
			c-0.8,0-1.5,0.2-2,0.5s-0.9,0.7-1.2,1.2c-0.3,0.5-0.5,1.1-0.7,1.7c-0.1,0.6-0.2,1.3-0.2,2v8.5h-1.8v-10.2c0-0.5-0.1-1-0.2-1.4
			c-0.1-0.5-0.3-0.8-0.5-1.2c-0.2-0.3-0.6-0.6-1-0.8c-0.4-0.2-0.9-0.3-1.5-0.3c-0.8,0-1.4,0.1-2,0.4s-1,0.7-1.4,1.2
			s-0.6,1.1-0.8,1.7c-0.2,0.7-0.3,1.4-0.3,2.2v8.4H371v-15h1.9V95.7z"/>
		<path class="st1" d="M396.7,105.7c0.2,0.7,0.5,1.3,0.9,1.9s0.9,1,1.5,1.4s1.4,0.6,2.2,0.6c1.3,0,2.4-0.3,3.1-1
			c0.8-0.7,1.3-1.6,1.6-2.8h1.8c-0.4,1.7-1.1,3-2.1,3.9s-2.5,1.4-4.4,1.4c-1.2,0-2.2-0.2-3.1-0.6s-1.6-1-2.1-1.7s-0.9-1.6-1.2-2.5
			c-0.3-1-0.4-2-0.4-3s0.1-2,0.4-2.9s0.7-1.8,1.2-2.5s1.2-1.3,2.1-1.8s1.9-0.7,3.1-0.7s2.2,0.2,3.1,0.7s1.5,1.1,2.1,1.9
			c0.5,0.8,0.9,1.7,1.1,2.7s0.3,2,0.3,3.1h-11.5C396.4,104.3,396.5,105,396.7,105.7z M405.7,100.1c-0.2-0.6-0.5-1.2-0.9-1.7
			s-0.9-0.9-1.5-1.2c-0.6-0.3-1.2-0.5-2-0.5s-1.4,0.2-2,0.5s-1.1,0.7-1.5,1.2s-0.7,1.1-1,1.7c-0.2,0.6-0.4,1.3-0.5,2h9.7
			C406.1,101.4,405.9,100.8,405.7,100.1z"/>
		<path class="st1" d="M421.9,110.7v-2.8h-0.1c-0.2,0.5-0.5,0.9-0.9,1.3s-0.8,0.7-1.3,1s-1,0.5-1.6,0.7s-1.1,0.2-1.6,0.2
			c-1.1,0-2.1-0.2-3-0.6c-0.8-0.4-1.5-1-2.1-1.7s-1-1.6-1.2-2.5c-0.3-1-0.4-2-0.4-3c0-1.1,0.1-2.1,0.4-3c0.3-1,0.7-1.8,1.2-2.5
			c0.6-0.7,1.3-1.3,2.1-1.7c0.8-0.4,1.8-0.6,3-0.6c0.6,0,1.1,0.1,1.6,0.2s1,0.3,1.5,0.6c0.5,0.3,0.9,0.6,1.2,1
			c0.4,0.4,0.6,0.9,0.8,1.4h0.1V90h1.8v20.7H421.9z M411.8,105.5c0.2,0.8,0.5,1.4,0.9,2s0.9,1.1,1.5,1.5s1.4,0.6,2.2,0.6
			c1,0,1.8-0.2,2.5-0.6s1.2-0.9,1.6-1.5s0.7-1.3,0.9-2c0.2-0.8,0.3-1.5,0.3-2.3s-0.1-1.5-0.3-2.3c-0.2-0.8-0.5-1.4-0.9-2
			s-1-1.1-1.6-1.5c-0.7-0.4-1.5-0.6-2.5-0.6c-0.9,0-1.6,0.2-2.2,0.6s-1.1,0.9-1.5,1.5s-0.7,1.3-0.9,2c-0.2,0.8-0.3,1.5-0.3,2.3
			C411.6,104,411.7,104.7,411.8,105.5z"/>
		<path class="st1" d="M428.9,90v2.9h-1.8V90H428.9z M428.9,95.7v15h-1.8v-15H428.9z"/>
		<path class="st1" d="M432.8,98c0.3-0.6,0.7-1.2,1.3-1.6c0.5-0.4,1.2-0.7,1.9-0.9c0.7-0.2,1.5-0.3,2.4-0.3c0.7,0,1.3,0.1,2,0.2
			s1.2,0.4,1.8,0.7c0.5,0.3,0.9,0.8,1.3,1.5c0.3,0.6,0.5,1.4,0.5,2.5v7.9c0,0.7,0.4,1.1,1.1,1.1c0.2,0,0.4,0,0.6-0.1v1.5
			c-0.2,0-0.4,0.1-0.6,0.1s-0.4,0-0.6,0c-0.5,0-0.8-0.1-1.1-0.2s-0.5-0.3-0.7-0.5s-0.3-0.5-0.3-0.8s-0.1-0.7-0.1-1.1H442
			c-0.3,0.5-0.7,0.9-1,1.3s-0.7,0.7-1.1,0.9c-0.4,0.3-0.9,0.4-1.4,0.6c-0.5,0.1-1.2,0.2-1.9,0.2c-0.7,0-1.3-0.1-2-0.2
			c-0.6-0.2-1.1-0.4-1.6-0.8s-0.8-0.8-1.1-1.4c-0.3-0.6-0.4-1.2-0.4-2c0-1,0.2-1.9,0.7-2.5s1.1-1,1.8-1.3c0.8-0.3,1.6-0.5,2.6-0.7
			c1-0.1,1.9-0.2,2.9-0.4c0.4,0,0.7-0.1,1-0.1c0.3-0.1,0.5-0.2,0.7-0.3c0.2-0.1,0.3-0.3,0.4-0.6c0.1-0.3,0.2-0.6,0.2-1
			c0-0.6-0.1-1.1-0.3-1.5c-0.2-0.4-0.5-0.7-0.8-0.9c-0.4-0.2-0.8-0.4-1.2-0.5c-0.5-0.1-1-0.1-1.5-0.1c-1.2,0-2.1,0.3-2.8,0.8
			c-0.7,0.6-1.1,1.4-1.2,2.7h-1.8C432.3,99.4,432.5,98.7,432.8,98z M441.9,102.5c-0.1,0.2-0.3,0.4-0.7,0.5c-0.3,0.1-0.6,0.2-0.9,0.2
			c-0.8,0.1-1.6,0.3-2.4,0.4s-1.6,0.3-2.2,0.5c-0.7,0.2-1.2,0.5-1.7,0.9c-0.4,0.4-0.7,1-0.7,1.7c0,0.5,0.1,0.9,0.3,1.2
			s0.4,0.7,0.7,0.9c0.3,0.3,0.7,0.5,1.1,0.6s0.8,0.2,1.2,0.2c0.7,0,1.4-0.1,2-0.3c0.6-0.2,1.2-0.5,1.7-0.9s0.9-0.9,1.1-1.5
			c0.3-0.6,0.4-1.2,0.4-2L441.9,102.5L441.9,102.5z"/>
	</g>
	<circle class="st2" cx="457.3" cy="54.2" r="10.7"/>
</g>
</svg>
