<svg width="297" height="34" viewBox="0 0 297 34" fill="none" xmlns="http://www.w3.org/2000/svg">
<g clip-path="url(#clip0_910_754)">
<mask id="mask0_910_754" style="mask-type:luminance" maskUnits="userSpaceOnUse" x="0" y="0" width="297" height="35">
<path d="M296.301 0.00634766H0.300781V34.0063H296.301V0.00634766Z" fill="white"/>
</mask>
<g mask="url(#mask0_910_754)">
<path d="M4.37848 27.7491C2.12632 27.7491 0.300781 25.9444 0.300781 23.7179C0.300781 21.4915 2.12632 19.6868 4.37848 19.6868C6.63063 19.6868 8.45617 21.4915 8.45617 23.7179C8.45617 25.9444 6.63063 27.7491 4.37848 27.7491Z" fill="#F5A800"/>
<path d="M4.37848 13.8802C2.12632 13.8802 0.300781 12.0755 0.300781 9.84903C0.300781 7.62257 2.12632 5.81787 4.37848 5.81787C6.63063 5.81787 8.45617 7.62257 8.45617 9.84903C8.45617 12.0755 6.63063 13.8802 4.37848 13.8802Z" fill="#6BC4E8"/>
<path d="M127.543 0.879274C127.072 0.310401 126.452 0.00634766 125.748 0.00634766H108.678V22.8594C108.678 26.5914 109.69 29.3426 111.679 31.0394C113.638 32.7117 116.521 33.5552 120.256 33.5552H122.588C123.307 33.5552 123.932 33.256 124.398 32.6921C124.83 32.1624 125.053 31.5347 125.053 30.8236C125.053 30.1125 124.835 29.4848 124.398 28.9551C123.942 28.401 123.327 28.1018 122.607 28.0969H120.256C118.083 28.0969 116.58 27.7193 115.791 26.9788C115.013 26.2432 114.616 24.8602 114.616 22.8594V5.43517H125.752C126.467 5.43517 127.087 5.14092 127.548 4.58186C127.975 4.06202 128.193 3.4392 128.193 2.73302C128.193 2.02683 127.975 1.40401 127.548 0.884178" fill="#323E48"/>
<path d="M245.419 1.20345C244.958 0.639481 244.343 0.340332 243.648 0.340332H226.797V22.8991C226.797 26.5821 227.794 29.3038 229.758 30.9761C231.688 32.6239 234.541 33.4625 238.226 33.4625H240.528C241.237 33.4625 241.858 33.1683 242.314 32.6092C242.741 32.0894 242.959 31.4665 242.959 30.7653C242.959 30.064 242.741 29.4461 242.314 28.9213C241.863 28.3721 241.257 28.0778 240.548 28.0729H238.231C236.088 28.0729 234.605 27.7002 233.821 26.9646C233.052 26.2388 232.66 24.8706 232.66 22.8991V5.70049H243.653C244.358 5.70049 244.973 5.40625 245.424 4.85699C245.846 4.34206 246.064 3.72415 246.064 3.02777C246.064 2.33139 245.851 1.71838 245.429 1.20345" fill="#323E48"/>
<path d="M40.0216 3.86096C38.7864 2.66436 37.318 1.71297 35.6562 1.0313C33.9944 0.349633 32.2135 0.00634766 30.3631 0.00634766H30.2887C28.4433 0.00634766 26.6624 0.349633 25.0006 1.0313C23.3388 1.71297 21.8704 2.66436 20.6402 3.86096C19.4049 5.05755 18.4178 6.46012 17.7084 8.03433C16.994 9.61835 16.627 11.3054 16.627 13.0512V31.1816C16.627 32.491 17.7034 33.5601 19.0329 33.5601H20.0945C21.419 33.5601 22.5004 32.4959 22.5004 31.1816V12.5706C22.5054 11.5898 22.7137 10.6482 23.1255 9.77037C23.5372 8.88274 24.1077 8.09808 24.8121 7.44584C25.5165 6.7936 26.3499 6.26886 27.2925 5.89125C28.2251 5.51363 29.2519 5.32237 30.3383 5.32237C31.4247 5.32237 32.4466 5.51363 33.3842 5.89125C34.3267 6.27376 35.1601 6.7936 35.8645 7.45074C36.569 8.10299 37.1345 8.88274 37.5512 9.77528C37.9629 10.6531 38.1713 11.5996 38.1713 12.5755V31.1865C38.1762 32.4959 39.2527 33.565 40.5822 33.565H41.6438C42.9683 33.565 44.0497 32.5008 44.0497 31.1865V13.0512C44.0497 11.3054 43.6876 9.61835 42.9683 8.03433C42.2589 6.46012 41.2717 5.05755 40.0365 3.86096" fill="#323E48"/>
<path d="M167.357 16.8621C167.357 14.5719 166.936 12.4582 166.107 10.4819C165.279 8.50553 164.123 6.76458 162.669 5.29826C161.216 3.83194 159.509 2.65987 157.595 1.81146C155.675 0.963053 153.631 0.531494 151.508 0.531494H143.174C141.393 0.531494 139.944 1.96349 139.944 3.72405C139.944 5.48462 141.393 6.91171 143.169 6.91661H151.88C153.294 6.92642 154.583 7.18633 155.719 7.69636C156.88 8.22109 157.907 8.94199 158.755 9.84435C159.599 10.7369 160.278 11.7864 160.769 12.9781C161.256 14.1599 161.504 15.4546 161.504 16.8229C161.504 18.1911 161.256 19.4858 160.769 20.6677C160.278 21.8544 159.604 22.9088 158.755 23.8014C157.907 24.6988 156.88 25.4197 155.719 25.9444C154.583 26.4594 153.294 26.7193 151.885 26.7193H143.164C141.383 26.7242 139.939 28.1562 139.939 29.9168C139.939 31.6773 141.388 33.1044 143.169 33.1044H151.503C153.621 33.1044 155.67 32.6728 157.585 31.8244C159.499 30.9809 161.206 29.804 162.659 28.3425C164.118 26.8762 165.274 25.1304 166.102 23.154C166.931 21.1777 167.352 19.064 167.352 16.8621" fill="#323E48"/>
<path d="M206.383 17.0533C204.607 17.0533 203.159 18.4853 203.154 20.241V26.7193H197.509C196.1 26.7193 194.81 26.4594 193.669 25.9444C192.503 25.4197 191.486 24.6988 190.633 23.7965C189.785 22.9039 189.11 21.8495 188.619 20.6628C188.133 19.4858 187.885 18.1911 187.885 16.8179C187.885 15.4448 188.133 14.1501 188.619 12.9732C189.11 11.7864 189.785 10.732 190.633 9.83944C191.486 8.94199 192.508 8.21619 193.669 7.69636C194.805 7.18143 196.095 6.92151 197.504 6.92151H206.22C207.995 6.91661 209.444 5.48462 209.444 3.72405C209.444 1.96349 207.995 0.531494 206.215 0.531494H197.881C195.762 0.531494 193.714 0.963053 191.794 1.81146C189.879 2.65987 188.172 3.83194 186.719 5.29336C185.266 6.75968 184.105 8.50553 183.276 10.4819C182.448 12.4582 182.031 14.5768 182.031 16.7738C182.031 18.9708 182.453 21.1777 183.276 23.154C184.105 25.1304 185.261 26.8713 186.719 28.3376C188.172 29.804 189.884 30.976 191.794 31.8244C193.714 32.6728 195.762 33.1044 197.881 33.1044H206.869C208.005 33.1044 209.017 32.3443 209.33 31.2556C209.399 31.0104 209.434 30.7946 209.439 30.5886C209.553 29.75 209.608 29.0978 209.608 28.4848V20.2459C209.608 18.4853 208.159 17.0533 206.378 17.0533" fill="#323E48"/>
<path d="M104.619 29.8334C104.619 29.8334 104.614 29.8138 104.609 29.804C104.595 29.7648 104.58 29.7255 104.56 29.6814C104.495 29.5147 104.416 29.3528 104.307 29.2008L95.1989 16.6463L104.108 4.4597C104.133 4.42047 104.153 4.38614 104.178 4.34691L104.213 4.30767C104.649 3.68976 104.763 2.97376 104.54 2.23815C104.332 1.55158 103.905 0.987611 103.265 0.56586C102.63 0.144109 101.936 -0.0422464 101.201 0.0116985C100.398 0.0754515 99.7479 0.43345 99.3163 1.04156L99.3014 1.07098C99.227 1.14945 99.1576 1.23282 99.0981 1.32599L91.3544 12.3209L83.6107 1.32599C83.5512 1.23772 83.4818 1.15435 83.4074 1.07098L83.3925 1.04156C82.9609 0.43345 82.311 0.0754515 81.5074 0.0116985C80.7732 -0.0422464 80.0787 0.139205 79.4438 0.56586C78.8038 0.992515 78.3772 1.55158 78.1689 2.23815C77.9456 2.97376 78.0597 3.68976 78.4963 4.30767L78.531 4.34691C78.5558 4.38614 78.5707 4.42047 78.6004 4.4597L87.5099 16.6463L78.402 29.2008C78.2929 29.3479 78.2135 29.5098 78.149 29.6814C78.1292 29.7206 78.1143 29.7599 78.0994 29.804C78.0994 29.8138 78.0944 29.8236 78.0895 29.8334C77.9208 30.3042 77.9059 30.8093 78.0647 31.3243C78.273 32.0108 78.6997 32.5748 79.3396 32.9966C79.9746 33.4183 80.6691 33.6047 81.4032 33.5507C82.2069 33.487 82.8567 33.129 83.2883 32.5209L83.3032 32.4914C83.3429 32.4375 83.3826 32.3835 83.4173 32.3345L91.3544 21.0993L99.2915 32.3345C99.3262 32.3884 99.3659 32.4375 99.4056 32.4914L99.4255 32.5209C99.857 33.129 100.507 33.487 101.311 33.5507C102.045 33.6047 102.739 33.4183 103.374 32.9966C104.009 32.5699 104.441 32.0108 104.649 31.3243C104.808 30.8093 104.793 30.3042 104.624 29.8334" fill="#323E48"/>
<path d="M53.772 12.4137C53.772 11.4476 53.9754 10.5207 54.3822 9.65268C54.789 8.77485 55.3495 8.00491 56.044 7.36247C56.7385 6.72004 57.562 6.20511 58.4897 5.82749C59.4123 5.45478 60.4194 5.26843 61.4909 5.26843C62.6418 5.26843 63.7033 5.4744 64.6409 5.88144C65.5835 6.29338 66.402 6.85735 67.0766 7.55863C67.7562 8.26482 68.2821 9.06909 68.6541 9.95183C69.0212 10.8248 69.2048 11.7418 69.2048 12.6736C69.2048 13.2768 69.0857 13.6985 68.8724 13.831C68.7236 13.9241 68.1977 14.1399 66.5607 14.1399H53.777V12.4186L53.772 12.4137ZM68.1283 19.2451C68.8625 19.2451 69.6016 19.2107 70.3358 19.1421C71.1692 19.0636 71.9133 18.8135 72.5483 18.3967C73.1932 17.97 73.719 17.3374 74.1109 16.5135C74.5326 15.6258 74.6814 13.9879 74.6814 12.7521C74.6814 10.8934 74.3093 9.15736 73.5801 7.59296C72.8509 6.03837 71.8736 4.68484 70.6781 3.57162C69.4826 2.45839 68.0638 1.57565 66.4714 0.947931C64.8691 0.325113 63.1825 0.00634766 61.4462 0.00634766C59.6207 0.00634766 57.8646 0.344729 56.2226 1.02149C54.5806 1.69335 53.1321 2.63494 51.9167 3.81682C50.6964 4.9987 49.7241 6.38165 49.0197 7.93625C48.3103 9.49575 47.9531 11.1631 47.9531 12.8894V20.2847C47.9531 22.2758 48.3351 24.1099 49.0891 25.7381C49.8382 27.3662 50.8998 28.7786 52.2441 29.9458C53.5786 31.1031 55.1908 32.0055 57.0312 32.6283C58.8567 33.2462 60.8807 33.5601 63.0485 33.5601C64.6558 33.5601 66.1192 33.3786 67.404 33.0746C70.5144 32.3439 72.9005 30.6667 72.9005 30.6667C73.8827 30.0144 74.354 28.7492 73.7587 27.6997L73.2825 26.8562C72.6921 25.8018 71.3428 25.4242 70.2812 26.0078L67.786 27.376C67.3395 27.5918 66.8187 27.7929 66.2283 27.9792C65.4545 28.2195 64.4326 28.3421 63.1775 28.3421C60.4243 28.3421 58.1325 27.6212 56.3615 26.1941C54.6104 24.7867 53.7621 22.9182 53.7621 20.4858V19.25H68.1184L68.1283 19.2451Z" fill="#323E48"/>
<path d="M269.82 21.3735C269.82 22.3396 269.617 23.2664 269.21 24.1344C268.804 25.0123 268.243 25.7822 267.548 26.4247C266.854 27.0671 266.031 27.582 265.103 27.9596C264.18 28.3323 263.173 28.5187 262.102 28.5187C260.951 28.5187 259.889 28.3127 258.952 27.9057C258.009 27.4937 257.191 26.9298 256.516 26.2285C255.836 25.5223 255.305 24.718 254.938 23.8353C254.571 22.9624 254.388 22.0453 254.388 21.1135C254.388 20.5103 254.507 20.0886 254.72 19.9562C254.869 19.863 255.395 19.6472 257.032 19.6472H269.82V21.3685V21.3735ZM255.464 14.5421C254.73 14.5421 253.991 14.5764 253.257 14.6451C252.423 14.7235 251.679 14.9736 251.044 15.3905C250.399 15.8171 249.874 16.4498 249.482 17.2736C249.06 18.1613 248.911 19.7992 248.911 21.0351C248.911 22.8937 249.283 24.6298 250.012 26.1942C250.742 27.7488 251.719 29.1023 252.914 30.2155C254.11 31.3287 255.529 32.2115 257.121 32.8392C258.713 33.4669 260.4 33.7808 262.136 33.7808C263.962 33.7808 265.718 33.4424 267.36 32.7656C269.002 32.0938 270.451 31.1522 271.666 29.9703C272.886 28.7884 273.858 27.4055 274.563 25.8509C275.272 24.2865 275.629 22.624 275.629 20.8978V13.5024C275.629 11.5113 275.247 9.67722 274.493 8.04906C273.739 6.42091 272.678 5.00363 271.338 3.84136C270.004 2.684 268.392 1.78164 266.546 1.15883C264.721 0.540912 262.697 0.227051 260.529 0.227051C258.922 0.227051 257.458 0.408502 256.174 0.712555C253.063 1.44326 250.677 3.12046 250.677 3.12046C249.695 3.7727 249.224 5.03795 249.819 6.08743L250.29 6.93093C250.881 7.98531 252.23 8.36292 253.291 7.77934L255.787 6.4111C256.233 6.19532 256.754 5.99425 257.344 5.8079C258.113 5.5676 259.14 5.44499 260.395 5.44499C263.148 5.44499 265.44 6.16589 267.211 7.59298C268.962 9.00045 269.811 10.8689 269.811 13.3013V14.5323H255.454L255.464 14.5421Z" fill="#323E48"/>
<path d="M279.395 0.00634766V22.9525C279.395 26.8072 280.436 29.6515 282.495 31.4072C284.519 33.1334 287.5 34.0063 291.355 34.0063H293.761C294.505 34.0063 295.15 33.6974 295.631 33.1138C296.077 32.5695 296.306 31.9221 296.306 31.1865C296.306 30.4509 296.077 29.8035 295.631 29.2543C295.16 28.6805 294.525 28.3716 293.781 28.3667H291.355C289.113 28.3667 287.56 27.9792 286.741 27.2093C285.933 26.4492 285.526 25.0221 285.526 22.9575V0.00634766H279.395Z" fill="#323E48"/>
<path d="M178.216 29.6466V3.03707C178.216 1.36478 176.842 0.00634766 175.151 0.00634766C173.459 0.00634766 172.085 1.36478 172.085 3.03707V29.6466C172.085 31.7652 173.459 33.4816 175.151 33.4816C176.842 33.4816 178.216 31.7652 178.216 29.6466Z" fill="#323E48"/>
<path d="M220.606 29.6466V3.03707C220.606 1.36478 219.232 0.00634766 217.54 0.00634766C215.849 0.00634766 214.475 1.36478 214.475 3.03707V29.6466C214.475 31.7652 215.849 33.4816 217.54 33.4816C219.232 33.4816 220.606 31.7652 220.606 29.6466Z" fill="#323E48"/>
</g>
</g>
<defs>
<clipPath id="clip0_910_754">
<rect width="296" height="34" fill="white" transform="translate(0.300781 0.00634766)"/>
</clipPath>
</defs>
</svg>
