<?xml version="1.0" encoding="UTF-8"?>
<svg width="224px" height="236px" viewBox="0 0 224 236" version="1.1" xmlns="http://www.w3.org/2000/svg" xmlns:xlink="http://www.w3.org/1999/xlink">
    <!-- Generator: Sketch 43.1 (39012) - http://www.bohemiancoding.com/sketch -->
    <title>Group 4</title>
    <desc>Created with Sketch.</desc>
    <defs>
        <ellipse id="path-1" cx="110" cy="110.461152" rx="109.392265" ry="109.319372"></ellipse>
    </defs>
    <g id="Page-1" stroke="none" stroke-width="1" fill="none" fill-rule="evenodd">
        <g id="Website" transform="translate(-250.000000, -4738.000000)">
            <g id="Ponentes" transform="translate(1.000000, 1844.000000)">
                <g id="Group-19" transform="translate(251.000000, 2896.000000)">
                    <g id="Group-4">
                        <ellipse id="Oval" fill="#E5DBC8" fill-rule="nonzero" cx="110" cy="122.607749" rx="109.392265" ry="109.319372"></ellipse>
                        <g id="Group" transform="translate(0.000000, 12.146597)">
                            <mask id="mask-2" fill="white">
                                <use xlink:href="#path-1"></use>
                            </mask>
                            <use id="Mask" fill="#E5DBC8" fill-rule="nonzero" xlink:href="#path-1"></use>
                            <g mask="url(#mask-2)">
                                <g transform="translate(17.016575, 115.392670)">
                                    <ellipse id="Oval" stroke="none" fill="#CDDEB8" fill-rule="nonzero" cx="92.4923757" cy="104.57734" rx="92.4923757" ry="92.4307435"></ellipse>
                                    <ellipse id="Oval" stroke="#6C5353" stroke-width="3.64640884" fill="none" cx="92.9834254" cy="104.387853" rx="92.4923757" ry="92.4307435"></ellipse>
                                    <g id="Group-3" stroke="none" stroke-width="1" fill="none" fill-rule="evenodd" transform="translate(60.773481, 0.000000)">
                                        <polygon id="Shape" fill="#B9CAA2" fill-rule="nonzero" points="54.5016575 5.34571728 10.4846409 5.34571728 25.0569061 29.7907435 39.9293923 29.7907435"></polygon>
                                        <polygon id="Shape" stroke="#6C5353" stroke-width="3.64640884" stroke-linejoin="round" points="54.5016575 5.34571728 10.4846409 5.34571728 25.0569061 29.7907435 39.9293923 29.7907435"></polygon>
                                        <path d="M32.2646409,41.3992461 L32.2646409,41.3992461 C25.5516022,41.3992461 20.1099448,35.9612147 20.1099448,29.2526492 L20.1099448,0.0996020942 L44.419337,0.0996020942 L44.419337,29.2526492 C44.419337,35.96 38.9776796,41.3992461 32.2646409,41.3992461 Z" id="Shape" fill="#F1DCAC" fill-rule="nonzero"></path>
                                        <path d="M20.1099448,16.5606702 L22.9383425,18.4713298 C28.6948066,22.3582408 36.2367956,22.3582408 41.9932597,18.4713298 L44.419337,16.8327539 L44.419337,2.52892147 L20.1099448,2.52892147 L20.1099448,16.5606702 Z" id="Shape" fill="#E8C495" fill-rule="nonzero"></path>
                                        <path d="M32.2646409,41.3992461 L32.2646409,41.3992461 C25.5516022,41.3992461 20.1099448,35.9612147 20.1099448,29.2526492 L20.1099448,0.0996020942 L44.419337,0.0996020942 L44.419337,29.2526492 C44.419337,35.96 38.9776796,41.3992461 32.2646409,41.3992461 Z" id="Shape" stroke="#6C5353" stroke-width="3.64640884"></path>
                                        <polygon id="Shape" fill="#CDDEB8" fill-rule="nonzero" points="1.0319337 17.8858639 13.5233149 47.8588063 25.0569061 29.7907435 10.4846409 5.34571728"></polygon>
                                        <polygon id="Shape" fill="#CDDEB8" fill-rule="nonzero" points="63.9543646 17.8858639 51.4629834 47.8588063 39.9293923 29.7907435 54.5016575 5.34571728"></polygon>
                                        <polygon id="Shape" stroke="#6C5353" stroke-width="3.64640884" stroke-linejoin="round" points="1.0319337 17.8858639 13.5233149 47.8588063 25.0569061 29.7907435 10.4846409 5.34571728"></polygon>
                                        <polygon id="Shape" stroke="#6C5353" stroke-width="3.64640884" stroke-linejoin="round" points="63.9543646 17.8858639 51.4629834 47.8588063 39.9293923 29.7907435 54.5016575 5.34571728"></polygon>
                                        <path d="M32.2646409,42.0332984 L32.2646409,104.361131" id="Shape" stroke="#6C5353" stroke-width="3.64640884" stroke-linecap="round" stroke-linejoin="round"></path>
                                        <ellipse id="Oval" fill="#6C5353" fill-rule="nonzero" cx="39.5975691" cy="55.3678325" rx="2.43093923" ry="2.42931937"></ellipse>
                                        <ellipse id="Oval" fill="#6C5353" fill-rule="nonzero" cx="39.5975691" cy="73.5889424" rx="2.43093923" ry="2.42931937"></ellipse>
                                        <ellipse id="Oval" fill="#6C5353" fill-rule="nonzero" cx="39.5975691" cy="91.8100524" rx="2.43093923" ry="2.42931937"></ellipse>
                                    </g>
                                    <path d="M80.4300552,78.0795393 C80.4300552,75.2226597 78.1607735,72.9026597 75.3700552,72.9026597 C74.6152486,72.9026597 73.8713812,73.0787853 73.1870718,73.4091728 C73.3742541,71.0733822 71.981326,68.8165445 69.7071823,68.0622408 C67.0538122,67.1840419 64.1974586,68.6610681 63.3356906,71.3734031 C63.3356906,71.3782618 63.3308287,71.3831204 63.3308287,71.3891937 C63.0974586,72.1228482 63.0269613,72.9026597 63.1278453,73.6678953 C60.960663,72.7435393 58.458011,73.4614031 57.080884,75.403644 C55.4448619,77.712712 55.9468508,80.9570681 58.2003315,82.6369424 C58.8129282,83.0912251 59.5166851,83.402178 60.2569061,83.5406492 C58.7278453,85.3638534 58.620884,88.0142408 59.998011,89.962555 C60.7832044,91.0788272 61.9731492,91.822199 63.300442,92.0347644 C63.5641989,92.0760628 63.8328177,92.1015707 64.100221,92.1015707 C65.9538122,92.096712 67.6554696,91.058178 68.5366851,89.3892356 C69.7521547,91.4347225 72.1928177,92.3602932 74.4268508,91.6157068 C77.080221,90.7326492 78.5387845,87.8077487 77.6733702,85.0954136 C77.44,84.3617592 77.0449724,83.6851937 76.5235359,83.1264503 C78.819558,82.5640628 80.4300552,80.4760628 80.4300552,78.0795393 Z" id="Shape" stroke="none" fill="#FDFDFD" fill-rule="nonzero"></path>
                                    <path d="M68.5281768,83.8236649 C66.7098343,83.8236649 65.2366851,82.3199162 65.2366851,80.4651309 C65.2366851,78.6103455 66.7110497,77.1065969 68.5281768,77.1065969 C70.3465193,77.1065969 71.8196685,78.6103455 71.8196685,80.4651309 C71.8148066,82.3211309 70.3465193,83.8188063 68.5281768,83.8236649 Z" id="Shape" stroke="none" fill="#F1DCAC" fill-rule="nonzero"></path>
                                    <path d="M60.981326,46.4959581 C60.981326,43.6390785 58.7120442,41.3190785 55.921326,41.3190785 C55.1665193,41.3190785 54.4226519,41.4952042 53.7383425,41.8255916 C53.9255249,39.489801 52.5325967,37.2329634 50.258453,36.4786597 C47.6050829,35.6004607 44.7487293,37.0774869 43.8869613,39.789822 C43.8869613,39.7946806 43.8820994,39.7995393 43.8820994,39.8056126 C43.6487293,40.539267 43.578232,41.3190785 43.679116,42.0843141 C41.5119337,41.1599581 39.0092818,41.877822 37.6321547,43.8200628 C35.9961326,46.1291309 36.4981215,49.3747016 38.7516022,51.0533613 C39.3641989,51.507644 40.0679558,51.8185969 40.8081768,51.9570681 C39.279116,53.7802723 39.1721547,56.4318743 40.5492818,58.3789738 C41.3344751,59.4952461 42.5244199,60.2386178 43.8517127,60.4511832 C44.1154696,60.4924817 44.3840884,60.5179895 44.6514917,60.5179895 C46.5050829,60.5131309 48.2067403,59.4745969 49.0879558,57.8056545 C50.3034254,59.8511414 52.7440884,60.776712 54.9781215,60.0321257 C57.6314917,59.1490681 59.0900552,56.2241675 58.2246409,53.5118325 C57.9912707,52.778178 57.5962431,52.1016126 57.0748066,51.5428691 C59.3708287,50.9804817 60.981326,48.8936963 60.981326,46.4959581 Z" id="Shape" stroke="none" fill="#FDFDFD" fill-rule="nonzero"></path>
                                    <path d="M49.0794475,52.2412984 C47.261105,52.2412984 45.7879558,50.7375497 45.7879558,48.8827644 C45.7879558,47.0279791 47.2623204,45.5242304 49.0794475,45.5242304 C50.8965746,45.5242304 52.3709392,47.0279791 52.3709392,48.8827644 C52.3660773,50.7375497 50.8977901,52.2364398 49.0794475,52.2412984 Z" id="Shape" stroke="none" fill="#F1DCAC" fill-rule="nonzero"></path>
                                    <path d="M45.1790055,79.294199 C45.1790055,76.4373194 42.9097238,74.1173194 40.1190055,74.1173194 C39.3641989,74.1173194 38.6203315,74.293445 37.9360221,74.6238325 C38.1232044,72.2880419 36.7302762,70.0312042 34.4561326,69.2769005 C31.8027624,68.3987016 28.9464088,69.8757277 28.0846409,72.5880628 C28.0846409,72.5929215 28.079779,72.5977801 28.079779,72.6038534 C27.8464088,73.3375079 27.7759116,74.1173194 27.8767956,74.882555 C25.7096133,73.958199 23.2069613,74.6760628 21.8298343,76.6183037 C20.1938122,78.9273717 20.6958011,82.1717277 22.9492818,83.8516021 C23.5618785,84.3058848 24.2656354,84.6168377 25.0058564,84.7553089 C23.4767956,86.5785131 23.3698343,89.2289005 24.7469613,91.1772147 C25.5321547,92.2934869 26.7220994,93.0368586 28.0493923,93.2494241 C28.3131492,93.2907225 28.581768,93.3162304 28.8491713,93.3162304 C30.7027624,93.3113717 32.4044199,92.2728377 33.2856354,90.6038953 C34.501105,92.6493822 36.941768,93.5749529 39.1758011,92.8303665 C41.8291713,91.9473089 43.2877348,89.0224084 42.4223204,86.3100733 C42.1889503,85.5764188 41.7939227,84.8998534 41.2724862,84.3411099 C43.5685083,83.7787225 45.1790055,81.6907225 45.1790055,79.294199 Z" id="Shape" stroke="none" fill="#FDFDFD" fill-rule="nonzero"></path>
                                    <path d="M33.2771271,85.0395393 C31.4587845,85.0395393 29.9856354,83.5357906 29.9856354,81.6810052 C29.9856354,79.8262199 31.46,78.3224712 33.2771271,78.3224712 C35.0954696,78.3224712 36.5686188,79.8262199 36.5686188,81.6810052 C36.5637569,83.5357906 35.0954696,85.033466 33.2771271,85.0395393 Z" id="Shape" stroke="none" fill="#F1DCAC" fill-rule="nonzero"></path>
                                    <path d="M135.128619,101.159288 C135.128619,98.3024084 132.859337,95.9824084 130.068619,95.9824084 C129.313812,95.9824084 128.569945,96.158534 127.885635,96.4889215 C128.072818,94.1531309 126.67989,91.8962932 124.405746,91.1419895 C121.752376,90.2637906 118.896022,91.7408168 118.034254,94.4531518 C118.034254,94.4580105 118.029392,94.4628691 118.029392,94.4689424 C117.796022,95.2025969 117.725525,95.9824084 117.826409,96.747644 C115.659227,95.823288 113.156575,96.5411518 111.779448,98.4833927 C110.143425,100.792461 110.645414,104.036817 112.898895,105.716691 C113.511492,106.170974 114.215249,106.481927 114.95547,106.620398 C113.426409,108.443602 113.319448,111.095204 114.696575,113.042304 C115.481768,114.158576 116.671713,114.901948 117.999006,115.114513 C118.262762,115.155812 118.531381,115.181319 118.798785,115.181319 C120.652376,115.176461 122.354033,114.137927 123.235249,112.468984 C124.450718,114.514471 126.891381,115.440042 129.125414,114.695455 C131.778785,113.812398 133.237348,110.887497 132.371934,108.175162 C132.138564,107.441508 131.743536,106.764942 131.222099,106.206199 C133.518122,105.643812 135.128619,103.555812 135.128619,101.159288 Z" id="Shape" stroke="none" fill="#FDFDFD" fill-rule="nonzero"></path>
                                    <path d="M123.227956,106.904628 C121.409613,106.904628 119.936464,105.40088 119.936464,103.546094 C119.936464,101.691309 121.410829,100.18756 123.227956,100.18756 C125.046298,100.18756 126.519448,101.691309 126.519448,103.546094 C126.514586,105.40088 125.046298,106.898555 123.227956,106.904628 Z" id="Shape" stroke="none" fill="#F1DCAC" fill-rule="nonzero"></path>
                                    <path d="M137.559558,63.5024084 C137.559558,60.6455288 135.290276,58.3255288 132.499558,58.3255288 C131.744751,58.3255288 131.000884,58.5016545 130.316575,58.8320419 C130.503757,56.4962513 129.110829,54.2394136 126.836685,53.4851099 C124.183315,52.606911 121.326961,54.0839372 120.465193,56.7962723 C120.465193,56.8011309 120.460331,56.8059895 120.460331,56.8120628 C120.226961,57.5457173 120.156464,58.3255288 120.257348,59.0907644 C118.090166,58.1664084 115.587514,58.8842723 114.210387,60.8265131 C112.574365,63.1355812 113.076354,66.3799372 115.329834,68.0598115 C115.942431,68.5140942 116.646188,68.8250471 117.386409,68.9635183 C115.857348,70.7867225 115.750387,73.4383246 117.127514,75.3854241 C117.912707,76.5016963 119.102652,77.2450681 120.429945,77.4576335 C120.693702,77.4989319 120.96232,77.5244398 121.229724,77.5244398 C123.083315,77.5195812 124.784972,76.4810471 125.666188,74.8121047 C126.881657,76.8575916 129.32232,77.7831623 131.556354,77.0385759 C134.209724,76.1555183 135.668287,73.2306178 134.802873,70.5182827 C134.569503,69.7846283 134.174475,69.1080628 133.653039,68.5493194 C135.949061,67.9869319 137.559558,65.8989319 137.559558,63.5024084 Z" id="Shape" stroke="none" fill="#FDFDFD" fill-rule="nonzero"></path>
                                    <path d="M125.658895,69.2477487 C123.840552,69.2477487 122.367403,67.744 122.367403,65.8892147 C122.367403,64.0344293 123.841768,62.5306806 125.658895,62.5306806 C127.477238,62.5306806 128.950387,64.0344293 128.950387,65.8892147 C128.945525,67.744 127.476022,69.2416754 125.658895,69.2477487 Z" id="Shape" stroke="none" fill="#F1DCAC" fill-rule="nonzero"></path>
                                    <path d="M170.379669,72.0050262 C170.379669,69.1481466 168.110387,66.8281466 165.319669,66.8281466 C164.564862,66.8281466 163.820994,67.0042723 163.136685,67.3346597 C163.323867,64.9988691 161.930939,62.7420314 159.656796,61.9877277 C157.003425,61.1095288 154.147072,62.586555 153.285304,65.2988901 C153.285304,65.3037487 153.280442,65.3086073 153.280442,65.3146806 C153.047072,66.0483351 152.976575,66.8281466 153.077459,67.5933822 C150.910276,66.6690262 148.407624,67.3868901 147.030497,69.3291309 C145.394475,71.638199 145.896464,74.882555 148.149945,76.5624293 C148.762541,77.016712 149.466298,77.3276649 150.206519,77.4661361 C148.677459,79.2893403 148.570497,81.9409424 149.947624,83.8880419 C150.732818,85.0043141 151.922762,85.7476859 153.250055,85.9602513 C153.513812,86.0015497 153.782431,86.0270576 154.049834,86.0270576 C155.903425,86.022199 157.605083,84.9836649 158.486298,83.3147225 C159.701768,85.3602094 162.142431,86.2857801 164.376464,85.5411937 C167.029834,84.6581361 168.488398,81.7332356 167.622983,79.0209005 C167.389613,78.2872461 166.994586,77.6106806 166.473149,77.0519372 C168.769171,76.4895497 170.379669,74.4027644 170.379669,72.0050262 Z" id="Shape" stroke="none" fill="#FDFDFD" fill-rule="nonzero"></path>
                                    <path d="M158.47779,77.7503665 C156.659448,77.7503665 155.186298,76.2466178 155.186298,74.3918325 C155.186298,72.5370471 156.660663,71.0332984 158.47779,71.0332984 C160.294917,71.0332984 161.769282,72.5370471 161.769282,74.3918325 C161.765635,76.2466178 160.296133,77.7455079 158.47779,77.7503665 Z" id="Shape" stroke="none" fill="#F1DCAC" fill-rule="nonzero"></path>
                                    <path d="M135.128619,101.159288 C135.128619,98.3024084 132.859337,95.9824084 130.068619,95.9824084 C129.313812,95.9824084 128.569945,96.158534 127.885635,96.4889215 C128.072818,94.1531309 126.67989,91.8962932 124.405746,91.1419895 C121.752376,90.2637906 118.896022,91.7408168 118.034254,94.4531518 C118.034254,94.4580105 118.029392,94.4628691 118.029392,94.4689424 C117.796022,95.2025969 117.725525,95.9824084 117.826409,96.747644 C115.659227,95.823288 113.156575,96.5411518 111.779448,98.4833927 C110.143425,100.792461 110.645414,104.036817 112.898895,105.716691 C113.511492,106.170974 114.215249,106.481927 114.95547,106.620398 C113.426409,108.443602 113.319448,111.095204 114.696575,113.042304 C115.481768,114.158576 116.671713,114.901948 117.999006,115.114513 C118.262762,115.155812 118.531381,115.181319 118.798785,115.181319 C120.652376,115.176461 122.354033,114.137927 123.235249,112.468984 C124.450718,114.514471 126.891381,115.440042 129.125414,114.695455 C131.778785,113.812398 133.237348,110.887497 132.371934,108.175162 C132.138564,107.441508 131.743536,106.764942 131.222099,106.206199 C133.518122,105.643812 135.128619,103.555812 135.128619,101.159288 Z" id="Shape" stroke="#6C5353" stroke-width="2.43093923" fill="none"></path>
                                    <path d="M123.227956,106.904628 C121.409613,106.904628 119.936464,105.40088 119.936464,103.546094 C119.936464,101.691309 121.410829,100.18756 123.227956,100.18756 C125.046298,100.18756 126.519448,101.691309 126.519448,103.546094 C126.514586,105.40088 125.046298,106.898555 123.227956,106.904628 Z" id="Shape" stroke="#6C5353" stroke-width="2.43093923" fill="none"></path>
                                    <path d="M137.559558,63.5024084 C137.559558,60.6455288 135.290276,58.3255288 132.499558,58.3255288 C131.744751,58.3255288 131.000884,58.5016545 130.316575,58.8320419 C130.503757,56.4962513 129.110829,54.2394136 126.836685,53.4851099 C124.183315,52.606911 121.326961,54.0839372 120.465193,56.7962723 C120.465193,56.8011309 120.460331,56.8059895 120.460331,56.8120628 C120.226961,57.5457173 120.156464,58.3255288 120.257348,59.0907644 C118.090166,58.1664084 115.587514,58.8842723 114.210387,60.8265131 C112.574365,63.1355812 113.076354,66.3799372 115.329834,68.0598115 C115.942431,68.5140942 116.646188,68.8250471 117.386409,68.9635183 C115.857348,70.7867225 115.750387,73.4383246 117.127514,75.3854241 C117.912707,76.5016963 119.102652,77.2450681 120.429945,77.4576335 C120.693702,77.4989319 120.96232,77.5244398 121.229724,77.5244398 C123.083315,77.5195812 124.784972,76.4810471 125.666188,74.8121047 C126.881657,76.8575916 129.32232,77.7831623 131.556354,77.0385759 C134.209724,76.1555183 135.668287,73.2306178 134.802873,70.5182827 C134.569503,69.7846283 134.174475,69.1080628 133.653039,68.5493194 C135.949061,67.9869319 137.559558,65.8989319 137.559558,63.5024084 Z" id="Shape" stroke="#6C5353" stroke-width="2.43093923" fill="none"></path>
                                    <path d="M125.658895,69.2477487 C123.840552,69.2477487 122.367403,67.744 122.367403,65.8892147 C122.367403,64.0344293 123.841768,62.5306806 125.658895,62.5306806 C127.477238,62.5306806 128.950387,64.0344293 128.950387,65.8892147 C128.945525,67.744 127.476022,69.2416754 125.658895,69.2477487 Z" id="Shape" stroke="#6C5353" stroke-width="2.43093923" fill="none"></path>
                                    <path d="M80.4300552,78.0795393 C80.4300552,75.2226597 78.1607735,72.9026597 75.3700552,72.9026597 C74.6152486,72.9026597 73.8713812,73.0787853 73.1870718,73.4091728 C73.3742541,71.0733822 71.981326,68.8165445 69.7071823,68.0622408 C67.0538122,67.1840419 64.1974586,68.6610681 63.3356906,71.3734031 C63.3356906,71.3782618 63.3308287,71.3831204 63.3308287,71.3891937 C63.0974586,72.1228482 63.0269613,72.9026597 63.1278453,73.6678953 C60.960663,72.7435393 58.458011,73.4614031 57.080884,75.403644 C55.4448619,77.712712 55.9468508,80.9570681 58.2003315,82.6369424 C58.8129282,83.0912251 59.5166851,83.402178 60.2569061,83.5406492 C58.7278453,85.3638534 58.620884,88.0142408 59.998011,89.962555 C60.7832044,91.0788272 61.9731492,91.822199 63.300442,92.0347644 C63.5641989,92.0760628 63.8328177,92.1015707 64.100221,92.1015707 C65.9538122,92.096712 67.6554696,91.058178 68.5366851,89.3892356 C69.7521547,91.4347225 72.1928177,92.3602932 74.4268508,91.6157068 C77.080221,90.7326492 78.5387845,87.8077487 77.6733702,85.0954136 C77.44,84.3617592 77.0449724,83.6851937 76.5235359,83.1264503 C78.819558,82.5640628 80.4300552,80.4760628 80.4300552,78.0795393 Z" id="Shape" stroke="#6C5353" stroke-width="2.43093923" fill="none"></path>
                                    <path d="M68.5281768,83.8236649 C66.7098343,83.8236649 65.2366851,82.3199162 65.2366851,80.4651309 C65.2366851,78.6103455 66.7110497,77.1065969 68.5281768,77.1065969 C70.3465193,77.1065969 71.8196685,78.6103455 71.8196685,80.4651309 C71.8148066,82.3211309 70.3465193,83.8188063 68.5281768,83.8236649 Z" id="Shape" stroke="#6C5353" stroke-width="2.43093923" fill="none"></path>
                                    <path d="M60.981326,46.4959581 C60.981326,43.6390785 58.7120442,41.3190785 55.921326,41.3190785 C55.1665193,41.3190785 54.4226519,41.4952042 53.7383425,41.8255916 C53.9255249,39.489801 52.5325967,37.2329634 50.258453,36.4786597 C47.6050829,35.6004607 44.7487293,37.0774869 43.8869613,39.789822 C43.8869613,39.7946806 43.8820994,39.7995393 43.8820994,39.8056126 C43.6487293,40.539267 43.578232,41.3190785 43.679116,42.0843141 C41.5119337,41.1599581 39.0092818,41.877822 37.6321547,43.8200628 C35.9961326,46.1291309 36.4981215,49.3747016 38.7516022,51.0533613 C39.3641989,51.507644 40.0679558,51.8185969 40.8081768,51.9570681 C39.279116,53.7802723 39.1721547,56.4318743 40.5492818,58.3789738 C41.3344751,59.4952461 42.5244199,60.2386178 43.8517127,60.4511832 C44.1154696,60.4924817 44.3840884,60.5179895 44.6514917,60.5179895 C46.5050829,60.5131309 48.2067403,59.4745969 49.0879558,57.8056545 C50.3034254,59.8511414 52.7440884,60.776712 54.9781215,60.0321257 C57.6314917,59.1490681 59.0900552,56.2241675 58.2246409,53.5118325 C57.9912707,52.778178 57.5962431,52.1016126 57.0748066,51.5428691 C59.3708287,50.9804817 60.981326,48.8936963 60.981326,46.4959581 Z" id="Shape" stroke="#6C5353" stroke-width="2.43093923" fill="none"></path>
                                    <path d="M49.0794475,52.2412984 C47.261105,52.2412984 45.7879558,50.7375497 45.7879558,48.8827644 C45.7879558,47.0279791 47.2623204,45.5242304 49.0794475,45.5242304 C50.8965746,45.5242304 52.3709392,47.0279791 52.3709392,48.8827644 C52.3660773,50.7375497 50.8977901,52.2364398 49.0794475,52.2412984 Z" id="Shape" stroke="#6C5353" stroke-width="2.43093923" fill="none"></path>
                                    <path d="M45.1790055,79.294199 C45.1790055,76.4373194 42.9097238,74.1173194 40.1190055,74.1173194 C39.3641989,74.1173194 38.6203315,74.293445 37.9360221,74.6238325 C38.1232044,72.2880419 36.7302762,70.0312042 34.4561326,69.2769005 C31.8027624,68.3987016 28.9464088,69.8757277 28.0846409,72.5880628 C28.0846409,72.5929215 28.079779,72.5977801 28.079779,72.6038534 C27.8464088,73.3375079 27.7759116,74.1173194 27.8767956,74.882555 C25.7096133,73.958199 23.2069613,74.6760628 21.8298343,76.6183037 C20.1938122,78.9273717 20.6958011,82.1717277 22.9492818,83.8516021 C23.5618785,84.3058848 24.2656354,84.6168377 25.0058564,84.7553089 C23.4767956,86.5785131 23.3698343,89.2289005 24.7469613,91.1772147 C25.5321547,92.2934869 26.7220994,93.0368586 28.0493923,93.2494241 C28.3131492,93.2907225 28.581768,93.3162304 28.8491713,93.3162304 C30.7027624,93.3113717 32.4044199,92.2728377 33.2856354,90.6038953 C34.501105,92.6493822 36.941768,93.5749529 39.1758011,92.8303665 C41.8291713,91.9473089 43.2877348,89.0224084 42.4223204,86.3100733 C42.1889503,85.5764188 41.7939227,84.8998534 41.2724862,84.3411099 C43.5685083,83.7787225 45.1790055,81.6907225 45.1790055,79.294199 Z" id="Shape" stroke="#6C5353" stroke-width="2.43093923" fill="none"></path>
                                    <path d="M33.2771271,85.0395393 C31.4587845,85.0395393 29.9856354,83.5357906 29.9856354,81.6810052 C29.9856354,79.8262199 31.46,78.3224712 33.2771271,78.3224712 C35.0954696,78.3224712 36.5686188,79.8262199 36.5686188,81.6810052 C36.5637569,83.5357906 35.0954696,85.033466 33.2771271,85.0395393 Z" id="Shape" stroke="#6C5353" stroke-width="2.43093923" fill="none"></path>
                                    <path d="M170.379669,72.0050262 C170.379669,69.1481466 168.110387,66.8281466 165.319669,66.8281466 C164.564862,66.8281466 163.820994,67.0042723 163.136685,67.3346597 C163.323867,64.9988691 161.930939,62.7420314 159.656796,61.9877277 C157.003425,61.1095288 154.147072,62.586555 153.285304,65.2988901 C153.285304,65.3037487 153.280442,65.3086073 153.280442,65.3146806 C153.047072,66.0483351 152.976575,66.8281466 153.077459,67.5933822 C150.910276,66.6690262 148.407624,67.3868901 147.030497,69.3291309 C145.394475,71.638199 145.896464,74.882555 148.149945,76.5624293 C148.762541,77.016712 149.466298,77.3276649 150.206519,77.4661361 C148.677459,79.2893403 148.570497,81.9409424 149.947624,83.8880419 C150.732818,85.0043141 151.922762,85.7476859 153.250055,85.9602513 C153.513812,86.0015497 153.782431,86.0270576 154.049834,86.0270576 C155.903425,86.022199 157.605083,84.9836649 158.486298,83.3147225 C159.701768,85.3602094 162.142431,86.2857801 164.376464,85.5411937 C167.029834,84.6581361 168.488398,81.7332356 167.622983,79.0209005 C167.389613,78.2872461 166.994586,77.6106806 166.473149,77.0519372 C168.769171,76.4895497 170.379669,74.4027644 170.379669,72.0050262 Z" id="Shape" stroke="#6C5353" stroke-width="2.43093923" fill="none"></path>
                                    <path d="M158.47779,77.7503665 C156.659448,77.7503665 155.186298,76.2466178 155.186298,74.3918325 C155.186298,72.5370471 156.660663,71.0332984 158.47779,71.0332984 C160.294917,71.0332984 161.769282,72.5370471 161.769282,74.3918325 C161.765635,76.2466178 160.296133,77.7455079 158.47779,77.7503665 Z" id="Shape" stroke="#6C5353" stroke-width="2.43093923" fill="none"></path>
                                    <path d="M130.015138,21.9549738 C128.379116,24.2640419 128.881105,27.5083979 131.134586,29.1882723 C131.747182,29.642555 132.450939,29.9535079 133.19116,30.0919791 C131.662099,31.9151832 131.555138,34.5655707 132.932265,36.5138848 C133.717459,37.6301571 134.907403,38.3735288 136.234696,38.5860942 C136.498453,38.6273927 136.767072,38.6529005 137.034475,38.6529005 C138.888066,38.6480419 140.589724,37.6095079 141.470939,35.9405654 C142.686409,37.9860524 145.127072,38.911623 147.361105,38.1670366 C149.83337,37.344712 151.242099,34.7514136 150.72674,32.2079162 C144.919227,27.5630576 138.542873,23.6056963 131.713149,20.4536545 C131.061657,20.8131937 130.472155,21.3087749 130.015138,21.9549738 Z" id="Shape" stroke="none" fill="#FDFDFD" fill-rule="nonzero"></path>
                                    <path d="M130.015138,21.9549738 C128.379116,24.2640419 128.881105,27.5083979 131.134586,29.1882723 C131.747182,29.642555 132.450939,29.9535079 133.19116,30.0919791 C131.662099,31.9151832 131.555138,34.5655707 132.932265,36.5138848 C133.717459,37.6301571 134.907403,38.3735288 136.234696,38.5860942 C136.498453,38.6273927 136.767072,38.6529005 137.034475,38.6529005 C138.888066,38.6480419 140.589724,37.6095079 141.470939,35.9405654 C142.686409,37.9860524 145.127072,38.911623 147.361105,38.1670366 C149.83337,37.344712 151.242099,34.7514136 150.72674,32.2079162 C144.919227,27.5630576 138.542873,23.6056963 131.713149,20.4536545 C131.061657,20.8131937 130.472155,21.3087749 130.015138,21.9549738 Z" id="Shape" stroke="#6C5353" stroke-width="2.43093923" fill="none"></path>
                                    <path d="M139.376685,24.4377382 C138.644972,25.0535707 138.168508,25.9742827 138.168508,27.0176754 C138.168508,28.8724607 139.642873,30.3762094 141.46,30.3762094 C143.038895,30.3713508 144.350387,29.2405026 144.672486,27.7282513 C142.952597,26.5670366 141.176796,25.4835602 139.376685,24.4377382 Z" id="Shape" stroke="none" fill="#F1DCAC" fill-rule="nonzero"></path>
                                    <path d="M139.376685,24.4377382 C138.644972,25.0535707 138.168508,25.9742827 138.168508,27.0176754 C138.168508,28.8724607 139.642873,30.3762094 141.46,30.3762094 C143.038895,30.3713508 144.350387,29.2405026 144.672486,27.7282513 C142.952597,26.5670366 141.176796,25.4835602 139.376685,24.4377382 Z" id="Shape" stroke="#6C5353" stroke-width="2.43093923" fill="none"></path>
                                    <path d="M29.2709392,34.1173613 L28.1101657,33.757822 C26.8278453,33.3606283 25.4665193,34.0772775 25.0678453,35.3587435 L17.8686188,58.5623874 C17.4711602,59.8438534 18.1882873,61.2042723 19.4706077,61.6026806 L20.6313812,61.9622199 C21.9137017,62.3594136 23.2750276,61.6427644 23.6737017,60.3612984 L30.8729282,37.1564398 C31.2703867,35.8749738 30.5532597,34.514555 29.2709392,34.1173613 Z" id="Shape" stroke="#6C5353" stroke-width="2.43093923" fill="#BA9686" fill-rule="evenodd" stroke-linejoin="round"></path>
                                    <path d="M2.45403315,34.1173613 L3.61480663,33.757822 C4.89712707,33.3606283 6.25845304,34.0772775 6.65712707,35.3587435 L13.8563536,58.5623874 C14.2538122,59.8438534 13.5366851,61.2042723 12.2543646,61.6026806 L11.0935912,61.9622199 C9.81127072,62.3594136 8.44994475,61.6427644 8.05127072,60.3612984 L0.852044199,37.1576545 C0.454585635,35.8749738 1.17171271,34.514555 2.45403315,34.1173613 Z" id="Shape" stroke="#6A5251" stroke-width="2.07504972" fill="#FFFFFF" fill-rule="evenodd"></path>
                                    <path d="M16.5437569,32.1629738 L15.3282873,32.1629738 C13.9851934,32.1629738 12.8973481,33.2500942 12.8973481,34.5922932 L12.8973481,58.8854869 C12.8973481,60.2276859 13.9851934,61.3148063 15.3282873,61.3148063 L16.5437569,61.3148063 C17.8868508,61.3148063 18.9746961,60.2276859 18.9746961,58.8854869 L18.9746961,34.5922932 C18.9746961,33.2513089 17.8868508,32.1629738 16.5437569,32.1629738 Z" id="Shape" stroke="#6A5251" stroke-width="2.07504972" fill="#C6504C" fill-rule="evenodd"></path>
                                    <path d="M22.0097238,61.198199 L9.86353591,61.198199 C6.50519337,61.198199 3.78254144,63.9190366 3.78254144,67.2751414 L3.78254144,89.1305131 C3.78254144,92.4866178 6.50519337,95.2074555 9.86353591,95.2074555 L22.0097238,95.2074555 C25.3680663,95.2074555 28.0907182,92.4866178 28.0907182,89.1305131 L28.0907182,67.2751414 C28.0907182,63.9190366 25.3680663,61.198199 22.0097238,61.198199 Z" id="Shape" stroke="#6C5353" stroke-width="3.64640884" fill="#F1DCAC" fill-rule="evenodd"></path>
                                </g>
                            </g>
                        </g>
                        <ellipse id="Oval" stroke="#6C5353" stroke-width="3.64640884" stroke-linejoin="round" cx="110" cy="122.607749" rx="109.392265" ry="109.319372"></ellipse>
                        <g id="Group-2" transform="translate(49.834254, 0.000000)">
                            <path d="M13.018895,87.1494031 L17.8807735,87.1494031 C24.5938122,87.1494031 30.0354696,81.7113717 30.0354696,75.0028063 L30.0354696,75.0028063 C30.0354696,68.2942408 24.5938122,62.8562094 17.8807735,62.8562094 L13.018895,62.8562094 C6.30585635,62.8562094 0.864198895,68.2942408 0.864198895,75.0028063 L0.864198895,75.0028063 C0.864198895,81.7113717 6.30585635,87.1494031 13.018895,87.1494031 Z" id="Shape" stroke="#6C5353" stroke-width="3.64640884" fill="#F1DCAC" fill-rule="nonzero"></path>
                            <path d="M102.963646,87.1494031 L107.825525,87.1494031 C114.538564,87.1494031 119.980221,81.7113717 119.980221,75.0028063 L119.980221,75.0028063 C119.980221,68.2942408 114.538564,62.8562094 107.825525,62.8562094 L102.963646,62.8562094 C96.2506077,62.8562094 90.8089503,68.2942408 90.8089503,75.0028063 L90.8089503,75.0028063 C90.8089503,81.7113717 96.2506077,87.1494031 102.963646,87.1494031 Z" id="Shape" stroke="#6C5353" stroke-width="3.64640884" fill="#F1DCAC" fill-rule="nonzero"></path>
                            <path d="M60.4222099,0.607329843 L60.4222099,0.607329843 C34.7223204,0.607329843 13.7639779,21.1909529 13.3166851,46.8700733 L12.5375691,91.6047749 C12.0720442,118.357654 33.6466298,140.295623 60.4209945,140.295623 L60.4209945,140.295623 C87.1965746,140.295623 108.769945,118.357654 108.30442,91.6047749 L107.525304,46.8700733 C107.080442,21.1909529 86.1220994,0.607329843 60.4222099,0.607329843 Z" id="Shape" stroke="#6C5353" stroke-width="3.64640884" fill="#F1DCAC" fill-rule="nonzero"></path>
                            <ellipse id="Oval" fill="#6C5353" fill-rule="nonzero" cx="39.5963536" cy="72.3706387" rx="4.86187845" ry="4.85863874"></ellipse>
                            <ellipse id="Oval" fill="#6C5353" fill-rule="nonzero" cx="80.9247514" cy="72.3706387" rx="4.86187845" ry="4.85863874"></ellipse>
                            <path d="M51.9139227,95.9046702 C51.9139227,99.9300524 55.178674,103.192628 59.2067403,103.192628 L61.6376796,103.192628 C65.6657459,103.192628 68.9304972,99.9300524 68.9304972,95.9046702" id="Shape" stroke="#6C5353" stroke-width="3.64640884" stroke-linecap="round"></path>
                            <path d="M55.8216575,132.659058 C57.3057459,132.961508 58.840884,133.138848 60.4222099,133.138848 C62.0035359,133.138848 63.538674,132.961508 65.0227624,132.659058" id="Shape" stroke="#6C5353" stroke-width="3.64640884" stroke-linecap="round"></path>
                            <path d="M63.8692818,67.512 C62.3851934,67.2095497 62.0035359,67.0637906 60.4222099,67.0637906 C58.840884,67.0637906 58.0569061,67.2083351 56.5716022,67.512" id="Shape" stroke="#6C5353" stroke-width="3.64640884" stroke-linecap="round"></path>
                            <path d="M28.6571271,55.7042932 L50.5355801,51.789445" id="Shape" stroke="#6C5353" stroke-width="3.64640884" stroke-linecap="round"></path>
                            <path d="M91.8639779,55.7042932 L69.9855249,51.789445" id="Shape" stroke="#6C5353" stroke-width="3.64640884" stroke-linecap="round"></path>
                            <ellipse id="Oval" stroke="#6C5353" stroke-width="3.36697238" stroke-linecap="round" cx="39.5963536" cy="72.3706387" rx="17.0165746" ry="10.9319372"></ellipse>
                            <ellipse id="Oval" stroke="#6C5353" stroke-width="3.36697238" stroke-linecap="round" cx="80.9247514" cy="72.3706387" rx="17.0165746" ry="10.9319372"></ellipse>
                            <path d="M22.4874033,20.997822 C29.0059669,29.3048796 43.381326,35.0793717 60.0794475,35.0793717 C77.0826519,35.0793717 91.6816575,29.0935288 98.0251934,20.5423246 C89.418453,9.16339267 75.7675138,1.82198953 60.4222099,1.82198953 L60.4222099,1.82198953 C44.8751381,1.82198953 31.0734807,9.36259686 22.4874033,20.997822 Z" id="Shape" fill="#E8C495" fill-rule="nonzero"></path>
                            <path d="M57.2862983,0.722722513 C56.7709392,0.756732984 56.2543646,0.788314136 55.7438674,0.838115183 C55.4314917,0.868481675 55.1227624,0.913424084 54.8116022,0.951078534 C54.358232,1.00452356 53.9024309,1.05553927 53.4527072,1.12113089 C53.1196685,1.17093194 52.7914917,1.23409424 52.460884,1.28996859 C52.039116,1.36163351 51.6149171,1.42965445 51.1967956,1.51346597 C50.8564641,1.58148691 50.5209945,1.66165445 50.1830939,1.73574869 C49.7807735,1.82441885 49.3772376,1.91065969 48.9785635,2.01026178 C48.6345856,2.09650262 48.2954696,2.19367539 47.9551381,2.28720419 C47.5698343,2.39287958 47.1845304,2.49491099 46.8040884,2.61030366 C46.458895,2.7147644 46.1173481,2.82894241 45.7758011,2.9406911 C45.4062983,3.06094241 45.0367956,3.17997906 44.6709392,3.30994764 C44.3281768,3.43141361 43.9902762,3.56259686 43.6511602,3.69256545 C43.2950276,3.82860733 42.9376796,3.96343455 42.5851934,4.1067644 C42.2436464,4.24645026 41.9057459,4.3958534 41.5690608,4.54282723 C41.2287293,4.69101571 40.8883978,4.84041885 40.5517127,4.99589529 C40.2113812,5.15380105 39.8759116,5.32020942 39.540442,5.4866178 C39.2146961,5.64816754 38.8901657,5.80971728 38.5680663,5.97734031 C38.2313812,6.15346597 37.899558,6.33687958 37.5677348,6.52150785 C37.2565746,6.69398953 36.9466298,6.86768586 36.6403315,7.0474555 C36.3072928,7.24301571 35.9779006,7.44343455 35.6497238,7.64749738 C35.3555801,7.82969634 35.0626519,8.01310995 34.7721547,8.2013822 C34.4427624,8.41637696 34.1158011,8.63623037 33.7924862,8.85851309 C33.5141436,9.04921466 33.238232,9.24234555 32.9635359,9.43912042 C32.6390055,9.67233508 32.3169061,9.91040838 31.998453,10.1521257 C31.7371271,10.3501152 31.4770166,10.550534 31.219337,10.7545969 C30.898453,11.0084607 30.5812155,11.2659686 30.2676243,11.5271204 C30.0233149,11.7311832 29.7814365,11.9376754 29.5407735,12.1453822 C29.2259669,12.4186806 28.9135912,12.695623 28.6060773,12.9774241 C28.3787845,13.1863455 28.1539227,13.3976963 27.9302762,13.6102618 C27.621547,13.9042094 27.3152486,14.2005864 27.0150276,14.5030366 C26.8047514,14.7143874 26.599337,14.9281675 26.3927072,15.1431623 C26.0900552,15.4589738 25.7910497,15.776 25.4969061,16.1003141 C25.3048619,16.3128796 25.1164641,16.5278743 24.9280663,16.7440838 C24.6327072,17.0817592 24.339779,17.4218639 24.0541436,17.7680419 C23.8803315,17.978178 23.7125967,18.1919581 23.5424309,18.4057382 C23.2543646,18.7677068 22.9687293,19.1296754 22.6916022,19.5001466 C22.5372376,19.7054241 22.3889503,19.9155602 22.238232,20.123267 C21.9574586,20.5119581 21.6779006,20.9006492 21.4080663,21.2978429 C21.2755801,21.4921885 21.1503867,21.6913927 21.0203315,21.8869529 C20.7444199,22.3060105 20.4709392,22.7262827 20.2096133,23.1550576 C20.0990055,23.3360419 19.9944751,23.5206702 19.8862983,23.7016545 C19.6176796,24.1535079 19.3514917,24.6065759 19.098674,25.0681466 C19.0111602,25.2284817 18.9285083,25.3924607 18.8422099,25.5527958 C18.5796685,26.0435183 18.3207735,26.5366702 18.0752486,27.0371099 C18.0144751,27.1622199 17.9585635,27.2897592 17.8990055,27.4148691 C17.638895,27.9590366 17.3836464,28.5056335 17.1441989,29.0619476 C17.1174586,29.1226806 17.0943646,29.1846283 17.0688398,29.2453613 C15.0864088,33.8962932 13.8259669,38.9310576 13.4394475,44.2136126 L13.2838674,48.5778848 L13.1039779,58.9292147 L13.0359116,62.8307016 C13.4674033,62.225801 28.1308287,41.5146387 28.1308287,18.8308691 L27.9472928,17.7899058 C34.2349171,23.4186387 46.0346961,27.2132356 59.5713812,27.2132356 C74.6055249,27.2132356 87.5113812,22.5355812 93.0891713,15.8598115 L92.5640884,18.8320838 C92.5640884,41.8547435 107.679669,62.8598534 107.679669,62.8598534 L107.8,62.6059895 L107.770829,60.955267 L107.693039,56.4707435 L107.171602,41.8863246 C107.171602,41.8838953 107.170387,41.881466 107.170387,41.8790366 C106.827624,39.0998953 106.236906,36.3997068 105.432265,33.7942618 C105.387293,33.6509319 105.348398,33.5039581 105.30221,33.3606283 C105.141768,32.8589738 104.96674,32.3633927 104.790497,31.8690262 C104.72,31.6722513 104.654365,31.4730471 104.581436,31.2762723 C104.40884,30.8122723 104.224088,30.3543455 104.036906,29.8976335 C103.946961,29.6777801 103.860663,29.4579267 103.767072,29.2405026 C103.581105,28.8032251 103.384199,28.3720209 103.184862,27.9420314 C103.077901,27.7112461 102.972155,27.4792461 102.861547,27.2496754 C102.660994,26.8342618 102.451934,26.4249215 102.240442,26.0167958 C102.11768,25.7799372 101.994917,25.5442932 101.867293,25.3110785 C101.652155,24.9150995 101.432155,24.5227644 101.206077,24.1340733 C101.068729,23.8972147 100.930166,23.6615707 100.787956,23.4271414 C100.559448,23.0469529 100.324862,22.6704084 100.085414,22.2975079 C99.9346961,22.0630785 99.781547,21.8298639 99.6259669,21.5990785 C99.3828729,21.2346806 99.1361326,20.8714974 98.8820994,20.5143874 C98.7192265,20.2836021 98.5514917,20.0576754 98.3837569,19.830534 C98.1260773,19.480712 97.8671823,19.1321047 97.599779,18.7895707 C97.4247514,18.5648586 97.2436464,18.3437906 97.0649724,18.1227225 C96.7939227,17.7874764 96.5216575,17.4510157 96.240884,17.1230576 C96.0549171,16.9056335 95.8628729,16.6942827 95.6732597,16.4805026 C95.3864088,16.1574031 95.101989,15.8343037 94.8066298,15.5197068 C94.6121547,15.3132147 94.4116022,15.1127958 94.2134807,14.9099476 C93.9120442,14.5989948 93.6118232,14.2856126 93.300663,13.9831623 C93.1061878,13.7936754 92.9044199,13.6126911 92.7075138,13.4268482 C92.381768,13.1195393 92.058453,12.809801 91.7241989,12.5122094 C91.6585635,12.4539058 91.5904972,12.3992461 91.5248619,12.3421571 C90.7627624,11.6716649 89.9751381,11.0303246 89.1704972,10.4096335 C88.9261878,10.2213613 88.6855249,10.025801 88.4363536,9.84238743 C88.1361326,9.62010471 87.8261878,9.40875393 87.5198895,9.1925445 C87.2342541,8.99091099 86.9510497,8.78563351 86.6605525,8.5900733 C86.3603315,8.38843979 86.0516022,8.19652356 85.7465193,8.00096335 C85.4390055,7.80540314 85.1339227,7.60619895 84.8227624,7.41671204 C84.518895,7.23208377 84.2101657,7.05717277 83.9014365,6.87983246 C83.5781215,6.69398953 83.2560221,6.50693194 82.9290608,6.32837696 C82.6203315,6.16075393 82.3067403,5.99920419 81.9931492,5.83765445 C81.6576796,5.66395812 81.3209945,5.49147644 80.9794475,5.32628272 C80.6658564,5.1732356 80.3474033,5.02747644 80.0301657,4.88171728 C79.681326,4.72259686 79.3324862,4.5646911 78.9787845,4.41285864 C78.6603315,4.27560209 78.3394475,4.14441885 78.0161326,4.01445026 C77.6551381,3.8686911 77.2917127,3.72779058 76.9258564,3.59053403 C76.6037569,3.47028272 76.280442,3.35367539 75.9559116,3.23949738 C75.581547,3.1095288 75.2059669,2.98441885 74.8279558,2.86295288 C74.5022099,2.75849215 74.1764641,2.65524607 73.8482873,2.5580733 C73.461768,2.44389529 73.0728177,2.33579058 72.6826519,2.23132984 C72.3556906,2.14387435 72.0299448,2.05520419 71.7005525,1.97503665 C71.2994475,1.87664921 70.8946961,1.7867644 70.4887293,1.6993089 C70.1690608,1.62764398 69.8445304,1.5547644 69.5163536,1.49038743 C69.098232,1.40900524 68.6740331,1.33855497 68.2510497,1.26810471 C67.9313812,1.21465969 67.6141436,1.15635602 67.2920442,1.10898429 C66.8435359,1.04339267 66.3901657,0.992376963 65.9367956,0.938931937 C65.6353591,0.904921466 65.3363536,0.863623037 65.0337017,0.833256545 C64.5280663,0.784670157 64.0175691,0.751874346 63.5070718,0.719078534 C63.2518232,0.702073298 62.9990055,0.677780105 62.7425414,0.665633508 C61.9731492,0.627979058 61.2001105,0.607329843 60.4222099,0.607329843 L60.4222099,0.607329843 C59.6321547,0.607329843 58.8481768,0.627979058 58.0678453,0.665633508 C57.8053039,0.678994764 57.5476243,0.705717277 57.2862983,0.722722513 Z" id="Shape" stroke="#6C5353" stroke-width="3.64640884" fill="#BA9686" fill-rule="nonzero" stroke-linejoin="round"></path>
                            <path d="M60.4307182,125.428188 C68.4856354,125.428188 75.0163536,118.901822 75.0163536,110.852272 L45.8450829,110.852272 C45.8450829,118.903037 52.3758011,125.428188 60.4307182,125.428188 Z" id="Shape" stroke="#6C5353" stroke-width="3.64640884" fill="#FFFFFF" fill-rule="nonzero"></path>
                        </g>
                    </g>
                </g>
            </g>
        </g>
    </g>
</svg>