<?xml version="1.0" encoding="UTF-8"?>
<svg width="224px" height="252px" viewBox="0 0 224 252" version="1.1" xmlns="http://www.w3.org/2000/svg" xmlns:xlink="http://www.w3.org/1999/xlink">
    <!-- Generator: Sketch 43.1 (39012) - http://www.bohemiancoding.com/sketch -->
    <title>Group 3</title>
    <desc>Created with Sketch.</desc>
    <defs>
        <ellipse id="path-1" cx="109.392265" cy="109.411765" rx="109.392265" ry="109.411765"></ellipse>
    </defs>
    <g id="Page-1" stroke="none" stroke-width="1" fill="none" fill-rule="evenodd">
        <g id="Website" transform="translate(-250.000000, -2954.000000)">
            <g id="Ponentes" transform="translate(1.000000, 1844.000000)">
                <g id="Group-14" transform="translate(251.000000, 1112.000000)">
                    <g id="Group-3">
                        <ellipse id="Oval" fill="#E5DBC8" fill-rule="nonzero" cx="110.607735" cy="138.588235" rx="109.392265" ry="109.411765"></ellipse>
                        <g id="Group" transform="translate(1.215470, 29.176471)">
                            <mask id="mask-2" fill="white">
                                <use xlink:href="#path-1"></use>
                            </mask>
                            <g id="Mask"></g>
                            <g mask="url(#mask-2)">
                                <g transform="translate(49.834254, 115.490196)">
                                    <path d="M102.526077,24.0535686 L59.2541436,0.183568627 L14.7886188,24.1119216 C5.77104972,28.9649412 0.147071823,38.378 0.147071823,48.6189412 L0.147071823,105.007333 L116.912376,105.007333 L116.912376,48.4232157 C116.912376,38.2856078 111.401436,28.9503529 102.526077,24.0535686 Z" id="Shape" stroke="none" fill="#D28170" fill-rule="nonzero"></path>
                                    <path d="M102.526077,24.0535686 L59.2541436,0.183568627 L14.7886188,24.1119216 C5.77104972,28.9649412 0.147071823,38.378 0.147071823,48.6189412 L0.147071823,105.007333 L116.912376,105.007333 L116.912376,48.4232157 C116.912376,38.2856078 111.401436,28.9503529 102.526077,24.0535686 Z" id="Shape" stroke="#6C5353" stroke-width="3.64640884" fill="none" stroke-linejoin="round"></path>
                                    <polygon id="Shape" stroke="none" fill="#6C5353" fill-rule="nonzero" points="77.818011 75.0114902 75.9948066 73.9173725 63.7112707 85.9465882 63.1703867 79.712549 71.3346961 69.1360784 69.9174586 68.1221961 62.798453 75.4199608 62.9358011 77.0076471 61.3751381 59.004549 57.7627624 61.8419608 55.2345856 81.5251373 41.5556906 72.5801176 39.3277348 74.8084706 54.3716022 88.2405882 50.8746961 115.471961 66.2710497 115.471961 64.4138122 94.0600784"></polygon>
                                    <path d="M59.0049724,48.2566667 L59.0049724,48.2566667 C72.4310497,48.2566667 83.3143646,37.3714118 83.3143646,23.9429412 L83.3143646,13.4552157 L59.2541436,0.182352941 L34.6955801,13.3980784 L34.6955801,23.9429412 C34.6955801,37.3714118 45.5801105,48.2566667 59.0049724,48.2566667 Z" id="Shape" stroke="none" fill="#F1DCAC" fill-rule="nonzero"></path>
                                    <path d="M46.8502762,14.8885098 L49.678674,16.8007843 C55.4351381,20.6909804 62.9771271,20.6909804 68.7335912,16.8007843 L71.1596685,15.1608235 L71.1596685,0.844901961 L46.8502762,0.844901961 L46.8502762,14.8885098 Z" id="Shape" stroke="none" fill="#E8C495" fill-rule="nonzero"></path>
                                    <path d="M59.0049724,48.2566667 L59.0049724,48.2566667 C72.4310497,48.2566667 83.3143646,37.3714118 83.3143646,23.9429412 L83.3143646,13.4552157 L59.2541436,0.182352941 L34.6955801,13.3980784 L34.6955801,23.9429412 C34.6955801,37.3714118 45.5801105,48.2566667 59.0049724,48.2566667 Z" id="Shape" stroke="#6C5353" stroke-width="3.64640884" fill="none"></path>
                                    <rect id="Rectangle-path" stroke="none" fill="#F1DCAC" fill-rule="nonzero" x="0.148287293" y="69.1263529" width="19.4475138" height="35.8809804"></rect>
                                    <rect id="Rectangle-path" stroke="#6C5353" stroke-width="3.64640884" fill="none" x="0.148287293" y="69.1263529" width="19.4475138" height="35.8809804"></rect>
                                    <rect id="Rectangle-path" stroke="none" fill="#F1DCAC" fill-rule="nonzero" x="97.4648619" y="69.1263529" width="19.4475138" height="35.8809804"></rect>
                                    <rect id="Rectangle-path" stroke="#6C5353" stroke-width="3.64640884" fill="none" x="97.4648619" y="69.1263529" width="19.4475138" height="35.8809804"></rect>
                                    <path d="M19.5958011,56.3798824 L19.5958011,105.007333" id="Shape" stroke="#6C5353" stroke-width="3.64640884" fill="none" stroke-linecap="round" stroke-linejoin="round"></path>
                                    <path d="M97.4648619,56.3798824 L97.4648619,105.007333" id="Shape" stroke="#6C5353" stroke-width="3.64640884" fill="none" stroke-linecap="round" stroke-linejoin="round"></path>
                                    <path d="M46.8502762,9.64039216 L46.8502762,24.2286275" id="Shape" stroke="#6C5353" stroke-width="3.64640884" fill="none" stroke-linecap="round"></path>
                                    <path d="M71.1620994,9.64039216 L71.1620994,24.2286275" id="Shape" stroke="#6C5353" stroke-width="3.64640884" fill="none" stroke-linecap="round"></path>
                                </g>
                            </g>
                        </g>
                        <ellipse id="Oval" stroke="#6C5353" stroke-width="3.64640884" stroke-linejoin="round" cx="110" cy="138.044824" rx="109.392265" ry="109.411765"></ellipse>
                        <g id="Group-2" transform="translate(49.834254, 0.000000)">
                            <path d="M5.04906077,154.530745 C38.6130387,154.530745 65.8225414,127.316392 65.8225414,93.7464314 L5.04906077,93.7464314 L5.04906077,154.530745 L5.04906077,154.530745 Z" id="Shape" stroke="#6C5353" stroke-width="3.64640884" fill="#BA9686" fill-rule="nonzero" stroke-linejoin="round"></path>
                            <path d="M59.7451934,0.649176471 L59.7451934,0.649176471 C29.5371271,0.649176471 5.04906077,25.1416078 5.04906077,55.3550588 L5.04906077,106.080784 L114.441326,106.080784 L114.441326,55.3550588 C114.441326,25.1428235 89.9532597,0.649176471 59.7451934,0.649176471 Z" id="Shape" stroke="#6C5353" stroke-width="3.73027624" fill="#BA9686" fill-rule="nonzero" stroke-linejoin="round"></path>
                            <path d="M114.441326,69.0315294 C114.441326,69.0315294 110.408398,117.398824 143.053481,117.898471 C143.053481,117.898471 144.26895,133.210039 128.331713,144.147569 C106.376685,159.216 60.4367956,154.008 60.4209945,118.698392 C60.3893923,46.6908627 114.441326,69.0315294 114.441326,69.0315294 Z" id="Shape" fill="#BA9686" fill-rule="nonzero"></path>
                            <path d="M114.441326,69.0315294 C114.441326,69.0315294 112.970608,117.398824 143.053481,117.898471 C143.053481,117.898471 144.26895,133.210039 128.331713,144.147569 C106.376685,159.216 60.4367956,154.008 60.4209945,118.698392" id="Shape" stroke="#6C5353" stroke-width="3.73027624" stroke-linecap="round" stroke-linejoin="round"></path>
                            <path d="M13.018895,114.714588 L17.8807735,114.714588 C24.5938122,114.714588 30.0354696,109.271961 30.0354696,102.557725 L30.0354696,102.557725 C30.0354696,95.8434902 24.5938122,90.4008627 17.8807735,90.4008627 L13.018895,90.4008627 C6.30585635,90.4008627 0.864198895,95.8434902 0.864198895,102.557725 L0.864198895,102.557725 C0.864198895,109.271961 6.30585635,114.714588 13.018895,114.714588 Z" id="Shape" stroke="#6C5353" stroke-width="3.64640884" fill="#F1DCAC" fill-rule="nonzero"></path>
                            <path d="M102.963646,114.714588 L107.825525,114.714588 C114.538564,114.714588 119.980221,109.271961 119.980221,102.557725 L119.980221,102.557725 C119.980221,95.8434902 114.538564,90.4008627 107.825525,90.4008627 L102.963646,90.4008627 C96.2506077,90.4008627 90.8089503,95.8434902 90.8089503,102.557725 L90.8089503,102.557725 C90.8089503,109.271961 96.2506077,114.714588 102.963646,114.714588 Z" id="Shape" stroke="#6C5353" stroke-width="3.64640884" fill="#F1DCAC" fill-rule="nonzero"></path>
                            <path d="M105.394586,45.9517255 C105.394586,45.9517255 39.180663,44.8126275 15.4498343,55.5507843 L15.4498343,45.9517255 C15.4498343,45.9517255 56.400221,31.6929412 105.394586,45.9517255 Z" id="Shape" fill="#D4BC8B" fill-rule="nonzero"></path>
                            <ellipse id="Oval" stroke="#6C5353" stroke-width="3.64640884" fill="#FFFFFF" fill-rule="nonzero" cx="12.8548066" cy="116.942941" rx="6.07734807" ry="6.07843137"></ellipse>
                            <ellipse id="Oval" stroke="#6C5353" stroke-width="3.64640884" fill="#FFFFFF" fill-rule="nonzero" cx="108.882983" cy="116.942941" rx="6.07734807" ry="6.07843137"></ellipse>
                            <path d="M60.4222099,155.747647 L60.4222099,155.747647 C35.5840884,155.747647 15.4498343,135.609804 15.4498343,110.767255 L15.4498343,46.3358824 L105.394586,46.3358824 L105.394586,110.768471 C105.394586,135.609804 85.2603315,155.747647 60.4222099,155.747647 Z" id="Shape" fill="#F1DCAC" fill-rule="nonzero"></path>
                            <path d="M15.4498343,85.1721961 C36.4069613,84.5181569 56.7697238,75.5646275 67.081768,58.9534902 C76.4372376,64.8398431 85.0488398,65.7832157 96.9203315,65.7832157 C99.7973481,65.7832157 102.62453,65.5692549 105.394586,65.181451 L105.394586,46.3358824 L15.4498343,46.3358824 L15.4498343,85.1721961 Z" id="Shape" fill="#E8C495" fill-rule="nonzero"></path>
                            <path d="M60.4222099,155.747647 L60.4222099,155.747647 C35.5840884,155.747647 15.4498343,135.609804 15.4498343,110.767255 L15.4498343,46.3358824 L105.394586,46.3358824 L105.394586,110.768471 C105.394586,135.609804 85.2603315,155.747647 60.4222099,155.747647 Z" id="Shape" stroke="#6C5353" stroke-width="3.64640884"></path>
                            <ellipse id="Oval" fill="#6C5353" fill-rule="nonzero" cx="39.5963536" cy="99.9221176" rx="4.86187845" ry="4.8627451"></ellipse>
                            <ellipse id="Oval" fill="#E6BC96" fill-rule="nonzero" cx="34.7344751" cy="118.158627" rx="4.86187845" ry="4.8627451"></ellipse>
                            <ellipse id="Oval" fill="#6C5353" fill-rule="nonzero" cx="80.9235359" cy="99.9221176" rx="4.86187845" ry="4.8627451"></ellipse>
                            <ellipse id="Oval" fill="#E6BC96" fill-rule="nonzero" cx="85.7866298" cy="118.158627" rx="4.86187845" ry="4.8627451"></ellipse>
                            <path d="M27.438011,90.5297255 L49.3164641,86.6115686" id="Shape" stroke="#6C5353" stroke-width="3.64640884" stroke-linecap="round"></path>
                            <path d="M91.8627624,90.5297255 L69.9843094,86.6115686" id="Shape" stroke="#6C5353" stroke-width="3.64640884" stroke-linecap="round"></path>
                            <path d="M15.461989,39.6240784 C6.6,49.9659216 1.15226519,63.3226667 0.865414365,77.9449412 C4.78287293,78.7375686 8.83524862,79.1569804 12.9860773,79.1569804 C34.7976796,79.1569804 53.9145856,67.661451 64.6301657,50.3987059 C73.9856354,56.2850588 85.0500552,59.7047843 96.921547,59.7047843 C101.072376,59.7047843 105.124751,59.2853725 109.04221,58.4927451 L110.409613,39.6143529 L15.461989,39.6240784 Z" id="Shape" fill="#BA9686" fill-rule="nonzero"></path>
                            <path d="M15.461989,39.6240784 C6.6,49.9659216 1.15226519,63.3226667 0.865414365,77.9449412 C4.78287293,78.7375686 8.83524862,79.1569804 12.9860773,79.1569804 C34.7976796,79.1569804 53.9145856,67.661451 64.6301657,50.3987059 C73.9856354,56.2850588 85.0500552,59.7047843 96.921547,59.7047843 C101.072376,59.7047843 105.124751,59.2853725 109.04221,58.4927451" id="Shape" stroke="#6C5353" stroke-width="3.64640884" stroke-linecap="round" stroke-linejoin="round"></path>
                            <path d="M15.0341436,70.8672157 C31.5037569,69.3074902 45.8074033,61.3094902 55.701326,49.5975686" id="Shape" stroke="#6C5353" stroke-width="3.64640884" stroke-linecap="round" stroke-linejoin="round"></path>
                            <path d="M56.5740331,114.357176 L63.8668508,114.357176" id="Shape" stroke="#6C5353" stroke-width="3.64640884" stroke-linecap="round"></path>
                            <path d="M60.4489503,139.698157 C68.5038674,139.698157 75.0345856,133.166275 75.0345856,125.109922 L45.8633149,125.109922 C45.8633149,133.16749 52.3928177,139.698157 60.4489503,139.698157 Z" id="Shape" stroke="#6C5353" stroke-width="3.64640884" fill="#FFFFFF" fill-rule="nonzero"></path>
                        </g>
                    </g>
                </g>
            </g>
        </g>
    </g>
</svg>