<?xml version="1.0" encoding="utf-8"?>
<!-- Generator: Adobe Illustrator 20.1.0, SVG Export Plug-In . SVG Version: 6.00 Build 0)  -->
<svg version="1.1" id="Capa_1" xmlns="http://www.w3.org/2000/svg" xmlns:xlink="http://www.w3.org/1999/xlink" x="0px" y="0px"
	 viewBox="0 0 183 216.52" style="enable-background:new 0 0 183 216.52;" xml:space="preserve">
<style type="text/css">
	.st0{fill:#E5DBC8;}
	.st1{fill:#BA9686;stroke:#6C5353;stroke-width:3.069;stroke-linejoin:round;}
	.st2{clip-path:url(#SVGID_2_);}
	.st3{fill:#C34E75;}
	.st4{fill:none;stroke:#6C5353;stroke-width:3;stroke-linejoin:round;}
	.st5{fill:#F1DCAC;}
	.st6{fill:none;stroke:#6C5353;stroke-width:3;}
	.st7{fill:none;stroke:#6C5353;stroke-width:3;stroke-linecap:round;stroke-linejoin:round;}
	.st8{fill:#FFFFFF;}
	.st9{fill:#E8C495;}
	.st10{fill:#F1DCAC;stroke:#6C5353;stroke-width:3;}
	.st11{fill:#D4BC8B;}
	.st12{fill:#6C5353;}
	.st13{fill:#E6BC96;}
	.st14{fill:none;stroke:#BE2F74;stroke-width:3;}
	.st15{fill:none;stroke:#6C5353;stroke-width:3.1178;stroke-linecap:round;}
	.st16{fill:none;stroke:#6C5353;stroke-width:3;stroke-linecap:round;}
	.st17{fill:#BA9686;}
	.st18{fill:#FFFFFF;stroke:#6C5353;stroke-width:3;stroke-miterlimit:10;}
</style>
<g>
	<circle class="st0" cx="91.5" cy="125.02" r="90"/>
	<path class="st1" d="M138.711,97.661l-12-3.079c0,0,9.874-0.834,17.15-8.753c10.167-11.064,13.4-47.951-15.417-52.399
		c0,0,2.505-4.985,1.333-9.5c-1.221-4.704-8.015-10.057-16.365-4.821c0,0,1.022-9.641-3.635-14.095
		c-4.884-4.671-15.57-3.925-20.624,6.988c0,0-3.862-11.404-12.577-10.404s-9.951,10.775-8,15.387c0,0-5.518-10.544-20.382-4.929
		c-9.927,3.75-11.286,13.957-9.5,20.125c1.917,6.621,8.165,9.417,8.165,9.417s-17.54,0.371-17.54,16.047s12.875,18.16,12.875,18.16
		s-13.766-1.08-13.766,13.856c0,15.644,19.514,13.149,23.274,12.989c-2.906,0.29-8.632,7.101-8.508,15.28c0,0-7.25-3.894-13,0.375
		c-6.969,5.174-3.846,14.267-0.75,17.75c4,4.5,10.698,3.167,14.5,0.625c0,0-3.555,15.864,10,19.963c0,0,26.95,13.258,35.766-17.061
		c0,0,12.46,16.592,33.734,11.348c15.266-3.763,13.742-19.91,4.779-25.91c0,0,10.866,1.889,15.471-3.59
		C149.243,114.829,148.561,101.392,138.711,97.661z"/>
	<g>
		<defs>
			<circle id="SVGID_1_" cx="91.5" cy="125.02" r="90"/>
		</defs>
		<clipPath id="SVGID_2_">
			<use xlink:href="#SVGID_1_"  style="overflow:visible;"/>
		</clipPath>
		<g class="st2">
			<path class="st3" d="M125.351,150.253L89.75,130.617L53.167,150.3c-7.419,3.992-12.046,11.735-12.046,20.159v46.384h96.066
				v-46.545C137.187,161.96,132.653,154.28,125.351,150.253z"/>
			<path class="st4" d="M125.351,150.253L89.75,130.617L53.167,150.3c-7.419,3.992-12.046,11.735-12.046,20.159v46.384h96.066
				v-46.545C137.187,161.96,132.653,154.28,125.351,150.253z"/>
			<rect x="41.122" y="187.328" class="st5" width="16" height="29.515"/>
			<rect x="41.122" y="187.328" class="st6" width="16" height="29.515"/>
			<rect x="121.187" y="187.328" class="st5" width="16" height="29.515"/>
			<rect x="121.187" y="187.328" class="st6" width="16" height="29.515"/>
			<line class="st7" x1="57.122" y1="176.843" x2="57.122" y2="216.843"/>
			<line class="st7" x1="121.187" y1="176.843" x2="121.187" y2="216.843"/>
			<g>
				<path class="st8" d="M78.593,195.605c-0.316-0.285-0.572-0.863-0.551-1.266c-0.016-6.052-0.012-18.158-0.012-18.158
					l-4.839,0.806c0,0-0.004,11.516,0,17.676c-0.001,1.875,0.948,3.818,2.669,4.674c0.98,0.535,2.631,0.684,3.935,0.709l0.762-3.8
					C80.557,196.246,79.214,196.166,78.593,195.605z"/>
				<path class="st8" d="M105.111,190.605c-0.004-1.234,0.016-2.512-0.449-3.679c-0.423-1.045-1.133-1.999-2.092-2.605
					c-1.396-0.836-3.165-1.317-4.74-1.057c-1.158,0.185-3.039,0.764-3.927,1.504c-1.911-2.219-9.092-1.82-11.177,0.137
					c0.004-0.428,0,9.621,0,15.044c1.658,0,2.995,0.002,4.653,0c-0.003-3.165-0.003-9.494-0.003-9.494l-0.005-2.972
					c0,0,2.738-0.289,3.567,0.362c0.748,0.587,0.714,1.785,0.716,2.456c0.001,3.214-0.002,6.433,0,9.648c1.657,0,2.834,0,4.491,0
					c0-3.217-0.001-6.433,0.001-9.652c0.003-0.598,0.001-2.627,0.001-2.627s2.592-0.628,3.513,0.24
					c0.812,0.765,0.756,1.612,0.758,2.245c0.001,3.264,0.001,9.793,0.001,9.793l4.692,0V190.605z"/>
			</g>
		</g>
	</g>
	<path class="st4" d="M29.516,59.767C12.259,76.164,1.5,99.336,1.5,125.02c0,49.706,40.294,90,90,90s90-40.294,90-90
		c0-27.077-11.957-51.361-30.879-67.86"/>
	<g>
		<path class="st5" d="M89.733,156.643L89.733,156.643c-5.523,0-10-4.477-10-10v-24.001h20v24.001
			C99.733,152.166,95.256,156.643,89.733,156.643z"/>
		<path class="st9" d="M79.733,143.194l2.327,1.573c4.736,3.2,10.941,3.2,15.677,0l1.996-1.349v-11.776h-20V143.194z"/>
		<path class="st6" d="M89.733,156.643L89.733,156.643c-5.523,0-10-4.477-10-10v-24.001h20v24.001
			C99.733,152.166,95.256,156.643,89.733,156.643z"/>
		<path class="st10" d="M50.711,105.829h4c5.523,0,10-4.477,10-10v0c0-5.523-4.477-10-10-10h-4c-5.523,0-10,4.477-10,10v0
			C40.711,101.351,45.188,105.829,50.711,105.829z"/>
		<path class="st10" d="M124.711,105.829h4c5.523,0,10-4.477,10-10v0c0-5.523-4.477-10-10-10h-4c-5.523,0-10,4.477-10,10v0
			C114.711,101.351,119.188,105.829,124.711,105.829z"/>
		<path class="st11" d="M126.711,49.266c0,0-54.476-0.937-74,7.896v-7.896C52.711,49.266,86.402,37.536,126.711,49.266z"/>
		<path class="st5" d="M89.711,139.582L89.711,139.582c-20.435,0-37-16.565-37-37V49.581h74v53.001
			C126.711,123.016,110.146,139.582,89.711,139.582z"/>
		<path class="st9" d="M52.711,75.795c3.817,0.968,14.067,0.052,15.094-7.856c0,0,15.389,4.364,18.139-5.754
			c0,0,10,1.003,11.25-6.067c0,0,1.903,6.022,12.75,6.062c0,0,2.415,11.836,16.766,14.578V49.581h-74V75.795z"/>
		<path class="st6" d="M89.711,139.582L89.711,139.582c-20.435,0-37-16.565-37-37V49.581h74v53.001
			C126.711,123.016,110.146,139.582,89.711,139.582z"/>
		<circle class="st12" cx="72.577" cy="93.661" r="4"/>
		<circle class="st13" cx="68.577" cy="108.662" r="4"/>
		<circle class="st12" cx="106.578" cy="93.661" r="4"/>
		<circle class="st13" cx="110.579" cy="108.662" r="4"/>
		<path class="st14" d="M89.711,114.036"/>
		<path class="st15" d="M82.516,107.529c0.965,2.325,3.554,3.989,6.597,3.989c3.134,0,5.787-1.766,6.679-4.2"/>
		<path class="st16" d="M83.629,84.921c-3.052-2.249-6.881-3.601-11.052-3.601c-4.171,0-8,1.352-11.052,3.601"/>
		<path class="st16" d="M117.631,84.921c-3.052-2.249-6.881-3.601-11.052-3.601c-4.171,0-8,1.352-11.052,3.601"/>
		<path class="st17" d="M132.711,72.303c-18.132,0-18.132-15.373-18.132-15.373c-13.615,0-19.053-9.943-19.053-9.943
			C94.525,59.71,83.629,56.93,83.629,56.93c-2.899,12.333-18.918,4.333-18.918,4.333c0,11.04-15.59,10.667-15.59,10.667V42.986
			h83.59V72.303z"/>
		<path class="st7" d="M49.122,71.93c0,0,15.59,0.373,15.59-10.667c0,0,16.019,8,18.918-4.333c0,0,10.896,2.78,11.898-9.943
			c0,0,5.438,9.943,19.053,9.943c0,0,0,15.373,18.132,15.373"/>
		<path class="st18" d="M89.733,131.02c6.627,0,12-5.373,12-12h-24C77.733,125.647,83.105,131.02,89.733,131.02z"/>
		<path class="st1" d="M82.685,38.02c0,0,4.252-9.757,15.047-7.423c9.985,2.158,10.847,12.5,10.847,12.5"/>
		<path class="st1" d="M80.516,25.764c0,0,6.289-1.721,8.984,4.473"/>
	</g>
</g>
</svg>
