<?xml version="1.0" encoding="UTF-8"?>
<svg width="223px" height="271px" viewBox="0 0 223 271" version="1.1" xmlns="http://www.w3.org/2000/svg" xmlns:xlink="http://www.w3.org/1999/xlink">
    <!-- Generator: Sketch 43.1 (39012) - http://www.bohemiancoding.com/sketch -->
    <title>Call for papers</title>
    <desc>Created with Sketch.</desc>
    <defs></defs>
    <g id="Page-1" stroke="none" stroke-width="1" fill="none" fill-rule="evenodd">
        <g id="Website" transform="translate(-957.000000, -5358.000000)">
            <g id="Ponentes" transform="translate(1.000000, 1844.000000)">
                <g id="Call-for-papers" transform="translate(957.000000, 3514.000000)">
                    <g id="paper-plane" transform="translate(162.000000, 0.000000)" fill-rule="nonzero">
                        <path d="M46.5121244,53.3647599 L30.7193782,39.8167373 L22.9473575,51.0653249 C21.8903627,52.5568503 19.5276684,51.8110876 19.5276684,50.0088277 L19.5276684,34.2235169 L2.0561658,28.381709 C0.999170984,28.0088277 0.936994819,26.5173023 1.93181347,26.082274 L58.6986528,1.28566384 L48.5639378,52.6189972 C48.3774093,53.5512006 47.2582383,53.9862288 46.5121244,53.3647599 Z" id="Shape" fill="#E7D5B1"></path>
                        <g id="Group" fill="#715757">
                            <path d="M28.8540933,27.822387 C28.4810363,27.822387 28.1701554,27.6980932 27.9214508,27.3873588 C27.4862176,26.8280367 27.5483938,26.082274 28.1079793,25.6472458 L57.3307772,1.59639831 C57.8903627,1.16137006 58.6364767,1.22351695 59.0717098,1.78283898 C59.506943,2.34216102 59.4447668,3.08792373 58.8851813,3.52295198 L29.6623834,27.5737994 C29.4136788,27.7602401 29.1027979,27.822387 28.8540933,27.822387 Z" id="Shape"></path>
                            <path d="M23.506943,32.1726695 C23.133886,32.1726695 22.760829,31.9862288 22.5121244,31.7376412 C22.0768912,31.1783192 22.1390674,30.4325565 22.6986528,29.9975282 L24.6882902,28.381709 C25.2478756,27.9466808 25.9939896,28.0088277 26.4292228,28.5681497 C26.864456,29.1274718 26.8022798,29.8732345 26.2426943,30.3082627 L24.253057,31.9240819 C24.0665285,32.1105226 23.7556477,32.1726695 23.506943,32.1726695 Z" id="Shape"></path>
                            <path d="M30.7193782,41.0596751 C30.4706736,41.0596751 30.2219689,40.9975282 29.9732642,40.8110876 C29.4136788,40.3760593 29.2893264,39.6302966 29.7245596,39.0709746 L57.0820725,1.78283898 C57.5173057,1.22351695 58.2634197,1.09922316 58.8230052,1.53425141 C59.3825907,1.96927966 59.506943,2.71504237 59.0717098,3.27436441 L31.7141969,40.5625 C31.4654922,40.8732345 31.0924352,41.0596751 30.7193782,41.0596751 Z" id="Shape"></path>
                            <path d="M47.3204145,54.9184322 C46.760829,54.9184322 46.2012435,54.7319915 45.7038342,54.3591102 L45.7038342,54.3591102 L30.9680829,41.6811441 L24.0043523,51.8110876 C23.1960622,52.9297316 21.8281865,53.4269068 20.4603109,52.9918785 C19.1546114,52.5568503 18.2841451,51.4382062 18.2841451,50.0709746 L18.2841451,35.1557203 L1.68310881,29.6246469 C0.688290155,29.2517655 0.0665284974,28.381709 0.00435233161,27.3252119 C-0.0578238342,26.3308616 0.563937824,25.3986582 1.43440415,24.9636299 L58.2012435,0.167019774 C58.6364767,-0.019420904 59.133886,0.0427259887 59.506943,0.353460452 C59.88,0.664194915 60.0665285,1.09922316 59.9421762,1.53425141 L49.8074611,52.8675847 C49.6209326,53.7376412 48.999171,54.483404 48.1908808,54.7319915 C47.88,54.8562853 47.5691192,54.9184322 47.3204145,54.9184322 Z M47.3204145,52.4325565 L47.3204145,52.4325565 L57.0198964,3.39865819 L2.4292228,27.2009181 L19.9007254,33.042726 C20.3981347,33.2291667 20.7711917,33.6641949 20.7711917,34.2235169 L20.7711917,50.0088277 C20.7711917,50.381709 21.0820725,50.5681497 21.2064249,50.5681497 C21.3307772,50.6302966 21.7038342,50.6924435 21.9525389,50.3195621 L29.7245596,39.0709746 C29.9110881,38.7602401 30.2219689,38.5737994 30.5950259,38.5737994 C30.9680829,38.5116525 31.2789637,38.6359463 31.5898446,38.8845339 L47.3204145,52.4325565 Z" id="Shape"></path>
                        </g>
                    </g>
                    <g id="paper-plane-copy" transform="translate(58.000000, 125.500000) scale(-1, 1) translate(-58.000000, -125.500000) translate(28.000000, 98.000000)" fill-rule="nonzero">
                        <path d="M46.5121244,53.3647599 L30.7193782,39.8167373 L22.9473575,51.0653249 C21.8903627,52.5568503 19.5276684,51.8110876 19.5276684,50.0088277 L19.5276684,34.2235169 L2.0561658,28.381709 C0.999170984,28.0088277 0.936994819,26.5173023 1.93181347,26.082274 L58.6986528,1.28566384 L48.5639378,52.6189972 C48.3774093,53.5512006 47.2582383,53.9862288 46.5121244,53.3647599 Z" id="Shape" fill="#E7D5B1"></path>
                        <g id="Group" fill="#715757">
                            <path d="M28.8540933,27.822387 C28.4810363,27.822387 28.1701554,27.6980932 27.9214508,27.3873588 C27.4862176,26.8280367 27.5483938,26.082274 28.1079793,25.6472458 L57.3307772,1.59639831 C57.8903627,1.16137006 58.6364767,1.22351695 59.0717098,1.78283898 C59.506943,2.34216102 59.4447668,3.08792373 58.8851813,3.52295198 L29.6623834,27.5737994 C29.4136788,27.7602401 29.1027979,27.822387 28.8540933,27.822387 Z" id="Shape"></path>
                            <path d="M23.506943,32.1726695 C23.133886,32.1726695 22.760829,31.9862288 22.5121244,31.7376412 C22.0768912,31.1783192 22.1390674,30.4325565 22.6986528,29.9975282 L24.6882902,28.381709 C25.2478756,27.9466808 25.9939896,28.0088277 26.4292228,28.5681497 C26.864456,29.1274718 26.8022798,29.8732345 26.2426943,30.3082627 L24.253057,31.9240819 C24.0665285,32.1105226 23.7556477,32.1726695 23.506943,32.1726695 Z" id="Shape"></path>
                            <path d="M30.7193782,41.0596751 C30.4706736,41.0596751 30.2219689,40.9975282 29.9732642,40.8110876 C29.4136788,40.3760593 29.2893264,39.6302966 29.7245596,39.0709746 L57.0820725,1.78283898 C57.5173057,1.22351695 58.2634197,1.09922316 58.8230052,1.53425141 C59.3825907,1.96927966 59.506943,2.71504237 59.0717098,3.27436441 L31.7141969,40.5625 C31.4654922,40.8732345 31.0924352,41.0596751 30.7193782,41.0596751 Z" id="Shape"></path>
                            <path d="M47.3204145,54.9184322 C46.760829,54.9184322 46.2012435,54.7319915 45.7038342,54.3591102 L45.7038342,54.3591102 L30.9680829,41.6811441 L24.0043523,51.8110876 C23.1960622,52.9297316 21.8281865,53.4269068 20.4603109,52.9918785 C19.1546114,52.5568503 18.2841451,51.4382062 18.2841451,50.0709746 L18.2841451,35.1557203 L1.68310881,29.6246469 C0.688290155,29.2517655 0.0665284974,28.381709 0.00435233161,27.3252119 C-0.0578238342,26.3308616 0.563937824,25.3986582 1.43440415,24.9636299 L58.2012435,0.167019774 C58.6364767,-0.019420904 59.133886,0.0427259887 59.506943,0.353460452 C59.88,0.664194915 60.0665285,1.09922316 59.9421762,1.53425141 L49.8074611,52.8675847 C49.6209326,53.7376412 48.999171,54.483404 48.1908808,54.7319915 C47.88,54.8562853 47.5691192,54.9184322 47.3204145,54.9184322 Z M47.3204145,52.4325565 L47.3204145,52.4325565 L57.0198964,3.39865819 L2.4292228,27.2009181 L19.9007254,33.042726 C20.3981347,33.2291667 20.7711917,33.6641949 20.7711917,34.2235169 L20.7711917,50.0088277 C20.7711917,50.381709 21.0820725,50.5681497 21.2064249,50.5681497 C21.3307772,50.6302966 21.7038342,50.6924435 21.9525389,50.3195621 L29.7245596,39.0709746 C29.9110881,38.7602401 30.2219689,38.5737994 30.5950259,38.5737994 C30.9680829,38.5116525 31.2789637,38.6359463 31.5898446,38.8845339 L47.3204145,52.4325565 Z" id="Shape"></path>
                        </g>
                    </g>
                    <g id="paper-plane-copy-2" transform="translate(112.000000, 237.500000) scale(-1, 1) rotate(-320.000000) translate(-112.000000, -237.500000) translate(82.000000, 210.000000)" fill-rule="nonzero">
                        <path d="M46.5121244,53.3647599 L30.7193782,39.8167373 L22.9473575,51.0653249 C21.8903627,52.5568503 19.5276684,51.8110876 19.5276684,50.0088277 L19.5276684,34.2235169 L2.0561658,28.381709 C0.999170984,28.0088277 0.936994819,26.5173023 1.93181347,26.082274 L58.6986528,1.28566384 L48.5639378,52.6189972 C48.3774093,53.5512006 47.2582383,53.9862288 46.5121244,53.3647599 Z" id="Shape" fill="#E7D5B1"></path>
                        <g id="Group" fill="#715757">
                            <path d="M28.8540933,27.822387 C28.4810363,27.822387 28.1701554,27.6980932 27.9214508,27.3873588 C27.4862176,26.8280367 27.5483938,26.082274 28.1079793,25.6472458 L57.3307772,1.59639831 C57.8903627,1.16137006 58.6364767,1.22351695 59.0717098,1.78283898 C59.506943,2.34216102 59.4447668,3.08792373 58.8851813,3.52295198 L29.6623834,27.5737994 C29.4136788,27.7602401 29.1027979,27.822387 28.8540933,27.822387 Z" id="Shape"></path>
                            <path d="M23.506943,32.1726695 C23.133886,32.1726695 22.760829,31.9862288 22.5121244,31.7376412 C22.0768912,31.1783192 22.1390674,30.4325565 22.6986528,29.9975282 L24.6882902,28.381709 C25.2478756,27.9466808 25.9939896,28.0088277 26.4292228,28.5681497 C26.864456,29.1274718 26.8022798,29.8732345 26.2426943,30.3082627 L24.253057,31.9240819 C24.0665285,32.1105226 23.7556477,32.1726695 23.506943,32.1726695 Z" id="Shape"></path>
                            <path d="M30.7193782,41.0596751 C30.4706736,41.0596751 30.2219689,40.9975282 29.9732642,40.8110876 C29.4136788,40.3760593 29.2893264,39.6302966 29.7245596,39.0709746 L57.0820725,1.78283898 C57.5173057,1.22351695 58.2634197,1.09922316 58.8230052,1.53425141 C59.3825907,1.96927966 59.506943,2.71504237 59.0717098,3.27436441 L31.7141969,40.5625 C31.4654922,40.8732345 31.0924352,41.0596751 30.7193782,41.0596751 Z" id="Shape"></path>
                            <path d="M47.3204145,54.9184322 C46.760829,54.9184322 46.2012435,54.7319915 45.7038342,54.3591102 L45.7038342,54.3591102 L30.9680829,41.6811441 L24.0043523,51.8110876 C23.1960622,52.9297316 21.8281865,53.4269068 20.4603109,52.9918785 C19.1546114,52.5568503 18.2841451,51.4382062 18.2841451,50.0709746 L18.2841451,35.1557203 L1.68310881,29.6246469 C0.688290155,29.2517655 0.0665284974,28.381709 0.00435233161,27.3252119 C-0.0578238342,26.3308616 0.563937824,25.3986582 1.43440415,24.9636299 L58.2012435,0.167019774 C58.6364767,-0.019420904 59.133886,0.0427259887 59.506943,0.353460452 C59.88,0.664194915 60.0665285,1.09922316 59.9421762,1.53425141 L49.8074611,52.8675847 C49.6209326,53.7376412 48.999171,54.483404 48.1908808,54.7319915 C47.88,54.8562853 47.5691192,54.9184322 47.3204145,54.9184322 Z M47.3204145,52.4325565 L47.3204145,52.4325565 L57.0198964,3.39865819 L2.4292228,27.2009181 L19.9007254,33.042726 C20.3981347,33.2291667 20.7711917,33.6641949 20.7711917,34.2235169 L20.7711917,50.0088277 C20.7711917,50.381709 21.0820725,50.5681497 21.2064249,50.5681497 C21.3307772,50.6302966 21.7038342,50.6924435 21.9525389,50.3195621 L29.7245596,39.0709746 C29.9110881,38.7602401 30.2219689,38.5737994 30.5950259,38.5737994 C30.9680829,38.5116525 31.2789637,38.6359463 31.5898446,38.8845339 L47.3204145,52.4325565 Z" id="Shape"></path>
                        </g>
                    </g>
                    <path d="M169.296875,64.0390625 C169.296875,64.0390625 138.539062,101.820312 106.96875,101.820312 C75.3984375,101.820312 60.5351562,63.0429687 24.9335938,82.6640625 C-10.6679687,102.285156 3.66796875,159.328125 3.66796875,159.328125" id="Path-4" stroke="#E7D5B1" stroke-width="3" stroke-dasharray="8"></path>
                    <path d="M184.666308,125.301038 C160.292347,125.301038 154.632054,121.458021 136.220394,109.607427 C112.106388,94.0865414 95.6071978,74.2942383 72.4945476,87.5570476 C31.7347979,110.946351 83.8422038,167.404704 83.8422038,167.404704" id="Path-4-Copy" stroke="#E7D5B1" stroke-width="3" stroke-dasharray="8" transform="translate(120.791166, 125.301038) scale(-1, 1) rotate(-90.000000) translate(-120.791166, -125.301038) "></path>
                    <path d="M222.297418,185.46943 C166.000543,185.46943 163.528997,129.96543 122.769247,153.354734 C82.0094975,176.744037 134.116903,233.20239 134.116903,233.20239" id="Path-4-Copy-2" stroke="#E7D5B1" stroke-width="3" stroke-dasharray="8" transform="translate(164.744071, 190.402810) scale(-1, 1) rotate(-54.000000) translate(-164.744071, -190.402810) "></path>
                </g>
            </g>
        </g>
    </g>
</svg>