<?xml version="1.0" encoding="UTF-8"?>
<svg width="41px" height="48px" viewBox="0 0 41 48" version="1.1" xmlns="http://www.w3.org/2000/svg" xmlns:xlink="http://www.w3.org/1999/xlink">
    <!-- Generator: Sketch 43.1 (39012) - http://www.bohemiancoding.com/sketch -->
    <title>food (1)</title>
    <desc>Created with Sketch.</desc>
    <defs></defs>
    <g id="Page-1" stroke="none" stroke-width="1" fill="none" fill-rule="evenodd">
        <g id="Website" transform="translate(-730.000000, -8909.000000)" fill-rule="nonzero" fill="#A0D468">
            <g id="Entrada" transform="translate(0.000000, 8408.000000)">
                <g id="Group-35" transform="translate(250.000000, 431.000000)">
                    <g id="Group-33" transform="translate(480.000000, 70.000000)">
                        <g id="food-(1)" transform="translate(20.500000, 24.000000) scale(-1, 1) translate(-20.500000, -24.000000) ">
                            <path d="M12.6175091,34.7282685 L11.7429138,24.2002685 C11.7051253,23.7456107 11.3262768,23.3957584 10.8713159,23.3957584 L9.70511749,23.3957584 C6.32920104,23.3957584 3.58284334,26.1508725 3.58284334,29.5370738 C3.58284334,32.9232752 6.32941514,35.6783893 9.70511749,35.6783893 L11.7459112,35.6783893 C11.9904125,35.6783893 12.2238877,35.5757315 12.3894935,35.3951141 C12.5550992,35.214604 12.6377415,34.9728859 12.6175091,34.7282685 Z M9.70511749,33.9237584 C7.29371802,33.9237584 5.33203394,31.9559732 5.33203394,29.5370738 C5.33203394,27.1181745 7.29382507,25.1503893 9.70511749,25.1503893 L10.066517,25.1503893 L10.7953107,33.9237584 L9.70511749,33.9237584 Z" id="Shape"></path>
                            <path d="M40.6690026,16.6604027 C40.5032898,16.4797852 40.2699217,16.3771275 40.0253133,16.3771275 L10.2883238,16.3771275 C10.0438225,16.3771275 9.81034726,16.4797852 9.64474151,16.6604027 C9.47913577,16.8409128 9.39649347,17.0827383 9.41672585,17.3272483 L9.62932637,19.8867114 C4.3591671,19.9276242 0.0843550914,24.2409664 0.0843550914,29.5370738 C0.0843550914,34.8584161 4.40027415,39.1877584 9.70511749,39.1877584 L11.2328225,39.1877584 L11.313752,40.1621477 C11.6709765,44.4624966 15.461389,47.9611275 19.7633916,47.9611275 L30.5503525,47.9611275 C34.852248,47.9611275 38.6427676,44.4624966 38.9998851,40.1621477 L40.8970183,17.3271409 C40.9172507,17.0826309 40.8346084,16.8409128 40.6690026,16.6604027 Z M37.2564752,40.0165369 C36.9730078,43.4296913 33.9644856,46.206604 30.5501384,46.206604 L19.7631775,46.206604 C16.3488303,46.206604 13.3403081,43.4297987 13.0568407,40.0165369 L12.9090052,38.2376376 C12.8712167,37.7829799 12.4922611,37.4331275 12.0374073,37.4331275 L9.70511749,37.4331275 C5.36468407,37.4331275 1.83354569,33.8910067 1.83354569,29.5370738 C1.83354569,25.1831409 5.36479112,21.6410201 9.70511749,21.6410201 L10.5797128,21.6410201 C10.8242141,21.6410201 11.0576893,21.5383624 11.223295,21.357745 C11.3889008,21.1772349 11.4715431,20.9354094 11.4513107,20.6908993 L11.2387102,18.1317584 L39.0746057,18.1317584 L37.2564752,40.0165369 Z" id="Shape"></path>
                            <path d="M22.2412689,10.5281074 C22.2412689,9.1434094 22.5971018,8.48891275 23.0090287,7.73122148 C23.4691279,6.88526174 23.9904595,5.92644295 23.9904595,4.09428188 C23.9904595,2.26577181 23.4710548,1.30727517 23.0115979,0.462604027 C22.8640836,0.187275168 22.5744073,0 22.2409478,0 C21.7579399,0 21.3663525,0.392805369 21.3663525,0.877315436 C21.3663525,1.03022819 21.4055326,1.17390604 21.4741514,1.29900671 C21.8857572,2.05616107 22.241376,2.71044295 22.241376,4.09428188 C22.241376,5.47897987 21.8855431,6.13347651 21.4736162,6.8910604 C21.013517,7.73702013 20.4921854,8.69583893 20.4921854,10.528 C20.4921854,12.3601611 21.013517,13.3188725 21.4735091,14.1648322 C21.6322637,14.4568054 21.9324308,14.6221745 22.2421253,14.6221745 C22.3835379,14.6221745 22.5270914,14.5877047 22.660047,14.5148993 C23.0841775,14.282953 23.24047,13.7500134 23.0090287,13.3246711 C22.5971018,12.5670872 22.2412689,11.9128054 22.2412689,10.5281074 Z" id="Shape"></path>
                            <path d="M28.072047,10.5281074 C28.072047,9.1434094 28.4278799,8.48891275 28.8398068,7.73122148 C29.299799,6.88526174 29.8212376,5.92644295 29.8212376,4.09428188 C29.8212376,2.26577181 29.3018329,1.30727517 28.842376,0.462604027 C28.6948616,0.187275168 28.4051854,0 28.0717258,0 C27.588718,0 27.1971305,0.392805369 27.1971305,0.877315436 C27.1971305,1.03022819 27.2363107,1.17390604 27.3049295,1.29900671 C27.7165352,2.05616107 28.072154,2.71044295 28.072154,4.09428188 C28.072154,5.47897987 27.7163211,6.13347651 27.3043943,6.8910604 C26.844295,7.73702013 26.3229634,8.69583893 26.3229634,10.528 C26.3229634,12.3601611 26.844295,13.3188725 27.3042872,14.1648322 C27.4630418,14.4568054 27.7632089,14.6221745 28.0729034,14.6221745 C28.2143159,14.6221745 28.3578695,14.5877047 28.4908251,14.5148993 C28.9149556,14.282953 29.071248,13.7500134 28.8398068,13.3246711 C28.4278799,12.5670872 28.072047,11.9128054 28.072047,10.5281074 Z" id="Shape"></path>
                        </g>
                    </g>
                </g>
            </g>
        </g>
    </g>
</svg>