<?xml version="1.0" encoding="UTF-8"?>
<svg width="36px" height="48px" viewBox="0 0 36 48" version="1.1" xmlns="http://www.w3.org/2000/svg" xmlns:xlink="http://www.w3.org/1999/xlink">
    <!-- Generator: Sketch 43.1 (39012) - http://www.bohemiancoding.com/sketch -->
    <title>Shape</title>
    <desc>Created with Sketch.</desc>
    <defs></defs>
    <g id="Page-1" stroke="none" stroke-width="1" fill="none" fill-rule="evenodd">
        <g id="Website" transform="translate(-252.000000, -9094.000000)" fill-rule="nonzero" fill="#A0D468">
            <g id="Entrada" transform="translate(0.000000, 8408.000000)">
                <g id="Group-35" transform="translate(250.000000, 431.000000)">
                    <g id="Group-31" transform="translate(2.000000, 255.000000)">
                        <path d="M33.6507439,14.1609919 L29.7415818,14.1609919 L29.7415818,9.4375123 C29.7415818,9.4375123 29.5630384,5.63038772 25.174628,4.77071443 C24.8175411,2.07833104 22.5904464,0 19.9122944,0 C17.8825372,0 16.0595145,1.20921079 15.1667972,3.0608148 C14.0203602,2.11611887 12.6108066,1.60598307 11.1354738,1.60598307 C8.88958496,1.60598307 6.82223962,2.79629994 5.62881754,4.75182051 C0.629600626,4.5439874 0,9.44695926 0,9.44695926 L0,42.4924228 C0,45.5248967 2.46202036,48 5.47846515,48 L24.2631167,48 C27.2795615,48 29.7415818,45.5248967 29.7415818,42.4924228 L29.7415818,33.0549105 L33.6507439,33.0549105 C34.9475333,33.0549105 36,31.996851 36,30.6931706 L36,16.5227317 C35.990603,15.2190514 34.9381363,14.1609919 33.6507439,14.1609919 Z M5.86374315,6.38614446 L6.4651527,6.52784885 L6.74706343,5.97992521 C7.61158966,4.26057863 9.29365701,3.18362527 11.1448708,3.18362527 C12.4604542,3.18362527 13.7008614,3.72210195 14.6311668,4.69513875 L15.0352388,5.12025192 L16.2850431,4.5439874 C16.2850431,4.5439874 17.1025842,1.5776422 19.9216915,1.5776422 C21.9796398,1.5776422 23.6617071,3.34422358 23.6617071,5.50757725 L23.6617071,6.29167487 L24.4416601,6.29167487 C26.2458888,6.29167487 27.7588097,7.64259004 28.1064996,9.4375123 L1.60689115,9.4375123 C1.90759593,7.40641606 3.80579483,5.90434954 5.86374315,6.38614446 Z M16.4259984,11.0151545 L16.4259984,18.090927 C16.4259984,19.3946074 15.3735317,20.4526668 14.0767424,20.4526668 C12.779953,20.4526668 11.7274863,19.3946074 11.7274863,18.090927 L11.7274863,11.0151545 L16.4259984,11.0151545 Z M10.1675803,11.0151545 L10.1675803,22.8144066 C10.1675803,24.118087 9.11511355,25.1761464 7.8183242,25.1761464 C6.52153485,25.1761464 5.46906813,24.118087 5.46906813,22.8144066 L5.46906813,11.0151545 L10.1675803,11.0151545 Z M28.1722788,42.4829758 C28.1722788,44.6557764 26.4150352,46.4129108 24.2631167,46.4129108 L5.47846515,46.4129108 C3.31714957,46.4129108 1.56930305,44.6463295 1.56930305,42.4829758 L1.56930305,40.9053336 L28.1722788,40.9053336 L28.1722788,42.4829758 Z M28.1722788,39.3371384 L1.55990603,39.3371384 L1.55990603,11.0151545 L3.9091621,11.0151545 L3.9091621,22.8144066 C3.9091621,24.9872072 5.66640564,26.7443417 7.8183242,26.7443417 C9.97963978,26.7443417 11.7274863,24.9777603 11.7274863,22.8144066 L11.7274863,21.2367644 C12.385278,21.7280063 13.1934221,22.020862 14.0767424,22.020862 C16.2380579,22.020862 17.9859045,20.2542807 17.9859045,18.090927 L17.9859045,11.0151545 L28.1628818,11.0151545 L28.1628818,39.3371384 L28.1722788,39.3371384 Z M34.4306969,30.6837237 C34.4306969,31.1182838 34.083007,31.4678213 33.6507439,31.4678213 L29.7415818,31.4678213 L29.7415818,15.7386341 L33.6507439,15.7386341 C34.083007,15.7386341 34.4306969,16.0881716 34.4306969,16.5227317 L34.4306969,30.6837237 Z" id="Shape"></path>
                    </g>
                </g>
            </g>
        </g>
    </g>
</svg>