<?xml version="1.0" encoding="UTF-8" standalone="no"?>
<svg width="14px" height="14px" viewBox="0 0 14 14" version="1.1" xmlns="http://www.w3.org/2000/svg" xmlns:xlink="http://www.w3.org/1999/xlink">
    <!-- Generator: Sketch 43.1 (39012) - http://www.bohemiancoding.com/sketch -->
    <title>Shape</title>
    <desc>Created with Sketch.</desc>
    <defs></defs>
    <g id="Page-1" stroke="none" stroke-width="1" fill="none" fill-rule="evenodd">
        <g id="Website" transform="translate(-40.000000, -8047.000000)" fill-rule="nonzero" fill="#CCCCCC">
            <g id="Localizacion" transform="translate(0.000000, 7566.000000)">
                <g id="Datos-Localizacion" transform="translate(20.000000, 322.000000)">
                    <path d="M25.12715,170.107433 L24.41875,170.810931 C23.804675,171.419579 22.80595,171.420104 22.192225,170.810931 C21.897175,170.518157 21.735125,170.129308 21.735125,169.715959 C21.735125,169.30261 21.89735,168.913586 22.19205,168.620812 L24.79955,166.033794 C25.33995,165.497946 26.356525,164.708873 27.097475,165.443696 C27.4375,165.781445 27.98665,165.77917 28.324225,165.439321 C28.661975,165.099472 28.659875,164.550149 28.31985,164.212749 C27.060375,162.962903 25.1989,163.193902 23.5777,164.802498 L20.970025,167.389691 C20.3444,168.010764 20,168.836762 20,169.715959 C20,170.595157 20.3444,171.420979 20.9702,172.042053 C21.614025,172.680801 22.45945,173 23.305225,173 C24.151175,173 24.99695,172.680801 25.641125,172.041703 L26.35005,171.33803 C26.6899,171.000631 26.691825,170.451482 26.354075,170.111458 C26.01685,169.771784 25.467175,169.769859 25.12715,170.107433 Z M33.02945,160.057736 C31.6767,158.71549 29.7853,158.64269 28.533,159.885187 L27.64995,160.761759 C27.309925,161.099333 27.307825,161.648307 27.645575,161.988331 C27.983325,162.328355 28.532475,162.33028 28.8725,161.992706 L29.7552,161.116658 C30.403925,160.472485 31.253375,160.739534 31.807425,161.289208 C32.102825,161.581982 32.26505,161.971006 32.26505,162.384355 C32.26505,162.797878 32.10265,163.186902 31.807775,163.479677 L29.0258,166.239419 C27.753725,167.501515 27.156975,166.909142 26.90235,166.656443 C26.562325,166.318869 26.01335,166.320969 25.6756,166.660818 C25.33785,167.000667 25.33995,167.54999 25.679975,167.887389 C26.26395,168.466988 26.930525,168.754337 27.6293,168.754337 C28.484875,168.754337 29.388575,168.323488 30.247825,167.470365 L33.0298,164.710623 C33.65525,164.08955 34,163.263377 34,162.38418 C34,161.505332 33.65525,160.679159 33.02945,160.057736 Z" id="Shape"></path>
                </g>
            </g>
        </g>
    </g>
</svg>