<?xml version="1.0" encoding="UTF-8" standalone="no"?>
<svg width="14px" height="17px" viewBox="0 0 14 17" version="1.1" xmlns="http://www.w3.org/2000/svg" xmlns:xlink="http://www.w3.org/1999/xlink">
    <!-- Generator: Sketch 43.1 (39012) - http://www.bohemiancoding.com/sketch -->
    <title>school-bus-front</title>
    <desc>Created with Sketch.</desc>
    <defs></defs>
    <g id="Page-1" stroke="none" stroke-width="1" fill="none" fill-rule="evenodd">
        <g id="Website" transform="translate(-40.000000, -8009.000000)" fill-rule="nonzero" fill="#CCCCCC">
            <g id="Localizacion" transform="translate(0.000000, 7566.000000)">
                <g id="Datos-Localizacion" transform="translate(20.000000, 322.000000)">
                    <g id="school-bus-front" transform="translate(20.000000, 121.000000)">
                        <path d="M14,3.39990498 L14,13.5998575 C14,14.2265308 13.4783748,14.7332383 12.8332518,14.7332383 L12.8332518,15.8666192 C12.8332518,16.4935301 12.3116266,17 11.6665037,17 L10.4995109,17 C9.85463251,17 9.33276275,16.4923423 9.33276275,15.8666192 L9.33276275,14.7332383 L4.66650371,14.7332383 L4.66650371,15.8666192 C4.66650371,16.4935301 4.14463395,17 3.49975554,17 L2.33349646,17 C1.68837349,17 1.16674829,16.4923423 1.16674829,15.8666192 L1.16674829,14.7332383 C0.52186987,14.7332383 1.1438718e-07,14.2255806 1.1438718e-07,13.5998575 L1.1438718e-07,3.39990498 C-0.000488985665,1.52273553 1.56756578,0 3.49975554,0 L10.5,0 C12.4324343,0 14,1.52226042 14,3.39990498 Z M4.66650371,2.26676169 L9.33325185,2.26676169 L9.33325185,1.13338084 L4.66650371,1.13338084 L4.66650371,2.26676169 Z M3.49975554,12.4669517 C3.49975554,11.8395657 2.97788578,11.3335709 2.33349646,11.3335709 C1.68861804,11.3335709 1.16674829,11.8402784 1.16674829,12.4669517 C1.16674829,13.0929124 1.68861804,13.6003326 2.33349646,13.6003326 C2.97764123,13.600095 3.49975554,13.0924373 3.49975554,12.4669517 Z M12.8332518,12.4669517 C12.8332518,11.8395657 12.3116266,11.3335709 11.6665037,11.3335709 C11.0213807,11.3335709 10.4997555,11.8402784 10.4997555,12.4669517 C10.4997555,13.0929124 11.0221143,13.6003326 11.6665037,13.6003326 C12.3118712,13.600095 12.8332518,13.0924373 12.8332518,12.4669517 Z M12.8332518,3.39990498 L1.16625919,3.39990498 L1.16625919,10.1999525 L12.8332518,10.1999525 L12.8332518,3.39990498 L12.8332518,3.39990498 Z" id="Shape"></path>
                    </g>
                </g>
            </g>
        </g>
    </g>
</svg>