<?xml version="1.0" encoding="UTF-8"?>
<svg width="48px" height="48px" viewBox="0 0 48 48" version="1.1" xmlns="http://www.w3.org/2000/svg" xmlns:xlink="http://www.w3.org/1999/xlink">
    <!-- Generator: Sketch 43.1 (39012) - http://www.bohemiancoding.com/sketch -->
    <title>fast-food</title>
    <desc>Created with Sketch.</desc>
    <defs></defs>
    <g id="Page-1" stroke="none" stroke-width="1" fill="none" fill-rule="evenodd">
        <g id="Website" transform="translate(-730.000000, -9093.000000)" fill-rule="nonzero" fill="#A0D468">
            <g id="Entrada" transform="translate(0.000000, 8408.000000)">
                <g id="Group-35" transform="translate(250.000000, 431.000000)">
                    <g id="Group-32" transform="translate(480.000000, 254.000000)">
                        <g id="fast-food">
                            <g id="Group">
                                <g id="Shape">
                                    <path d="M46.3638095,7.99238095 L35.9719048,7.99238095 L35.9719048,4.48657143 L41.1678095,1.51742857 C41.5675238,1.27761905 41.7273333,0.798 41.4875238,0.398285714 C41.2477143,-0.00142857143 40.7680952,-0.0813333333 40.368381,0.0785714286 L34.7727619,3.27609524 C34.7329524,3.3 34.6971429,3.32685714 34.6635238,3.3552381 C34.4804762,3.4947619 34.3730476,3.71809524 34.3730476,3.99552381 L34.3730476,7.99238095 L23.9812381,7.99238095 C23.1019048,7.99238095 22.3824762,8.71180952 22.3824762,9.59114286 L22.3824762,12.7886667 C22.3824762,13.3894286 22.7185714,13.9152381 23.2119048,14.1882857 L23.3705714,17.361619 C21.3968571,16.9858095 19.1875238,16.785619 16.7868571,16.785619 C6.7147619,16.7855238 0,20.3027619 0,25.5786667 L0,26.378 C0,27.2573333 0.719428571,27.9767619 1.5987619,27.9767619 L2.39809524,27.9767619 L2.39809524,29.786 C1.23838095,30.1092381 0.333142857,31.0106667 0.0799047619,32.2135238 C-0.08,33.0928571 0.159809524,33.9721905 0.719428571,34.691619 C1.12180952,35.2089524 1.73104762,35.6011429 2.39809524,35.8110476 L2.39809524,36.6920952 C1.07561905,36.7349524 0,37.8359048 0,39.168 L0,40.6868571 C0,42.0189524 1.07561905,43.1199048 2.39809524,43.1628571 L2.39809524,45.5630476 C2.39809524,46.922 3.4372381,47.9611429 4.79619048,47.9611429 L28.7774286,47.9611429 L43.2460952,47.9611429 C44.5251429,47.9611429 45.5642857,46.922 45.6441905,45.6429524 L47.1345714,14.1872381 C47.6269524,13.9139048 47.962381,13.3887619 47.962381,12.7885714 L47.962381,9.59114286 C47.9625714,8.71180952 47.2430476,7.99238095 46.3638095,7.99238095 Z M23.9812381,9.59114286 L46.3638095,9.59114286 L46.3638095,12.7886667 L23.9812381,12.7886667 L23.9812381,9.59114286 Z M3.99685714,36.69 L3.99685714,35.885619 C4.51571429,35.7726667 5.01104762,35.5427619 5.43571429,35.1712381 C5.83542857,34.7715238 6.15514286,34.212 6.31504762,33.5724762 L8.79314286,33.5724762 C9.19285714,34.9314286 10.3919048,35.9705714 11.9106667,35.9705714 C13.4295238,35.9705714 14.7084762,34.9314286 15.0281905,33.5724762 L18.4655238,33.5724762 C18.8652381,34.9314286 20.0642857,35.9705714 21.5830476,35.9705714 C23.1019048,35.9705714 24.3808571,34.9314286 24.7005714,33.5724762 L27.2585714,33.5724762 C27.4184762,34.212 27.6582857,34.7715238 28.1379048,35.1712381 C28.5435238,35.5189524 29.0335238,35.7818095 29.5767619,35.9005714 L29.5767619,36.69 L3.99685714,36.69 Z M32.351619,30.2806667 C32.0073333,29.9988571 31.6077143,29.7825714 31.175619,29.6555238 L31.175619,27.9768571 L31.9749524,27.9768571 C32.8542857,27.9768571 33.5737143,27.2574286 33.5737143,26.3780952 L33.5737143,25.5787619 C33.5737143,25.4712381 33.5701905,25.3644762 33.5649524,25.2582857 C33.5644762,25.2498095 33.5640952,25.2413333 33.563619,25.2328571 C33.5102857,24.2266667 33.2207619,23.2781905 32.6449524,22.387619 C32.6098095,22.331619 32.5729524,22.2760952 32.5358095,22.2207619 C33.3347619,21.8215238 34.213619,21.5819048 35.1722857,21.5819048 C38.2898095,21.5819048 40.7679048,24.06 40.7679048,27.1775238 C40.7679048,30.2950476 38.2898095,32.7731429 35.1722857,32.7731429 C34.6127619,32.7731429 34.1331429,32.6932381 33.5735238,32.5333333 C33.5205714,31.6289524 33.042381,30.8312381 32.351619,30.2806667 Z M1.5987619,25.5786667 C1.5987619,21.342 7.83390476,18.3842857 16.7868571,18.3842857 C24.0400952,18.3842857 29.5089524,20.3257143 31.3242857,23.3155238 C31.7575238,24.0486667 31.9749524,24.813619 31.9749524,25.5785714 L31.9749524,26.3779048 L30.3761905,26.3779048 L3.19752381,26.3779048 L1.5987619,26.3779048 L1.5987619,25.5786667 Z M29.5768571,27.9767619 L29.5768571,29.5755238 L3.99685714,29.5755238 L3.99685714,27.9767619 L29.5768571,27.9767619 Z M1.99847619,33.6522857 C1.75866667,33.4124762 1.5987619,33.0127619 1.6787619,32.4532381 C1.75866667,31.7338095 2.55809524,31.1741905 3.35742857,31.1741905 L30.3762857,31.1741905 C31.1622857,31.1741905 31.9464762,31.9470476 31.9725714,32.7328571 C31.9464762,33.5160952 31.1609524,34.2132381 30.296381,34.2918095 C30.2031429,34.2918095 30.1145714,34.3142857 30.0330476,34.3526667 C29.7311429,34.314 29.4940952,34.2089524 29.2571429,33.972 C28.9374286,33.7321905 28.7775238,33.2525714 28.7775238,32.7729524 C28.7775238,32.2933333 28.4578095,31.973619 27.9781905,31.973619 L23.9813333,31.973619 C23.5017143,31.973619 23.182,32.2933333 23.182,32.7729524 C23.182,33.6522857 22.4625714,34.3717143 21.5832381,34.3717143 C20.7039048,34.3717143 19.9844762,33.6522857 19.9844762,32.7729524 C19.9844762,32.2933333 19.6647619,31.973619 19.1851429,31.973619 L14.3888571,31.973619 C13.9092381,31.973619 13.5895238,32.2933333 13.5895238,32.7729524 C13.5895238,33.6522857 12.8700952,34.3717143 11.9907619,34.3717143 C11.1114286,34.3717143 10.392,33.6522857 10.392,32.7729524 C10.392,32.2933333 10.0722857,31.973619 9.59266667,31.973619 L5.59561905,31.973619 C5.116,31.973619 4.79628571,32.2933333 4.79628571,32.7729524 C4.79628571,33.2525714 4.63638095,33.7321905 4.31666667,33.8920952 C4.07685714,34.2118095 3.67714286,34.2918095 3.27752381,34.2918095 C2.79780952,34.2918095 2.31819048,34.052 1.99847619,33.6522857 Z M1.5987619,40.7667619 L1.5987619,39.2479048 C1.5987619,38.2087619 2.47809524,38.2886667 2.47809524,38.2886667 L3.19752381,38.2886667 L30.3762857,38.2886667 L31.175619,38.2886667 C31.6552381,38.2886667 32.0549524,38.688381 32.0549524,39.168 L32.0549524,40.6868571 C32.0549524,41.1664762 31.6552381,41.5661905 31.175619,41.5661905 L30.3762857,41.5661905 L3.19752381,41.5661905 L2.47809524,41.5661905 C1.99847619,41.5661905 1.5987619,41.1664762 1.5987619,40.7667619 Z M3.99685714,45.5630476 L3.99685714,43.1649524 L29.5768571,43.1649524 L29.5768571,45.5630476 C29.5768571,46.0426667 29.2571429,46.362381 28.7775238,46.362381 L4.79628571,46.362381 C4.31666667,46.362381 3.99685714,46.0426667 3.99685714,45.5630476 Z M44.045619,45.5630476 C44.045619,46.0426667 43.6459048,46.362381 43.2462857,46.362381 L31.0467619,46.362381 C31.1068571,46.1832381 31.1472381,45.9938095 31.1649524,45.796 C31.1714286,45.7449524 31.175619,45.694 31.175619,45.6429524 L31.175619,45.5630476 L31.175619,43.2448571 C32.2428571,43.1820952 33.1125714,42.5275238 33.4369524,41.5912381 C33.5585714,41.310381 33.6349524,41.0054286 33.6537143,40.6868571 L33.6537143,39.168 C33.6537143,37.8090476 32.5345714,36.6899048 31.175619,36.6899048 L31.175619,35.9371429 C32.137619,35.675619 32.9119048,34.9944762 33.3006667,34.124381 C33.904381,34.2975238 34.5199048,34.3717143 35.1724762,34.3717143 C39.1693333,34.3717143 42.3668571,31.1741905 42.4467619,27.0974286 C42.4467619,23.1005714 39.2492381,19.9030476 35.252381,19.9030476 C33.8752381,19.9030476 32.6170476,20.2599048 31.4771429,20.971619 C30.0018095,19.558381 27.7967619,18.4505714 25.0197143,17.7304762 L24.8604762,14.3873333 L45.5642857,14.3873333 L44.045619,45.5630476 Z"></path>
                                </g>
                            </g>
                        </g>
                    </g>
                </g>
            </g>
        </g>
    </g>
</svg>