<?xml version="1.0" encoding="UTF-8"?>
<svg width="48px" height="48px" viewBox="0 0 48 48" version="1.1" xmlns="http://www.w3.org/2000/svg" xmlns:xlink="http://www.w3.org/1999/xlink">
    <!-- Generator: Sketch 43.1 (39012) - http://www.bohemiancoding.com/sketch -->
    <title>lifesaver</title>
    <desc>Created with Sketch.</desc>
    <defs></defs>
    <g id="Page-1" stroke="none" stroke-width="1" fill="none" fill-rule="evenodd">
        <g id="Website" transform="translate(-250.000000, -12027.000000)" fill-rule="nonzero" fill="#A0D468">
            <g id="Codigo-de-conducta" transform="translate(250.000000, 11704.000000)">
                <g id="lifesaver" transform="translate(0.000000, 323.000000)">
                    <path d="M23.9765854,0 C10.7560976,0 0,10.7560976 0,23.9765854 C0,37.1970732 10.7560976,47.9531707 23.9765854,47.9531707 C37.1970732,47.9531707 47.9531707,37.1970732 47.9531707,23.9765854 C47.9531707,10.7560976 37.1970732,0 23.9765854,0 Z M43.3028293,13.5172683 L35.0903415,17.2915122 C33.9956098,15.4785366 32.4746341,13.957561 30.6616585,12.8628293 L34.4359024,4.65034146 C38.1790244,6.68419512 41.2689756,9.77414634 43.3028293,13.5172683 Z M34.9658537,23.9765854 C34.9658537,30.0360976 30.0360976,34.9658537 23.9765854,34.9658537 C17.9170732,34.9658537 12.9873171,30.0360976 12.9873171,23.9765854 C12.9873171,17.9170732 17.9170732,12.9873171 23.9765854,12.9873171 C30.0360976,12.9873171 34.9658537,17.9170732 34.9658537,23.9765854 Z M23.9765854,1.99804878 C27.0505366,1.99804878 29.9779512,2.63473171 32.6371707,3.77941463 L28.8789268,11.9571707 C27.3646829,11.3372683 25.7114146,10.9892683 23.9765854,10.9892683 C22.2417561,10.9892683 20.5884878,11.3372683 19.0742439,11.9571707 L15.316,3.7795122 C17.9752195,2.63473171 20.9025366,1.99804878 23.9765854,1.99804878 Z M13.5172683,4.65034146 L17.2915122,12.8628293 C15.4785366,13.957561 13.957561,15.4785366 12.8628293,17.2915122 L4.65034146,13.5172683 C6.68419512,9.77414634 9.77414634,6.68419512 13.5172683,4.65034146 Z M1.99804878,23.9765854 C1.99804878,20.9026341 2.63482927,17.9752195 3.77941463,15.316 L11.9570732,19.0742439 C11.3371707,20.5884878 10.9891707,22.2418537 10.9891707,23.9765854 C10.9891707,25.7113171 11.3371707,27.3646829 11.9570732,28.8789268 L3.77941463,32.6371707 C2.63473171,29.9779512 1.99804878,27.0506341 1.99804878,23.9765854 Z M4.65034146,34.4359024 L12.8628293,30.6616585 C13.957561,32.4746341 15.4785366,33.9956098 17.2915122,35.0903415 L13.5172683,43.3028293 C9.77414634,41.2689756 6.68419512,38.1790244 4.65034146,34.4359024 Z M23.9765854,45.955122 C20.9025366,45.955122 17.9752195,45.318439 15.316,44.1737561 L19.0742439,35.9960976 C20.5884878,36.616 22.2418537,36.964 23.9765854,36.964 C25.7113171,36.964 27.3646829,36.616 28.8789268,35.9960976 L32.6371707,44.1737561 C29.9779512,45.3183415 27.0505366,45.955122 23.9765854,45.955122 Z M34.4359024,43.3028293 L30.6616585,35.0903415 C32.4746341,33.9956098 33.9956098,32.4746341 35.0903415,30.6616585 L43.3028293,34.4359024 C41.2689756,38.1790244 38.1790244,41.2689756 34.4359024,43.3028293 Z M35.996,28.8789268 C36.6159024,27.3646829 36.9639024,25.7114146 36.9639024,23.9765854 C36.9639024,22.2417561 36.6159024,20.5884878 35.996,19.0742439 L44.1737561,15.316 C45.3183415,17.9752195 45.955122,20.9026341 45.955122,23.9765854 C45.955122,27.0506341 45.318439,29.9779512 44.1737561,32.6371707 L35.996,28.8789268 Z" id="Shape"></path>
                </g>
            </g>
        </g>
    </g>
</svg>