<?xml version="1.0" encoding="UTF-8"?>
<svg width="33px" height="48px" viewBox="0 0 33 48" version="1.1" xmlns="http://www.w3.org/2000/svg" xmlns:xlink="http://www.w3.org/1999/xlink">
    <!-- Generator: Sketch 43.1 (39012) - http://www.bohemiancoding.com/sketch -->
    <title>id-card</title>
    <desc>Created with Sketch.</desc>
    <defs></defs>
    <g id="Page-1" stroke="none" stroke-width="1" fill="none" fill-rule="evenodd">
        <g id="Website" transform="translate(-251.000000, -8909.000000)" fill-rule="nonzero" fill="#A0D468">
            <g id="Entrada" transform="translate(0.000000, 8408.000000)">
                <g id="Group-35" transform="translate(250.000000, 431.000000)">
                    <g id="Group-34" transform="translate(1.000000, 70.000000)">
                        <g id="id-card">
                            <path d="M30.525,3.2 L20.625,3.2 L22.11,1.28 C22.3839,0.9272 22.30965,0.4256 21.945,0.1608 C21.581175,-0.104 21.0639,-0.0328 20.790825,0.3208 L18.5625,3.2 L14.53485,3.2 L13.11255,0.4424 C12.90795,0.0472 12.41295,-0.1112 12.0054,0.0848 C11.59785,0.2824 11.43285,0.7632 11.636625,1.1584 L12.69015,3.2 L2.475,3.2 C1.11045,3.2 0,4.2768 0,5.6 L0,45.6 C0,46.9232 1.11045,48 2.475,48 L30.525,48 C31.88955,48 33,46.9232 33,45.6 L33,5.6 C33,4.2768 31.88955,3.2 30.525,3.2 Z M31.35,45.6 C31.35,46.0416 30.9804,46.4 30.525,46.4 L2.475,46.4 C2.0196,46.4 1.65,46.0416 1.65,45.6 L1.65,5.6 C1.65,5.1584 2.0196,4.8 2.475,4.8 L13.51515,4.8 L14.34015,6.4 C13.64715,6.9872 13.2,7.8392 13.2,8.8 C13.2,10.5648 14.68005,12 16.5,12 C18.31995,12 19.8,10.5648 19.8,8.8 C19.8,7.0352 18.31995,5.6 16.5,5.6 C16.263225,5.6 16.03305,5.6264 15.8103,5.6728 L15.35985,4.8 L30.525,4.8 C30.9804,4.8 31.35,5.1584 31.35,5.6 L31.35,45.6 Z M15.1239,7.9208 L15.761625,9.1576 C15.906825,9.4384 16.19805,9.6 16.500825,9.6 C16.624575,9.6 16.7508,9.5728 16.868775,9.516 C17.276325,9.3184 17.441325,8.8376 17.23755,8.4424 L16.6023,7.2104 C17.4636,7.2624 18.15,7.952 18.15,8.8 C18.15,9.6824 17.409975,10.4 16.5,10.4 C15.590025,10.4 14.85,9.6824 14.85,8.8 C14.85,8.4752 14.951475,8.1736 15.1239,7.9208 Z" id="Shape"></path>
                            <path d="M24.75,32.8 L8.25,32.8 C7.793775,32.8 7.425,33.1576 7.425,33.6 C7.425,34.0424 7.793775,34.4 8.25,34.4 L24.75,34.4 C25.206225,34.4 25.575,34.0424 25.575,33.6 C25.575,33.1576 25.206225,32.8 24.75,32.8 Z" id="Shape"></path>
                            <path d="M24.75,36.8 L8.25,36.8 C7.793775,36.8 7.425,37.1576 7.425,37.6 C7.425,38.0424 7.793775,38.4 8.25,38.4 L24.75,38.4 C25.206225,38.4 25.575,38.0424 25.575,37.6 C25.575,37.1576 25.206225,36.8 24.75,36.8 Z" id="Shape"></path>
                            <path d="M24.75,40.8 L8.25,40.8 C7.793775,40.8 7.425,41.1576 7.425,41.6 C7.425,42.0424 7.793775,42.4 8.25,42.4 L24.75,42.4 C25.206225,42.4 25.575,42.0424 25.575,41.6 C25.575,41.1576 25.206225,40.8 24.75,40.8 Z" id="Shape"></path>
                            <path d="M21.45,29.6 L24.75,29.6 L24.75,13.6 L8.25,13.6 L8.25,29.6 L11.55,29.6 L21.45,29.6 Z M13.2,28 C13.2,26.2352 14.68005,24.8 16.5,24.8 C18.31995,24.8 19.8,26.2352 19.8,28 L13.2,28 Z M14.025,20.8 C14.025,19.4768 15.13545,18.4 16.5,18.4 C17.86455,18.4 18.975,19.4768 18.975,20.8 C18.975,22.1232 17.86455,23.2 16.5,23.2 C15.13545,23.2 14.025,22.1232 14.025,20.8 Z M9.9,28 L9.9,15.2 L23.1,15.2 L23.1,28 L21.45,28 C21.45,26.2656 20.493825,24.748 19.068225,23.9048 C20.00955,23.1704 20.625,22.0592 20.625,20.8 C20.625,18.5944 18.774525,16.8 16.5,16.8 C14.225475,16.8 12.375,18.5944 12.375,20.8 C12.375,22.0592 12.99045,23.1712 13.931775,23.9048 C12.506175,24.748 11.55,26.2656 11.55,28 L9.9,28 Z" id="Shape"></path>
                        </g>
                    </g>
                </g>
            </g>
        </g>
    </g>
</svg>