<?xml version="1.0" encoding="UTF-8"?>
<svg width="20px" height="20px" viewBox="0 0 20 20" version="1.1" xmlns="http://www.w3.org/2000/svg" xmlns:xlink="http://www.w3.org/1999/xlink">
    <!-- Generator: Sketch 43.1 (39012) - http://www.bohemiancoding.com/sketch -->
    <title>Shape</title>
    <desc>Created with Sketch.</desc>
    <defs></defs>
    <g id="Page-1" stroke="none" stroke-width="1" fill="none" fill-rule="evenodd">
        <g id="Website" transform="translate(-684.000000, -3235.000000)" fill-rule="nonzero" fill="#78C1E2">
            <g id="Ponentes" transform="translate(1.000000, 1844.000000)">
                <g id="Group-14" transform="translate(251.000000, 1112.000000)">
                    <g id="Group-9-Copy-2" transform="translate(280.000000, 0.000000)">
                        <g id="Group-12" transform="translate(0.000000, 272.000000)">
                            <path d="M159.3245,22.8677615 L158.3125,23.8727587 C157.43525,24.7422563 156.0085,24.7430063 155.13175,23.8727587 C154.71025,23.4545099 154.47875,22.8990114 154.47875,22.3085131 C154.47875,21.7180147 154.7105,21.1622663 155.1315,20.7440174 L158.8565,17.0482777 C159.6285,16.2827799 161.08075,15.155533 162.13925,16.2052801 C162.625,16.6877787 163.4095,16.6845287 163.89175,16.1990301 C164.37425,15.7135314 164.37125,14.9287836 163.8855,14.446785 C162.08625,12.6612899 159.427,12.991289 157.111,15.2892826 L153.38575,18.9852723 C152.492,19.8725199 152,21.0525166 152,22.3085131 C152,23.5645096 152.492,24.7442563 153.386,25.6315038 C154.30575,26.5440013 155.5135,27 156.72175,27 C157.93025,27 159.1385,26.5440013 160.05875,25.6310038 L161.0715,24.6257566 C161.557,24.143758 161.55975,23.3592601 161.07725,22.8735115 C160.5955,22.3882628 159.81025,22.3855129 159.3245,22.8677615 Z M170.6135,8.5110515 C168.681,6.59355684 165.979,6.48955713 164.19,8.26455219 L162.9285,9.5167987 C162.44275,9.99904735 162.43975,10.7832952 162.92225,11.2690438 C163.40475,11.7547925 164.18925,11.7575425 164.675,11.2752938 L165.936,10.0237973 C166.86275,9.10354985 168.07625,9.48504879 168.86775,10.2702966 C169.28975,10.6885454 169.5215,11.2442939 169.5215,11.8347922 C169.5215,12.4255406 169.2895,12.981289 168.86825,13.3995379 L164.894,17.3420269 C163.07675,19.1450219 162.22425,18.2987742 161.8605,17.9377752 C161.37475,17.4555266 160.5905,17.4585266 160.108,17.9440252 C159.6255,18.4295239 159.6285,19.2142717 160.11425,19.6962703 C160.9485,20.524268 161.90075,20.9347669 162.899,20.9347669 C164.12125,20.9347669 165.41225,20.3192686 166.63975,19.100522 L170.614,15.158033 C171.5075,14.2707855 172,13.0905387 172,11.8345422 C172,10.5790457 171.5075,9.39879903 170.6135,8.5110515 Z" id="Shape"></path>
                        </g>
                    </g>
                </g>
            </g>
        </g>
    </g>
</svg>