<?xml version="1.0" encoding="utf-8"?>
<!-- Generator: Adobe Illustrator 20.1.0, SVG Export Plug-In . SVG Version: 6.00 Build 0)  -->
<svg version="1.1" id="Capa_1" xmlns="http://www.w3.org/2000/svg" xmlns:xlink="http://www.w3.org/1999/xlink" x="0px" y="0px"
	 viewBox="0 0 1440 900" style="enable-background:new 0 0 1440 900;" xml:space="preserve">
<style type="text/css">
	.st0{fill:#843A51;}
	.st1{fill:#9D5763;}
	.st2{clip-path:url(#SVGID_2_);}
	.st3{fill:none;stroke:#000000;stroke-width:10;stroke-miterlimit:10;}
	.st4{fill:#AEB788;}
	.st5{fill:#A0A873;}
	.st6{fill:#EFBF7C;}
	.st7{fill:#D3A36E;}
	.st8{fill:#FFFFFF;}
	.st9{fill:#7C4F46;}
	.st10{fill:#4A2F2E;}
	.st11{fill:none;stroke:#000000;stroke-width:8;stroke-miterlimit:10;}
	.st12{fill:#E3E3E3;}
	.st13{fill:#CECECE;}
	.st14{clip-path:url(#SVGID_4_);}
	.st15{fill:none;stroke:#FFFFFF;stroke-width:10;stroke-miterlimit:10;}
	.st16{fill:none;stroke:#FFFFFF;stroke-width:8;stroke-miterlimit:10;}
	.st17{clip-path:url(#SVGID_8_);}
</style>
<g>
	<g>
		<g>
			<circle class="st1" cx="711.387" cy="375.813" r="203.104"/>
			<g>
				<defs>
					<circle id="SVGID_7_" cx="711.387" cy="375.813" r="203.104"/>
				</defs>
				<clipPath id="SVGID_2_">
					<use xlink:href="#SVGID_7_"  style="overflow:visible;"/>
				</clipPath>
				<g class="st2">
					<path class="st0" d="M635.885,233.194h-80.21c-8.614,0-15.596-6.983-15.596-15.596v0c0-8.614,6.983-15.596,15.596-15.596h80.21
						c8.614,0,15.596,6.983,15.596,15.596v0C651.482,226.211,644.499,233.194,635.885,233.194z"/>
					<path class="st0" d="M568.065,286.67h-80.21c-8.614,0-15.596-6.983-15.596-15.596v0c0-8.614,6.983-15.596,15.596-15.596h80.21
						c8.614,0,15.596,6.983,15.596,15.596v0C583.661,279.687,576.678,286.67,568.065,286.67z"/>
					<path class="st0" d="M813.153,286.67H621.54c-8.614,0-15.596-6.983-15.596-15.596v0c0-8.614,6.983-15.596,15.596-15.596
						h191.613c8.614,0,15.596,6.983,15.596,15.596v0C828.749,279.687,821.767,286.67,813.153,286.67z"/>
					<path class="st0" d="M689.361,233.194L689.361,233.194c-8.614,0-15.596-6.983-15.596-15.596v0
						c0-8.614,6.983-15.596,15.596-15.596h0c8.614,0,15.596,6.983,15.596,15.596v0C704.957,226.211,697.974,233.194,689.361,233.194
						z"/>
					<path class="st0" d="M890.553,285.447h-23.925c-8.614,0-15.596-6.983-15.596-15.596v0c0-8.614,6.983-15.596,15.596-15.596
						h23.925c8.614,0,15.596,6.983,15.596,15.596v0C906.149,278.465,899.167,285.447,890.553,285.447z"/>
					<path class="st0" d="M828.422,361.533h35.649c8.614,0,15.596,6.983,15.596,15.596v0c0,8.614-6.983,15.596-15.596,15.596
						h-35.649c-8.614,0-15.596-6.983-15.596-15.596v0C812.826,368.516,819.808,361.533,828.422,361.533z"/>
					<path class="st0" d="M917.553,361.533h35.649c8.614,0,15.596,6.983,15.596,15.596v0c0,8.614-6.983,15.596-15.596,15.596
						h-35.649c-8.614,0-15.596-6.983-15.596-15.596v0C901.957,368.516,908.94,361.533,917.553,361.533z"/>
					<path class="st0" d="M581.435,362.436h191.613c8.614,0,15.596,6.983,15.596,15.596v0c0,8.614-6.983,15.596-15.596,15.596
						H581.435c-8.614,0-15.596-6.983-15.596-15.596v0C565.839,369.418,572.822,362.436,581.435,362.436z"/>
					<path class="st0" d="M468.026,363.658h84.743c8.614,0,15.596,6.983,15.596,15.596v0c0,8.614-6.983,15.596-15.596,15.596
						h-84.743c-8.614,0-15.596-6.983-15.596-15.596v0C452.429,370.641,459.412,363.658,468.026,363.658z"/>
					<path class="st0" d="M778.485,233.194h-35.649c-8.614,0-15.596-6.983-15.596-15.596v0c0-8.614,6.983-15.596,15.596-15.596
						h35.649c8.614,0,15.596,6.983,15.596,15.596v0C794.081,226.211,787.099,233.194,778.485,233.194z"/>
					<path class="st0" d="M867.616,233.194h-35.649c-8.614,0-15.596-6.983-15.596-15.596v0c0-8.614,6.983-15.596,15.596-15.596
						h35.649c8.614,0,15.596,6.983,15.596,15.596v0C883.212,226.211,876.23,233.194,867.616,233.194z"/>
					<path class="st0" d="M637.856,340.153h-80.21c-8.614,0-15.596-6.983-15.596-15.596v0c0-8.614,6.983-15.596,15.596-15.596h80.21
						c8.614,0,15.596,6.983,15.596,15.596v0C653.452,333.17,646.469,340.153,637.856,340.153z"/>
					<path class="st0" d="M505.176,340.145h-80.21c-8.614,0-15.596-6.983-15.596-15.596v0c0-8.614,6.983-15.596,15.596-15.596h80.21
						c8.614,0,15.596,6.983,15.596,15.596v0C520.772,333.162,513.789,340.145,505.176,340.145z"/>
					<path class="st0" d="M691.331,340.153L691.331,340.153c-8.614,0-15.596-6.983-15.596-15.596v0
						c0-8.614,6.983-15.596,15.596-15.596l0,0c8.614,0,15.596,6.983,15.596,15.596v0
						C706.928,333.17,699.945,340.153,691.331,340.153z"/>
					<path class="st0" d="M780.456,340.153h-35.649c-8.614,0-15.596-6.983-15.596-15.596v0c0-8.614,6.983-15.596,15.596-15.596
						h35.649c8.614,0,15.596,6.983,15.596,15.596v0C796.052,333.17,789.069,340.153,780.456,340.153z"/>
					<path class="st0" d="M958.702,340.153H833.931c-8.614,0-15.596-6.983-15.596-15.596v0c0-8.614,6.983-15.596,15.596-15.596
						h124.771c8.614,0,15.596,6.983,15.596,15.596v0C974.299,333.17,967.316,340.153,958.702,340.153z"/>
					<path class="st0" d="M698.773,415.287h190.138c8.614,0,15.596,6.983,15.596,15.596v0c0,8.614-6.983,15.596-15.596,15.596
						H698.773c-8.614,0-15.596-6.983-15.596-15.596v0C683.177,422.27,690.16,415.287,698.773,415.287z"/>
					<path class="st0" d="M643.995,469.342h80.21c8.614,0,15.596,6.983,15.596,15.596v0c0,8.614-6.983,15.596-15.596,15.596h-80.21
						c-8.614,0-15.596-6.983-15.596-15.596v0C628.399,476.325,635.382,469.342,643.995,469.342z"/>
					<path class="st0" d="M776.675,469.35h80.21c8.614,0,15.596,6.983,15.596,15.596v0c0,8.614-6.983,15.596-15.596,15.596h-80.21
						c-8.614,0-15.596-6.983-15.596-15.596v0C761.079,476.333,768.062,469.35,776.675,469.35z"/>
					<path class="st0" d="M643.995,522.516h80.21c8.614,0,15.596,6.983,15.596,15.596v0c0,8.614-6.983,15.596-15.596,15.596h-80.21
						c-8.614,0-15.596-6.983-15.596-15.596v0C628.399,529.499,635.382,522.516,643.995,522.516z"/>
					<path class="st0" d="M776.675,522.524h106.539c8.614,0,15.596,6.983,15.596,15.596v0c0,8.614-6.983,15.596-15.596,15.596
						H776.675c-8.614,0-15.596-6.983-15.596-15.596v0C761.079,529.506,768.062,522.524,776.675,522.524z"/>
				</g>
			</g>
			<circle class="st3" cx="711.387" cy="375.813" r="203.104"/>
			<path class="st4" d="M682.806,551.301c0,0,27.705,4.551,75.089-15.52c47.384-20.071,96.884-39.071,120.884-28.071
				s45.5,34.5,53,60c0,0,29.013-79.802-37.527-115.725S758.778,473.21,684.278,549.21"/>
			<path class="st5" d="M707.015,550.518c65.869-64.041,127.518-106.775,187.237-74.533c30.23,16.321,40.736,41.698,43.202,64.535
				c2.642-26.536-1.639-66.095-43.202-88.535c-66.539-35.924-135.473,21.225-209.973,97.225l-1.473,2.092
				C682.806,551.301,691.34,552.695,707.015,550.518z"/>
			<path class="st3" d="M682.806,551.301c0,0,27.705,4.551,75.089-15.52c47.384-20.071,96.884-39.071,120.884-28.071
				s45.5,34.5,53,60c0,0,29.013-79.802-37.527-115.725S758.778,473.21,684.278,549.21"/>
			<path class="st4" d="M682.806,551.301c0,0,48.075-4.914,81.408-27.787c33.333-22.873,74.398-72.804,119.064-72.137
				s78,23.354,78,23.354s-16-93.52-81.5-93.521c-60,0-75.72,53.479-129.5,96.5c-35.857,28.683-50.303,33.77-50.303,33.77
				L682.806,551.301z"/>
			<path class="st5" d="M694.039,533.48c0,0,15.364-5.087,53.499-33.77c57.197-43.021,73.916-96.5,137.728-96.5
				c34.356,0,55.9,22.747,68.92,45.803c-9.843-27.685-31.507-67.803-74.409-67.803c-60,0-75.72,53.479-129.5,96.5
				c-35.857,28.683-50.303,33.77-50.303,33.77l-17.17,39.822c0,0,1.162-0.119,3.247-0.405L694.039,533.48z"/>
			<path class="st3" d="M682.806,551.301c0,0,48.075-4.914,81.408-27.787c33.333-22.873,74.398-72.804,119.064-72.137
				s78,23.354,78,23.354s-16-93.52-81.5-93.521c-60,0-75.72,53.479-129.5,96.5c-35.857,28.683-50.303,33.77-50.303,33.77
				L682.806,551.301z"/>
			<path class="st4" d="M583.519,528.054c0,0,21.76,58.656,63.093,49.989c41.333-8.667,56.667-69.313,55.667-83.99
				C701.278,479.376,601.092,472.732,583.519,528.054z"/>
			<path class="st5" d="M635.532,488.71l-20.018,5.402c-14.689,6.93-26.865,17.792-31.995,33.943c0,0,4.035,10.868,11.924,22.556
				c15.196-6.141,40.63-18.787,69.502-42.901L635.532,488.71z"/>
			<path class="st3" d="M583.519,528.054c0,0,21.76,58.656,63.093,49.989c41.333-8.667,56.667-69.313,55.667-83.99
				C701.278,479.376,601.092,472.732,583.519,528.054z"/>
			<path class="st6" d="M480.778,478.21c0,0,26.108-79.115,148.119-172.535c27.381-20.965,62.381-36.465,81.001-28.398
				c27.127,11.752,43.973,57.524,28.88,101.933c-17.055,50.184-51.5,95-91.5,124C527.027,590.392,480.778,478.21,480.778,478.21z"/>
			<path class="st7" d="M480.778,478.21c0,0,3.458,8.389,10.942,18.795c17.359-34.447,56.145-103.263,121.695-179.139
				C504.659,405.874,480.778,478.21,480.778,478.21z"/>
			<path class="st8" d="M668.563,340.476c0,0-20.726,30.061,8.828,51.981l17.721-25.99L668.563,340.476z"/>
			<path class="st3" d="M695.112,364.466l-26.549-23.99c0,0-20.726,28.061,8.828,49.981"/>
			<path class="st9" d="M709.898,277.276c-18.453-7.994-52.99,7.161-80.259,27.839l101.039,94.678
				c3.011-6.74,5.729-13.608,8.1-20.584C753.871,334.801,737.026,289.029,709.898,277.276z"/>
			<path class="st10" d="M709.898,289.276c18.821,8.154,32.68,32.686,34.37,61.774c1.964-34.168-13.009-64.52-34.37-73.774
				c-18.453-7.994-52.99,7.161-80.259,27.839l7.228,6.773C662.766,293.992,693.042,281.974,709.898,289.276z"/>
			<path class="st3" d="M480.778,478.21c0,0,26.108-79.115,148.119-172.535c27.381-20.965,62.381-36.465,81.001-28.398
				c27.127,11.752,43.973,57.524,28.88,101.933c-17.055,50.184-51.5,95-91.5,124C527.027,590.392,480.778,478.21,480.778,478.21z"/>
			<path d="M482.112,474.73c-0.932,2.269-1.333,4.012-1.333,4.012S483.118,486,488.986,496h0.004
				c12.72,0,38.226-16.458,38.226-16.458C498.537,487.466,482.122,474.741,482.112,474.73z"/>
			<path d="M513.866,520.044c0,0,23.413-4.001,41.746-22.667c0,0-10.569,19.747-30.618,28.207L513.866,520.044z"/>
			<path d="M568.733,399.714c-0.562,1.684-0.834,5.287,1.878,7.496c2.917,2.375,6.853,0.521,9.306-1.611
				c3.343-2.907,20.319-24.097,27.611-22.639c6.611,1.322,6.25,33.75,6.25,33.75s16.5-37.125,0-47
				C598.31,360.452,569.716,396.772,568.733,399.714z"/>
			<path class="st6" d="M702.278,306.71c0,0,57.5-66,135-11.5c0,0-8.788,66-100.644,55.5
				C736.635,350.71,710.278,346.21,702.278,306.71z"/>
			<path class="st7" d="M836.433,299.187c0.344-1.524,0.383-1.575,0.383-1.575v0c-77.5-54.5-134.537,9.098-134.537,9.098
				c0.97,4.788,2.213,9.053,3.643,12.867l10.024,1.3C755.544,287.923,822.385,297.842,836.433,299.187z"/>
			<path class="st3" d="M700.028,308.335c0,0,59.75-67.625,137.25-13.125c0,0-8.788,66-100.644,55.5
				C736.635,350.71,708.028,347.835,700.028,308.335z"/>
			<path d="M706.844,320.794c0,0,46.523-43.461,102.102-23.818c0,0-63.673-0.141-95.079,37.542L706.844,320.794z"/>
			<path class="st8" d="M675.778,389.21c0,0-38.75,0-17.642,34.35c0,0-42.708,2.15-21.698,44.115c0,0-40.91,13.035-8.558,48.293
				C639.294,528.407,675.778,389.21,675.778,389.21z"/>
			<path class="st3" d="M675.778,389.21c0,0-39,0-17.642,34.35c0,0-42.708,2.15-21.698,44.115c0,0-40.91,13.035-8.558,48.293
				C639.294,528.407,675.778,389.21,675.778,389.21z"/>
			<path class="st9" d="M716.667,337.993c0,0-134.055,166.978-72.722,195.181s101.449-181.675,101.326-181.683
				C745.149,351.483,716.667,337.993,716.667,337.993z"/>
			<path class="st3" d="M716.667,337.993c0,0-134.055,166.978-72.722,195.181s101.449-181.675,101.326-181.683
				C745.149,351.483,716.667,337.993,716.667,337.993z"/>
			<path class="st9" d="M733.104,403.324l-101.992-99.318c0,0,26.545-18.772,40.889-23.153l72.497,74.634L733.104,403.324z"/>
			<path class="st3" d="M733.104,403.324l-101.992-99.318c0,0,26.545-18.772,40.889-23.153l72.497,74.634L733.104,403.324z"/>
			
				<ellipse transform="matrix(0.2628 -0.9649 0.9649 0.2628 10.5647 1001.9338)" class="st10" cx="660.945" cy="494.053" rx="19.323" ry="14"/>
			
				<ellipse transform="matrix(0.2628 -0.9649 0.9649 0.2628 10.5647 1001.9338)" class="st11" cx="660.945" cy="494.053" rx="19.323" ry="14"/>
			<path class="st12" d="M650.218,267.905c-12.333,0-59.365,22.317-61.94,56.805c-0.983,13.174,34.05,32.637,51,31.333
				c21.667-1.667,43.65-28.327,43.527-39.667C682.576,295.421,662.552,267.905,650.218,267.905z"/>
			<path class="st13" d="M667.333,279.39c-5.738-6.877-12.069-11.485-17.115-11.485c-12.333,0-59.365,22.317-61.94,56.805
				c-0.369,4.942,1.171,8.169,8.084,13.453C601.141,302.196,651.586,281.174,667.333,279.39z"/>
			<path class="st3" d="M650.218,267.905c-12.333,0-59.365,22.317-61.94,56.805c-0.983,13.174,34.05,32.637,51,31.333
				c21.667-1.667,43.65-28.327,43.527-39.667C682.576,295.421,662.552,267.905,650.218,267.905z"/>
			<path d="M614.938,571.191l27.984-19.815l-7.39,27.435C635.532,578.811,624.058,578.925,614.938,571.191z"/>
		</g>
		<g>
			<path d="M388.05,483.32c-11.602-2.4-19.477-5.901-23.625-10.5c-4.151-4.601-6.225-10.999-6.225-19.2
				c0-0.699,0.023-2.55,0.075-5.55c0.049-3,0.075-4.95,0.075-5.85c0-6-1.251-10.475-3.75-13.425
				c-2.501-2.948-6.952-4.474-13.35-4.575c-3.501-0.199-5.25-1.699-5.25-4.5c0-2.799,1.749-4.299,5.25-4.5
				c6.398-0.099,10.849-1.625,13.35-4.575c2.499-2.948,3.75-7.425,3.75-13.425c0-0.9-0.026-2.85-0.075-5.85
				c-0.051-3-0.075-4.849-0.075-5.55c0-8.198,2.074-14.599,6.225-19.2c4.148-4.599,12.023-8.1,23.625-10.5
				c1.399-0.3,2.599-0.075,3.6,0.675c0.999,0.75,1.5,1.777,1.5,3.075c0,1.901-0.9,3.202-2.7,3.9
				c-9.101,2.501-14.925,5.325-17.475,8.475s-3.825,8.175-3.825,15.075c0,1.001,0.023,2.85,0.075,5.55
				c0.049,2.7,0.075,4.601,0.075,5.7c0,6-1.327,10.627-3.975,13.875c-2.651,3.251-6.525,5.677-11.625,7.275
				c5.299,1.701,9.225,4.15,11.775,7.35c2.55,3.202,3.825,7.8,3.825,13.8c0,1.102-0.026,3-0.075,5.7
				c-0.052,2.7-0.075,4.552-0.075,5.55c0,6.9,1.275,11.925,3.825,15.075c2.55,3.15,8.374,5.975,17.475,8.475
				c1.8,0.699,2.7,2,2.7,3.9c0,1.299-0.501,2.325-1.5,3.075C390.649,483.395,389.449,483.62,388.05,483.32z"/>
		</g>
		<g>
			<path d="M1051.95,353.11c11.602,2.4,19.477,5.901,23.625,10.5c4.151,4.601,6.225,10.999,6.225,19.2
				c0,0.699-0.023,2.55-0.075,5.55c-0.049,3-0.075,4.95-0.075,5.85c0,6,1.251,10.475,3.75,13.425
				c2.501,2.948,6.952,4.474,13.35,4.575c3.501,0.199,5.25,1.699,5.25,4.5c0,2.799-1.749,4.299-5.25,4.5
				c-6.398,0.099-10.849,1.625-13.35,4.575c-2.499,2.948-3.75,7.425-3.75,13.425c0,0.9,0.026,2.85,0.075,5.85
				c0.051,3,0.075,4.849,0.075,5.55c0,8.198-2.074,14.599-6.225,19.2c-4.148,4.599-12.023,8.1-23.625,10.5
				c-1.399,0.3-2.599,0.075-3.6-0.675c-0.999-0.75-1.5-1.777-1.5-3.075c0-1.901,0.9-3.202,2.7-3.9
				c9.101-2.501,14.925-5.325,17.475-8.475s3.825-8.175,3.825-15.075c0-1.001-0.023-2.85-0.075-5.55
				c-0.049-2.7-0.075-4.601-0.075-5.7c0-6,1.327-10.627,3.975-13.875c2.651-3.251,6.525-5.677,11.625-7.275
				c-5.299-1.701-9.225-4.15-11.775-7.35c-2.55-3.202-3.825-7.8-3.825-13.8c0-1.102,0.026-3,0.075-5.7
				c0.052-2.7,0.075-4.552,0.075-5.55c0-6.9-1.275-11.925-3.825-15.075c-2.55-3.15-8.374-5.975-17.475-8.475
				c-1.8-0.699-2.7-2-2.7-3.9c0-1.299,0.501-2.325,1.5-3.075C1049.351,353.035,1050.551,352.81,1051.95,353.11z"/>
		</g>
	</g>
	<g>
		<path class="st1" d="M394.143,709.073v17.23H355.62h-0.123h-19.077v-80h19.2v62.77H394.143z"/>
		<path class="st1" d="M421.343,709.073h36.677v17.23h-55.878v-80h55.878v17.231h-36.677v14.153h31.138v17.231h-31.138V709.073z"/>
		<path class="st1" d="M531.91,716.856c-7.055,5.86-16.024,9.447-25.949,9.447c-22.002,0-39.94-17.937-39.94-39.94
			c0-22.123,17.938-40.06,39.94-40.06c9.926,0,18.895,3.587,25.949,9.567l-11.958,11.839c-3.946-2.99-8.849-4.665-13.992-4.665
			c-6.218,0-11.958,2.392-16.382,6.816c-4.425,4.425-6.816,10.285-6.816,16.503c0,6.219,2.391,11.959,6.816,16.383
			c4.424,4.424,10.164,6.816,16.382,6.816c5.142,0,10.045-1.674,13.992-4.664L531.91,716.856z"/>
		<path class="st1" d="M602.433,646.303v80h-19.2v-31.384H559.11v31.384h-19.2v-80h19.2v31.384h24.122v-31.384H602.433z"/>
		<path class="st1" d="M668.526,715.102h-30.154l-5.784,11.2h-22.153l43.077-80l42.953,80H674.31L668.526,715.102z M660.772,700.088
			l-7.262-14.031l-7.384,14.031H660.772z"/>
		<path class="st1" d="M771.532,663.533l-43.349,45.785h43.349v17.046l-66.85,0v-16.926v-0.121l43.349-45.785h-43.349v-17.047h66.85
			V663.533z"/>
		<path class="st1" d="M859.532,686.426c0,22.09-17.91,40-40,40s-40-17.91-40-40s17.91-40,40-40S859.532,664.336,859.532,686.426z
			 M842.816,686.426c0-6.208-2.389-12.059-6.806-16.478c-4.418-4.418-10.268-6.806-16.478-6.806c-6.208,0-12.059,2.389-16.477,6.806
			c-4.419,4.419-6.806,10.269-6.806,16.478s2.388,12.059,6.806,16.478c4.418,4.298,10.268,6.806,16.477,6.806
			c6.209,0,12.06-2.508,16.478-6.806C840.428,698.485,842.816,692.634,842.816,686.426z"/>
		<path d="M936.25,715.001c-7.821,7.821-18.212,11.732-28.491,11.732c-26.368,0-40.112-18.436-40.224-39.553
			c-0.223-20.893,13.408-40.447,40.224-40.447c10.279,0,20.67,3.911,28.491,11.733l-4.133,3.575
			c-6.704-6.703-15.531-9.944-24.358-9.944c-22.794,0-34.525,16.089-34.413,34.86c0.223,18.324,11.844,34.19,34.413,34.19
			c8.827,0,17.765-3.352,24.469-9.944L936.25,715.001z"/>
		<path d="M944.25,698.657c0-17.27,12.319-28.27,27.609-28.27s27.61,11,27.61,28.27c0,17.271-12.32,27.83-27.61,27.83
			S944.25,715.927,944.25,698.657z M994.189,698.657c0-14.08-10.01-23.21-22.33-23.21c-12.319,0-22.33,9.13-22.33,23.21
			s10.011,22.551,22.33,22.551C984.179,721.207,994.189,712.737,994.189,698.657z"/>
		<path d="M1012.75,672.393v9.68c4.18-7.48,11.771-10.561,19.36-10.67c14.52,0,24.53,8.91,24.53,23.979v31.351h-5.391v-31.24
			c0-12.32-7.59-18.92-19.36-18.81c-11.22,0.109-19.029,8.579-19.029,19.8v30.25h-5.391v-54.34H1012.75z"/>
		<path d="M1076.134,726.733v-50.868h-11.494v-4.894h11.494v-5.007c0-11.152,4.438-19.232,16.842-19.232
			c4.21,0,7.966,1.479,11.151,3.868l-2.731,4.097c-3.072-1.821-5.234-2.845-8.649-2.845c-7.055,0-11.151,4.325-11.151,14.112v5.007
			h18.549v4.894h-18.549v50.868H1076.134z"/>
	</g>
</g>
</svg>
