<?xml version="1.0" encoding="UTF-8"?>
<svg width="1330px" height="745px" viewBox="0 0 1330 745" version="1.1" xmlns="http://www.w3.org/2000/svg" xmlns:xlink="http://www.w3.org/1999/xlink">
	<style type="text/css">
	.anima{animation: nudge 5s linear infinite alternate;}
	@keyframes nudge {
		0%{
			transform: translate(500, 0);
		}

		100% {
			transform: translate(-180px, 0);
		}
	}
	</style>
    <!-- Generator: Sketch 42 (36781) - http://www.bohemiancoding.com/sketch -->
    <title>Group 3</title>
    <desc>Created with Sketch.</desc>
    <defs>
        <circle id="path-1" cx="249.458" cy="248.813" r="248.59"></circle>
    </defs>
    <g id="Page-1" stroke="none" stroke-width="1" fill="none" fill-rule="evenodd">
        <g id="Group-3" transform="translate(0.000000, 6.000000)">
            <g id="Group-2" transform="translate(0.000000, 578.000000)" fill-rule="nonzero">
                <path d="M60,137 C40.118,137 24,120.882 24,101 L24,13 C24,6.373 18.627,1 12,1 C5.373,1 0,6.373 0,13 L0,101 C0,134.137 26.863,161 60,161 C66.627,161 72,155.627 72,149 C72,142.373 66.627,137 60,137 Z" id="Shape" fill="#753C51"></path>
                <path d="M784,41 C750.863,41 724,67.863 724,101 C724,134.137 750.863,161 784,161 C817.137,161 844,134.137 844,101 C844,67.863 817.137,41 784,41 Z M784,137 C764.118,137 748,120.882 748,101 C748,81.118 764.118,65 784,65 C803.882,65 820,81.118 820,101 C820,120.882 803.882,137 784,137 Z" id="Shape" fill="#753C51"></path>
                <path d="M1042,41 C1008.863,41 982,67.863 982,101 C982,134.137 1008.863,161 1042,161 C1075.137,161 1102,134.137 1102,101 C1102,67.863 1075.137,41 1042,41 Z M1042,137 C1022.118,137 1006,120.882 1006,101 C1006,81.118 1022.118,65 1042,65 C1061.882,65 1078,81.118 1078,101 C1078,120.882 1061.882,137 1042,137 Z" id="Shape" fill="#D3A36E"></path>
                <path d="M307.875,135 C307.875,128.373 302.502,123 295.875,123 C292.317,123 289.131,124.557 286.933,127.017 C280.466,133.214 271.67,137 262.006,137 C242.124,137 226.006,120.882 226.006,101 C226.006,81.118 242.124,65 262.006,65 C271.712,65 280.541,68.821 287.016,75.067 C289.138,76.963 291.93,78.125 294.999,78.125 C301.626,78.125 306.999,72.752 306.999,66.125 C306.999,63.055 305.837,60.264 303.941,58.142 C303.941,58.142 302.956,57.133 302.534,56.792 C291.857,46.996 277.639,41 262.007,41 C228.87,41 202.007,67.863 202.007,101 C202.007,134.137 228.87,161 262.007,161 C278.298,161 293.064,154.498 303.875,143.958 L303.858,143.941 C306.318,141.744 307.875,138.558 307.875,135 Z" id="Shape" fill="#753C51"></path>
                <path d="M965.875,135 C965.875,128.373 960.502,123 953.875,123 C950.317,123 947.131,124.557 944.934,127.017 C938.467,133.214 929.671,137 920.007,137 C900.125,137 884.007,120.882 884.007,101 C884.007,81.118 900.125,65 920.007,65 C929.713,65 938.542,68.821 945.017,75.067 C947.139,76.963 949.931,78.125 953,78.125 C959.627,78.125 965,72.752 965,66.125 C965,63.055 963.838,60.264 961.941,58.142 C961.941,58.142 960.956,57.133 960.534,56.792 C949.857,46.996 935.639,41 920.007,41 C886.87,41 860.007,67.863 860.007,101 C860.007,134.137 886.87,161 920.007,161 C936.298,161 951.064,154.498 961.875,143.958 L961.858,143.941 C964.318,141.744 965.875,138.558 965.875,135 Z" id="Shape" fill="#D3A36E"></path>
                <path d="M185.875,135 C185.875,128.373 180.502,123 173.875,123 C170.317,123 167.131,124.557 164.933,127.017 L164.904,126.988 C158.438,133.185 149.671,137 140.007,137 C137.141,137 134.357,136.655 131.684,136.022 L182.622,73.316 L182.602,73.3 C184.101,71.297 184.999,68.819 184.999,66.125 C184.999,63.055 183.837,60.264 181.941,58.142 C181.941,58.142 180.956,57.133 180.534,56.792 C169.857,46.996 155.639,41 140.007,41 C106.87,41 80.007,67.863 80.007,101 C80.007,134.137 106.87,161 140.007,161 C156.298,161 171.064,154.498 181.875,143.958 L181.858,143.941 C184.318,141.744 185.875,138.558 185.875,135 Z M140.007,65 C145.587,65 150.865,66.277 155.577,68.545 L111.433,122.888 C106.779,116.822 104.007,109.236 104.007,101 C104.007,81.118 120.125,65 140.007,65 Z" id="Shape" fill="#753C51"></path>
                <path d="M384,41 C370.492,41 358.028,45.489 348,53.04 L348,13 C348,6.373 342.627,1 336,1 C329.373,1 324,6.373 324,13 L324,149 C324,155.627 329.373,161 336,161 C342.627,161 348,155.627 348,149 L348,101 C348,81 364.118,65 384,65 C403.882,65 420,81 420,101 L420,149 C420,155.627 425.373,161 432,161 C438.627,161 444,155.627 444,149 L444,101 C444,68 417.137,41 384,41 Z" id="Shape" fill="#753C51"></path>
                <path d="M1178,41 C1144.863,41 1118,68 1118,101 L1118,149 C1118,155.627 1123.373,161 1130,161 C1136.627,161 1142,155.627 1142,149 L1142,101 C1142,81 1158.118,65 1178,65 C1197.882,65 1214,81 1214,101 L1214,149 C1214,155.627 1219.373,161 1226,161 C1232.627,161 1238,155.627 1238,149 L1238,101 C1238,68 1211.137,41 1178,41 Z" id="Shape" fill="#D3A36E"></path>
                <path d="M520.014,41 C486.877,41 460.021,67.863 460.021,101 C460.021,134.119 486.858,160.969 519.97,160.999 C519.979,160.999 519.99,161 519.999,161 C526.626,161 532,155.627 532,149 C532,142.373 526.628,137 520,137 L520,136.999 C500.13,136.984 484.027,120.873 484.027,101 C484.027,81.118 500.131,65 520.013,65 C539.895,65 556,81 556,101 L556,149 C556,155.627 561.373,161 568,161 C574.627,161 580,155.627 580,149 L580,101 C580,68 553.151,41 520.014,41 Z" id="Shape" fill="#753C51"></path>
                <path d="M703.826,137 L637.3,137 L712.456,61.743 C716.916,57.283 717.162,50.211 713.203,45.457 C710.984,42.738 707.609,41 703.826,41 L608.028,41 C601.345,41 595.927,46.317 595.927,53 C595.927,59.683 601.345,65 608.028,65 L674.772,65 L600.153,139.706 C597.592,141.925 596.001,145.219 596.001,148.873 L596.001,148.886 C596.001,155.197 600.796,160.379 606.962,160.937 C606.988,160.94 606.996,160.942 607.022,160.944 C607.361,160.973 607.683,160.999 608.029,160.999 L703.827,160.999 C710.51,160.999 716.001,155.581 716.001,148.898 L716.001,149 C716,142.317 710.509,137 703.826,137 Z" id="Shape" fill="#753C51"></path>
                <path d="M1318,72 L1282,72 L1282,60 C1282,40.118 1298.118,24 1318,24 C1324.627,24 1330,18.627 1330,12 C1330,5.373 1324.627,0 1318,0 C1284.863,0 1258,26.863 1258,60 L1258,149 C1258,155.627 1263.373,161 1270,161 C1276.627,161 1282,155.627 1282,149 L1282,96 L1318,96 C1324.627,96 1330,90.627 1330,84 C1330,77.373 1324.627,72 1318,72 Z" id="Shape" fill="#D3A36E"></path>
            </g>
            <g id="Group" transform="translate(194.000000, 0.000000)">
                <g transform="translate(178.000000, 0.000000)">
                    <g transform="translate(33.000000, 0.000000)">
                        <mask id="mask-2" fill="white">
                            <use xlink:href="#path-1"></use>
                        </mask>
                        <use id="Mask" fill="#9D5763" fill-rule="nonzero" xlink:href="#path-1"></use>
                        <g mask="url(#mask-2)" id="Shape" fill-rule="nonzero" fill="#843A51">
                            <g class="anima" transform="translate(-68.000000, 36.000000)">
                                <path d="M225.047,38.253 L126.873,38.253 C116.33,38.253 107.784,29.706 107.784,19.164 L107.784,19.164 C107.784,8.621 116.331,0.075 126.873,0.075 L225.047,0.075 C235.59,0.075 244.136,8.622 244.136,19.164 L244.136,19.164 C244.136,29.707 235.59,38.253 225.047,38.253 Z"></path>
                                <path d="M142.038,103.705 L43.864,103.705 C33.321,103.705 24.775,95.158 24.775,84.616 L24.775,84.616 C24.775,74.073 33.322,65.527 43.864,65.527 L142.038,65.527 C152.581,65.527 161.127,74.074 161.127,84.616 L161.127,84.616 C161.127,95.159 152.58,103.705 142.038,103.705 Z"></path>
                                <path d="M442.015,103.705 L207.489,103.705 C196.946,103.705 188.4,95.158 188.4,84.616 L188.4,84.616 C188.4,74.073 196.947,65.527 207.489,65.527 L442.015,65.527 C452.558,65.527 461.104,74.074 461.104,84.616 L461.104,84.616 C461.105,95.159 452.558,103.705 442.015,103.705 Z"></path>
                                <path d="M290.499,38.253 L290.499,38.253 C279.956,38.253 271.41,29.706 271.41,19.164 L271.41,19.164 C271.41,8.621 279.957,0.075 290.499,0.075 L290.499,0.075 C301.042,0.075 309.588,8.622 309.588,19.164 L309.588,19.164 C309.588,29.707 301.041,38.253 290.499,38.253 Z"></path>
                                <path d="M536.75,102.209 L507.467,102.209 C496.924,102.209 488.378,93.662 488.378,83.12 L488.378,83.12 C488.378,72.577 496.925,64.031 507.467,64.031 L536.75,64.031 C547.293,64.031 555.839,72.578 555.839,83.12 L555.839,83.12 C555.839,93.663 547.292,102.209 536.75,102.209 Z"></path>
                                <path d="M460.704,195.335 L504.337,195.335 C514.88,195.335 523.426,203.882 523.426,214.424 L523.426,214.424 C523.426,224.967 514.879,233.513 504.337,233.513 L460.704,233.513 C450.161,233.513 441.615,224.966 441.615,214.424 L441.615,214.424 C441.615,203.882 450.161,195.335 460.704,195.335 Z"></path>
                                <path d="M569.797,195.335 L613.43,195.335 C623.973,195.335 632.519,203.882 632.519,214.424 L632.519,214.424 C632.519,224.967 623.972,233.513 613.43,233.513 L569.797,233.513 C559.254,233.513 550.708,224.966 550.708,214.424 L550.708,214.424 C550.708,203.882 559.254,195.335 569.797,195.335 Z"></path>
                                <path d="M206.589,196.44 L392.928,196.44 C403.471,196.44 412.017,204.987 412.017,215.529 L412.017,215.529 C412.017,226.072 403.47,234.618 392.928,234.618 L206.589,234.618 C196.046,234.618 187.5,226.071 187.5,215.529 L187.5,215.529 C187.5,204.986 196.047,196.44 206.589,196.44 Z"></path>
                                <path d="M19.594,197.935 L123.315,197.935 C133.858,197.935 142.404,206.482 142.404,217.024 L142.404,217.024 C142.404,227.567 133.857,236.113 123.315,236.113 L19.594,236.113 C9.051,236.113 0.505,227.566 0.505,217.024 L0.505,217.024 C0.505,206.482 9.051,197.935 19.594,197.935 Z"></path>
                                <path d="M399.583,38.253 L355.95,38.253 C345.407,38.253 336.861,29.706 336.861,19.164 L336.861,19.164 C336.861,8.621 345.408,0.075 355.95,0.075 L399.583,0.075 C410.126,0.075 418.672,8.622 418.672,19.164 L418.672,19.164 C418.672,29.707 410.126,38.253 399.583,38.253 Z"></path>
                                <path d="M508.676,38.253 L465.043,38.253 C454.5,38.253 445.954,29.706 445.954,19.164 L445.954,19.164 C445.954,8.621 454.501,0.075 465.043,0.075 L508.676,0.075 C519.219,0.075 527.765,8.622 527.765,19.164 L527.765,19.164 C527.765,29.707 519.219,38.253 508.676,38.253 Z"></path>
                                <path d="M227.459,169.166 L129.285,169.166 C118.742,169.166 110.196,160.619 110.196,150.077 L110.196,150.077 C110.196,139.534 118.743,130.988 129.285,130.988 L227.459,130.988 C238.002,130.988 246.548,139.535 246.548,150.077 L246.548,150.077 C246.548,160.62 238.002,169.166 227.459,169.166 Z"></path>
                                <path d="M292.911,169.166 L292.911,169.166 C282.368,169.166 273.822,160.619 273.822,150.077 L273.822,150.077 C273.822,139.534 282.369,130.988 292.911,130.988 L292.911,130.988 C303.454,130.988 312,139.535 312,150.077 L312,150.077 C312,160.62 303.453,169.166 292.911,169.166 Z"></path>
                                <path d="M401.995,169.166 L358.362,169.166 C347.819,169.166 339.273,160.619 339.273,150.077 L339.273,150.077 C339.273,139.534 347.82,130.988 358.362,130.988 L401.995,130.988 C412.538,130.988 421.084,139.535 421.084,150.077 L421.084,150.077 C421.085,160.62 412.538,169.166 401.995,169.166 Z"></path>
                                <path d="M620.162,169.166 L467.447,169.166 C456.904,169.166 448.358,160.619 448.358,150.077 L448.358,150.077 C448.358,139.534 456.905,130.988 467.447,130.988 L620.162,130.988 C630.705,130.988 639.251,139.535 639.251,150.077 L639.251,150.077 C639.251,160.62 630.704,169.166 620.162,169.166 Z"></path>
                                <path d="M302.019,261.128 L534.74,261.128 C545.283,261.128 553.829,269.675 553.829,280.217 L553.829,280.217 C553.829,290.76 545.282,299.306 534.74,299.306 L302.019,299.306 C291.476,299.306 282.93,290.759 282.93,280.217 L282.93,280.217 C282.93,269.674 291.477,261.128 302.019,261.128 Z"></path>
                                <path d="M234.973,327.289 L333.147,327.289 C343.69,327.289 352.236,335.836 352.236,346.378 L352.236,346.378 C352.236,356.921 343.689,365.467 333.147,365.467 L234.973,365.467 C224.43,365.467 215.884,356.92 215.884,346.378 L215.884,346.378 C215.884,335.835 224.431,327.289 234.973,327.289 Z"></path>
                                <path d="M397.368,327.298 L495.542,327.298 C506.085,327.298 514.631,335.845 514.631,346.387 L514.631,346.387 C514.631,356.93 506.084,365.476 495.542,365.476 L397.368,365.476 C386.825,365.476 378.279,356.929 378.279,346.387 L378.279,346.387 C378.279,335.845 386.826,327.298 397.368,327.298 Z"></path>
                                <path d="M234.973,392.371 L333.147,392.371 C343.69,392.371 352.236,400.918 352.236,411.46 L352.236,411.46 C352.236,422.003 343.689,430.549 333.147,430.549 L234.973,430.549 C224.43,430.549 215.884,422.002 215.884,411.46 L215.884,411.46 C215.884,400.918 224.431,392.371 234.973,392.371 Z"></path>
                                <path d="M397.368,392.381 L527.768,392.381 C538.311,392.381 546.857,400.928 546.857,411.47 L546.857,411.47 C546.857,422.013 538.31,430.559 527.768,430.559 L397.368,430.559 C386.825,430.559 378.279,422.012 378.279,411.47 L378.279,411.47 C378.279,400.927 386.826,392.381 397.368,392.381 Z"></path>
                            </g>
                        </g>
                    </g>
                    <circle id="Oval" stroke="#000000" stroke-width="12" cx="282.458" cy="248.813" r="248.59"></circle>
                    <path d="M247.476,463.603 C247.476,463.603 281.385,469.173 339.382,444.607 C397.379,420.041 457.964,396.785 487.339,410.249 C516.714,423.713 543.029,452.476 552.209,483.687 C552.209,483.687 587.719,386.013 506.278,342.044 C424.837,298.075 340.464,368.023 249.279,461.044" id="Shape" fill="#AEB788" fill-rule="nonzero"></path>
                    <path d="M277.107,462.644 C357.728,384.26 433.184,331.956 506.277,371.418 C543.278,391.394 556.136,422.455 559.154,450.406 C562.388,417.927 557.148,369.508 506.277,342.043 C424.836,298.074 340.463,368.022 249.278,461.043 L247.475,463.603 C247.476,463.603 257.922,465.309 277.107,462.644 Z" id="Shape" fill="#A0A873" fill-rule="nonzero"></path>
                    <path d="M247.476,463.603 C247.476,463.603 281.385,469.173 339.382,444.607 C397.379,420.041 457.964,396.785 487.339,410.249 C516.714,423.713 543.029,452.476 552.209,483.687 C552.209,483.687 587.719,386.013 506.278,342.044 C424.837,298.075 340.464,368.023 249.279,461.044" id="Shape" stroke="#000000" stroke-width="12"></path>
                    <path d="M247.476,463.603 C247.476,463.603 306.318,457.588 347.117,429.592 C387.916,401.596 438.177,340.483 492.847,341.299 C547.517,342.115 588.316,369.883 588.316,369.883 C588.316,369.883 568.733,255.418 488.563,255.418 C415.125,255.418 395.885,320.875 330.06,373.53 C286.173,408.637 268.491,414.863 268.491,414.863 L247.476,463.603 Z" id="Shape" fill="#AEB788" fill-rule="nonzero"></path>
                    <path d="M261.225,441.79 C261.225,441.79 280.03,435.564 326.706,400.457 C396.713,347.802 417.176,282.345 495.28,282.345 C537.33,282.345 563.7,310.186 579.636,338.407 C567.588,304.522 541.072,255.419 488.563,255.418 C415.125,255.418 395.885,320.875 330.06,373.53 C286.173,408.637 268.491,414.863 268.491,414.863 L247.476,463.603 C247.476,463.603 248.898,463.457 251.45,463.107 L261.225,441.79 Z" id="Shape" fill="#A0A873" fill-rule="nonzero"></path>
                    <path d="M247.476,463.603 C247.476,463.603 306.318,457.588 347.117,429.592 C387.916,401.596 438.177,340.483 492.847,341.299 C547.517,342.115 588.316,369.883 588.316,369.883 C588.316,369.883 568.733,255.418 488.563,255.418 C415.125,255.418 395.885,320.875 330.06,373.53 C286.173,408.637 268.491,414.863 268.491,414.863 L247.476,463.603 Z" id="Shape" stroke="#000000" stroke-width="12"></path>
                    <path d="M125.953,435.15 C125.953,435.15 152.586,506.942 203.176,496.334 C253.766,485.726 272.589,405.843 271.366,387.879 C270.141,369.915 147.462,367.438 125.953,435.15 Z" id="Shape" fill="#AEB788" fill-rule="nonzero"></path>
                    <path d="M189.615,386.994 L165.114,393.606 C147.135,402.088 132.233,415.383 125.953,435.15 C125.953,435.15 130.892,448.452 140.548,462.758 C159.147,455.242 190.277,439.763 225.616,410.249 L189.615,386.994 Z" id="Shape" fill="#A0A873" fill-rule="nonzero"></path>
                    <path d="M125.953,435.15 C125.953,435.15 152.586,506.942 203.176,496.334 C253.766,485.726 272.589,405.843 271.366,387.879 C270.141,369.915 147.462,367.438 125.953,435.15 Z" id="Shape" stroke="#000000" stroke-width="12"></path>
                    <path d="M0.203,374.142 C0.203,374.142 32.158,277.308 181.495,162.966 C215.008,137.306 257.847,118.335 280.636,128.208 C313.839,142.592 334.457,198.615 315.984,252.97 C295.109,314.393 252.95,369.246 203.992,404.741 C56.809,511.449 0.203,374.142 0.203,374.142 Z" id="Shape" fill="#EFBF7C" fill-rule="nonzero"></path>
                    <path d="M0.203,374.142 C0.203,374.142 4.436,384.409 13.596,397.147 C34.843,354.985 82.315,270.757 162.545,177.888 C29.432,285.607 0.203,374.142 0.203,374.142 Z" id="Shape" fill="#D3A36E" fill-rule="nonzero"></path>
                    <path d="M230.043,205.562 C230.043,205.562 204.676,242.355 240.848,269.184 L262.538,237.373 L230.043,205.562 Z" id="Shape" fill="#FFFFFF" fill-rule="nonzero"></path>
                    <path d="M262.538,234.925 L230.043,205.562 C230.043,205.562 204.676,239.907 240.848,266.736" id="Shape" stroke="#000000" stroke-width="12"></path>
                    <path d="M280.636,128.208 C258.05,118.423 215.779,136.973 182.403,162.282 L306.07,278.164 C309.755,269.914 313.082,261.509 315.984,252.971 C334.457,198.616 313.839,142.592 280.636,128.208 Z" id="Shape" fill="#7C4F46" fill-rule="nonzero"></path>
                    <path d="M280.636,142.896 C303.672,152.876 320.635,182.903 322.704,218.505 C325.108,176.685 306.782,139.536 280.636,128.209 C258.05,118.424 215.779,136.974 182.403,162.283 L191.25,170.572 C222.948,148.668 260.004,133.957 280.636,142.896 Z" id="Shape" fill="#4A2F2E" fill-rule="nonzero"></path>
                    <path d="M0.203,374.142 C0.203,374.142 32.158,277.308 181.495,162.966 C215.008,137.306 257.847,118.335 280.636,128.208 C313.839,142.592 334.457,198.615 315.984,252.97 C295.109,314.393 252.95,369.246 203.992,404.741 C56.809,511.449 0.203,374.142 0.203,374.142 Z" id="Shape" stroke="#000000" stroke-width="12"></path>
                    <path d="M1.835,369.884 C0.694,372.661 0.203,374.836 0.203,374.836 C0.203,374.836 3.066,384 10.249,396 L10.254,396 C25.823,396 57.041,375.815 57.041,375.815 C21.938,385.513 1.848,369.896 1.835,369.884 Z" id="Shape" fill="#000000" fill-rule="nonzero"></path>
                    <path d="M40.7,425.345 C40.7,425.345 69.356,420.448 91.796,397.601 C91.796,397.601 78.86,421.77 54.321,432.125 L40.7,425.345 Z" id="Shape" fill="#000000" fill-rule="nonzero"></path>
                    <path d="M107.856,278.067 C107.168,280.128 106.835,284.538 110.155,287.241 C113.725,290.148 118.543,287.879 121.545,285.269 C125.637,281.711 146.415,255.775 155.339,257.56 C163.431,259.178 162.989,298.869 162.989,298.869 C162.989,298.869 183.184,253.43 162.989,241.343 C144.056,230.012 109.059,274.466 107.856,278.067 Z" id="Shape" fill="#000000" fill-rule="nonzero"></path>
                    <path d="M271.31,164.233 C271.31,164.233 341.688,83.452 436.544,150.157 C436.544,150.157 425.788,230.938 313.36,218.087 C313.36,218.088 281.101,212.58 271.31,164.233 Z" id="Shape" fill="#EFBF7C" fill-rule="nonzero"></path>
                    <path d="M435.509,155.026 C435.93,153.161 435.977,153.098 435.977,153.098 L435.977,153.098 C341.12,86.392 271.309,164.234 271.309,164.234 C272.496,170.095 274.018,175.314 275.768,179.982 L288.036,181.573 C336.505,141.24 418.315,153.38 435.509,155.026 Z" id="Shape" fill="#D3A36E" fill-rule="nonzero"></path>
                    <path d="M268.556,166.222 C268.556,166.222 341.687,83.452 436.544,150.158 C436.544,150.158 425.788,230.939 313.36,218.088 C313.36,218.088 278.347,214.569 268.556,166.222 Z" id="Shape" stroke="#000000" stroke-width="12"></path>
                    <path d="M276.897,181.472 C276.897,181.472 333.84,128.278 401.865,152.32 C401.865,152.32 323.931,152.147 285.493,198.27 L276.897,181.472 Z" id="Shape" fill="#000000" fill-rule="nonzero"></path>
                    <path d="M238.875,265.21 C238.875,265.21 191.447,265.21 217.282,307.253 C217.282,307.253 165.009,309.885 190.724,361.248 C190.724,361.248 140.652,377.202 180.249,420.356 C194.219,435.581 238.875,265.21 238.875,265.21 Z" id="Shape" fill="#FFFFFF" fill-rule="nonzero"></path>
                    <path d="M238.875,265.21 C238.875,265.21 191.141,265.21 217.282,307.253 C217.282,307.253 165.009,309.885 190.724,361.248 C190.724,361.248 140.652,377.202 180.249,420.356 C194.219,435.581 238.875,265.21 238.875,265.21 Z" id="Shape" stroke="#000000" stroke-width="12"></path>
                    <path d="M288.921,202.523 C288.921,202.523 124.843,406.897 199.912,441.416 C274.981,475.935 324.081,219.053 323.931,219.044 C323.781,219.034 288.921,202.523 288.921,202.523 Z" id="Shape" fill="#7C4F46" fill-rule="nonzero"></path>
                    <path d="M288.921,202.523 C288.921,202.523 124.843,406.897 199.912,441.416 C274.981,475.935 323.331,222.213 323.302,222.361 C323.007,223.869 288.921,202.523 288.921,202.523 Z" id="Shape" stroke="#000000" stroke-width="12"></path>
                    <path d="M309.039,282.486 L184.205,160.925 C184.205,160.925 216.695,137.949 234.252,132.587 L322.986,223.936 L309.039,282.486 Z" id="Shape" fill="#7C4F46" fill-rule="nonzero"></path>
                    <path d="M309.039,282.486 L184.205,160.925 C184.205,160.925 216.695,137.949 234.252,132.587 L322.986,223.936 L309.039,282.486 Z" id="Shape" stroke="#000000" stroke-width="12"></path>
                    <ellipse id="Oval" fill="#4A2F2E" fill-rule="nonzero" transform="translate(220.749010, 393.507072) rotate(-74.764479) translate(-220.749010, -393.507072) " cx="220.74901" cy="393.507072" rx="23.6521334" ry="17.1358212"></ellipse>
                    <ellipse id="Oval" stroke="#000000" stroke-width="9.00043131" transform="translate(220.749010, 393.507072) rotate(-74.764479) translate(-220.749010, -393.507072) " cx="220.74901" cy="393.507072" rx="23.6521334" ry="17.1358212"></ellipse>
                    <path d="M207.59,116.738 C192.495,116.738 134.929,144.053 131.778,186.265 C130.574,202.39 173.454,226.212 194.2,224.616 C220.719,222.576 247.626,189.945 247.475,176.066 C247.195,150.417 222.686,116.738 207.59,116.738 Z" id="Shape" fill="#E3E3E3" fill-rule="nonzero"></path>
                    <path d="M228.538,130.795 C221.515,122.378 213.766,116.738 207.59,116.738 C192.495,116.738 134.929,144.053 131.778,186.265 C131.326,192.314 133.211,196.264 141.672,202.731 C147.522,158.708 209.264,132.979 228.538,130.795 Z" id="Shape" fill="#CECECE" fill-rule="nonzero"></path>
                    <path d="M207.59,116.738 C192.495,116.738 134.929,144.053 131.778,186.265 C130.574,202.39 173.454,226.212 194.2,224.616 C220.719,222.576 247.626,189.945 247.475,176.066 C247.195,150.417 222.686,116.738 207.59,116.738 Z" id="Shape" stroke="#000000" stroke-width="12"></path>
                    <path d="M164.408,487.948 L198.659,463.695 L189.615,497.274 C189.615,497.274 175.571,497.414 164.408,487.948 Z" id="Shape" fill="#000000" fill-rule="nonzero"></path>
                </g>
                <path d="M64.707,380.397 C50.507,377.46 40.868,373.174 35.791,367.545 C30.71,361.914 28.172,354.083 28.172,344.045 C28.172,343.19 28.201,340.924 28.263,337.252 C28.323,333.58 28.355,331.194 28.355,330.092 C28.355,322.748 26.823,317.272 23.765,313.66 C20.704,310.051 15.256,308.184 7.425,308.061 C3.139,307.817 0.999,305.981 0.999,302.553 C0.999,299.127 3.139,297.291 7.425,297.045 C15.256,296.924 20.704,295.057 23.765,291.445 C26.823,287.836 28.355,282.357 28.355,275.014 C28.355,273.912 28.323,271.526 28.263,267.854 C28.2,264.182 28.172,261.919 28.172,261.061 C28.172,251.027 30.711,243.192 35.791,237.561 C40.869,231.932 50.507,227.647 64.707,224.709 C66.419,224.341 67.888,224.617 69.113,225.535 C70.335,226.453 70.949,227.71 70.949,229.299 C70.949,231.626 69.848,233.218 67.645,234.072 C56.506,237.133 49.377,240.59 46.256,244.445 C43.135,248.3 41.574,254.451 41.574,262.896 C41.574,264.121 41.603,266.384 41.666,269.689 C41.726,272.993 41.758,275.32 41.758,276.665 C41.758,284.009 40.134,289.672 36.893,293.647 C33.648,297.626 28.907,300.595 22.664,302.552 C29.15,304.634 33.955,307.632 37.076,311.548 C40.197,315.467 41.758,321.095 41.758,328.439 C41.758,329.787 41.726,332.111 41.666,335.415 C41.603,338.72 41.574,340.986 41.574,342.208 C41.574,350.653 43.135,356.803 46.256,360.659 C49.377,364.515 56.505,367.972 67.645,371.032 C69.848,371.887 70.949,373.479 70.949,375.805 C70.949,377.395 70.335,378.651 69.113,379.569 C67.889,380.489 66.42,380.765 64.707,380.397 Z" id="Shape" fill="#000000" fill-rule="nonzero"></path>
                <path d="M877.293,221.025 C891.493,223.962 901.132,228.248 906.209,233.877 C911.29,239.508 913.828,247.339 913.828,257.377 C913.828,258.232 913.799,260.498 913.737,264.17 C913.677,267.842 913.645,270.228 913.645,271.33 C913.645,278.674 915.177,284.15 918.235,287.762 C921.296,291.371 926.744,293.238 934.575,293.361 C938.861,293.605 941.001,295.441 941.001,298.869 C941.001,302.295 938.861,304.131 934.575,304.377 C926.744,304.498 921.296,306.365 918.235,309.977 C915.177,313.586 913.645,319.065 913.645,326.408 C913.645,327.51 913.677,329.896 913.737,333.568 C913.8,337.24 913.828,339.503 913.828,340.361 C913.828,350.395 911.289,358.23 906.209,363.861 C901.131,369.49 891.493,373.775 877.293,376.713 C875.581,377.08 874.112,376.805 872.887,375.887 C871.665,374.969 871.051,373.712 871.051,372.123 C871.051,369.796 872.152,368.204 874.355,367.35 C885.494,364.289 892.623,360.832 895.744,356.977 C898.865,353.122 900.426,346.971 900.426,338.526 C900.426,337.301 900.397,335.038 900.334,331.733 C900.274,328.429 900.242,326.102 900.242,324.757 C900.242,317.413 901.866,311.75 905.107,307.775 C908.352,303.796 913.093,300.827 919.336,298.87 C912.85,296.788 908.045,293.79 904.924,289.874 C901.803,285.955 900.242,280.327 900.242,272.983 C900.242,271.635 900.274,269.311 900.334,266.007 C900.397,262.702 900.426,260.436 900.426,259.214 C900.426,250.769 898.865,244.619 895.744,240.763 C892.623,236.907 885.494,233.45 874.355,230.39 C872.152,229.535 871.051,227.943 871.051,225.617 C871.051,224.027 871.665,222.771 872.887,221.853 C874.111,220.933 875.58,220.658 877.293,221.025 Z" id="Shape" fill="#000000" fill-rule="nonzero"></path>
            </g>
        </g>
    </g>
</svg>
