<?xml version="1.0" encoding="utf-8"?>
<!-- Generator: Adobe Illustrator 20.1.0, SVG Export Plug-In . SVG Version: 6.00 Build 0)  -->
<svg version="1.1" id="Capa_1" xmlns="http://www.w3.org/2000/svg" xmlns:xlink="http://www.w3.org/1999/xlink" x="0px" y="0px"
	 viewBox="0 0 1440 800" xml:space="preserve">
<style type="text/css">
	.st2{clip-path:url(#SVGID_2_);}
	.st3{fill:none;stroke:#000000;stroke-width:10;stroke-miterlimit:10;}
	.st4{fill:#AEB788;}
	.st5{fill:#AEB788;}
	.st6{fill:#EFBF7C;}
	.st7{fill:#EFBF7C;}
	.st8{fill:#FFFFFF;}
	.st9{fill:#7C4F46;}
	.st10{fill:#7C4F46;}
	.st11{fill:none;stroke:#000000;stroke-width:8;stroke-miterlimit:10;}
	.st12{fill:#FFFFFF;}
	.st13{fill:#FFFFFF;}
	.st14{clip-path:url(#SVGID_4_);}
	.st15{fill:none;stroke:#FFFFFF;stroke-width:10;stroke-miterlimit:10;}
	.st16{fill:none;stroke:#FFFFFF;stroke-width:8;stroke-miterlimit:10;}
	.st17{clip-path:url(#SVGID_8_);}
	@keyframes nudge {
  0%, 100% {
    transform: translate(-50, 0);
  }

  50% {
    transform: translate(100px, 0);
  }

  100% {
    transform: translate(-50px, 0);
  }
}
</style>
<g>
<!--	<rect width="100%" height="100%" fill="#EADDCB"/>-->
	<g>
		<g>

			<g>
				<defs>
					<circle id="SVGID_7_" cx="711.387" cy="375.813" r="203.104"/>
				</defs>
				<clipPath id="SVGID_2_">
					<use xlink:href="#SVGID_7_"  style="overflow:visible;"/>
				</clipPath>
			</g>
			<path class="st4" d="M682.806,551.301c0,0,27.705,4.551,75.089-15.52c47.384-20.071,96.884-39.071,120.884-28.071
				s45.5,34.5,53,60c0,0,29.013-79.802-37.527-115.725S758.778,473.21,684.278,549.21"/>
			<path class="st5" d="M707.015,550.518c65.869-64.041,127.518-106.775,187.237-74.533c30.23,16.321,40.736,41.698,43.202,64.535
				c2.642-26.536-1.639-66.095-43.202-88.535c-66.539-35.924-135.473,21.225-209.973,97.225l-1.473,2.092
				C682.806,551.301,691.34,552.695,707.015,550.518z"/>
			<path class="st3" d="M682.806,551.301c0,0,27.705,4.551,75.089-15.52c47.384-20.071,96.884-39.071,120.884-28.071
				s45.5,34.5,53,60c0,0,29.013-79.802-37.527-115.725S758.778,473.21,684.278,549.21"/>
			<path class="st4" d="M682.806,551.301c0,0,48.075-4.914,81.408-27.787c33.333-22.873,74.398-72.804,119.064-72.137
				s78,23.354,78,23.354s-16-93.52-81.5-93.521c-60,0-75.72,53.479-129.5,96.5c-35.857,28.683-50.303,33.77-50.303,33.77
				L682.806,551.301z"/>
			<path class="st5" d="M694.039,533.48c0,0,15.364-5.087,53.499-33.77c57.197-43.021,73.916-96.5,137.728-96.5
				c34.356,0,55.9,22.747,68.92,45.803c-9.843-27.685-31.507-67.803-74.409-67.803c-60,0-75.72,53.479-129.5,96.5
				c-35.857,28.683-50.303,33.77-50.303,33.77l-17.17,39.822c0,0,1.162-0.119,3.247-0.405L694.039,533.48z"/>
			<path class="st3" d="M682.806,551.301c0,0,48.075-4.914,81.408-27.787c33.333-22.873,74.398-72.804,119.064-72.137
				s78,23.354,78,23.354s-16-93.52-81.5-93.521c-60,0-75.72,53.479-129.5,96.5c-35.857,28.683-50.303,33.77-50.303,33.77
				L682.806,551.301z"/>
			<path class="st4" d="M583.519,528.054c0,0,21.76,58.656,63.093,49.989c41.333-8.667,56.667-69.313,55.667-83.99
				C701.278,479.376,601.092,472.732,583.519,528.054z"/>
			<path class="st5" d="M635.532,488.71l-20.018,5.402c-14.689,6.93-26.865,17.792-31.995,33.943c0,0,4.035,10.868,11.924,22.556
				c15.196-6.141,40.63-18.787,69.502-42.901L635.532,488.71z"/>
			<path class="st3" d="M583.519,528.054c0,0,21.76,58.656,63.093,49.989c41.333-8.667,56.667-69.313,55.667-83.99
				C701.278,479.376,601.092,472.732,583.519,528.054z"/>
			<path class="st6" d="M480.778,478.21c0,0,26.108-79.115,148.119-172.535c27.381-20.965,62.381-36.465,81.001-28.398
				c27.127,11.752,43.973,57.524,28.88,101.933c-17.055,50.184-51.5,95-91.5,124C527.027,590.392,480.778,478.21,480.778,478.21z"/>
			<path class="st7" d="M480.778,478.21c0,0,3.458,8.389,10.942,18.795c17.359-34.447,56.145-103.263,121.695-179.139
				C504.659,405.874,480.778,478.21,480.778,478.21z"/>
			<path class="st8" d="M668.563,340.476c0,0-20.726,30.061,8.828,51.981l17.721-25.99L668.563,340.476z"/>
			<path class="st3" d="M695.112,364.466l-26.549-23.99c0,0-20.726,28.061,8.828,49.981"/>
			<path class="st9" d="M709.898,277.276c-18.453-7.994-52.99,7.161-80.259,27.839l101.039,94.678
				c3.011-6.74,5.729-13.608,8.1-20.584C753.871,334.801,737.026,289.029,709.898,277.276z"/>
			<path class="st10" d="M709.898,289.276c18.821,8.154,32.68,32.686,34.37,61.774c1.964-34.168-13.009-64.52-34.37-73.774
				c-18.453-7.994-52.99,7.161-80.259,27.839l7.228,6.773C662.766,293.992,693.042,281.974,709.898,289.276z"/>
			<path class="st3" d="M480.778,478.21c0,0,26.108-79.115,148.119-172.535c27.381-20.965,62.381-36.465,81.001-28.398
				c27.127,11.752,43.973,57.524,28.88,101.933c-17.055,50.184-51.5,95-91.5,124C527.027,590.392,480.778,478.21,480.778,478.21z"/>
			<path d="M482.112,474.73c-0.932,2.269-1.333,4.012-1.333,4.012S483.118,486,488.986,496h0.004
				c12.72,0,38.226-16.458,38.226-16.458C498.537,487.466,482.122,474.741,482.112,474.73z"/>
			<path d="M513.866,520.044c0,0,23.413-4.001,41.746-22.667c0,0-10.569,19.747-30.618,28.207L513.866,520.044z"/>
			<path d="M568.733,399.714c-0.562,1.684-0.834,5.287,1.878,7.496c2.917,2.375,6.853,0.521,9.306-1.611
				c3.343-2.907,20.319-24.097,27.611-22.639c6.611,1.322,6.25,33.75,6.25,33.75s16.5-37.125,0-47
				C598.31,360.452,569.716,396.772,568.733,399.714z"/>
			<path class="st6" d="M702.278,306.71c0,0,57.5-66,135-11.5c0,0-8.788,66-100.644,55.5
				C736.635,350.71,710.278,346.21,702.278,306.71z"/>
			<path class="st7" d="M836.433,299.187c0.344-1.524,0.383-1.575,0.383-1.575v0c-77.5-54.5-134.537,9.098-134.537,9.098
				c0.97,4.788,2.213,9.053,3.643,12.867l10.024,1.3C755.544,287.923,822.385,297.842,836.433,299.187z"/>
			<path class="st3" d="M700.028,308.335c0,0,59.75-67.625,137.25-13.125c0,0-8.788,66-100.644,55.5
				C736.635,350.71,708.028,347.835,700.028,308.335z"/>
			<path d="M706.844,320.794c0,0,46.523-43.461,102.102-23.818c0,0-63.673-0.141-95.079,37.542L706.844,320.794z"/>
			<path class="st8" d="M675.778,389.21c0,0-38.75,0-17.642,34.35c0,0-42.708,2.15-21.698,44.115c0,0-40.91,13.035-8.558,48.293
				C639.294,528.407,675.778,389.21,675.778,389.21z"/>
			<path class="st3" d="M675.778,389.21c0,0-39,0-17.642,34.35c0,0-42.708,2.15-21.698,44.115c0,0-40.91,13.035-8.558,48.293
				C639.294,528.407,675.778,389.21,675.778,389.21z"/>
			<path class="st9" d="M716.667,337.993c0,0-134.055,166.978-72.722,195.181s101.449-181.675,101.326-181.683
				C745.149,351.483,716.667,337.993,716.667,337.993z"/>
			<path class="st3" d="M716.667,337.993c0,0-134.055,166.978-72.722,195.181s101.449-181.675,101.326-181.683
				C745.149,351.483,716.667,337.993,716.667,337.993z"/>
			<path class="st9" d="M733.104,403.324l-101.992-99.318c0,0,26.545-18.772,40.889-23.153l72.497,74.634L733.104,403.324z"/>
			<path class="st3" d="M733.104,403.324l-101.992-99.318c0,0,26.545-18.772,40.889-23.153l72.497,74.634L733.104,403.324z"/>

				<ellipse transform="matrix(0.2628 -0.9649 0.9649 0.2628 10.5647 1001.9338)" class="st10" cx="660.945" cy="494.053" rx="19.323" ry="14"/>

				<ellipse transform="matrix(0.2628 -0.9649 0.9649 0.2628 10.5647 1001.9338)" class="st11" cx="660.945" cy="494.053" rx="19.323" ry="14"/>
			<path class="st12" d="M650.218,267.905c-12.333,0-59.365,22.317-61.94,56.805c-0.983,13.174,34.05,32.637,51,31.333
				c21.667-1.667,43.65-28.327,43.527-39.667C682.576,295.421,662.552,267.905,650.218,267.905z"/>
			<path class="st13" d="M667.333,279.39c-5.738-6.877-12.069-11.485-17.115-11.485c-12.333,0-59.365,22.317-61.94,56.805
				c-0.369,4.942,1.171,8.169,8.084,13.453C601.141,302.196,651.586,281.174,667.333,279.39z"/>
			<path class="st3" d="M650.218,267.905c-12.333,0-59.365,22.317-61.94,56.805c-0.983,13.174,34.05,32.637,51,31.333
				c21.667-1.667,43.65-28.327,43.527-39.667C682.576,295.421,662.552,267.905,650.218,267.905z"/>
			<path d="M614.938,571.191l27.984-19.815l-7.39,27.435C635.532,578.811,624.058,578.925,614.938,571.191z"/>
		</g>
		<g>
			<path d="M388.05,483.32c-11.602-2.4-19.477-5.901-23.625-10.5c-4.151-4.601-6.225-10.999-6.225-19.2
				c0-0.699,0.023-2.55,0.075-5.55c0.049-3,0.075-4.95,0.075-5.85c0-6-1.251-10.475-3.75-13.425
				c-2.501-2.948-6.952-4.474-13.35-4.575c-3.501-0.199-5.25-1.699-5.25-4.5c0-2.799,1.749-4.299,5.25-4.5
				c6.398-0.099,10.849-1.625,13.35-4.575c2.499-2.948,3.75-7.425,3.75-13.425c0-0.9-0.026-2.85-0.075-5.85
				c-0.051-3-0.075-4.849-0.075-5.55c0-8.198,2.074-14.599,6.225-19.2c4.148-4.599,12.023-8.1,23.625-10.5
				c1.399-0.3,2.599-0.075,3.6,0.675c0.999,0.75,1.5,1.777,1.5,3.075c0,1.901-0.9,3.202-2.7,3.9
				c-9.101,2.501-14.925,5.325-17.475,8.475s-3.825,8.175-3.825,15.075c0,1.001,0.023,2.85,0.075,5.55
				c0.049,2.7,0.075,4.601,0.075,5.7c0,6-1.327,10.627-3.975,13.875c-2.651,3.251-6.525,5.677-11.625,7.275
				c5.299,1.701,9.225,4.15,11.775,7.35c2.55,3.202,3.825,7.8,3.825,13.8c0,1.102-0.026,3-0.075,5.7
				c-0.052,2.7-0.075,4.552-0.075,5.55c0,6.9,1.275,11.925,3.825,15.075c2.55,3.15,8.374,5.975,17.475,8.475
				c1.8,0.699,2.7,2,2.7,3.9c0,1.299-0.501,2.325-1.5,3.075C390.649,483.395,389.449,483.62,388.05,483.32z"/>
		</g>
		<g>
			<path d="M1051.95,353.11c11.602,2.4,19.477,5.901,23.625,10.5c4.151,4.601,6.225,10.999,6.225,19.2
				c0,0.699-0.023,2.55-0.075,5.55c-0.049,3-0.075,4.95-0.075,5.85c0,6,1.251,10.475,3.75,13.425
				c2.501,2.948,6.952,4.474,13.35,4.575c3.501,0.199,5.25,1.699,5.25,4.5c0,2.799-1.749,4.299-5.25,4.5
				c-6.398,0.099-10.849,1.625-13.35,4.575c-2.499,2.948-3.75,7.425-3.75,13.425c0,0.9,0.026,2.85,0.075,5.85
				c0.051,3,0.075,4.849,0.075,5.55c0,8.198-2.074,14.599-6.225,19.2c-4.148,4.599-12.023,8.1-23.625,10.5
				c-1.399,0.3-2.599,0.075-3.6-0.675c-0.999-0.75-1.5-1.777-1.5-3.075c0-1.901,0.9-3.202,2.7-3.9
				c9.101-2.501,14.925-5.325,17.475-8.475s3.825-8.175,3.825-15.075c0-1.001-0.023-2.85-0.075-5.55
				c-0.049-2.7-0.075-4.601-0.075-5.7c0-6,1.327-10.627,3.975-13.875c2.651-3.251,6.525-5.677,11.625-7.275
				c-5.299-1.701-9.225-4.15-11.775-7.35c-2.55-3.202-3.825-7.8-3.825-13.8c0-1.102,0.026-3,0.075-5.7
				c0.052-2.7,0.075-4.552,0.075-5.55c0-6.9-1.275-11.925-3.825-15.075c-2.55-3.15-8.374-5.975-17.475-8.475
				c-1.8-0.699-2.7-2-2.7-3.9c0-1.299,0.501-2.325,1.5-3.075C1049.351,353.035,1050.551,352.81,1051.95,353.11z"/>
		</g>
	</g>
</g>
</svg>
