<?xml version="1.0" encoding="UTF-8" standalone="no"?>
<svg width="62px" height="88px" viewBox="0 0 62 88" version="1.1" xmlns="http://www.w3.org/2000/svg" xmlns:xlink="http://www.w3.org/1999/xlink">
    <!-- Generator: Sketch 43.1 (39012) - http://www.bohemiancoding.com/sketch -->
    <title>Group 10</title>
    <desc>Created with Sketch.</desc>
    <defs>
        <ellipse id="path-1" cx="25.3605507" cy="25.4705053" rx="25.2723075" ry="25.4476773"></ellipse>
    </defs>
    <g id="Page-1" stroke="none" stroke-width="1" fill="none" fill-rule="evenodd">
        <g id="Website" transform="translate(-831.000000, -7901.000000)">
            <g id="Localizacion" transform="translate(0.000000, 7566.000000)">
                <g id="Group-10" transform="translate(831.000000, 335.000000)">
                    <ellipse id="Oval-5" fill="#D8D8D8" opacity="0.5" cx="30" cy="84" rx="12" ry="4"></ellipse>
                    <path d="M51.2131734,8.80433466 C39.4983127,-2.93477822 20.5033378,-2.93477822 8.78682665,8.80433466 C-1.76942145,19.3824364 -2.95774206,39.2998971 6.00087499,51.2688968 L27.7205843,82.7012705 C28.9794708,84.5231085 31.0158836,84.5298314 32.2794157,82.7012705 L53.999125,51.2688968 C62.9577421,39.2998971 61.7694214,19.3824364 51.2131734,8.80433466 Z" id="Shape" fill="#FFFFFF" fill-rule="nonzero"></path>
                    <g id="Group" transform="translate(1.000000, 6.000000)">
                        <g>
                            <g transform="translate(3.354866, 0.000000)">
                                <g id="Mask" fill-rule="nonzero" fill="#9D5763">
                                    <ellipse id="path-1" cx="25.3605507" cy="25.4705053" rx="25.2723075" ry="25.4476773"></ellipse>
                                </g>
                                <g id="Shape-Clipped">
                                    <mask id="mask-2" fill="white">
                                        <use xlink:href="#path-1"></use>
                                    </mask>
                                    <g id="path-1"></g>
                                    <g id="Shape" mask="url(#mask-2)">
                                        <g transform="translate(-6.913057, 3.685250)" id="Group">
                                            <g>
                                                <path d="M22.8788648,3.91588559 L12.89824,3.91588559 C11.8264111,3.91588559 10.9576025,3.04094574 10.9576025,1.9617816 L10.9576025,1.9617816 C10.9576025,0.882515088 11.8265128,0.00767760487 12.89824,0.00767760487 L22.8788648,0.00767760487 C23.9506936,0.00767760487 24.8195023,0.882617456 24.8195023,1.9617816 L24.8195023,1.9617816 C24.8195023,3.04104811 23.9506936,3.91588559 22.8788648,3.91588559 Z" id="Shape" fill="#843A51" fill-rule="nonzero"></path>
                                                <path d="M14.4399534,10.6160802 L4.4593286,10.6160802 C3.38749974,10.6160802 2.51869109,9.74114032 2.51869109,8.66197618 L2.51869109,8.66197618 C2.51869109,7.58270968 3.3876014,6.70787219 4.4593286,6.70787219 L14.4399534,6.70787219 C15.5117823,6.70787219 16.3805909,7.58281204 16.3805909,8.66197618 L16.3805909,8.66197618 C16.3805909,9.74124269 15.5116806,10.6160802 14.4399534,10.6160802 Z" id="Shape" fill="#843A51" fill-rule="nonzero"></path>
                                                <path d="M44.9363973,10.6160802 L21.0938727,10.6160802 C20.0220438,10.6160802 19.1532352,9.74114032 19.1532352,8.66197618 L19.1532352,8.66197618 C19.1532352,7.58270968 20.0221455,6.70787219 21.0938727,6.70787219 L44.9363973,6.70787219 C46.0082262,6.70787219 46.8770348,7.58281204 46.8770348,8.66197618 L46.8770348,8.66197618 C46.8771365,9.74124269 46.0082262,10.6160802 44.9363973,10.6160802 Z" id="Shape" fill="#843A51" fill-rule="nonzero"></path>
                                                <path d="M29.5328857,3.91588559 L29.5328857,3.91588559 C28.4610569,3.91588559 27.5922482,3.04094574 27.5922482,1.9617816 L27.5922482,1.9617816 C27.5922482,0.882515088 28.4611585,0.00767760487 29.5328857,0.00767760487 L29.5328857,0.00767760487 C30.6047146,0.00767760487 31.4735232,0.882617456 31.4735232,1.9617816 L31.4735232,1.9617816 C31.4735232,3.04104811 30.6046129,3.91588559 29.5328857,3.91588559 Z" id="Shape" fill="#843A51" fill-rule="nonzero"></path>
                                                <path d="M54.5674044,10.4629376 L51.5904183,10.4629376 C50.5185894,10.4629376 49.6497808,9.5879977 49.6497808,8.50883356 L49.6497808,8.50883356 C49.6497808,7.42956705 50.5186911,6.55472957 51.5904183,6.55472957 L54.5674044,6.55472957 C55.6392333,6.55472957 56.5080419,7.42966942 56.5080419,8.50883356 L56.5080419,8.50883356 C56.5080419,9.58810007 55.6391316,10.4629376 54.5674044,10.4629376 Z" id="Shape" fill="#843A51" fill-rule="nonzero"></path>
                                                <path d="M46.8363698,19.996066 L51.2722143,19.996066 C52.3440432,19.996066 53.2128518,20.8710058 53.2128518,21.95017 L53.2128518,21.95017 C53.2128518,23.0294365 52.3439415,23.904274 51.2722143,23.904274 L46.8363698,23.904274 C45.7645409,23.904274 44.8957323,23.0293341 44.8957323,21.95017 L44.8957323,21.95017 C44.8957323,20.8710058 45.7645409,19.996066 46.8363698,19.996066 Z" id="Shape" fill="#843A51" fill-rule="nonzero"></path>
                                                <path d="M57.9270486,19.996066 L62.3628931,19.996066 C63.434722,19.996066 64.3035307,20.8710058 64.3035307,21.95017 L64.3035307,21.95017 C64.3035307,23.0294365 63.4346204,23.904274 62.3628931,23.904274 L57.9270486,23.904274 C56.8552197,23.904274 55.9864111,23.0293341 55.9864111,21.95017 L55.9864111,21.95017 C55.9864111,20.8710058 56.8552197,19.996066 57.9270486,19.996066 Z" id="Shape" fill="#843A51" fill-rule="nonzero"></path>
                                                <path d="M21.0023764,20.1091827 L39.9460849,20.1091827 C41.0179138,20.1091827 41.8867224,20.9841225 41.8867224,22.0632867 L41.8867224,22.0632867 C41.8867224,23.1425532 41.0178121,24.0173907 39.9460849,24.0173907 L21.0023764,24.0173907 C19.9305475,24.0173907 19.0617389,23.1424508 19.0617389,22.0632867 L19.0617389,22.0632867 C19.0617389,20.9840202 19.9306492,20.1091827 21.0023764,20.1091827 Z" id="Shape" fill="#843A51" fill-rule="nonzero"></path>
                                                <path d="M1.99197713,20.2622229 L12.5365244,20.2622229 C13.6083533,20.2622229 14.4771619,21.1371628 14.4771619,22.2163269 L14.4771619,22.2163269 C14.4771619,23.2955934 13.6082516,24.1704309 12.5365244,24.1704309 L1.99197713,24.1704309 C0.920148258,24.1704309 0.0513396166,23.2954911 0.0513396166,22.2163269 L0.0513396166,22.2163269 C0.0513396166,21.1371628 0.920148258,20.2622229 1.99197713,20.2622229 Z" id="Shape" fill="#843A51" fill-rule="nonzero"></path>
                                                <path d="M40.6226496,3.91588559 L36.186805,3.91588559 C35.1149762,3.91588559 34.2461675,3.04094574 34.2461675,1.9617816 L34.2461675,1.9617816 C34.2461675,0.882515088 35.1150778,0.00767760487 36.186805,0.00767760487 L40.6226496,0.00767760487 C41.6944784,0.00767760487 42.5632871,0.882617456 42.5632871,1.9617816 L42.5632871,1.9617816 C42.5632871,3.04104811 41.6944784,3.91588559 40.6226496,3.91588559 Z" id="Shape" fill="#843A51" fill-rule="nonzero"></path>
                                                <path d="M51.7133284,3.91588559 L47.2774839,3.91588559 C46.205655,3.91588559 45.3368463,3.04094574 45.3368463,1.9617816 L45.3368463,1.9617816 C45.3368463,0.882515088 46.2057566,0.00767760487 47.2774839,0.00767760487 L51.7133284,0.00767760487 C52.7851573,0.00767760487 53.6539659,0.882617456 53.6539659,1.9617816 L53.6539659,1.9617816 C53.6539659,3.04104811 52.7851573,3.91588559 51.7133284,3.91588559 Z" id="Shape" fill="#843A51" fill-rule="nonzero"></path>
                                                <path d="M23.124075,17.3171961 L13.1434502,17.3171961 C12.0716213,17.3171961 11.2028127,16.4422562 11.2028127,15.3630921 L11.2028127,15.3630921 C11.2028127,14.2838256 12.071723,13.4089881 13.1434502,13.4089881 L23.124075,13.4089881 C24.1959038,13.4089881 25.0647125,14.2839279 25.0647125,15.3630921 L25.0647125,15.3630921 C25.0647125,16.4423586 24.1959038,17.3171961 23.124075,17.3171961 Z" id="Shape" fill="#843A51" fill-rule="nonzero"></path>
                                                <path d="M29.7780959,17.3171961 L29.7780959,17.3171961 C28.7062671,17.3171961 27.8374584,16.4422562 27.8374584,15.3630921 L27.8374584,15.3630921 C27.8374584,14.2838256 28.7063687,13.4089881 29.7780959,13.4089881 L29.7780959,13.4089881 C30.8499248,13.4089881 31.7187335,14.2839279 31.7187335,15.3630921 L31.7187335,15.3630921 C31.7187335,16.4423586 30.8498231,17.3171961 29.7780959,17.3171961 Z" id="Shape" fill="#843A51" fill-rule="nonzero"></path>
                                                <path d="M40.8678598,17.3171961 L36.4320152,17.3171961 C35.3601864,17.3171961 34.4913777,16.4422562 34.4913777,15.3630921 L34.4913777,15.3630921 C34.4913777,14.2838256 35.360288,13.4089881 36.4320152,13.4089881 L40.8678598,13.4089881 C41.9396887,13.4089881 42.8084973,14.2839279 42.8084973,15.3630921 L42.8084973,15.3630921 C42.808599,16.4423586 41.9396887,17.3171961 40.8678598,17.3171961 Z" id="Shape" fill="#843A51" fill-rule="nonzero"></path>
                                                <path d="M63.0472858,17.3171961 L47.5218808,17.3171961 C46.4500519,17.3171961 45.5812432,16.4422562 45.5812432,15.3630921 L45.5812432,15.3630921 C45.5812432,14.2838256 46.4501536,13.4089881 47.5218808,13.4089881 L63.0472858,13.4089881 C64.1191147,13.4089881 64.9879233,14.2839279 64.9879233,15.3630921 L64.9879233,15.3630921 C64.9879233,16.4423586 64.119013,17.3171961 63.0472858,17.3171961 Z" id="Shape" fill="#843A51" fill-rule="nonzero"></path>
                                                <path d="M30.704039,26.7311681 L54.3630626,26.7311681 C55.4348915,26.7311681 56.3037001,27.6061079 56.3037001,28.6852721 L56.3037001,28.6852721 C56.3037001,29.7645386 55.4347898,30.639376 54.3630626,30.639376 L30.704039,30.639376 C29.6322101,30.639376 28.7634015,29.7644362 28.7634015,28.6852721 L28.7634015,28.6852721 C28.7634015,27.6060055 29.6323118,26.7311681 30.704039,26.7311681 Z" id="Shape" fill="#843A51" fill-rule="nonzero"></path>
                                                <path d="M23.8879678,33.5039416 L33.8685926,33.5039416 C34.9404215,33.5039416 35.8092301,34.3788815 35.8092301,35.4580456 L35.8092301,35.4580456 C35.8092301,36.5373121 34.9403198,37.4121496 33.8685926,37.4121496 L23.8879678,37.4121496 C22.8161389,37.4121496 21.9473303,36.5372097 21.9473303,35.4580456 L21.9473303,35.4580456 C21.9473303,34.3787791 22.8162406,33.5039416 23.8879678,33.5039416 Z" id="Shape" fill="#843A51" fill-rule="nonzero"></path>
                                                <path d="M40.3974669,33.5048629 L50.3780917,33.5048629 C51.4499206,33.5048629 52.3187292,34.3798028 52.3187292,35.4589669 L52.3187292,35.4589669 C52.3187292,36.5382334 51.4498189,37.4130709 50.3780917,37.4130709 L40.3974669,37.4130709 C39.325638,37.4130709 38.4568294,36.5381311 38.4568294,35.4589669 L38.4568294,35.4589669 C38.4568294,34.3798028 39.3257397,33.5048629 40.3974669,33.5048629 Z" id="Shape" fill="#843A51" fill-rule="nonzero"></path>
                                                <path d="M23.8879678,40.16626 L33.8685926,40.16626 C34.9404215,40.16626 35.8092301,41.0411999 35.8092301,42.120364 L35.8092301,42.120364 C35.8092301,43.1996305 34.9403198,44.074468 33.8685926,44.074468 L23.8879678,44.074468 C22.8161389,44.074468 21.9473303,43.1995281 21.9473303,42.120364 L21.9473303,42.120364 C21.9473303,41.0411999 22.8162406,40.16626 23.8879678,40.16626 Z" id="Shape" fill="#843A51" fill-rule="nonzero"></path>
                                                <path d="M40.3974669,40.1672837 L53.6542709,40.1672837 C54.7260998,40.1672837 55.5949084,41.0422235 55.5949084,42.1213877 L55.5949084,42.1213877 C55.5949084,43.2006542 54.7259981,44.0754917 53.6542709,44.0754917 L40.3974669,44.0754917 C39.325638,44.0754917 38.4568294,43.2005518 38.4568294,42.1213877 L38.4568294,42.1213877 C38.4568294,41.0421212 39.3257397,40.1672837 40.3974669,40.1672837 Z" id="Shape" fill="#843A51" fill-rule="nonzero"></path>
                                            </g>
                                        </g>
                                    </g>
                                </g>
                            </g>
                            <ellipse id="Oval" stroke="#000000" stroke-width="1.21995129" cx="28.7154167" cy="25.4705053" rx="25.2723075" ry="25.4476773"></ellipse>
                            <path d="M25.1590554,47.458142 C25.1590554,47.458142 28.6063327,48.0283321 34.502459,45.5135583 C40.3985852,42.9987844 46.5578143,40.6181127 49.5441533,41.9963963 C52.5304924,43.3746799 55.2057439,46.3190926 56.1390067,49.5141022 C56.1390067,49.5141022 59.7490459,39.5154039 51.4695415,35.0143824 C43.1900371,30.513361 34.6124579,37.6738024 25.3423531,47.1961821" id="Shape" fill="#AEB788" fill-rule="nonzero"></path>
                            <path d="M28.1714201,47.359971 C36.3675612,39.3359526 44.0386148,33.9816934 51.4694398,38.0213419 C55.2310579,40.0662464 56.5382357,43.2459009 56.8450535,46.1071907 C57.1738304,42.7823783 56.6411183,37.8258189 51.4694398,35.01428 C43.1899354,30.5132586 34.6123562,37.6737 25.3422514,47.1960798 L25.1589537,47.458142 C25.1590554,47.458142 26.221023,47.6327819 28.1714201,47.359971 Z" id="Shape" fill="#A0A873" fill-rule="nonzero"></path>
                            <path d="M25.1590554,47.458142 C25.1590554,47.458142 28.6063327,48.0283321 34.502459,45.5135583 C40.3985852,42.9987844 46.5578143,40.6181127 49.5441533,41.9963963 C52.5304924,43.3746799 55.2057439,46.3190926 56.1390067,49.5141022 C56.1390067,49.5141022 59.7490459,39.5154039 51.4695415,35.0143824 C43.1900371,30.513361 34.6124579,37.6738024 25.3423531,47.1961821" id="Shape" stroke="#000000" stroke-width="1.21995129"></path>
                            <path d="M25.1590554,47.458142 C25.1590554,47.458142 31.1410865,46.8423981 35.2888192,43.9765018 C39.4365519,41.1106054 44.5462162,34.8545859 50.104111,34.9381182 C55.6620057,35.0216505 59.8097384,37.864207 59.8097384,37.864207 C59.8097384,37.864207 57.8188796,26.1466464 49.6685884,26.1466464 C42.2026898,26.1466464 40.2467013,32.8473528 33.5547601,38.2375433 C29.0930933,41.831379 27.2954951,42.4687225 27.2954951,42.4687225 L25.1590554,47.458142 Z" id="Shape" fill="#AEB788" fill-rule="nonzero"></path>
                            <path d="M26.5568146,45.2251874 C26.5568146,45.2251874 28.4685799,44.5878438 33.2137838,40.9940082 C40.3308779,35.6038177 42.4111998,28.9031113 50.3514561,28.9031113 C54.6263687,28.9031113 57.3072117,31.7531406 58.927307,34.6420698 C57.7024759,31.1733279 55.0067902,26.1467488 49.6685884,26.1466464 C42.2026898,26.1466464 40.2467013,32.8473528 33.5547601,38.2375433 C29.0930933,41.831379 27.2954951,42.4687225 27.2954951,42.4687225 L25.1590554,47.458142 C25.1590554,47.458142 25.3036196,47.4431963 25.5630626,47.4073675 L26.5568146,45.2251874 Z" id="Shape" fill="#A0A873" fill-rule="nonzero"></path>
                            <path d="M25.1590554,47.458142 C25.1590554,47.458142 31.1410865,46.8423981 35.2888192,43.9765018 C39.4365519,41.1106054 44.5462162,34.8545859 50.104111,34.9381182 C55.6620057,35.0216505 59.8097384,37.864207 59.8097384,37.864207 C59.8097384,37.864207 57.8188796,26.1466464 49.6685884,26.1466464 C42.2026898,26.1466464 40.2467013,32.8473528 33.5547601,38.2375433 C29.0930933,41.831379 27.2954951,42.4687225 27.2954951,42.4687225 L25.1590554,47.458142 Z" id="Shape" stroke="#000000" stroke-width="1.21995129"></path>
                            <path d="M12.8047104,44.5454635 C12.8047104,44.5454635 15.5122906,51.8946716 20.6554019,50.8087512 C25.7985132,49.7228307 27.7121084,41.5453626 27.5877751,39.7064227 C27.4632384,37.8674827 14.9913714,37.6139171 12.8047104,44.5454635 Z" id="Shape" fill="#AEB788" fill-rule="nonzero"></path>
                            <path d="M19.2767553,39.6158269 L16.7859197,40.2926846 C14.9581277,41.1609705 13.4431515,42.5219539 12.8047104,44.5454635 C12.8047104,44.5454635 13.306822,45.9071635 14.2884761,47.371641 C16.179299,46.6022426 19.3440559,45.0176873 22.9367108,41.9963963 L19.2767553,39.6158269 Z" id="Shape" fill="#A0A873" fill-rule="nonzero"></path>
                            <path d="M12.8047104,44.5454635 C12.8047104,44.5454635 15.5122906,51.8946716 20.6554019,50.8087512 C25.7985132,49.7228307 27.7121084,41.5453626 27.5877751,39.7064227 C27.4632384,37.8674827 14.9913714,37.6139171 12.8047104,44.5454635 Z" id="Shape" stroke="#000000" stroke-width="1.21995129"></path>
                            <path d="M0.0206375093,38.3001926 C0.0206375093,38.3001926 3.26926612,28.3874834 18.4512549,16.6825141 C21.8582739,14.0557495 26.2133983,12.113725 28.5301874,13.1244049 C31.905691,14.5968671 34.0017706,20.3318332 32.1237573,25.8960494 C30.0015504,32.183803 25.7155565,37.7989985 20.7383586,41.432553 C5.77535105,52.3560445 0.0206375093,38.3001926 0.0206375093,38.3001926 Z" id="Shape" fill="#EFBF7C" fill-rule="nonzero"></path>
                            <path d="M0.0206375093,38.3001926 C0.0206375093,38.3001926 0.450975326,39.3512055 1.38220481,40.6551699 C3.54223022,36.3391275 8.36835751,27.7168702 16.5247485,18.2100503 C2.99213386,29.2370359 0.0206375093,38.3001926 0.0206375093,38.3001926 Z" id="Shape" fill="#D3A36E" fill-rule="nonzero"></path>
                            <path d="M23.3867712,21.0429842 C23.3867712,21.0429842 20.8078958,24.8094124 24.4852356,27.5558452 L26.6902976,24.2994147 L23.3867712,21.0429842 Z" id="Shape" fill="#FFFFFF" fill-rule="nonzero"></path>
                            <path d="M26.6902976,24.0488177 L23.3867712,21.0429842 C23.3867712,21.0429842 20.8078958,24.5588154 24.4852356,27.3052482" id="Shape" stroke="#000000" stroke-width="1.21995129"></path>
                            <path d="M28.5301874,13.1244049 C26.2340358,12.1227334 21.9366557,14.021661 18.5435645,16.6124943 L31.1158742,28.4751104 C31.4905009,27.6305739 31.8287324,26.7701703 32.1237573,25.8961518 C34.0017706,20.3319356 31.905691,14.5968671 28.5301874,13.1244049 Z" id="Shape" fill="#7C4F46" fill-rule="nonzero"></path>
                            <path d="M28.5301874,14.627987 C30.8720873,15.6496203 32.5965901,18.7234262 32.80693,22.367934 C33.0513269,18.0869016 31.188258,14.2840303 28.5301874,13.1245072 C26.2340358,12.1228357 21.9366557,14.0217633 18.5435645,16.6125967 L19.4429736,17.4611256 C22.665475,15.2188555 26.4326845,13.7129189 28.5301874,14.627987 Z" id="Shape" fill="#4A2F2E" fill-rule="nonzero"></path>
                            <path d="M0.0206375093,38.3001926 C0.0206375093,38.3001926 3.26926612,28.3874834 18.4512549,16.6825141 C21.8582739,14.0557495 26.2133983,12.113725 28.5301874,13.1244049 C31.905691,14.5968671 34.0017706,20.3318332 32.1237573,25.8960494 C30.0015504,32.183803 25.7155565,37.7989985 20.7383586,41.432553 C5.77535105,52.3560445 0.0206375093,38.3001926 0.0206375093,38.3001926 Z" id="Shape" stroke="#000000" stroke-width="1.21995129"></path>
                            <path d="M0.186550884,37.8643093 C0.0705538494,38.1485855 0.0206375093,38.371236 0.0206375093,38.371236 C0.0206375093,38.371236 0.311697554,39.3093369 1.04194006,40.5377537 L1.04244837,40.5377537 C2.62523351,40.5377537 5.79893678,38.4714543 5.79893678,38.4714543 C2.23027428,39.4642198 0.187872498,37.8655378 0.186550884,37.8643093 Z" id="Shape" fill="#000000" fill-rule="nonzero"></path>
                            <path d="M4.13766811,43.5417446 C4.13766811,43.5417446 7.05091179,43.0404482 9.33222069,40.701645 C9.33222069,40.701645 8.01711321,43.1757788 5.52241449,44.2358001 L4.13766811,43.5417446 Z" id="Shape" fill="#000000" fill-rule="nonzero"></path>
                            <path d="M10.9649222,28.4651807 C10.8949783,28.6761613 10.8611246,29.1276045 11.1986445,29.4043053 C11.56158,29.7018893 12.0513904,29.4696162 12.3565816,29.2024355 C12.772585,28.8382099 14.8849306,26.1831918 15.7921677,26.3659188 C16.6148216,26.5315503 16.5698867,30.5946412 16.5698867,30.5946412 C16.5698867,30.5946412 18.622963,25.9431387 16.5698867,24.7058159 C14.6451085,23.5458834 11.0872223,28.0965533 10.9649222,28.4651807 Z" id="Shape" fill="#000000" fill-rule="nonzero"></path>
                            <path d="M27.582082,16.8122144 C27.582082,16.8122144 34.7368929,8.54281976 44.3802012,15.3712815 C44.3802012,15.3712815 43.2867182,23.6406762 31.8569946,22.3251442 C31.8569946,22.3252465 28.5774606,21.7614032 27.582082,16.8122144 Z" id="Shape" fill="#EFBF7C" fill-rule="nonzero"></path>
                            <path d="M44.2749804,15.8697116 C44.3177804,15.6787952 44.3225585,15.672346 44.3225585,15.672346 L44.3225585,15.672346 C34.6791486,8.84378187 27.5819803,16.8123168 27.5819803,16.8123168 C27.7026538,17.412296 27.8573843,17.9465549 28.0352939,18.4244091 L29.2824907,18.5872767 C34.2099756,14.4584655 42.5269935,15.7012138 44.2749804,15.8697116 Z" id="Shape" fill="#D3A36E" fill-rule="nonzero"></path>
                            <path d="M27.3021031,17.0158245 C27.3021031,17.0158245 34.7367913,8.54281976 44.3802012,15.3713839 C44.3802012,15.3713839 43.2867182,23.6407786 31.8569946,22.3252465 C31.8569946,22.3252465 28.2974817,21.9650133 27.3021031,17.0158245 Z" id="Shape" stroke="#000000" stroke-width="1.21995129"></path>
                            <path d="M28.150071,18.5769375 C28.150071,18.5769375 33.9390448,13.1315706 40.8546437,15.5927037 C40.8546437,15.5927037 32.93167,15.574994 29.0239627,20.2965162 L28.150071,18.5769375 Z" id="Shape" fill="#000000" fill-rule="nonzero"></path>
                            <path d="M24.2846553,27.1490345 C24.2846553,27.1490345 19.4630012,27.1490345 22.0894546,31.4528951 C22.0894546,31.4528951 16.7752452,31.7223278 19.3894991,36.9802587 C19.3894991,36.9802587 14.299049,38.6134388 18.3245833,43.0310303 C19.7448099,44.5895841 24.2846553,27.1490345 24.2846553,27.1490345 Z" id="Shape" fill="#FFFFFF" fill-rule="nonzero"></path>
                            <path d="M24.2846553,27.1490345 C24.2846553,27.1490345 19.4318924,27.1490345 22.0894546,31.4528951 C22.0894546,31.4528951 16.7752452,31.7223278 19.3894991,36.9802587 C19.3894991,36.9802587 14.299049,38.6134388 18.3245833,43.0310303 C19.7448099,44.5895841 24.2846553,27.1490345 24.2846553,27.1490345 Z" id="Shape" stroke="#000000" stroke-width="1.21995129"></path>
                            <path d="M29.3724621,20.7318876 C29.3724621,20.7318876 12.6918649,41.6532585 20.3235751,45.1869018 C27.9552854,48.720545 32.9469194,22.4240317 32.93167,22.4231104 C32.9164206,22.4220867 29.3724621,20.7318876 29.3724621,20.7318876 Z" id="Shape" fill="#7C4F46" fill-rule="nonzero"></path>
                            <path d="M29.3724621,20.7318876 C29.3724621,20.7318876 12.6918649,41.6532585 20.3235751,45.1869018 C27.9552854,48.720545 32.8706725,22.7475148 32.8677242,22.7626653 C32.8377338,22.9170363 29.3724621,20.7318876 29.3724621,20.7318876 Z" id="Shape" stroke="#000000" stroke-width="1.21995129"></path>
                            <path d="M31.4177105,28.9175452 L18.7267606,16.4735809 C18.7267606,16.4735809 22.0297787,14.1215722 23.8146691,13.5726746 L32.8355989,22.923895 L31.4177105,28.9175452 Z" id="Shape" fill="#7C4F46" fill-rule="nonzero"></path>
                            <path d="M31.4177105,28.9175452 L18.7267606,16.4735809 C18.7267606,16.4735809 22.0297787,14.1215722 23.8146691,13.5726746 L32.8355989,22.923895 L31.4177105,28.9175452 Z" id="Shape" stroke="#000000" stroke-width="1.21995129"></path>
                            <ellipse id="Oval" fill="#4A2F2E" fill-rule="nonzero" transform="translate(22.441920, 40.282558) rotate(-74.764479) translate(-22.441920, -40.282558) " cx="22.4419199" cy="40.2825575" rx="2.40453755" ry="1.75416086"></ellipse>
                            <ellipse id="Oval" stroke="#000000" stroke-width="0.915007313" transform="translate(22.441920, 40.282558) rotate(-74.764479) translate(-22.441920, -40.282558) " cx="22.4419199" cy="40.2825575" rx="2.40453755" ry="1.75416086"></ellipse>
                            <path d="M21.1041406,11.9502432 C19.5695436,11.9502432 13.7172339,14.7464269 13.3968951,19.0675876 C13.2744933,20.7182727 17.6337859,23.1568847 19.7428783,22.9935053 C22.438869,22.7846744 25.1743048,19.4443021 25.1589537,18.0235357 C25.1304882,15.3978972 22.6388394,11.9502432 21.1041406,11.9502432 Z" id="Shape" fill="#E3E3E3" fill-rule="nonzero"></path>
                            <path d="M23.2337689,13.3892311 C22.5197924,12.5275991 21.7320089,11.9502432 21.1041406,11.9502432 C19.5695436,11.9502432 13.7172339,14.7464269 13.3968951,19.0675876 C13.3509436,19.686812 13.5425776,20.0911659 14.4027449,20.7531802 C14.9974711,16.2466309 21.2743238,13.6128029 23.2337689,13.3892311 Z" id="Shape" fill="#CECECE" fill-rule="nonzero"></path>
                            <path d="M21.1041406,11.9502432 C19.5695436,11.9502432 13.7172339,14.7464269 13.3968951,19.0675876 C13.2744933,20.7182727 17.6337859,23.1568847 19.7428783,22.9935053 C22.438869,22.7846744 25.1743048,19.4443021 25.1589537,18.0235357 C25.1304882,15.3978972 22.6388394,11.9502432 21.1041406,11.9502432 Z" id="Shape" stroke="#000000" stroke-width="1.21995129"></path>
                            <path d="M16.7141459,49.9502926 L20.1961919,47.4675599 L19.2767553,50.9049771 C19.2767553,50.9049771 17.8490056,50.9193087 16.7141459,49.9502926 Z" id="Shape" fill="#000000" fill-rule="nonzero"></path>
                        </g>
                    </g>
                </g>
            </g>
        </g>
    </g>
</svg>