<?xml version="1.0" encoding="utf-8"?>
<!-- Generator: Adobe Illustrator 16.0.0, SVG Export Plug-In . SVG Version: 6.00 Build 0)  -->
<!DOCTYPE svg PUBLIC "-//W3C//DTD SVG 1.1//EN" "http://www.w3.org/Graphics/SVG/1.1/DTD/svg11.dtd" [
	<!ENTITY ns_extend "http://ns.adobe.com/Extensibility/1.0/">
	<!ENTITY ns_ai "http://ns.adobe.com/AdobeIllustrator/10.0/">
	<!ENTITY ns_graphs "http://ns.adobe.com/Graphs/1.0/">
	<!ENTITY ns_vars "http://ns.adobe.com/Variables/1.0/">
	<!ENTITY ns_imrep "http://ns.adobe.com/ImageReplacement/1.0/">
	<!ENTITY ns_sfw "http://ns.adobe.com/SaveForWeb/1.0/">
	<!ENTITY ns_custom "http://ns.adobe.com/GenericCustomNamespace/1.0/">
	<!ENTITY ns_adobe_xpath "http://ns.adobe.com/XPath/1.0/">
]>
<svg version="1.1" xmlns:x="&ns_extend;" xmlns:i="&ns_ai;" xmlns:graph="&ns_graphs;"
	 xmlns="http://www.w3.org/2000/svg" xmlns:xlink="http://www.w3.org/1999/xlink" x="0px" y="0px" width="203px" height="70px"
	 viewBox="0 0 203 70" enable-background="new 0 0 203 70" xml:space="preserve">
<metadata>
	<sfw  xmlns="&ns_sfw;">
		<slices></slices>
		<sliceSourceBounds  height="56.033" width="197.013" x="199.061" y="391.818" bottomLeftOrigin="true"></sliceSourceBounds>
	</sfw>
</metadata>
<g id="Layer_1" display="none">
	<g display="inline">
		<g>
			<path fill="#FFFFFF" d="M82.38,36.494v-0.006c-2.299-6.341-8.093-9.978-15.902-9.978v7.172c0,2.603,1.041,2.792,4.045,4.484
				l-0.001,0.001c0.818,0.474,1.389,1.138,1.7,1.997c0.365,1.014,0.552,2.08,0.552,3.172c0,5.152-4.191,9.346-9.344,9.346
				c-5.153,0-9.345-4.193-9.345-9.346V27.112c0-6.013-1.355-10.518-4.145-13.775c-3.232-3.773-8.255-5.688-14.929-5.688H19.41
				c-8.308,0-15.065,6.758-15.065,15.063s6.758,15.063,15.065,15.063c0.812,0,1.629-0.068,2.428-0.197v0.001
				c2.627-0.404,8.875-0.958,10.161,2.586c0.364,1.013,0.549,2.079,0.549,3.171c0,5.152-4.192,9.346-9.344,9.346
				c-5.153,0-9.345-4.193-9.345-9.346H3.061c0,11.107,9.036,20.146,20.144,20.146c7.798,0,14.579-4.457,17.924-10.959l0.023-0.01
				l0,0c0.435-0.752,1.248-1.26,2.179-1.26c0.896,0,1.683,0.469,2.127,1.174c3.328,6.555,10.135,11.055,17.974,11.055
				c11.106,0,20.143-9.037,20.143-20.146C83.574,40.988,83.169,38.688,82.38,36.494z M20.199,26.904l-0.074,0.012
				c-0.234,0.04-0.477,0.059-0.715,0.059c-2.353,0-4.265-1.911-4.265-4.262c0-2.352,1.912-4.264,4.265-4.264h15.603
				c6.572,0,8.272,1.781,8.272,8.663v2.816c-0.156,1.242-1.211,2.204-2.496,2.204c-0.631,0-1.203-0.235-1.646-0.618
				C35.186,27.282,28.579,25.617,20.199,26.904z"/>
			<path fill="#FFFFFF" d="M67.639,18.449h14.443c-1.842-6.235-7.619-10.8-14.443-10.8H49.743c1.992,1.484,3.735,3.297,5.059,5.406
				c1.756,2.805,3.04,5.394,9.3,5.394h2.932H67.639z"/>
		</g>
		<g>
			<path fill="#FFFFFF" d="M105.594,42.535c-2.066,0-3.756-0.381-5.12-1.782l2.124-2.124c0.701,0.701,1.935,0.948,3.014,0.948
				c1.312,0,1.935-0.437,1.935-1.214c0-0.322-0.073-0.588-0.264-0.797c-0.171-0.17-0.455-0.303-0.892-0.36l-1.633-0.226
				c-1.195-0.172-2.104-0.57-2.713-1.196c-0.624-0.644-0.928-1.554-0.928-2.71c0-2.465,1.859-4.268,4.93-4.268
				c1.936,0,3.396,0.456,4.553,1.612l-2.086,2.087c-0.854-0.854-1.973-0.798-2.561-0.798c-1.156,0-1.629,0.664-1.629,1.252
				c0,0.171,0.057,0.418,0.266,0.625c0.168,0.171,0.451,0.342,0.926,0.399l1.633,0.228c1.213,0.169,2.084,0.549,2.654,1.118
				c0.721,0.7,1.004,1.707,1.004,2.957C110.807,41.037,108.438,42.535,105.594,42.535z"/>
			<path fill="#FFFFFF" d="M125.124,42.422V28.921h3.317v10.542h5.668v2.959H125.124z"/>
			<path fill="#FFFFFF" d="M136.046,42.422V28.921h3.317v13.501H136.046z"/>
			<path fill="#FFFFFF" d="M163.268,40.979c-0.947,1.024-2.22,1.557-3.604,1.557c-1.326,0-2.539-0.493-3.449-1.403
				c-1.271-1.271-1.271-2.598-1.271-5.461c0-2.862,0-4.19,1.271-5.461c0.91-0.91,2.104-1.403,3.449-1.403
				c2.578,0,4.323,1.67,4.724,4.039h-1.443c-0.379-1.706-1.592-2.748-3.279-2.748c-0.893,0-1.746,0.359-2.334,0.967
				c-0.852,0.871-0.947,1.781-0.947,4.606c0,2.825,0.096,3.754,0.947,4.626c0.588,0.607,1.441,0.948,2.334,0.948
				c0.986,0,1.934-0.397,2.559-1.156c0.549-0.664,0.762-1.401,0.762-2.444v-1.025h-3.319V35.35h4.762v2.142
				C164.425,39.046,164.104,40.089,163.268,40.979z"/>
			<path fill="#FFFFFF" d="M166.764,42.422V28.921h8.381v1.289h-6.939v4.76h5.916v1.29h-5.916v4.872h6.939v1.29H166.764z"/>
			<path fill="#FFFFFF" d="M185.818,42.422l-1.08-3.054h-5.897l-1.079,3.054h-1.535l4.969-13.501h1.215l4.945,13.501H185.818z
				 M181.818,30.987l-2.541,7.129h5.046L181.818,30.987z"/>
			<path fill="#FFFFFF" d="M197.081,42.422l-3.072-5.992h-3.243v5.992h-1.439V28.921h5.176c2.352,0,4,1.422,4,3.754
				c0,1.973-1.195,3.263-2.939,3.623l3.205,6.124H197.081z M194.368,30.21h-3.604v4.949h3.604c1.573,0,2.692-0.814,2.692-2.465
				C197.063,31.045,195.941,30.21,194.368,30.21z"/>
			<path fill="#FFFFFF" d="M150.741,30.249c-0.931-0.93-2.236-1.328-3.64-1.328h-5.01v8.028h3.32v-5.07h1.461
				c0.834,0,1.289,0.304,1.592,0.759c0.266,0.379,0.361,0.759,0.361,3.033c0,2.295-0.096,2.655-0.361,3.034
				c-0.303,0.454-0.758,0.758-1.592,0.758h-0.182v2.959h0.41c1.401,0,2.709-0.398,3.639-1.326c1.574-1.574,1.404-3.301,1.404-5.425
				C152.146,33.548,152.314,31.822,150.741,30.249z"/>
			<path fill="#FFFFFF" d="M121.466,30.324c-0.987-0.986-2.125-1.518-3.774-1.518c-1.65,0-2.787,0.531-3.773,1.518
				c-1.422,1.423-1.365,3.317-1.365,5.347c0,0.435-0.002,0.86,0.008,1.278h3.334c-0.014-0.354-0.024-0.771-0.024-1.278
				c0-2.465,0.19-2.92,0.496-3.318c0.245-0.321,0.719-0.588,1.325-0.588c0.607,0,1.08,0.267,1.328,0.588
				c0.301,0.398,0.494,0.854,0.494,3.318s-0.193,2.901-0.494,3.3c-0.248,0.322-0.721,0.606-1.328,0.606v2.958
				c1.65,0,2.787-0.531,3.775-1.518c1.42-1.422,1.361-3.317,1.361-5.348C122.828,33.64,122.887,31.747,121.466,30.324z"/>
		</g>
	</g>
</g>
<g id="Layer_2">
	<g>
		<path fill="#E64E13" d="M82.881,36.694l-0.001-0.005c-2.298-6.342-8.093-9.979-15.901-9.979v7.172
			c0,2.603,1.041,2.792,4.045,4.484l-0.001,0.001c0.818,0.474,1.389,1.138,1.7,1.997c0.365,1.014,0.552,2.08,0.552,3.172
			c0,5.152-4.191,9.345-9.344,9.345s-9.345-4.192-9.345-9.345V27.313c0-6.013-1.355-10.518-4.145-13.775
			C47.209,9.764,42.187,7.85,35.513,7.85H19.91c-8.308,0-15.065,6.758-15.065,15.063c0,8.305,6.758,15.063,15.065,15.063
			c0.812,0,1.629-0.068,2.428-0.197v0.001c2.627-0.404,8.875-0.958,10.161,2.586c0.364,1.013,0.549,2.079,0.549,3.171
			c0,5.152-4.192,9.345-9.344,9.345c-5.153,0-9.345-4.192-9.345-9.345H3.561c0,11.108,9.036,20.146,20.144,20.146
			c7.798,0,14.579-4.457,17.924-10.958l0.023-0.011l0,0c0.435-0.752,1.248-1.259,2.179-1.259c0.896,0,1.683,0.469,2.127,1.174
			c3.328,6.554,10.135,11.054,17.974,11.054c11.106,0,20.144-9.037,20.144-20.146C84.074,41.189,83.67,38.888,82.881,36.694z
			 M20.699,27.104l-0.074,0.012c-0.234,0.04-0.477,0.059-0.715,0.059c-2.353,0-4.265-1.911-4.265-4.262
			c0-2.352,1.912-4.264,4.265-4.264h15.603c6.572,0,8.272,1.781,8.272,8.663v2.816c-0.156,1.242-1.211,2.204-2.496,2.204
			c-0.631,0-1.203-0.235-1.646-0.618C35.686,27.482,29.079,25.817,20.699,27.104z M39.519,37.824"/>
		<path fill="#E64E13" d="M68.139,18.649h14.443c-1.842-6.235-7.619-10.8-14.443-10.8H50.243c1.992,1.484,3.735,3.297,5.059,5.406
			c1.756,2.805,3.04,5.394,9.3,5.394h2.932H68.139z"/>
	</g>
	<g>
		<g>
			<path fill="#E64E13" d="M107.846,51.453h-0.854l-1.894-6.836l-1.895,6.836h-0.853l-2.183-8.54h0.97l1.668,6.885l1.885-6.885
				h0.814l1.884,6.885l1.665-6.885h0.973L107.846,51.453z"/>
			<path fill="#E64E13" d="M111.456,51.453v-8.54h5.301v0.816h-4.389v3.01h3.739v0.817h-3.739v3.081h4.389v0.815H111.456z"/>
			<path fill="#E64E13" d="M123.834,51.525c-1.283,0-2.122-0.324-2.926-1.128l0.625-0.623c0.707,0.708,1.366,0.936,2.322,0.936
				c1.251,0,2.018-0.588,2.018-1.582c0-0.445-0.131-0.829-0.407-1.069c-0.275-0.239-0.492-0.312-1.116-0.407l-0.995-0.155
				c-0.672-0.108-1.199-0.324-1.57-0.648c-0.433-0.384-0.649-0.912-0.649-1.596c0-1.45,1.045-2.411,2.734-2.411
				c1.092,0,1.811,0.277,2.545,0.937l-0.588,0.588c-0.528-0.48-1.092-0.731-1.992-0.731c-1.139,0-1.798,0.636-1.798,1.582
				c0,0.421,0.119,0.756,0.382,0.984c0.265,0.229,0.709,0.396,1.15,0.468l0.937,0.144c0.805,0.121,1.2,0.288,1.561,0.601
				c0.468,0.395,0.719,0.982,0.719,1.69C126.784,50.603,125.61,51.525,123.834,51.525z"/>
			<path fill="#E64E13" d="M135.099,51.453v-6.488l-2.341,5.145h-0.78l-2.374-5.145v6.488h-0.912v-8.54h0.912l2.783,6.058
				l2.712-6.058h0.909v8.54H135.099z"/>
			<path fill="#E64E13" d="M138.479,51.453v-8.54h0.912v8.54H138.479z"/>
			<path fill="#E64E13" d="M141.862,51.453v-8.54h0.912v7.725h4.364v0.815H141.862z"/>
			<path fill="#E64E13" d="M148.736,51.453v-8.54h5.301v0.816h-4.389v3.01h3.742v0.817h-3.742v3.081h4.389v0.815H148.736z"/>
			<path fill="#E64E13" d="M165.324,51.453v-6.488l-2.34,5.145h-0.779l-2.375-5.145v6.488h-0.912v-8.54h0.912l2.785,6.058
				l2.709-6.058h0.912v8.54H165.324z"/>
			<path fill="#E64E13" d="M173.553,50.638c-0.578,0.577-1.332,0.888-2.184,0.888s-1.607-0.311-2.182-0.888
				c-0.803-0.804-0.803-1.643-0.803-3.455c0-1.81,0-2.649,0.803-3.453c0.574-0.576,1.33-0.889,2.182-0.889s1.605,0.313,2.184,0.889
				c0.803,0.804,0.803,1.644,0.803,3.453C174.355,48.995,174.355,49.834,173.553,50.638z M172.846,44.27
				c-0.373-0.385-0.912-0.612-1.477-0.612c-0.563,0-1.104,0.228-1.475,0.612c-0.539,0.552-0.6,1.127-0.6,2.913
				c0,1.788,0.061,2.364,0.6,2.916c0.371,0.384,0.912,0.611,1.475,0.611c0.564,0,1.104-0.228,1.477-0.611
				c0.539-0.552,0.598-1.128,0.598-2.916C173.443,45.396,173.385,44.821,172.846,44.27z"/>
			<path fill="#E64E13" d="M179.826,51.453h-3.324v-8.54h3.217c1.486,0,2.518,0.853,2.518,2.279c0,0.898-0.537,1.607-1.258,1.871
				c0.814,0.299,1.391,1.008,1.391,2.026C182.369,50.638,181.338,51.453,179.826,51.453z M179.646,43.729h-2.232v2.963h2.232
				c0.947,0,1.68-0.469,1.68-1.488S180.594,43.729,179.646,43.729z M179.742,47.507h-2.328v3.131h2.328
				c1.055,0,1.715-0.611,1.715-1.57C181.457,48.107,180.797,47.507,179.742,47.507z"/>
			<path fill="#E64E13" d="M184.516,51.453v-8.54h0.91v8.54H184.516z"/>
			<path fill="#E64E13" d="M187.898,51.453v-8.54h0.912v7.725h4.363v0.815H187.898z"/>
			<path fill="#E64E13" d="M194.771,51.453v-8.54h5.303v0.816h-4.391v3.01h3.742v0.817h-3.742v3.081h4.391v0.815H194.771z"/>
		</g>
		<g>
			<path fill="#E64E13" d="M106.093,33.734c-2.066,0-3.755-0.38-5.119-1.782l2.123-2.124c0.702,0.701,1.934,0.948,3.015,0.948
				c1.31,0,1.934-0.436,1.934-1.214c0-0.322-0.074-0.587-0.265-0.796c-0.17-0.171-0.454-0.303-0.891-0.361l-1.632-0.226
				c-1.195-0.171-2.104-0.57-2.713-1.196c-0.624-0.644-0.928-1.554-0.928-2.71c0-2.465,1.859-4.268,4.93-4.268
				c1.935,0,3.396,0.456,4.552,1.612l-2.086,2.087c-0.853-0.854-1.972-0.798-2.561-0.798c-1.155,0-1.628,0.664-1.628,1.252
				c0,0.171,0.056,0.418,0.265,0.625c0.169,0.171,0.452,0.342,0.927,0.399l1.632,0.228c1.214,0.169,2.085,0.549,2.654,1.118
				c0.721,0.701,1.005,1.707,1.005,2.957C111.307,32.236,108.938,33.734,106.093,33.734z"/>
			<path fill="#E64E13" d="M125.625,33.621V20.12h3.318v10.542h5.668v2.959H125.625z"/>
			<path fill="#E64E13" d="M136.547,33.621V20.12h3.317v13.501H136.547z"/>
			<path fill="#E64E13" d="M163.768,32.179c-0.947,1.024-2.219,1.556-3.604,1.556c-1.326,0-2.539-0.493-3.449-1.403
				c-1.271-1.271-1.271-2.598-1.271-5.461c0-2.862,0-4.19,1.271-5.461c0.91-0.91,2.104-1.403,3.449-1.403
				c2.578,0,4.324,1.67,4.723,4.039h-1.443c-0.379-1.706-1.592-2.748-3.279-2.748c-0.893,0-1.746,0.359-2.334,0.967
				c-0.852,0.871-0.947,1.781-0.947,4.606s0.096,3.754,0.947,4.626c0.588,0.607,1.441,0.948,2.334,0.948
				c0.986,0,1.934-0.397,2.559-1.156c0.549-0.664,0.762-1.402,0.762-2.445v-1.025h-3.32v-1.269h4.762v2.142
				C164.926,30.245,164.604,31.288,163.768,32.179z"/>
			<path fill="#E64E13" d="M167.264,33.621V20.12h8.381v1.289h-6.939v4.76h5.916v1.289h-5.916v4.873h6.939v1.29H167.264z"/>
			<path fill="#E64E13" d="M186.32,33.621l-1.08-3.054h-5.898l-1.08,3.054h-1.535l4.969-13.501h1.215l4.945,13.501H186.32z
				 M182.32,22.187l-2.541,7.129h5.045L182.32,22.187z"/>
			<path fill="#E64E13" d="M197.582,33.621l-3.072-5.992h-3.244v5.992h-1.439V20.12h5.176c2.352,0,4,1.422,4,3.754
				c0,1.973-1.195,3.262-2.939,3.623l3.205,6.124H197.582z M194.869,21.409h-3.604v4.949h3.604c1.574,0,2.693-0.814,2.693-2.465
				C197.563,22.244,196.443,21.409,194.869,21.409z"/>
			<path fill="#E64E13" d="M151.242,21.448c-0.93-0.93-2.237-1.328-3.64-1.328h-5.009v8.028h3.32v-5.07h1.461
				c0.833,0,1.288,0.304,1.592,0.759c0.266,0.379,0.361,0.759,0.361,3.033c0,2.295-0.096,2.655-0.361,3.034
				c-0.304,0.454-0.759,0.758-1.592,0.758h-0.182v2.959h0.409c1.402,0,2.71-0.399,3.64-1.327c1.574-1.574,1.404-3.3,1.404-5.424
				C152.646,24.747,152.816,23.021,151.242,21.448z"/>
			<path fill="#E64E13" d="M121.966,21.523c-0.987-0.986-2.125-1.518-3.775-1.518c-1.649,0-2.787,0.531-3.773,1.518
				c-1.422,1.423-1.364,3.317-1.364,5.347c0,0.434-0.002,0.86,0.008,1.278h3.334c-0.015-0.354-0.025-0.771-0.025-1.278
				c0-2.465,0.191-2.92,0.495-3.318c0.246-0.321,0.72-0.588,1.326-0.588c0.607,0,1.081,0.267,1.328,0.588
				c0.302,0.398,0.494,0.854,0.494,3.318s-0.192,2.901-0.494,3.3c-0.247,0.322-0.721,0.606-1.328,0.606v2.958
				c1.65,0,2.788-0.531,3.775-1.517c1.421-1.422,1.362-3.318,1.362-5.348S123.387,22.946,121.966,21.523z"/>
		</g>
	</g>
</g>
</svg>
