<?xml version="1.0" encoding="UTF-8"?>
<svg width="402px" height="257px" viewBox="0 0 402 257" version="1.1" xmlns="http://www.w3.org/2000/svg" xmlns:xlink="http://www.w3.org/1999/xlink">
    <!-- Generator: Sketch 43.1 (39012) - http://www.bohemiancoding.com/sketch -->
    <title>talk</title>
    <desc>Created with Sketch.</desc>
    <defs></defs>
    <g id="Page-1" stroke="none" stroke-width="1" fill="none" fill-rule="evenodd">
        <g id="Website" transform="translate(-809.000000, -1371.000000)">
            <g id="Que-es-esto?" transform="translate(0.000000, 1211.000000)">
                <g id="talk" transform="translate(810.000000, 162.000000)">
                    <g id="Capa_2">
                        <g id="Group" transform="translate(65.224626, 0.000000)" fill-rule="nonzero">
                            <rect id="Rectangle-path" stroke="#6C5353" stroke-width="2.60869565" fill="#F9F3E5" stroke-linejoin="round" x="0.61031614" y="0.254666667" width="266.222962" height="220.001333"></rect>
                            <rect id="Rectangle-path" stroke="#6C5353" stroke-width="2.60869565" fill="#F9F3E5" stroke-linejoin="round" x="19" y="55" width="106.489185" height="146.667333"></rect>
                            <path d="M92.1183028,116.4175 L89.522629,113.8175 C88.4344426,112.7275 86.6640599,112.7275 85.5758735,113.8175 L65.8687188,133.5575 L60.3572379,128.036833 C59.2690516,126.946833 57.4986689,126.946833 56.4104825,128.036833 L53.8161398,130.6355 C52.7279534,131.7255 52.7279534,133.498833 53.8161398,134.588833 L63.922629,144.712167 C64.4497504,145.240167 65.1505824,145.530833 65.8960067,145.530833 L65.8973378,145.530833 C66.6434276,145.530167 67.3442596,145.238833 67.871381,144.710167 L92.1196339,120.368833 C93.2058236,119.278833 93.2051581,117.506167 92.1183028,116.4175 Z" id="Shape" stroke="#6C5353" stroke-width="2.60869565" fill="#CDDEB8"></path>
                            <rect id="Rectangle-path" fill="#E2D8C7" x="19.2472546" y="18.9226667" width="199.667221" height="9.33333333"></rect>
                            <rect id="Rectangle-path" fill="#E2D8C7" x="19.2472546" y="34.9233333" width="133.111481" height="6.66666667"></rect>
                            <rect id="Rectangle-path" fill="#E2D8C7" x="28.5650582" y="66.9253333" width="87.8535774" height="13.3333333"></rect>
                            <rect id="Rectangle-path" stroke="#6C5353" stroke-width="2.60869565" fill="#F9F3E5" stroke-linejoin="round" x="142" y="55" width="106.489185" height="146.667333"></rect>
                            <rect id="Rectangle-path" fill="#E2D8C7" x="151.028952" y="66.9253333" width="87.8535774" height="13.3333333"></rect>
                            <path d="M201.899501,131.337667 L210.841265,122.381 C211.880865,121.339667 211.880865,119.651 210.841265,118.609667 L208.017304,115.781 C206.977704,114.739667 205.291847,114.739667 204.252246,115.781 L195.310483,124.737667 L186.368719,115.781 C185.329118,114.739667 183.643261,114.739667 182.603661,115.781 L179.7797,118.609667 C178.7401,119.651 178.7401,121.339667 179.7797,122.381 L188.721464,131.337667 L179.7797,140.294333 C178.7401,141.335667 178.7401,143.024333 179.7797,144.065667 L182.603661,146.894333 C183.643261,147.935667 185.329118,147.935667 186.368719,146.894333 L195.310483,137.937667 L204.252246,146.894333 C205.291847,147.935667 206.977704,147.935667 208.017304,146.894333 L210.841265,144.065667 C211.880865,143.024333 211.880865,141.335667 210.841265,140.294333 L201.899501,131.337667 Z" id="Shape" stroke="#6C5353" stroke-width="2.60869565" fill="#D28170"></path>
                        </g>
                        <path d="M0.348086522,252.736667 L399.682529,252.736667" id="Shape" stroke="#6C5353" stroke-width="2.59043478" stroke-linecap="round" stroke-linejoin="round"></path>
                    </g>
                    <g id="Capa_1" transform="translate(34.608985, 48.666667)">
                        <path d="M56.9071547,112.406 C56.9071547,105.042 47.9680532,105.073333 36.9404326,105.073333 C25.912812,105.073333 16.9737105,105.666667 16.9737105,112.406 C16.9737105,119.77 25.912812,125.739333 36.9404326,125.739333 C47.9680532,125.739333 56.9071547,119.77 56.9071547,112.406 Z" id="Shape" fill="#938B89" fill-rule="nonzero"></path>
                        <path d="M54.8898502,110.573333 C54.8898502,107.536 47.9680532,105.073333 36.9404326,105.073333 C25.912812,105.073333 19.6945092,106.202667 19.6359401,109.24 C19.5467554,113.889333 25.802995,122.468 36.8299501,122.468 C47.8569052,122.468 54.8898502,113.610667 54.8898502,110.573333 Z" id="Shape" fill="#7C7370" fill-rule="nonzero"></path>
                        <path d="M56.9071547,112.406 C56.9071547,107.166667 47.9680532,103.739333 36.9404326,103.739333 C25.912812,103.739333 16.9737105,106.999333 16.9737105,112.406 C16.9737105,119.77 25.912812,125.739333 36.9404326,125.739333 C47.9680532,125.739333 56.9071547,119.77 56.9071547,112.406 Z" id="Shape" stroke="#6C5353" stroke-width="2.60869565" stroke-linejoin="round"></path>
                        <path d="M60.6615641,121.862 L50.5950083,116.517333 L36.9670549,128.772667 L22.5950083,116.517333 L12.6189684,121.893333 C7.681198,124.554667 4.60166389,129.716667 4.60166389,135.332667 L4.60166389,166.255333 L68.5391015,166.255333 L68.5391015,135.225333 C68.5391015,129.666 65.5214642,124.546667 60.6615641,121.862 Z" id="Shape" fill="#938B89" fill-rule="nonzero"></path>
                        <path d="M60.6615641,121.862 L50.5950083,116.517333 L36.9670549,128.772667 L22.5950083,116.517333 L12.6189684,121.893333 C7.681198,124.554667 4.60166389,129.716667 4.60166389,135.332667 L4.60166389,166.255333 L68.5391015,166.255333 L68.5391015,135.225333 C68.5391015,129.666 65.5214642,124.546667 60.6615641,121.862 Z" id="Shape" stroke="#6C5353" stroke-width="2.60869565" stroke-linejoin="round"></path>
                        <path d="M36.8306156,125.134 L36.8306156,125.134 C33.1547421,125.134 30.1750416,122.149333 30.1750416,118.467333 L30.1750416,102.466667 L43.4861897,102.466667 L43.4861897,118.467333 C43.4861897,122.149333 40.5064892,125.134 36.8306156,125.134 Z" id="Shape" fill="#F1DCAC" fill-rule="nonzero"></path>
                        <path d="M30.1750416,114.835333 L31.7237937,115.884 C34.8758735,118.017333 39.0056572,118.017333 42.1577371,115.884 L43.4861897,114.984667 L43.4861897,107.134 L30.1750416,107.134 L30.1750416,114.835333 Z" id="Shape" fill="#E8C495" fill-rule="nonzero"></path>
                        <path d="M36.8306156,125.134 L36.8306156,125.134 C33.1547421,125.134 30.1750416,122.149333 30.1750416,118.467333 L30.1750416,102.466667 L43.4861897,102.466667 L43.4861897,118.467333 C43.4861897,122.149333 40.5064892,125.134 36.8306156,125.134 Z" id="Shape" stroke="#6C5353" stroke-width="2.60869565"></path>
                        <path d="M36.8306156,122.467333 C29.2539101,122.467333 22.5943428,116.516667 22.5943428,116.516667 L22.7234609,129.888 L50.5943428,129.888 L50.5943428,116.516667 C50.5950083,116.517333 44.4073211,122.467333 36.8306156,122.467333 Z" id="Shape" fill="#938B89" fill-rule="nonzero"></path>
                        <path d="M19.6366057,108.573333 C19.547421,112.816667 22.5950083,116.517333 22.5950083,116.517333 C22.5950083,116.517333 29.2539101,122.468 36.8312812,122.468 C44.4086522,122.468 50.5956739,116.518 50.5956739,116.518 C50.5956739,116.518 54.8905158,113.144 54.8905158,109.167333" id="Shape" stroke="#6C5353" stroke-width="2.60869565" stroke-linecap="round" stroke-linejoin="round"></path>
                        <path d="M15.2505824,139.588667 L15.2505824,166.255333" id="Shape" stroke="#6C5353" stroke-width="2.60869565" stroke-linecap="round" stroke-linejoin="round"></path>
                        <path d="M57.890183,139.588667 L57.890183,166.255333" id="Shape" stroke="#6C5353" stroke-width="2.60869565" stroke-linecap="round" stroke-linejoin="round"></path>
                        <g id="Group" transform="translate(26.622296, 132.666667)" stroke="#6C5353" stroke-width="0.869565217" fill="#6C5353" fill-rule="nonzero">
                            <path d="M10.318802,0.578666667 C4.8046589,0.578666667 0.335440932,5.056 0.335440932,10.5786667 C0.335440932,16.102 4.8046589,20.5786667 10.318802,20.5786667 C15.8329451,20.5786667 20.3021631,16.102 20.3021631,10.5786667 C20.3021631,5.056 15.8329451,0.578666667 10.318802,0.578666667 Z M1.88618968,7.01066667 C2.34675541,5.91933333 3.00698835,4.93866667 3.84758735,4.09666667 C4.68818636,3.25466667 5.6672213,2.59333333 6.75673877,2.13133333 C7.88485857,1.654 9.0828619,1.41133333 10.318802,1.41133333 C11.5547421,1.41133333 12.753411,1.65333333 13.8808652,2.13133333 C14.9703827,2.59333333 15.9487521,3.254 16.7900166,4.09666667 C17.6306156,4.93866667 18.2908486,5.91933333 18.7514143,7.01066667 C19.228619,8.14066667 19.4702163,9.34066667 19.4702163,10.5786667 C19.4702163,10.7526667 19.2998336,10.9866667 19.0023295,11.2213333 C18.5810316,11.554 17.9287854,11.8733333 17.1154742,12.1453333 C16.2462562,12.4353333 15.2279534,12.664 14.0891847,12.8253333 C12.8965058,12.9933333 11.6279534,13.0786667 10.3194676,13.0786667 C9.0109817,13.0786667 7.74176373,12.9933333 6.54975042,12.8253333 C5.4109817,12.664 4.39267887,12.4353333 3.5234609,12.1453333 C2.71014975,11.8733333 2.05723794,11.554 1.63660566,11.2213333 C1.3391015,10.9866667 1.1687188,10.7526667 1.1687188,10.5786667 C1.16738769,9.34066667 1.40898502,8.14066667 1.88618968,7.01066667 Z M18.7514143,14.146 C18.2908486,15.238 17.6306156,16.218 16.7900166,17.0606667 C15.9494176,17.9026667 14.9703827,18.564 13.8808652,19.0253333 C12.7527454,19.5033333 11.5547421,19.7453333 10.318802,19.7453333 C9.0828619,19.7453333 7.88419301,19.5033333 6.75673877,19.0253333 C5.6672213,18.564 4.68885191,17.902 3.84758735,17.0606667 C3.00698835,16.2186667 2.34675541,15.238 1.88618968,14.146 C1.59334443,13.4526667 1.38968386,12.732 1.27520799,11.9926667 C2.86855241,13.1266667 6.31946755,13.9113333 10.318802,13.9113333 C14.3181364,13.9113333 17.7690516,13.1266667 19.3617304,11.9926667 C19.2479201,12.732 19.0442596,13.4526667 18.7514143,14.146 Z" id="Shape"></path>
                            <path d="M14.8139767,9.2 C15.2925125,9.2 15.7384359,9.03933333 16.0678869,8.70866667 C16.8399334,7.93533333 16.6835275,6.52533333 15.7184692,5.55933333 C15.1667221,5.006 14.4685524,4.718 13.8282862,4.718 C13.350416,4.718 12.903827,4.87866667 12.574376,5.20933333 C11.8023295,5.98266667 11.9587354,7.39266667 12.9237937,8.35866667 C13.4762063,8.912 14.1737105,9.2 14.8139767,9.2 Z M13.1627288,5.79866667 C13.3670549,5.59466667 13.6372712,5.55133333 13.8289517,5.55133333 L13.8296173,5.55133333 C14.2715474,5.55133333 14.7574043,5.77466667 15.130782,6.14866667 C15.4595674,6.47733333 15.6738769,6.89666667 15.7184692,7.29866667 C15.7404326,7.49466667 15.7384359,7.86133333 15.4808652,8.11933333 C15.2765391,8.32333333 15.0063228,8.366 14.8146423,8.366 C14.3727121,8.366 13.8861897,8.14266667 13.512812,7.76933333 C13.1840266,7.44 12.9697171,7.02133333 12.9251248,6.61933333 C12.9031614,6.424 12.9044925,6.05666667 13.1627288,5.79866667 Z" id="Shape"></path>
                        </g>
                        <g id="Group" transform="translate(19.966722, 129.333333)" stroke="#6C5353" fill-rule="nonzero" stroke-width="1.79069565" fill="#6C5353" stroke-linecap="round" stroke-linejoin="round">
                            <path d="M0.208985025,0.280666667 L3.97404326,4.052" id="Shape"></path>
                            <path d="M0.208985025,4.052 L3.97404326,0.280666667" id="Shape"></path>
                        </g>
                        <g id="Group" transform="translate(47.920133, 151.333333)" stroke="#6C5353" fill-rule="nonzero" stroke-width="1.79069565" fill="#6C5353" stroke-linecap="round" stroke-linejoin="round">
                            <path d="M0.210981697,0.282 L3.97603993,4.05333333" id="Shape"></path>
                            <path d="M0.210981697,4.05333333 L3.97603993,0.282" id="Shape"></path>
                        </g>
                        <ellipse id="Oval" stroke="#6C5353" stroke-width="1.73913043" stroke-linecap="round" stroke-linejoin="round" cx="41.3603993" cy="160.091333" rx="1.99667221" ry="2"></ellipse>
                        <ellipse id="Oval" stroke="#6C5353" stroke-width="1.73913043" stroke-linecap="round" stroke-linejoin="round" cx="21.3923461" cy="152.090667" rx="1.99667221" ry="2"></ellipse>
                        <path d="M10.9856905,74.2333333 C10.9856905,74.2333333 4.80732113,71.6566667 7.6359401,67.2446667 C7.6359401,67.2446667 -1.67387687,64.53 2.89783694,56.5146667 C2.89783694,56.5146667 -5.73178037,38.77 10.7407654,38.6033333 C10.7407654,38.6033333 9.00432612,33.3286667 12.3174709,27.8326667 C15.6306156,22.3366667 23.2898502,25.666 23.2898502,25.666 C23.2898502,25.666 28.0173045,13.8326667 38.4998336,23.3326667 C38.4998336,23.3326667 47.9840266,14.9993333 52.9757072,25.8326667 C52.9757072,25.8326667 73.5267887,24.8326667 69.5560732,43.666 C69.5560732,43.666 77.8535774,44.3053333 77.8535774,53.9993333 C77.8535774,63.6933333 67.8702163,64.4993333 67.8702163,64.4993333 C67.8702163,64.4993333 69.7450915,74.3 62.9004992,74.2326667 C56.0545757,74.1666667 10.9856905,74.2333333 10.9856905,74.2333333 Z" id="Shape" stroke="#6C5353" stroke-width="2.60869565" fill="#BA9686" fill-rule="nonzero" stroke-linejoin="round"></path>
                        <path d="M10.9856905,87.5666667 L13.6479201,87.5666667 C17.3237937,87.5666667 20.3034942,84.582 20.3034942,80.9 L20.3034942,80.9 C20.3034942,77.218 17.3237937,74.2333333 13.6479201,74.2333333 L10.9856905,74.2333333 C7.30981697,74.2333333 4.33011647,77.218 4.33011647,80.9 L4.33011647,80.9 C4.33011647,84.582 7.30981697,87.5666667 10.9856905,87.5666667 Z" id="Shape" stroke="#6C5353" stroke-width="2.60869565" fill="#F1DCAC" fill-rule="nonzero"></path>
                        <path d="M60.2369384,87.5666667 L62.8991681,87.5666667 C66.5750416,87.5666667 69.5547421,84.582 69.5547421,80.9 L69.5547421,80.9 C69.5547421,77.218 66.5750416,74.2333333 62.8991681,74.2333333 L60.2369384,74.2333333 C56.5610649,74.2333333 53.5813644,77.218 53.5813644,80.9 L53.5813644,80.9 C53.5813644,84.582 56.5610649,87.5666667 60.2369384,87.5666667 Z" id="Shape" stroke="#6C5353" stroke-width="2.60869565" fill="#F1DCAC" fill-rule="nonzero"></path>
                        <path d="M57.4655574,100.856 L42.1577371,111.217333 C39.0056572,113.350667 34.8758735,113.350667 31.7237937,111.217333 L16.4159734,100.856 C13.8515807,99.1206667 12.3148087,96.2226667 12.3148087,93.1226667 L12.3148087,48.08 L61.5660566,48.08 L61.5660566,93.122 C61.5667221,96.2226667 60.0299501,99.12 57.4655574,100.856 Z" id="Shape" fill="#F1DCAC" fill-rule="nonzero"></path>
                        <path d="M61.5667221,62.6606667 L61.5667221,49.04 L12.3154742,49.04 L12.3154742,63.792 C14.2668885,63.5973333 16.4599002,62.8926667 18.1198003,61.0086667 C18.1198003,61.0086667 23.472213,64.7786667 28.1996672,59.4726667 C28.1996672,59.4726667 31.9707155,63.612 36.9410982,59.4726667 C36.9410982,59.4726667 44.2742097,64.12 50.8299501,60.1433333 C50.8299501,60.1433333 55.6592346,63.3446667 61.5667221,62.6606667 Z" id="Shape" fill="#E8C495" fill-rule="nonzero"></path>
                        <path d="M57.4655574,100.856 L42.1577371,111.217333 C39.0056572,113.350667 34.8758735,113.350667 31.7237937,111.217333 L16.4159734,100.856 C13.8515807,99.1206667 12.3148087,96.2226667 12.3148087,93.1226667 L12.3148087,48.08 L61.5660566,48.08 L61.5660566,93.122 C61.5667221,96.2226667 60.0299501,99.12 57.4655574,100.856 Z" id="Shape" stroke="#6C5353" stroke-width="2.60869565"></path>
                        <ellipse id="Oval" fill="#6C5353" fill-rule="nonzero" cx="25.5374376" cy="77.4666667" rx="2.66222962" ry="2.66666667"></ellipse>
                        <ellipse id="Oval" fill="#6C5353" fill-rule="nonzero" cx="48.1677205" cy="77.4666667" rx="2.66222962" ry="2.66666667"></ellipse>
                        <path d="M32.2821963,90.3833333 C32.2821963,92.5926667 34.0698835,94.3833333 36.2755408,94.3833333 L37.6066556,94.3833333 C39.8123128,94.3833333 41.6,92.5926667 41.6,90.3833333" id="Shape" stroke="#6C5353" stroke-width="2.60869565" stroke-linecap="round"></path>
                        <path d="M29.5853577,97.752 C31.6166389,99.2513333 34.1650582,100.152667 36.9410982,100.152667 C39.7171381,100.152667 42.2655574,99.2513333 44.2968386,97.752" id="Shape" stroke="#6C5353" stroke-width="2.60869565" stroke-linecap="round"></path>
                        <path d="M34.4219634,104.556 C35.234609,104.722 36.075208,104.819333 36.9410982,104.819333 C37.8069884,104.819333 38.6475874,104.722 39.4602329,104.556" id="Shape" stroke="#6C5353" stroke-width="2.60869565" stroke-linecap="round"></path>
                        <path d="M38.828619,74.8 C38.0159734,74.634 37.8069884,74.554 36.9410982,74.554 C36.075208,74.554 35.6459235,74.6333333 34.8326123,74.8" id="Shape" stroke="#6C5353" stroke-width="2.60869565" stroke-linecap="round"></path>
                        <path d="M19.547421,68.3193333 L31.5274542,66.1706667" id="Shape" stroke="#6C5353" stroke-width="2.60869565" stroke-linecap="round"></path>
                        <path d="M54.1577371,68.3193333 L42.1777038,66.1706667" id="Shape" stroke="#6C5353" stroke-width="2.60869565" stroke-linecap="round"></path>
                        <path d="M55.8049917,82.6666667 L41.1627288,82.6666667 C40.4272879,82.6666667 39.831614,82.07 39.831614,81.3333333 L39.831614,73.3333333 C39.831614,72.5966667 40.4272879,72 41.1627288,72 L55.8049917,72 C56.5404326,72 57.1361065,72.5966667 57.1361065,73.3333333 L57.1361065,81.3333333 C57.1361065,82.07 56.5404326,82.6666667 55.8049917,82.6666667 Z" id="Shape" stroke="#6C5353" stroke-width="2.60869565" stroke-linecap="round"></path>
                        <path d="M32.5091514,82.6666667 L17.8668885,82.6666667 C17.1314476,82.6666667 16.5357737,82.07 16.5357737,81.3333333 L16.5357737,73.3333333 C16.5357737,72.5966667 17.1314476,72 17.8668885,72 L32.5091514,72 C33.2445923,72 33.8402662,72.5966667 33.8402662,73.3333333 L33.8402662,81.3333333 C33.8402662,82.07 33.2445923,82.6666667 32.5091514,82.6666667 Z" id="Shape" stroke="#6C5353" stroke-width="2.60869565" stroke-linecap="round"></path>
                        <path d="M7.63527454,45.04 L7.63527454,59.4313333 C7.63527454,59.4313333 14.2948419,61.35 18.1198003,57.0086667 C18.1198003,57.0086667 23.472213,60.7786667 28.1996672,55.4726667 C28.1996672,55.4726667 31.9707155,59.612 36.9410982,55.4726667 C36.9410982,55.4726667 44.2742097,60.12 50.8299501,56.1433333 C50.8299501,56.1433333 57.8848586,60.8266667 65.3723794,57.6633333 L65.3723794,45.04 L7.63527454,45.04 Z" id="Shape" fill="#BA9686" fill-rule="nonzero"></path>
                        <path d="M7.63527454,59.4313333 C7.63527454,59.4313333 14.2948419,61.35 18.1198003,57.0086667 C18.1198003,57.0086667 23.472213,60.7786667 28.1996672,55.4726667 C28.1996672,55.4726667 31.9707155,59.612 36.9410982,55.4726667 C36.9410982,55.4726667 44.2742097,60.12 50.8299501,56.1433333 C50.8299501,56.1433333 57.8848586,60.8266667 65.3723794,57.6633333" id="Shape" stroke="#6C5353" stroke-width="2.60869565" stroke-linecap="round" stroke-linejoin="round"></path>
                        <path d="M36.9410982,54.1393333 C36.9410982,54.1393333 33.2472546,60 30.1750416,60.3333333 C27.1028286,60.6666667 38.9584027,63.0126667 41.6,56.006" id="Shape" stroke="#6C5353" stroke-width="2.60869565" fill="#BA9686" fill-rule="nonzero" stroke-linecap="round" stroke-linejoin="round"></path>
                        <g id="Group" transform="translate(73.211314, 0.000000)" fill-rule="nonzero">
                            <path d="M40.452579,23.174 L40.452579,4.95733333 C40.452579,2.43466667 38.3993344,0.378 35.8808652,0.378 L5.09151414,0.378 C2.57304493,0.378 0.519800333,2.43466667 0.519800333,4.95733333 L0.519800333,23.174 C0.519800333,25.6966667 2.57304493,27.7533333 5.09151414,27.7533333 L6.39600666,27.7533333 L6.39600666,33.2446667 C6.39600666,34.258 7.21530782,35.0786667 8.23693844,35.0786667 L8.23693844,35.0786667 C8.76272879,35.0786667 9.26855241,34.8453333 9.62262895,34.4406667 L15.3983361,27.7433333 L35.8908486,27.7433333 C38.3993344,27.7533333 40.452579,25.6966667 40.452579,23.174 Z" id="Shape" stroke="#6C5353" stroke-width="2.60869565" fill="#FFFFFF" stroke-linejoin="round"></path>
                            <g transform="translate(11.314476, 11.333333)" id="Oval" fill="#6C5353">
                                <ellipse cx="15.8276206" cy="2.50133333" rx="1.99667221" ry="2"></ellipse>
                                <ellipse cx="9.17138103" cy="2.50133333" rx="1.99667221" ry="2"></ellipse>
                                <ellipse cx="2.51514143" cy="2.50133333" rx="1.99667221" ry="2"></ellipse>
                            </g>
                        </g>
                    </g>
                    <g id="Capa_3" transform="translate(13.311148, 166.000000)">
                        <g id="Group" transform="translate(113.144759, 15.333333)" stroke="#6C5353" fill-rule="nonzero">
                            <path d="M45.8675541,39.1726667 L47.9973378,39.1726667 C50.9377704,39.1726667 53.321797,36.7846667 53.321797,33.8393333 L53.321797,33.8393333 C53.321797,30.894 50.9377704,28.506 47.9973378,28.506 L45.8675541,28.506 C42.9271215,28.506 40.5430948,30.894 40.5430948,33.8393333 L40.5430948,33.8393333 C40.5430948,36.7853333 42.9271215,39.1726667 45.8675541,39.1726667 Z" id="Shape" stroke-width="2.08695652" fill="#F1DCAC"></path>
                            <path d="M5.93144759,39.1726667 L8.06123128,39.1726667 C11.0016639,39.1726667 13.3856905,36.7846667 13.3856905,33.8393333 L13.3856905,33.8393333 C13.3856905,30.894 11.0016639,28.506 8.06123128,28.506 L5.93144759,28.506 C2.99101498,28.506 0.606988353,30.894 0.606988353,33.8393333 L0.606988353,33.8393333 C0.606988353,36.7853333 2.99101498,39.1726667 5.93144759,39.1726667 Z" id="Shape" stroke-width="2.08695652" fill="#F1DCAC"></path>
                            <path d="M26.9657238,0.238666667 L26.9657238,0.238666667 C15.9381032,0.238666667 6.99900166,9.19266667 6.99900166,20.2386667 L6.99900166,56.9413333 L46.9324459,56.9413333 L46.9324459,20.2386667 C46.9324459,9.19333333 37.9926789,0.238666667 26.9657238,0.238666667 Z" id="Shape" stroke-width="2.60869565" fill="#BA9686" stroke-linejoin="round"></path>
                        </g>
                        <g id="Group" transform="translate(299.500832, 15.333333)" stroke="#6C5353" fill-rule="nonzero">
                            <path d="M45.8795341,39.1726667 L48.0093178,39.1726667 C50.9497504,39.1726667 53.333777,36.7846667 53.333777,33.8393333 L53.333777,33.8393333 C53.333777,30.894 50.9497504,28.506 48.0093178,28.506 L45.8795341,28.506 C42.9391015,28.506 40.5550749,30.894 40.5550749,33.8393333 L40.5550749,33.8393333 C40.5550749,36.7853333 42.9384359,39.1726667 45.8795341,39.1726667 Z" id="Shape" stroke-width="2.08695652" fill="#F1DCAC"></path>
                            <path d="M5.94342762,39.1726667 L8.07321131,39.1726667 C11.0136439,39.1726667 13.3976705,36.7846667 13.3976705,33.8393333 L13.3976705,33.8393333 C13.3976705,30.894 11.0136439,28.506 8.07321131,28.506 L5.94342762,28.506 C3.00299501,28.506 0.618968386,30.894 0.618968386,33.8393333 L0.618968386,33.8393333 C0.618968386,36.7853333 3.00232945,39.1726667 5.94342762,39.1726667 Z" id="Shape" stroke-width="2.08695652" fill="#F1DCAC"></path>
                            <path d="M26.9777038,0.238666667 L26.9777038,0.238666667 C15.9500832,0.238666667 7.0109817,9.19266667 7.0109817,20.2386667 L7.0109817,56.9413333 L46.944426,56.9413333 L46.944426,20.2386667 C46.944426,9.19333333 38.0046589,0.238666667 26.9777038,0.238666667 Z" id="Shape" stroke-width="2.60869565" fill="#BA9686" stroke-linejoin="round"></path>
                        </g>
                        <g id="Group" transform="translate(206.322795, 16.666667)" stroke="#6C5353" stroke-width="2.60869565">
                            <path d="M5.78103161,38.3086667 L7.95407654,38.3086667 C10.9544093,38.3086667 13.3870216,35.872 13.3870216,32.8666667 L13.3870216,32.8666667 C13.3870216,29.8613333 10.9544093,27.4246667 7.95407654,27.4246667 L5.78103161,27.4246667 C2.78069884,27.4246667 0.348086522,29.8613333 0.348086522,32.8666667 L0.348086522,32.8666667 C0.348086522,35.8726667 2.78069884,38.3086667 5.78103161,38.3086667 Z" id="Shape" fill="#F1DCAC" fill-rule="nonzero"></path>
                            <path d="M45.9860233,38.3086667 L48.1590682,38.3086667 C51.159401,38.3086667 53.5920133,35.872 53.5920133,32.8666667 L53.5920133,32.8666667 C53.5920133,29.8613333 51.159401,27.4246667 48.1590682,27.4246667 L45.9860233,27.4246667 C42.9856905,27.4246667 40.5530782,29.8613333 40.5530782,32.8666667 L40.5530782,32.8666667 C40.5530782,35.8726667 42.9856905,38.3086667 45.9860233,38.3086667 Z" id="Shape" fill="#F1DCAC" fill-rule="nonzero"></path>
                            <path d="M48.1597338,20.2146667 C48.1597338,9.094 38.6728785,0.0786666667 26.9703827,0.0786666667 L26.9703827,0.0786666667 C15.2678869,0.0786666667 5.78103161,9.094 5.78103161,20.2146667 L5.78103161,32.8666667 L5.78369384,32.8666667 C5.78369384,32.9066667 5.78103161,32.946 5.78103161,32.986 C5.78103161,47.874 15.2678869,59.9433333 26.9703827,59.9433333 C38.6728785,59.9433333 48.1597338,47.874 48.1597338,32.986 C48.1597338,32.946 48.1577371,32.9066667 48.1570715,32.8666667 L48.1597338,32.8666667 L48.1597338,20.2146667 Z" id="Shape" fill="#F1DCAC" fill-rule="nonzero"></path>
                            <path d="M48.1597338,20.2146667 C48.1597338,9.094 38.6728785,0.0786666667 26.9703827,0.0786666667 L26.9703827,0.0786666667 C15.2678869,0.0786666667 5.78103161,9.094 5.78103161,20.2146667 L5.78103161,32.8666667 L5.78369384,32.8666667 C5.78369384,32.9066667 5.78103161,32.946 5.78103161,32.986 C5.78103161,47.874 15.2678869,59.9433333 26.9703827,59.9433333 C38.6728785,59.9433333 48.1597338,47.874 48.1597338,32.986 C48.1597338,32.946 48.1577371,32.9066667 48.1570715,32.8666667 L48.1597338,32.8666667 L48.1597338,20.2146667 Z" id="Shape"></path>
                        </g>
                        <g id="Group" transform="translate(19.966722, 0.000000)">
                            <path d="M5.76905158,53.3813333 L7.94209651,53.3813333 C10.9424293,53.3813333 13.3750416,50.9446667 13.3750416,47.9393333 L13.3750416,47.9393333 C13.3750416,44.934 10.9424293,42.4973333 7.94209651,42.4973333 L5.76905158,42.4973333 C2.7687188,42.4973333 0.336106489,44.934 0.336106489,47.9393333 L0.336106489,47.9393333 C0.336106489,50.9453333 2.7687188,53.3813333 5.76905158,53.3813333 Z" id="Shape" stroke="#6C5353" stroke-width="2.60869565" fill="#F1DCAC" fill-rule="nonzero"></path>
                            <path d="M45.9747088,53.3813333 L48.1477537,53.3813333 C51.1480865,53.3813333 53.5806988,50.9446667 53.5806988,47.9393333 L53.5806988,47.9393333 C53.5806988,44.934 51.1480865,42.4973333 48.1477537,42.4973333 L45.9747088,42.4973333 C42.974376,42.4973333 40.5417637,44.934 40.5417637,47.9393333 L40.5417637,47.9393333 C40.5410982,50.9453333 42.9737105,53.3813333 45.9747088,53.3813333 Z" id="Shape" stroke="#6C5353" stroke-width="2.60869565" fill="#F1DCAC" fill-rule="nonzero"></path>
                            <path d="M43.7131448,65.8526667 L31.2166389,74.3106667 C28.643594,76.052 25.2725458,76.052 22.6995008,74.3106667 L10.202995,65.8526667 C8.10981697,64.436 6.85524126,62.0706667 6.85524126,59.54 L6.85524126,22.7706667 L47.0602329,22.7706667 L47.0602329,59.54 C47.0608985,62.0706667 45.8069884,64.436 43.7131448,65.8526667 Z" id="Shape" fill="#F1DCAC" fill-rule="nonzero"></path>
                            <path d="M43.7131448,65.8526667 L31.2166389,74.3106667 C28.643594,76.052 25.2725458,76.052 22.6995008,74.3106667 L10.202995,65.8526667 C8.10981697,64.436 6.85524126,62.0706667 6.85524126,59.54 L6.85524126,22.7706667 L47.0602329,22.7706667 L47.0602329,59.54 C47.0608985,62.0706667 45.8069884,64.436 43.7131448,65.8526667 Z" id="Shape" stroke="#6C5353" stroke-width="2.12956522"></path>
                            <path d="M47.0608985,48.964 C47.0608985,48.964 53.6579035,36.1753333 50.8512479,20.2886667 C48.0439268,4.402 21.2878536,-0.858666667 19.4688852,0.774 C17.6499168,2.40666667 22.4971714,7.93933333 22.4971714,7.93933333 C22.4971714,7.93933333 12.1557404,1.49933333 10.0425957,2.67866667 C7.92945092,3.858 13.0003328,10.298 13.0003328,10.298 C13.0003328,10.298 5.48419301,6.57933333 3.13011647,8.39333333 C0.776039933,10.2073333 5.93344426,15.3893333 5.93344426,15.3893333 C5.93344426,15.3893333 -5.2,28.1026667 6.85657238,48.9646667 L47.0608985,48.9646667 L47.0608985,48.964 Z" id="Shape" stroke="#6C5353" stroke-width="2.60869565" fill="#BA9686" fill-rule="nonzero" stroke-linejoin="round"></path>
                        </g>
                        <path d="M93.5141431,86.6653333 L0.336106489,86.6653333 L0.336106489,55.66 C0.336106489,51.978 3.31580699,48.9933333 6.99168053,48.9933333 L86.8585691,48.9933333 C90.5344426,48.9933333 93.5141431,51.978 93.5141431,55.66 L93.5141431,86.6653333 Z" id="Shape" stroke="#6C5353" stroke-width="2.60869565" fill="#F9F3E5" fill-rule="nonzero" stroke-linejoin="round"></path>
                        <path d="M186.69817,86.6653333 L93.5201331,86.6653333 L93.5201331,55.66 C93.5201331,51.978 96.4998336,48.9933333 100.175707,48.9933333 L180.042596,48.9933333 C183.718469,48.9933333 186.69817,51.978 186.69817,55.66 L186.69817,86.6653333 Z" id="Shape" stroke="#6C5353" stroke-width="2.60869565" fill="#F9F3E5" fill-rule="nonzero" stroke-linejoin="round"></path>
                        <path d="M279.882196,86.6653333 L186.70416,86.6653333 L186.70416,55.66 C186.70416,51.978 189.68386,48.9933333 193.359734,48.9933333 L273.226622,48.9933333 C276.902496,48.9933333 279.882196,51.978 279.882196,55.66 L279.882196,86.6653333 Z" id="Shape" stroke="#6C5353" stroke-width="2.60869565" fill="#F9F3E5" fill-rule="nonzero" stroke-linejoin="round"></path>
                        <path d="M373.066223,86.6653333 L279.888186,86.6653333 L279.888186,55.66 C279.888186,51.978 282.867887,48.9933333 286.54376,48.9933333 L366.410649,48.9933333 C370.086522,48.9933333 373.066223,51.978 373.066223,55.66 L373.066223,86.6653333 Z" id="Shape" stroke="#6C5353" stroke-width="2.60869565" fill="#F9F3E5" fill-rule="nonzero" stroke-linejoin="round"></path>
                    </g>
                </g>
            </g>
        </g>
    </g>
</svg>