<?xml version="1.0" encoding="UTF-8"?>
<svg width="22px" height="24px" viewBox="0 0 22 24" version="1.1" xmlns="http://www.w3.org/2000/svg" xmlns:xlink="http://www.w3.org/1999/xlink">
    <!-- Generator: Sketch 43.1 (39012) - http://www.bohemiancoding.com/sketch -->
    <title>Combined Shape</title>
    <desc>Created with Sketch.</desc>
    <defs></defs>
    <g id="Page-1" stroke="none" stroke-width="1" fill="none" fill-rule="evenodd">
        <g id="Website" transform="translate(-532.000000, -3233.000000)" fill="#78C1E2">
            <g id="Ponentes" transform="translate(1.000000, 1844.000000)">
                <g id="Group-14" transform="translate(251.000000, 1112.000000)">
                    <g id="Group-9-Copy-2" transform="translate(280.000000, 0.000000)">
                        <g id="Group-12" transform="translate(0.000000, 272.000000)">
                            <path d="M19.583999,11.2067931 L21.5138167,11.6704157 C22.1195854,11.8159465 22.1514524,12.1320895 21.5838137,12.3770501 L19.826845,13.1352578 C19.8291158,13.2232581 19.8302622,13.3118385 19.8302622,13.4009925 C19.8302622,19.1269496 16.3376727,24.3422788 10.6447357,25.0372676 L11.4884788,26.5814445 L13.7556967,26.5814445 C14.4254792,26.5814445 14.9684452,27.1182004 14.9684452,27.7907223 C14.9684452,28.4585879 14.4228487,29 13.7556967,29 L7.45925254,29 C6.78947,29 6.24650398,28.4632442 6.24650398,27.7907223 C6.24650398,27.1228566 6.79210046,26.5814445 7.45925254,26.5814445 L8.71331564,26.5814445 L7.87128939,25.0404097 C4.91190703,24.7242743 2.11555312,23.3483499 0.628737544,19.7254772 C-1.28975028,15.0507634 1.69086585,8.55759367 2.80225081,8.78834566 C3.91363577,9.01909765 2.80225081,12.575584 5.24154832,12.575584 C7.68084583,12.575584 6.45026983,6.43963227 11.2955788,5.16229182 C14.454259,4.32958742 18.5483798,6.75483115 19.583999,11.2067931 Z M13.3826377,13.2793895 C14.4774093,13.2793895 15.3648971,12.377036 15.3648971,11.2639266 C15.3648971,10.1508172 14.4774093,9.24846373 13.3826377,9.24846373 C12.2878661,9.24846373 11.4003783,10.1508172 11.4003783,11.2639266 C11.4003783,12.377036 12.2878661,13.2793895 13.3826377,13.2793895 Z" id="Combined-Shape"></path>
                        </g>
                    </g>
                </g>
            </g>
        </g>
    </g>
</svg>